<?xml version="1.0" standalone="no"?>
<!DOCTYPE svg PUBLIC "-//W3C//DTD SVG 1.1//EN" "http://www.w3.org/Graphics/SVG/1.1/DTD/svg11.dtd" >
<svg xmlns="http://www.w3.org/2000/svg" xmlns:xlink="http://www.w3.org/1999/xlink" version="1.1">
<metadata>
Created by FontForge 20170731 at Mon Aug 23 11:11:00 2021
 By Aleksey,,,
Copyright (c) 2015, Saber Rastikerdar &#60;saber.rastikerdar@gmail.com&#62;.
</metadata>
<defs>
<font id="Vazir-Light-FD" horiz-adv-x="0" >
  <font-face 
    font-family="Vazir Light FD"
    font-weight="300"
    font-stretch="normal"
    units-per-em="2048"
    panose-1="0 0 0 0 0 0 0 0 0 0"
    ascent="1638"
    descent="-410"
    x-height="1067"
    cap-height="1441"
    bbox="-945 -1093 2985 1954"
    underline-thickness="100"
    underline-position="-880"
    unicode-range="U+0002-FFFD"
  />
<missing-glyph horiz-adv-x="1024" 
d="M102 -410v2048h820v-2048h-820zM204 -308h616v1844h-616v-1844z" />
    <glyph glyph-name="uni0622" unicode="&#x627;&#x653;" horiz-adv-x="465" 
d="M119 1424q-51 0 -89 -37t-90 -94l-74 67q33 37 71 77t78.5 67.5t79.5 27.5q41 0 82 -21.5t82.5 -43t84.5 -21.5q34 0 55.5 6t44.5 23.5t62 49.5l65 -85q-135 -101 -205 -101q-39 0 -81 21t-84 42.5t-82 21.5zM163 1201h139v-1200h-139v1200z" />
    <glyph glyph-name="uni0623" unicode="&#x627;&#x654;" horiz-adv-x="465" 
d="M156 1355q-34 33 -58 73.5t-24 98.5q0 37 10.5 66.5t28.5 52.5q25 30 61.5 46t74.5 16t62 -9t50 -24l1 -82q-51 25 -99 25q-19 0 -42 -6.5t-41 -22.5q-13 -12 -21 -30.5t-8 -44.5q0 -36 24.5 -67.5t75.5 -46.5q4 -1 10 -3t14 -2q7 0 12 1l113 23v-83l-364 -87v78z
M163 1143.28h139v-1140.42h-139v1140.42z" />
    <glyph glyph-name="uni0624" unicode="&#x648;&#x654;" horiz-adv-x="880" 
d="M346 965q-34 33 -58 73.5t-24 98.5q0 37 10.5 66.5t28.5 52.5q25 30 61.5 46t74.5 16t62 -9t50 -24l1 -82q-51 25 -99 25q-19 0 -42 -6.5t-41 -22.5q-13 -12 -21 -30.5t-8 -44.5q0 -36 24.5 -67.5t75.5 -46.5q4 -1 10 -3t14 -2q7 0 12 1l113 23v-83l-364 -87v78zM631 32
q-37 -12 -89.5 -22t-93.5 -10q-335 0 -335 281q0 97 34.5 189t104.5 152t176 60q115 0 190 -75t112 -196t37 -260q0 -271 -147 -449t-442 -238l-49 126q225 46 350 163t152 279zM632 173q-11 169 -60.5 265.5t-151.5 96.5q-69 0 -106.5 -44.5t-51.5 -103.5t-14 -101
q0 -78 53.5 -109t151.5 -31q89 0 179 27z" />
    <glyph glyph-name="uni0625" unicode="&#x627;&#x655;" horiz-adv-x="465" 
d="M142 -488q-34 33 -58 73.5t-24 98.5q0 37 10.5 66.5t28.5 52.5q25 30 61.5 46t74.5 16t62 -9t50 -24l1 -82q-51 25 -99 25q-19 0 -42 -6.5t-41 -22.5q-13 -12 -21 -30.5t-8 -44.5q0 -36 24.5 -67.5t75.5 -46.5q4 -1 10 -3t14 -2q7 0 12 1l113 23v-83l-364 -87v78z
M164 1336h139v-1335h-139v1335z" />
    <glyph glyph-name="uni0626" unicode="&#x64a;&#x654;" horiz-adv-x="1477" 
d="M522 759q-34 33 -58 73.5t-24 98.5q0 37 10.5 66.5t28.5 52.5q25 30 61.5 46t74.5 16t62 -9t50 -24l1 -82q-51 25 -99 25q-19 0 -42 -6.5t-41 -22.5q-13 -12 -21 -30.5t-8 -44.5q0 -36 24.5 -67.5t75.5 -46.5q4 -1 10 -3t14 -2q7 0 12 1l113 23v-83l-364 -87v78zM342 452
q-88 -219 -88 -395q0 -210 114.5 -309.5t345.5 -100.5q87 0 178 16.5t168 51t124.5 89t47.5 129.5q0 48 -23.5 65.5t-70.5 17.5h-164q-231 0 -231 232q0 117 52.5 219.5t151 166t235.5 63.5q27 0 75.5 -4t97.5 -22l-26 -137q-42 11 -81 14t-66 3q-85 0 -143 -30.5t-92.5 -77
t-49.5 -96t-15 -86.5q0 -48 21.5 -73.5t80.5 -25.5h180q112 -1 155.5 -64t43.5 -161q0 -132 -83.5 -230t-228.5 -152t-332 -54q-291 0 -448.5 140t-157.5 423q0 102 25 209.5t76 230.5z" />
    <glyph glyph-name="uni06C0" unicode="&#x647;&#x654;" horiz-adv-x="922" 
d="M187 1179q26 -12 58.5 -19t74.5 -7q59 0 116.5 16.5t95.5 49t38 79.5q0 20 -18.5 26t-34.5 6h-72q-120 0 -120 120q0 100 69.5 160t159.5 60q14 0 38.5 -3.5t49.5 -12.5l-16 -76q-20 5 -38.5 7.5t-33.5 2.5q-67 0 -108 -42t-41 -89q0 -22 8.5 -33t36.5 -11h90
q52 0 79 -27t27 -68q0 -119 -91 -182.5t-237 -63.5q-50 0 -92 8t-76 23zM372 886q211 -167 324 -304.5t113 -272.5q0 -139 -95 -222t-253 -83q-162 0 -255 78t-93 227q0 106 60 202.5t171 220.5l-51 47zM447 630q-96 -85 -146.5 -164t-50.5 -152q0 -76 52 -120t158 -44
q212 0 212 165q0 69 -58.5 148.5t-166.5 166.5z" />
    <glyph glyph-name="uniFBA5.fina" unicode="&#xfeea;&#x654;" horiz-adv-x="1038" arabic-form="final" 
d="M331 1150q26 -12 58.5 -19t74.5 -7q59 0 116.5 16.5t95.5 49t38 79.5q0 20 -18.5 26t-34.5 6h-72q-120 0 -120 120q0 100 69.5 160t159.5 60q14 0 38.5 -3.5t49.5 -12.5l-16 -76q-20 5 -38.5 7.5t-33.5 2.5q-67 0 -108 -42t-41 -89q0 -22 8.5 -33t36.5 -11h90
q52 0 79 -27t27 -68q0 -119 -91 -182.5t-237 -63.5q-50 0 -92 8t-76 23zM113 397q0 284 509 442l-7 43l130 27l79 -573q12 -87 64 -136.5t139 -49.5h31v-150h-35q-147 0 -216.5 65t-96.5 185q-57 -53 -127.5 -85.5t-151.5 -32.5q-134 0 -226 64t-92 201zM643 709
q-176 -65 -281 -136.5t-105 -163.5q0 -69 45.5 -104t122.5 -35q57 0 115 23t97 67t39 107q0 32 -4 60z" />
    <glyph glyph-name="uniFDF2" unicode="&#x627;&#xfedf;&#xfee0;&#xfeea;" horiz-adv-x="2513" arabic-form="isolated" 
d="M1263 1486.79v274.396h69v-274.396h-69zM1332 1405q1 -43 5 -85.5t20.5 -70.5t54.5 -28q40 0 57.5 28.5t17.5 79.5q0 37 -16 112l74 12q16 -57 16 -114q0 -194 -140 -195q-81 0 -111 71q-16 -62 -54.5 -88.5t-92.5 -26.5q-130 0 -130 170q0 48 11 92l63 -11
q-4 -22 -5.5 -41t-1.5 -36q0 -91 75 -91q46 0 66 27t24.5 70.5t4.5 92.5v32h62zM113 397q0 284 509 442l-7 43l130 27l79 -573q12 -87 64 -136.5t139 -49.5h31v-150h-35q-147 0 -216.5 65t-96.5 185q-57 -53 -127.5 -85.5t-151.5 -32.5q-134 0 -226 64t-92 201zM643 709
q-176 -65 -281 -136.5t-105 -163.5q0 -69 45.5 -104t122.5 -35q57 0 115 23t97 67t39 107q0 32 -4 60zM1310 136q-39 -80 -97.5 -108t-151.5 -28h-41v150h43q84 0 121.5 31.5t47.5 90.5t10 142v605h139v-605q0 -82 8.5 -141t42.5 -91t109 -32h43v-150h-40q-91 0 -145.5 31
t-88.5 105zM1546 0v150h30q106 0 140 66t34 172v784h139v-782q0 -191 -67.5 -290.5t-245.5 -99.5h-30zM2210 1336h139v-1335h-139v1335z" />
    <glyph glyph-name="uniFE70" unicode="&#x20;&#x64b;" horiz-adv-x="592" arabic-form="isolated" 
d="M67 1173v88l440 180v-87zM67 961v88l440 180v-87z" />
    <glyph glyph-name="uniFE71" unicode="&#x640;&#x64b;" horiz-adv-x="592" arabic-form="medial" 
d="M286 0v150h326v-150h-326zM-20 0v150h326v-150h-326zM67 1173v88l440 180v-87zM67 961v88l440 180v-87z" />
    <glyph glyph-name="uniFE72" unicode="&#x20;&#x64c;" horiz-adv-x="743" arabic-form="isolated" 
d="M341 1111q0 70 44 112.5t112 42.5t111 -42.5t43 -113.5q0 -31 -8.5 -64t-21.5 -63q27 -4 46 -5v-61q-15 1 -33 3t-39 6q-47 -66 -135 -105.5t-183 -39.5q-68 0 -92 36.5t-24 98.5q0 26 3.5 57t8.5 61l-108 -25l6 67l171 40q-10 -53 -18 -102t-8 -86q0 -36 13.5 -60
t48.5 -24q64 0 136 24.5t121 73.5q-76 13 -135 55t-59 114zM558 996q11 26 20.5 56t9.5 57q0 39 -25.5 65.5t-61.5 26.5q-41 0 -68 -26t-27 -68q0 -33 24.5 -54.5t59.5 -34.5t68 -22z" />
    <glyph glyph-name="uniFE74" unicode="&#x20;&#x64d;" horiz-adv-x="592" arabic-form="isolated" 
d="M79 -395v88l441 180v-88zM79 -607v88l441 180v-88z" />
    <glyph glyph-name="uniFE76" unicode="&#x20;&#x64e;" horiz-adv-x="592" arabic-form="isolated" 
d="M65 989v88l441 180v-88z" />
    <glyph glyph-name="uniFE77" unicode="&#x640;&#x64e;" horiz-adv-x="592" arabic-form="medial" 
d="M65 989v88l441 180v-88zM286 0v150h326v-150h-326zM-20 0v150h326v-150h-326z" />
    <glyph glyph-name="uniFE78" unicode="&#x20;&#x64f;" horiz-adv-x="592" arabic-form="isolated" 
d="M508 987q-41 0 -76 6q-48 -67 -139 -104.5t-213 -45.5v63q213 21 294 106q-72 13 -133 54t-61 112t44 113t112 42q67 0 111 -42.5t44 -113.5q0 -30 -8 -62t-21 -63q11 -1 22.5 -3t23.5 -2v-60zM397 1063q11 26 20.5 56t9.5 57q0 40 -25.5 65.5t-61.5 25.5
q-41 0 -68 -25.5t-27 -67.5q0 -33 24.5 -54.5t59.5 -34.5t68 -22z" />
    <glyph glyph-name="uniFE79" unicode="&#x640;&#x64f;" horiz-adv-x="592" arabic-form="medial" 
d="M286 0v150h326v-150h-326zM-20 0v150h326v-150h-326zM508 987q-41 0 -76 6q-48 -67 -139 -104.5t-213 -45.5v63q213 21 294 106q-72 13 -133 54t-61 112t44 113t112 42q67 0 111 -42.5t44 -113.5q0 -30 -8 -62t-21 -63q11 -1 22.5 -3t23.5 -2v-60zM397 1063
q11 26 20.5 56t9.5 57q0 40 -25.5 65.5t-61.5 25.5q-41 0 -68 -25.5t-27 -67.5q0 -33 24.5 -54.5t59.5 -34.5t68 -22z" />
    <glyph glyph-name="uniFE7A" unicode="&#x20;&#x650;" horiz-adv-x="592" arabic-form="isolated" 
d="M67 -391v88l440 180v-87z" />
    <glyph glyph-name="uniFE7B" unicode="&#x640;&#x650;" horiz-adv-x="592" arabic-form="medial" 
d="M67 -391v88l440 180v-87zM286 0v150h326v-150h-326zM-20 0v150h326v-150h-326z" />
    <glyph glyph-name="uniFE7C" unicode="&#x20;&#x651;" horiz-adv-x="592" arabic-form="isolated" 
d="M333 1136q1 -43 5 -85.5t20.5 -70.5t54.5 -28q40 0 57.5 28.5t17.5 79.5q0 37 -16 112l74 12q16 -57 16 -114q0 -194 -140 -195q-81 0 -111 71q-16 -62 -54.5 -88.5t-92.5 -26.5q-130 0 -130 170q0 48 11 92l63 -11q-4 -22 -5.5 -41t-1.5 -36q0 -91 75 -91q46 0 66 27
t24.5 70.5t4.5 92.5v32h62z" />
    <glyph glyph-name="uniFE7D" unicode="&#x640;&#x651;" horiz-adv-x="592" arabic-form="medial" 
d="M333 1136q1 -43 5 -85.5t20.5 -70.5t54.5 -28q40 0 57.5 28.5t17.5 79.5q0 37 -16 112l74 12q16 -57 16 -114q0 -194 -140 -195q-81 0 -111 71q-16 -62 -54.5 -88.5t-92.5 -26.5q-130 0 -130 170q0 48 11 92l63 -11q-4 -22 -5.5 -41t-1.5 -36q0 -91 75 -91q46 0 66 27
t24.5 70.5t4.5 92.5v32h62zM286 0v150h326v-150h-326zM-20 0v150h326v-150h-326z" />
    <glyph glyph-name="uniFE7E" unicode="&#x20;&#x652;" horiz-adv-x="592" arabic-form="isolated" 
d="M130 1017q0 68 48.5 116.5t117.5 48.5q68 0 116.5 -48.5t48.5 -116.5q0 -69 -48.5 -117.5t-116.5 -48.5q-69 0 -117.5 48.5t-48.5 117.5zM194 1017q0 -42 30 -71.5t72 -29.5t71 29.5t29 71.5t-29 71.5t-71 29.5t-72 -29.5t-30 -71.5z" />
    <glyph glyph-name="uniFE7F" unicode="&#x640;&#x652;" horiz-adv-x="592" arabic-form="medial" 
d="M130 1017q0 68 48.5 116.5t117.5 48.5q68 0 116.5 -48.5t48.5 -116.5q0 -69 -48.5 -117.5t-116.5 -48.5q-69 0 -117.5 48.5t-48.5 117.5zM194 1017q0 -42 30 -71.5t72 -29.5t71 29.5t29 71.5t-29 71.5t-71 29.5t-72 -29.5t-30 -71.5zM286 0v150h326v-150h-326zM-20 0v150
h326v-150h-326z" />
    <glyph glyph-name="uniFEF5" unicode="&#xfedf;&#xfe82;" horiz-adv-x="1132" arabic-form="isolated" 
d="M196 1470q-42 0 -72.5 -30t-73.5 -77l-61 56q40 45 89.5 92.5t97.5 47.5q34 0 67 -17.5t67 -35t69 -17.5q38 0 61 12.5t72 52.5l53 -70q-111 -83 -168 -83q-32 0 -66 17t-68.5 34.5t-66.5 17.5zM423 148q-33 168 -61.5 297.5t-59.5 244.5t-72.5 237t-100.5 275l122 67
q58 -158 100 -285t74 -248t61.5 -257t63.5 -311q85 25 148 71.5t97.5 129t34.5 214.5v753h139v-754q0 -315 -165 -447t-488 -132h-49.5t-76.5 1t-70 4v140q47 -3 84 -4t64 -1q33 0 75.5 1t79.5 4z" />
    <glyph glyph-name="uniFEF6" unicode="&#xfee0;&#xfe82;" horiz-adv-x="1193" arabic-form="final" 
d="M196 1470q-42 0 -72.5 -30t-73.5 -77l-61 56q40 45 89.5 92.5t97.5 47.5q34 0 67 -17.5t67 -35t69 -17.5q38 0 61 12.5t72 52.5l53 -70q-111 -83 -168 -83q-32 0 -66 17t-68.5 34.5t-66.5 17.5zM830 583v753h139v-804q0 -181 45.5 -281.5t162.5 -100.5h36v-150h-39
q-127 0 -192 61.5t-100 180.5q-84 -118 -217.5 -178.5t-348.5 -60.5h-49.5t-76.5 1t-70 4v140q47 -3 84 -4t64 -1q33 0 75.5 1t79.5 4q-33 168 -61 297.5t-59.5 244.5t-73 237t-100.5 275l122 67q58 -158 100 -285t74 -248t61.5 -257t63.5 -311q85 25 148 71.5t97.5 129
t34.5 214.5z" />
    <glyph glyph-name="uniFEF7" unicode="&#xfedf;&#xfe84;" horiz-adv-x="1132" arabic-form="isolated" 
d="M124 1449q-34 33 -58 73.5t-24 98.5q0 37 10.5 66.5t28.5 52.5q25 30 61.5 46t74.5 16t62 -9t50 -24l1 -82q-51 25 -99 25q-19 0 -42 -6.5t-41 -22.5q-13 -12 -21 -30.5t-8 -44.5q0 -36 24.5 -67.5t75.5 -46.5q4 -1 10 -3t14 -2q7 0 12 1l113 23v-83l-364 -87v78z
M423 148q-33 168 -61.5 297.5t-59.5 244.5t-72.5 237t-100.5 275l122 67q58 -158 100 -285t74 -248t61.5 -257t63.5 -311q85 25 148 71.5t97.5 129t34.5 214.5v753h139v-754q0 -315 -165 -447t-488 -132h-49.5t-76.5 1t-70 4v140q47 -3 84 -4t64 -1q33 0 75.5 1t79.5 4z" />
    <glyph glyph-name="uniFEF8" unicode="&#xfee0;&#xfe84;" horiz-adv-x="1193" arabic-form="final" 
d="M124 1449q-34 33 -58 73.5t-24 98.5q0 37 10.5 66.5t28.5 52.5q25 30 61.5 46t74.5 16t62 -9t50 -24l1 -82q-51 25 -99 25q-19 0 -42 -6.5t-41 -22.5q-13 -12 -21 -30.5t-8 -44.5q0 -36 24.5 -67.5t75.5 -46.5q4 -1 10 -3t14 -2q7 0 12 1l113 23v-83l-364 -87v78z
M830 583v753h139v-804q0 -181 45.5 -281.5t162.5 -100.5h36v-150h-39q-127 0 -192 61.5t-100 180.5q-84 -118 -217.5 -178.5t-348.5 -60.5h-49.5t-76.5 1t-70 4v140q47 -3 84 -4t64 -1q33 0 75.5 1t79.5 4q-33 168 -61 297.5t-59.5 244.5t-73 237t-100.5 275l122 67
q58 -158 100 -285t74 -248t61.5 -257t63.5 -311q85 25 148 71.5t97.5 129t34.5 214.5z" />
    <glyph glyph-name="uniFEF9" unicode="&#xfedf;&#xfe88;" horiz-adv-x="1132" arabic-form="isolated" 
d="M262 -485q-34 33 -58 73.5t-24 98.5q0 37 10.5 66.5t28.5 52.5q25 30 61.5 46t74.5 16t62 -9t50 -24l1 -82q-51 25 -99 25q-19 0 -42 -6.5t-41 -22.5q-13 -12 -21 -30.5t-8 -44.5q0 -36 24.5 -67.5t75.5 -46.5q4 -1 10 -3t14 -2q7 0 12 1l113 23v-83l-364 -87v78z
M423 148q-33 168 -61.5 297.5t-59.5 244.5t-72.5 237t-100.5 275l122 67q58 -158 100 -285t74 -248t61.5 -257t63.5 -311q85 25 148 71.5t97.5 129t34.5 214.5v753h139v-754q0 -315 -165 -447t-488 -132h-49.5t-76.5 1t-70 4v140q47 -3 84 -4t64 -1q33 0 75.5 1t79.5 4z" />
    <glyph glyph-name="uniFEFA" unicode="&#xfee0;&#xfe88;" horiz-adv-x="1193" arabic-form="final" 
d="M262 -485q-34 33 -58 73.5t-24 98.5q0 37 10.5 66.5t28.5 52.5q25 30 61.5 46t74.5 16t62 -9t50 -24l1 -82q-51 25 -99 25q-19 0 -42 -6.5t-41 -22.5q-13 -12 -21 -30.5t-8 -44.5q0 -36 24.5 -67.5t75.5 -46.5q4 -1 10 -3t14 -2q7 0 12 1l113 23v-83l-364 -87v78z
M830 583v753h139v-804q0 -181 45.5 -281.5t162.5 -100.5h36v-150h-39q-127 0 -192 61.5t-100 180.5q-84 -118 -217.5 -178.5t-348.5 -60.5h-49.5t-76.5 1t-70 4v140q47 -3 84 -4t64 -1q33 0 75.5 1t79.5 4q-33 168 -61 297.5t-59.5 244.5t-73 237t-100.5 275l122 67
q58 -158 100 -285t74 -248t61.5 -257t63.5 -311q85 25 148 71.5t97.5 129t34.5 214.5z" />
    <glyph glyph-name="uniFEFB" unicode="&#xfedf;&#xfe8e;" horiz-adv-x="1132" arabic-form="isolated" 
d="M423 148q-33 168 -61.5 297.5t-59.5 244.5t-72.5 237t-100.5 275l122 67q58 -158 100 -285t74 -248t61.5 -257t63.5 -311q85 25 148 71.5t97.5 129t34.5 214.5v753h139v-754q0 -315 -165 -447t-488 -132h-49.5t-76.5 1t-70 4v140q47 -3 84 -4t64 -1q33 0 75.5 1t79.5 4z
" />
    <glyph glyph-name="uniFEFC" unicode="&#xfee0;&#xfe8e;" horiz-adv-x="1193" arabic-form="final" 
d="M830 583v753h139v-804q0 -181 45.5 -281.5t162.5 -100.5h36v-150h-39q-127 0 -192 61.5t-100 180.5q-84 -118 -217.5 -178.5t-348.5 -60.5h-49.5t-76.5 1t-70 4v140q47 -3 84 -4t64 -1q33 0 75.5 1t79.5 4q-33 168 -61 297.5t-59.5 244.5t-73 237t-100.5 275l122 67
q58 -158 100 -285t74 -248t61.5 -257t63.5 -311q85 25 148 71.5t97.5 129t34.5 214.5z" />
    <glyph glyph-name="LamAlefWasla" unicode="&#xfedf;&#xfb51;" horiz-adv-x="1132" 
d="M-17 1417l14 66q14 -12 33 -25.5t38 -20.5q80 134 144.5 194t140.5 60q77 0 124.5 -47t47.5 -118q0 -94 -65.5 -132t-235.5 -38h-24q-175 0 -217 61zM222 1426q126 0 180.5 17.5t54.5 78.5q0 41 -28 69.5t-72 28.5q-60 0 -108 -49t-110 -145h83zM423 148
q-33 168 -61.5 297.5t-59.5 244.5t-72.5 237t-100.5 275l122 67q58 -158 100 -285t74 -248t61.5 -257t63.5 -311q85 25 148 71.5t97.5 129t34.5 214.5v753h139v-754q0 -315 -165 -447t-488 -132h-49.5t-76.5 1t-70 4v140q47 -3 84 -4t64 -1q33 0 75.5 1t79.5 4z" />
    <glyph glyph-name="LamAlefWasla.fina" unicode="&#xfee0;&#xfb51;" horiz-adv-x="1193" 
d="M-17 1417l14 66q14 -12 33 -25.5t38 -20.5q80 134 144.5 194t140.5 60q77 0 124.5 -47t47.5 -118q0 -94 -65.5 -132t-235.5 -38h-24q-175 0 -217 61zM222 1426q126 0 180.5 17.5t54.5 78.5q0 41 -28 69.5t-72 28.5q-60 0 -108 -49t-110 -145h83zM830 583v753h139v-804
q0 -181 45.5 -281.5t162.5 -100.5h36v-150h-39q-127 0 -192 61.5t-100 180.5q-84 -118 -217.5 -178.5t-348.5 -60.5h-49.5t-76.5 1t-70 4v140q47 -3 84 -4t64 -1q33 0 75.5 1t79.5 4q-33 168 -61 297.5t-59.5 244.5t-73 237t-100.5 275l122 67q58 -158 100 -285t74 -248
t61.5 -257t63.5 -311q85 25 148 71.5t97.5 129t34.5 214.5z" />
    <glyph glyph-name="uni063D.init" unicode="&#x63d;" horiz-adv-x="672" 
d="M271 1224h133l185 -309h-106l-146 247l-144 -247h-107zM520 705q21 -75 30 -155t9 -149q0 -216 -103 -308.5t-327 -92.5h-149v150h149q100 0 164 20t94.5 73.5t30.5 154.5q0 57 -9 131t-25 143zM277 -303l123 123l123 -123l-123 -124zM-40 -303l123 123l123 -123
l-123 -124z" />
    <glyph glyph-name="uni063D.medi" unicode="&#x63d;" horiz-adv-x="767" 
d="M271 1184h133l185 -309h-106l-146 247l-144 -247h-107zM787 0h-27q-111 0 -168 41.5t-97 114.5q-54 -75 -141 -115.5t-225 -40.5h-149v150h151q151 0 218.5 47.5t68.5 174.5q0 46 -2 95t-5 94l134 16l15 -232q13 -195 201 -195h26v-150zM277 -303l123 123l123 -123
l-123 -124zM-40 -303l123 123l123 -123l-123 -124z" />
    <glyph glyph-name="uni063D.fina" unicode="&#x63d;" horiz-adv-x="1559" 
d="M559 838h133l185 -309h-106l-146 247l-144 -247h-107zM305 342q-50 -146 -50 -297q0 -224 118 -320.5t346 -96.5q89 0 177.5 17.5t161.5 50.5t117 79t44 103q0 53 -47.5 87.5t-131.5 34.5h-123q-39 0 -50 51l-19 77q-6 22 18 22h591v-150h-143q18 -36 27.5 -63.5
t9.5 -65.5q0 -110 -77.5 -198t-219.5 -140t-334 -52q-292 0 -449 140.5t-157 424.5q0 76 16.5 173.5t47.5 174.5zM1434.1 0v150h144.993v-150h-144.993z" />
    <glyph glyph-name="uni066E.init.compact" unicode="&#x66e;" horiz-adv-x="592" 
d="M479 401q0 -196 -94.5 -298.5t-285.5 -102.5h-119v150h119q122 0 180.5 58.5t58.5 189.5q0 57 -9 131t-25 143l136 33q21 -75 30 -155t9 -149z" />
    <glyph glyph-name="uni066E.medi.compact" unicode="&#x66e;" horiz-adv-x="687" 
d="M707 0h-27q-108 0 -167 41.5t-99 114.5q-52 -73 -128.5 -114.5t-184.5 -41.5h-121v150h121q125 0 181 57.5t56 174.5q0 44 -2.5 90t-4.5 88l134 16l15 -230q6 -94 56.5 -145t144.5 -51h26v-150z" />
    <glyph glyph-name="uni066E.fina" unicode="&#x66e;" horiz-adv-x="1878" 
d="M985 0h-145q-358 0 -542.5 118.5t-184.5 350.5q0 62 12.5 121t35.5 114l125 -47q-28 -83 -28 -173q1 -175 148.5 -254.5t423.5 -79.5h150q193 0 323 31.5t189 103.5q38 46 38 132q0 36 -2 72.5t-4 70.5l131 16l15 -232q13 -194 201 -194h27v-150h-27q-108 0 -177 47
t-114 137q-89 -93 -235 -138.5t-360 -45.5z" />
    <glyph glyph-name="uni066F.init" unicode="&#x66f;" horiz-adv-x="918" 
d="M682 397q-49 -15 -103 -25t-113 -10q-312 0 -312 254q0 95 33.5 186t102.5 150.5t176 59.5q118 0 193 -79.5t110.5 -208t35.5 -277.5q0 -186 -53 -282.5t-171.5 -130.5t-315.5 -34h-285v150h296q137 0 226.5 19t134 72t45.5 156zM668 533q-6 51 -19 109t-36 109t-60.5 83
t-93.5 32q-65 0 -103 -42.5t-54.5 -99.5t-16.5 -101q0 -73 53 -97t141 -24q47 0 95.5 9t93.5 22z" />
    <glyph glyph-name="uni066F.medi" unicode="&#x66f;" horiz-adv-x="972" 
d="M702 156q53 -3 107 -4.5t89 -1.5h94v-150h-92q-35 0 -99 7t-140 22.5t-148 40.5q-73 -26 -150.5 -41.5t-143.5 -22t-105 -6.5h-134v150h134q42 0 98 1.5t118 5.5q-56 55 -98.5 131t-42.5 151q0 54 27 113t73.5 109.5t104.5 82.5t120 32q64 0 123.5 -31.5t106 -82.5
t74 -110t27.5 -115q0 -76 -43.5 -151t-99.5 -130zM514 631q-41 0 -84 -31t-73 -76t-30 -89q0 -47 30 -96t74 -89.5t84 -60.5q49 20 92.5 59.5t71.5 89t28 99.5q0 41 -31 86t-76 76.5t-86 31.5z" />
    <glyph glyph-name="uni066F.fina" unicode="&#x66f;" horiz-adv-x="1444" 
d="M1191 0h-164q-179 0 -264 70t-85 211q0 97 34 189t104 152t176 60q152 0 236 -130t102 -402h134v-150h-145q-20 -174 -84.5 -289.5t-188.5 -173t-325 -57.5q-294 0 -451 143.5t-157 417.5q0 200 84 410l127 -52q-69 -188 -69 -353q0 -210 113.5 -314t349.5 -104
q245 0 350 91.5t123 280.5zM1197 150q-11 186 -60.5 285.5t-153.5 99.5q-68 0 -104.5 -44.5t-51 -103.5t-14.5 -101q0 -74 51 -105t153 -31h180z" />
    <glyph glyph-name="uni067C.init" unicode="&#x67c;" horiz-adv-x="672" 
d="M114 -93q0 72 51 123.5t123 51.5t123.5 -51.5t51.5 -123.5t-51.5 -123t-123.5 -51t-123 51t-51 123zM187 -93q0 -42 29.5 -71t71.5 -29t71.5 29t29.5 71t-29.5 72t-71.5 30t-71.5 -30t-29.5 -72zM520 705q21 -75 30 -155t9 -149q0 -216 -103 -308.5t-327 -92.5h-149v150
h149q100 0 164 20t94.5 73.5t30.5 154.5q0 57 -9 131t-25 143zM345 1020l123 123l123 -123l-123 -124zM28 1020l123 123l123 -123l-123 -124z" />
    <glyph glyph-name="uni067C.medi" unicode="&#x67c;" horiz-adv-x="767" 
d="M114 -93q0 72 51 123.5t123 51.5t123.5 -51.5t51.5 -123.5t-51.5 -123t-123.5 -51t-123 51t-51 123zM187 -93q0 -42 29.5 -71t71.5 -29t71.5 29t29.5 71t-29.5 72t-71.5 30t-71.5 -30t-29.5 -72zM787 0h-27q-111 0 -168 41.5t-97 114.5q-54 -75 -141 -115.5t-225 -40.5
h-149v150h151q151 0 218.5 47.5t68.5 174.5q0 46 -2 95t-5 94l134 16l15 -232q13 -195 201 -195h26v-150zM346 937l123 123l123 -123l-123 -124zM29 937l123 123l123 -123l-123 -124z" />
    <glyph glyph-name="uni067C.fina" unicode="&#x67c;" horiz-adv-x="1878" 
d="M724 -105q0 72 51 123.5t123 51.5t123.5 -51.5t51.5 -123.5t-51.5 -123t-123.5 -51t-123 51t-51 123zM797 -105q0 -42 29.5 -71t71.5 -29t71.5 29t29.5 71t-29.5 72t-71.5 30t-71.5 -30t-29.5 -72zM946 839l123 123l123 -123l-123 -124zM629 839l123 123l123 -123
l-123 -124zM985 0h-145q-358 0 -542.5 118.5t-184.5 350.5q0 62 12.5 121t35.5 114l125 -47q-28 -83 -28 -173q1 -175 148.5 -254.5t423.5 -79.5h150q193 0 323 31.5t189 103.5q38 46 38 132q0 36 -2 72.5t-4 70.5l131 16l15 -232q13 -194 201 -194h27v-150h-27
q-108 0 -177 47t-114 137q-89 -93 -235 -138.5t-360 -45.5z" />
    <glyph glyph-name="uni0681.init" unicode="&#x681;" horiz-adv-x="1334" 
d="M561 1120q-34 33 -58 73.5t-24 98.5q0 37 10.5 66.5t28.5 52.5q25 30 61.5 46t74.5 16t62 -9t50 -24l1 -82q-51 25 -99 25q-19 0 -42 -6.5t-41 -22.5q-13 -12 -21 -30.5t-8 -44.5q0 -36 24.5 -67.5t75.5 -46.5q4 -1 10 -3t14 -2q7 0 12 1l113 23v-83l-364 -87v78zM-20 0
v150h163q132 0 245.5 28.5t230.5 82t258 127.5l110 58q-35 11 -54.5 18.5t-53 22t-110.5 45.5q-102 41 -168 65.5t-106 24.5q-59 0 -112 -32t-91 -77l-29 -36l-126 63l26 38q60 89 146 140.5t187 51.5q60 0 134 -26t163 -68q149 -74 251 -109t187 -42l-2 -143
q-62 -9 -145.5 -45.5t-229.5 -113.5q-122 -65 -235 -115t-229.5 -79t-249.5 -29h-160z" />
    <glyph glyph-name="uni0681.medi" unicode="&#x681;" horiz-adv-x="1351" 
d="M561 1120q-34 33 -58 73.5t-24 98.5q0 37 10.5 66.5t28.5 52.5q25 30 61.5 46t74.5 16t62 -9t50 -24l1 -82q-51 25 -99 25q-19 0 -42 -6.5t-41 -22.5q-13 -12 -21 -30.5t-8 -44.5q0 -36 24.5 -67.5t75.5 -46.5q4 -1 10 -3t14 -2q7 0 12 1l113 23v-83l-364 -87v78z
M1229 382q-41 -6 -92.5 -21.5t-109.5 -43.5q3 -93 75 -130t215 -37h54v-150h-58q-193 0 -282 61t-106 201q-189 -104 -384.5 -183t-400.5 -79h-160v150h163q132 0 245.5 29t230.5 82.5t258 126.5l110 57q-35 11 -54.5 19t-53 22.5t-110.5 45.5q-102 41 -168 65.5t-106 24.5
q-59 0 -112 -32t-91 -77l-29 -36l-126 62l26 39q60 88 146 140t187 52q60 0 134 -26t163 -69q149 -73 251 -108.5t187 -41.5z" />
    <glyph glyph-name="uni0681.fina" unicode="&#x681;" horiz-adv-x="1378" 
d="M564 1139q-34 33 -58 73.5t-24 98.5q0 37 10.5 66.5t28.5 52.5q25 30 61.5 46t74.5 16t62 -9t50 -24l1 -82q-51 25 -99 25q-19 0 -42 -6.5t-41 -22.5q-13 -12 -21 -30.5t-8 -44.5q0 -36 24.5 -67.5t75.5 -46.5q4 -1 10 -3t14 -2q7 0 12 1l113 23v-83l-364 -87v78z
M1240 -597q-97 -44 -212 -62t-244 -18q-201 0 -351.5 55t-234.5 168t-84 288q0 251 196.5 434.5t576.5 262.5q-38 15 -60.5 24t-75.5 31q-102 41 -168 65.5t-106 24.5q-60 0 -113.5 -32.5t-92.5 -79.5l-26 -33l-126 63l22 33q61 91 148 144t189 53q60 0 134 -26t163 -68
q149 -73 250.5 -108.5t186.5 -42.5l-11 -142q-54 -4 -101.5 -10t-94.5 -12q1 -157 81.5 -211t233.5 -54h78v-150h-75q-152 0 -248.5 36t-142.5 121.5t-47 234.5q-304 -86 -469.5 -228.5t-165.5 -313.5q0 -194 140 -290t408 -96q105 0 206.5 15.5t198.5 58.5z" />
    <glyph glyph-name="uni0685.init" unicode="&#x685;" horiz-adv-x="1334" 
d="M492 1308l114 114l116 -114l-116 -116zM656 1063l115 115l115 -115l-115 -115zM331 1063l115 115l115 -115l-115 -115zM-20 0v150h163q132 0 245.5 28.5t230.5 82t258 127.5l110 58q-35 11 -54.5 18.5t-53 22t-110.5 45.5q-102 41 -168 65.5t-106 24.5q-59 0 -112 -32
t-91 -77l-29 -36l-126 63l26 38q60 89 146 140.5t187 51.5q60 0 134 -26t163 -68q149 -74 251 -109t187 -42l-2 -143q-62 -9 -145.5 -45.5t-229.5 -113.5q-122 -65 -235 -115t-229.5 -79t-249.5 -29h-160z" />
    <glyph glyph-name="uni0685.medi" unicode="&#x685;" horiz-adv-x="1351" 
d="M492 1308l114 114l116 -114l-116 -116zM656 1063l115 115l115 -115l-115 -115zM331 1063l115 115l115 -115l-115 -115zM1229 382q-41 -6 -92.5 -21.5t-109.5 -43.5q3 -93 75 -130t215 -37h54v-150h-58q-193 0 -282 61t-106 201q-189 -104 -384.5 -183t-400.5 -79h-160
v150h163q132 0 245.5 29t230.5 82.5t258 126.5l110 57q-35 11 -54.5 19t-53 22.5t-110.5 45.5q-102 41 -168 65.5t-106 24.5q-59 0 -112 -32t-91 -77l-29 -36l-126 62l26 39q60 88 146 140t187 52q60 0 134 -26t163 -69q149 -73 251 -108.5t187 -41.5z" />
    <glyph glyph-name="uni0685.fina" unicode="&#x685;" horiz-adv-x="1378" 
d="M522 1348l114 114l116 -114l-116 -116zM686 1103l115 115l115 -115l-115 -115zM361 1103l115 115l115 -115l-115 -115zM1240 -597q-97 -44 -212 -62t-244 -18q-201 0 -351.5 55t-234.5 168t-84 288q0 251 196.5 434.5t576.5 262.5q-38 15 -60.5 24t-75.5 31
q-102 41 -168 65.5t-106 24.5q-60 0 -113.5 -32.5t-92.5 -79.5l-26 -33l-126 63l22 33q61 91 148 144t189 53q60 0 134 -26t163 -68q149 -73 250.5 -108.5t186.5 -42.5l-11 -142q-54 -4 -101.5 -10t-94.5 -12q1 -157 81.5 -211t233.5 -54h78v-150h-75q-152 0 -248.5 36
t-142.5 121.5t-47 234.5q-304 -86 -469.5 -228.5t-165.5 -313.5q0 -194 140 -290t408 -96q105 0 206.5 15.5t198.5 58.5z" />
    <glyph glyph-name="uni0689.fina" unicode="&#x689;" horiz-adv-x="1055" 
d="M256 -101q0 72 51 123.5t123 51.5t123.5 -51.5t51.5 -123.5t-51.5 -123t-123.5 -51t-123 51t-51 123zM329 -101q0 -42 29.5 -71t71.5 -29t71.5 29t29.5 71t-29.5 72t-71.5 30t-71.5 -30t-29.5 -72zM113 175q106 -24 194 -24q153 0 253.5 40t100.5 144q0 31 -12.5 72.5
t-24.5 70.5l-156 391l128 59l202 -516q48 -124 98 -193t137 -69h42v-150h-42q-107 0 -171 43t-113 130q-60 -85 -160.5 -128.5t-266.5 -43.5q-63 0 -113.5 6t-95.5 16v152z" />
    <glyph glyph-name="uni0693.fina" unicode="&#x693;" horiz-adv-x="790" 
d="M305 -443q0 72 51 123.5t123 51.5t123.5 -51.5t51.5 -123.5t-51.5 -123t-123.5 -51t-123 51t-51 123zM378 -443q0 -42 29.5 -71t71.5 -29t71.5 29t29.5 71t-29.5 72t-71.5 30t-71.5 -30t-29.5 -72zM598 69q-8 -139 -63 -261.5t-168 -213t-296 -133.5l-59 120
q240 63 344.5 199t104.5 307q0 84 -17.5 174.5t-55.5 183.5l133 48l57 -187q27 -81 72.5 -118.5t120.5 -37.5h39v-150h-29q-75 0 -116 21t-67 48z" />
    <glyph glyph-name="uni0695.fina" unicode="&#x695;" horiz-adv-x="790" 
d="M258 -897l-185 309h107l144 -248l146 248h106l-185 -309h-133zM598 69q-8 -139 -63 -261.5t-168 -213t-296 -133.5l-59 120q240 63 344.5 199t104.5 307q0 84 -17.5 174.5t-55.5 183.5l133 48l57 -187q27 -81 72.5 -118.5t120.5 -37.5h39v-150h-29q-75 0 -116 21t-67 48z
" />
    <glyph glyph-name="uni0696.fina" unicode="&#x696;" horiz-adv-x="790" 
d="M390 -616l128 128l129 -128l-129 -128zM33 27l128 128l129 -128l-129 -128zM598 69q-8 -139 -63 -261.5t-168 -213t-296 -133.5l-59 120q240 63 344.5 199t104.5 307q0 84 -17.5 174.5t-55.5 183.5l133 48l57 -187q27 -81 72.5 -118.5t120.5 -37.5h39v-150h-29
q-75 0 -116 21t-67 48z" />
    <glyph glyph-name="uni069A.init" unicode="&#x69a;" horiz-adv-x="1562" 
d="M790 -298l128 128l129 -128l-129 -128zM730 926l128 128l129 -128l-129 -128zM1153 150q78 0 116 62.5t38 174.5q0 102 -40 253l135 34q22 -72 34.5 -139t12.5 -133q0 -113 -28.5 -204t-93.5 -144t-173 -54q-94 0 -149 41.5t-91 115.5q-53 -73 -119 -115t-159 -42
q-111 0 -169.5 42t-92.5 119q-46 -78 -119 -119.5t-206 -41.5h-69v150h71q125 0 191 49.5t66 174.5q0 50 -9 165l135 16l15 -210q6 -83 53 -139t136 -56q106 0 153 59.5t47 164.5q0 47 -9 165l135 16l15 -210q5 -79 46.5 -137t127.5 -58z" />
    <glyph glyph-name="uni069A.medi" unicode="&#x69a;" horiz-adv-x="1658" 
d="M790 -298l128 128l129 -128l-129 -128zM730 926l128 128l129 -128l-129 -128zM1153 150q78 0 116 58.5t38 163.5q0 65 -9 188l135 16l15 -231q13 -195 200 -195h30v-150h-29q-94 0 -162.5 40t-97.5 121q-33 -73 -86.5 -117t-148.5 -44q-94 0 -149 41.5t-91 115.5
q-53 -73 -119.5 -115t-158.5 -42q-111 1 -169.5 42.5t-92.5 118.5q-46 -78 -119 -119.5t-206 -41.5h-69v150h71q125 0 191 49.5t66 174.5q0 50 -9 165l135 16l15 -210q6 -83 53 -139t136 -56q106 0 153 59.5t47 164.5q0 47 -9 165l135 16l15 -210q5 -79 46.5 -137t127.5 -58
z" />
    <glyph glyph-name="uni069A.fina" unicode="&#x69a;" horiz-adv-x="2553" 
d="M1680 -298l128 128l129 -128l-129 -128zM1620 926l128 128l129 -128l-129 -128zM1531 0q-71 0 -117 20.5t-86 53.5q-4 -292 -164.5 -443t-442.5 -151q-291 0 -449.5 143.5t-158.5 417.5q0 200 84 410l127 -52q-69 -187 -69 -353q0 -418 463 -418q229 0 351 114t123 343
q0 177 -84 360l139 48l54 -168q55 -174 232 -175q106 0 153 59.5t47 164.5q0 47 -9 165l135 16l15 -210q5 -79 46.5 -137t127.5 -58q78 0 116 58.5t38 163.5q0 65 -9 188l135 16l15 -231q13 -195 200 -195h30v-150h-29q-94 0 -162.5 40t-97.5 121q-33 -73 -86.5 -117
t-148.5 -44q-94 0 -149 41.5t-91 115.5q-53 -73 -119 -115t-159 -42z" />
    <glyph glyph-name="uni06A1.init" unicode="&#x6a1;" horiz-adv-x="918" 
d="M682 397q-49 -15 -103 -25t-113 -10q-312 0 -312 254q0 95 33.5 186t102.5 150.5t176 59.5q118 0 193 -79.5t110.5 -208t35.5 -277.5q0 -186 -53 -282.5t-171.5 -130.5t-315.5 -34h-285v150h296q137 0 226.5 19t134 72t45.5 156zM668 533q-6 51 -19 109t-36 109t-60.5 83
t-93.5 32q-65 0 -103 -42.5t-54.5 -99.5t-16.5 -101q0 -73 53 -97t141 -24q47 0 95.5 9t93.5 22z" />
    <glyph glyph-name="uni06A1.medi" unicode="&#x6a1;" horiz-adv-x="972" 
d="M702 156q53 -3 107 -4.5t89 -1.5h94v-150h-92q-35 0 -99 7t-140 22.5t-148 40.5q-73 -26 -150.5 -41.5t-143.5 -22t-105 -6.5h-134v150h134q42 0 98 1.5t118 5.5q-56 55 -98.5 131t-42.5 151q0 54 27 113t73.5 109.5t104.5 82.5t120 32q64 0 123.5 -31.5t106 -82.5
t74 -110t27.5 -115q0 -76 -43.5 -151t-99.5 -130zM514 631q-41 0 -84 -31t-73 -76t-30 -89q0 -47 30 -96t74 -89.5t84 -60.5q49 20 92.5 59.5t71.5 89t28 99.5q0 41 -31 86t-76 76.5t-86 31.5z" />
    <glyph glyph-name="uni06A1.fina" unicode="&#x6a1;" horiz-adv-x="1902" 
d="M985 150q27 0 76.5 0.5t103 2t95.5 4.5q-56 55 -98.5 131t-42.5 151q0 54 27 113t73.5 109.5t104.5 82.5t120 32q64 0 123.5 -31.5t106 -82.5t74 -110t27.5 -115q0 -76 -43.5 -151t-99.5 -130q53 -3 107 -4.5t89 -1.5h94v-150h-92q-35 0 -99 7t-140 22.5t-148 40.5
q-73 -26 -165.5 -41.5t-173.5 -22t-120 -6.5h-144q-358 0 -542.5 118.5t-184.5 350.5q0 62 12.5 121t35.5 114l125 -47q-28 -83 -28 -173q1 -175 148.5 -254.5t423.5 -79.5h155zM1444 631q-41 0 -84 -31t-73 -76t-30 -89q0 -47 30 -96t74 -89.5t84 -60.5q49 20 92.5 59.5
t71.5 89t28 99.5q0 41 -31 86t-76 76.5t-86 31.5z" />
    <glyph glyph-name="uni06AA.init" unicode="&#x6aa;" horiz-adv-x="1550" 
d="M730 150q100 0 200 4.5t183 19.5t133 47.5t50 88.5q0 55 -75 87.5t-200 47t-277 14.5h-367q-95 2 -156.5 26.5t-61.5 113.5q0 37 34 78.5t75 75.5q69 56 183 122.5t253.5 130.5t282.5 114v-139q-200 -65 -373 -162t-333 -214h468q333 0 510.5 -78t177.5 -220
q0 -111 -94 -178.5t-254 -98t-358 -30.5h-751v150h750z" />
    <glyph glyph-name="uni06AA.medi" unicode="&#x6aa;" horiz-adv-x="1623" 
d="M1302 102q-100 -53 -247.5 -77.5t-323.5 -24.5h-751v150h750q100 0 200 4.5t183 19.5t133 47.5t50 88.5q0 55 -75 87.5t-200 47t-277 14.5h-368q-94 0 -155.5 25t-61.5 115q0 37 34 78.5t75 75.5q69 56 183 122.5t253.5 130.5t282.5 114v-139q-200 -65 -373 -162
t-333 -214h468q333 0 510.5 -78t177.5 -220q0 -28 -9 -57t-19 -51q36 -31 86.5 -40t98.5 -9h49v-150h-49q-112 0 -177.5 31.5t-114.5 70.5z" />
    <glyph glyph-name="uni06AA.fina" unicode="&#x6aa;" horiz-adv-x="2083" 
d="M1191 0h-351q-31 0 -108 1t-180.5 6.5t-218 18t-220.5 34.5l43 128q132 -18 261.5 -26t237.5 -10t175 -2h360q100 0 200 4.5t183 19.5t133 47.5t50 88.5q0 55 -75 87.5t-200 47t-277 14.5h-368q-94 0 -155.5 25t-61.5 115q0 37 34 78.5t75 75.5q69 56 183 122.5
t253.5 130.5t282.5 114v-139q-200 -65 -373 -162t-333 -214h468q333 0 510.5 -78t177.5 -220q0 -28 -9 -57t-19 -51q36 -31 86.5 -40t98.5 -9h49v-150h-49q-112 0 -177.5 31.5t-114.5 70.5q-100 -53 -247.5 -77.5t-323.5 -24.5z" />
    <glyph glyph-name="uni06AB.init" unicode="&#x6ab;" horiz-adv-x="950" 
d="M712 341q-1 -171 -127 -256t-419 -85h-186v150h185q205 0 303 43.5t98 150.5q0 59 -42 121t-110.5 127.5t-150 133t-160.5 136.5q-46 38 -46 106q0 40 22.5 78.5t72.5 57.5l723 270v-144l-690 -256q77 -62 168 -134t172.5 -152.5t134 -167.5t52.5 -179zM515 1051
q0 72 51 123.5t123 51.5t123.5 -51.5t51.5 -123.5t-51.5 -123t-123.5 -51t-123 51t-51 123zM588 1051q0 -42 29.5 -71t71.5 -29t71.5 29t29.5 71t-29.5 72t-71.5 30t-71.5 -30t-29.5 -72z" />
    <glyph glyph-name="uni06AB.medi" unicode="&#x6ab;" horiz-adv-x="1027" 
d="M185 974q98 -78 202 -162t191.5 -182t135.5 -218q50 -126 123.5 -194t180.5 -68h29v-150h-29q-116 0 -199.5 50.5t-150.5 139.5q-41 -63 -101 -105t-155.5 -63.5t-245.5 -21.5h-186v150h185q205 0 303 43.5t98 150.5q0 59 -42 121t-110.5 127.5t-150 133t-160.5 136.5
q-46 38 -46 106q0 40 22.5 78.5t72.5 57.5l723 270v-144zM515 1051q0 72 51 123.5t123 51.5t123.5 -51.5t51.5 -123.5t-51.5 -123t-123.5 -51t-123 51t-51 123zM588 1051q0 -42 29.5 -71t71.5 -29t71.5 29t29.5 71t-29.5 72t-71.5 30t-71.5 -30t-29.5 -72z" />
    <glyph glyph-name="uni06AB.fina" unicode="&#x6ab;" horiz-adv-x="1941" 
d="M1430 1051q0 72 51 123.5t123 51.5t123.5 -51.5t51.5 -123.5t-51.5 -123t-123.5 -51t-123 51t-51 123zM1503 1051q0 -42 29.5 -71t71.5 -29t71.5 29t29.5 71t-29.5 72t-71.5 30t-71.5 -30t-29.5 -72zM1079 150q205 0 303 43.5t98 150.5q0 59 -42 121t-110.5 127.5
t-150 133t-160.5 136.5q-46 38 -46 106q0 40 22.5 78.5t72.5 57.5l723 270v-144l-690 -256q98 -78 202 -162t191.5 -182t135.5 -218q50 -126 123.5 -194t180.5 -68h29v-150h-29q-116 0 -199.5 50.5t-150.5 139.5q-41 -63 -101 -105t-155.5 -63.5t-245.5 -21.5h-242
q-357 0 -541 118.5t-184 350.5q0 62 12.5 121t35.5 114l125 -47q-28 -82 -28 -163q1 -175 147.5 -259.5t422.5 -84.5h251z" />
    <glyph glyph-name="uni06B5.init" unicode="&#x6b5;" horiz-adv-x="588" 
d="M286 1489l-185 309h107l144 -248l146 248h106l-185 -309h-133zM-20 0v150h81q93 0 141.5 27.5t66 81t17.5 129.5v948h139v-947q0 -194 -82 -291.5t-283 -97.5h-80z" />
    <glyph glyph-name="uni06B5.medi" unicode="&#x6b5;" horiz-adv-x="650" 
d="M285 1489l-185 309h107l144 -248l146 248h106l-185 -309h-133zM348 154q-32 -49 -68 -83.5t-91.5 -52.5t-145.5 -18h-63v150h65q239 0 241 224v962h139v-962q0 -108 49.5 -166t164.5 -58h31v-150h-30q-115 0 -179 41t-113 113z" />
    <glyph glyph-name="uni06B5.fina" unicode="&#x6b5;" horiz-adv-x="1439" 
d="M532 1062l-185 309h107l144 -248l146 248h106l-185 -309h-133zM316 335q-31 -83 -46.5 -167t-15.5 -147q0 -209 102 -301t319 -92q399 0 399 425l2 1283h138v-958q0 -111 47 -169.5t168 -58.5h30v-150h-29q-87 0 -131.5 23t-84.5 65q-5 -298 -132 -453t-408 -155
q-276 0 -418.5 133.5t-142.5 406.5q0 75 19 173t57 194z" />
    <glyph glyph-name="uni06BA.init" unicode="&#x6ba;" horiz-adv-x="592" 
d="M479 401q0 -196 -94.5 -298.5t-285.5 -102.5h-119v150h119q122 0 180.5 58.5t58.5 189.5q0 57 -9 131t-25 143l136 33q21 -75 30 -155t9 -149z" />
    <glyph glyph-name="uni06BA.medi" unicode="&#x6ba;" horiz-adv-x="687" 
d="M707 0h-27q-108 0 -167 41.5t-99 114.5q-52 -73 -128.5 -114.5t-184.5 -41.5h-121v150h121q125 0 181 57.5t56 174.5q0 44 -2.5 90t-4.5 88l134 16l15 -230q6 -94 56.5 -145t144.5 -51h26v-150z" />
    <glyph glyph-name="uni06BC.init" unicode="&#x6bc;" horiz-adv-x="592" 
d="M64 -93q0 72 51 123.5t123 51.5t123.5 -51.5t51.5 -123.5t-51.5 -123t-123.5 -51t-123 51t-51 123zM137 -93q0 -42 29.5 -71t71.5 -29t71.5 29t29.5 71t-29.5 72t-71.5 30t-71.5 -30t-29.5 -72zM479 401q0 -196 -94.5 -298.5t-285.5 -102.5h-119v150h119
q122 0 180.5 58.5t58.5 189.5q0 57 -9 131t-25 143l136 33q21 -75 30 -155t9 -149zM144 1020l128 128l129 -128l-129 -128z" />
    <glyph glyph-name="uni06BC.medi" unicode="&#x6bc;" horiz-adv-x="687" 
d="M64 -93q0 72 51 123.5t123 51.5t123.5 -51.5t51.5 -123.5t-51.5 -123t-123.5 -51t-123 51t-51 123zM137 -93q0 -42 29.5 -71t71.5 -29t71.5 29t29.5 71t-29.5 72t-71.5 30t-71.5 -30t-29.5 -72zM707 0h-27q-108 0 -167 41.5t-99 114.5q-52 -73 -128.5 -114.5
t-184.5 -41.5h-121v150h121q125 0 181 57.5t56 174.5q0 44 -2.5 90t-4.5 88l134 16l15 -230q6 -94 56.5 -145t144.5 -51h26v-150zM199 935l128 128l129 -128l-129 -128z" />
    <glyph glyph-name="uni06BC.fina" unicode="&#x6bc;" horiz-adv-x="1528" 
d="M561 -626q0 72 51 123.5t123 51.5t123.5 -51.5t51.5 -123.5t-51.5 -123t-123.5 -51t-123 51t-51 123zM634 -626q0 -42 29.5 -71t71.5 -29t71.5 29t29.5 71t-29.5 72t-71.5 30t-71.5 -30t-29.5 -72zM580 589l128 128l129 -128l-129 -128zM1192 85q0 90 -21.5 180
t-62.5 180l139 48l67 -211q21 -65 67 -98.5t127 -33.5h40v-150h-36q-76 0 -112 17.5t-72 50.5q-5 -289 -167 -438.5t-440 -149.5q-292 0 -450 143.5t-158 417.5q0 200 84 410l127 -52q-69 -188 -69 -353q0 -418 463 -418q228 0 350.5 114t123.5 343z" />
    <glyph glyph-name="uni06C2.init" unicode="&#x6c2;" horiz-adv-x="592" 
d="M216 934q-34 33 -58 73.5t-24 98.5q0 37 10.5 66.5t28.5 52.5q25 30 61.5 46t74.5 16t62 -9t50 -24l1 -82q-51 25 -99 25q-19 0 -42 -6.5t-41 -22.5q-13 -12 -21 -30.5t-8 -44.5q0 -36 24.5 -67.5t75.5 -46.5q4 -1 10 -3t14 -2q7 0 12 1l113 23v-83l-364 -87v78zM479 401
q0 -196 -94.5 -298.5t-285.5 -102.5h-119v150h119q122 0 180.5 58.5t58.5 189.5q0 57 -9 131t-25 143l136 33q21 -75 30 -155t9 -149zM369.586 -141.977q-53.2773 -49.6777 -82.0762 -98.9961q-28.7988 -49.3174 -28.7988 -124.194q51.8379 0 74.5166 -20.1592
t22.6787 -65.5176q0 -91.4365 -86.3965 -91.4365q-55.4375 0 -79.1963 29.8789t-23.7588 84.5967q0 99.3555 45.7178 177.833q45.7178 78.4766 120.595 137.515z" />
    <glyph glyph-name="uni06C2.medi" unicode="&#x6c2;" horiz-adv-x="1002" 
d="M436 614q-34 33 -58 73.5t-24 98.5q0 37 10.5 66.5t28.5 52.5q25 30 61.5 46t74.5 16t62 -9t50 -24l1 -82q-51 25 -99 25q-19 0 -42 -6.5t-41 -22.5q-13 -12 -21 -30.5t-8 -44.5q0 -36 24.5 -67.5t75.5 -46.5q4 -1 10 -3t14 -2q7 0 12 1l113 23v-83l-364 -87v78zM236 59
q-52 -29 -96.5 -44t-96.5 -15h-63v150h65q83 0 136.5 18t96.5 53.5t97 86.5l90 -100q-102 -89 -102 -205q0 -79 34.5 -149t89 -125.5t113.5 -90.5q0 242 91.5 377t296.5 135h34v-150h-36q-134 0 -201 -88.5t-67 -256.5q0 -19 1 -41.5t3 -44.5l-109 -106q-171 84 -271 230
t-106 366z" />
    <glyph glyph-name="uni06C2.fina" unicode="&#x6c2;" horiz-adv-x="919" 
d="M364 817q-34 33 -58 73.5t-24 98.5q0 37 10.5 66.5t28.5 52.5q25 30 61.5 46t74.5 16t62 -9t50 -24l1 -82q-51 25 -99 25q-19 0 -42 -6.5t-41 -22.5q-13 -12 -21 -30.5t-8 -44.5q0 -36 24.5 -67.5t75.5 -46.5q4 -1 10 -3t14 -2q7 0 12 1l113 23v-83l-364 -87v78zM232 -16
l-117 29q17 162 77 289t138 200t149 73q59 0 97 -30.5t64 -79t48.5 -103t49 -103t66.5 -79t102 -30.5h18v-150h-17q-96 0 -156 40.5t-96 100.5t-60.5 120t-49.5 100.5t-63 40.5q-47 0 -98 -53t-92.5 -147t-59.5 -218z" />
    <glyph glyph-name="uni06C3.fina" unicode="&#x6c3;" horiz-adv-x="919" 
d="M470 905l123 123l123 -123l-123 -124zM153 905l123 123l123 -123l-123 -124zM232 -16l-117 29q17 162 77 289t138 200t149 73q59 0 97 -30.5t64 -79t48.5 -103t49 -103t66.5 -79t102 -30.5h18v-150h-17q-96 0 -156 40.5t-96 100.5t-60.5 120t-49.5 100.5t-63 40.5
q-47 0 -98 -53t-92.5 -147t-59.5 -218z" />
    <glyph glyph-name="uni06CA.fina" unicode="&#x6ca;" horiz-adv-x="938" 
d="M433 1011l123 123l123 -123l-123 -124zM116 1011l123 123l123 -123l-123 -124zM874.877 0v150h83.5098v-150h-83.5098zM427 682q152 0 236 -130t102 -402h131v-150h-141q-39 -205 -179 -344t-398 -192l-49 126q220 45 339.5 152.5t160.5 257.5h-167q-179 0 -264 70
t-85 211q0 97 34 189t104 152t176 60zM632 150q-11 186 -60.5 285.5t-153.5 99.5q-68 0 -104.5 -44.5t-51 -103.5t-14.5 -101q0 -74 51 -105t153 -31h180z" />
    <glyph glyph-name="uni06CD.fina" unicode="&#x6cd;" horiz-adv-x="1798" 
d="M545 342q-50 -146 -50 -297q0 -224 118 -320.5t346 -96.5q89 0 177.5 17.5t161.5 50.5t117 79t44 103q0 53 -47.5 87.5t-131.5 34.5h-123q-39 0 -50 51l-19 77q-6 22 18 22h591v-150h-143q18 -36 27.5 -63.5t9.5 -65.5q0 -110 -77.5 -198t-219.5 -140t-334 -52
q-292 0 -449 140.5t-157 424.5q0 45 6 99.5t17 109.5l-300 -112l28 133l313 117v1v-1l1 1l-1 -1zM1673.1 0v150h144.993v-150h-144.993z" />
    <glyph glyph-name="uni06CE.init" unicode="&#x6ce;" horiz-adv-x="672" 
d="M310 940l-185 309h107l144 -248l146 248h106l-185 -309h-133zM520 705q21 -75 30 -155t9 -149q0 -216 -103 -308.5t-327 -92.5h-149v150h149q100 0 164 20t94.5 73.5t30.5 154.5q0 57 -9 131t-25 143zM277 -303l123 123l123 -123l-123 -124zM-40 -303l123 123l123 -123
l-123 -124z" />
    <glyph glyph-name="uni06CE.medi" unicode="&#x6ce;" horiz-adv-x="767" 
d="M359 830l-185 309h107l144 -248l146 248h106l-185 -309h-133zM787 0h-27q-111 0 -168 41.5t-97 114.5q-54 -75 -141 -115.5t-225 -40.5h-149v150h151q151 0 218.5 47.5t68.5 174.5q0 46 -2 95t-5 94l134 16l15 -232q13 -195 201 -195h26v-150zM277 -303l123 123l123 -123
l-123 -124zM-40 -303l123 123l123 -123l-123 -124z" />
    <glyph glyph-name="uni06CE.fina" unicode="&#x6ce;" horiz-adv-x="1559" 
d="M558 523l-185 309h107l144 -248l146 248h106l-185 -309h-133zM305 342q-50 -146 -50 -297q0 -224 118 -320.5t346 -96.5q89 0 177.5 17.5t161.5 50.5t117 79t44 103q0 53 -47.5 87.5t-131.5 34.5h-123q-39 0 -50 51l-19 77q-6 22 18 22h591v-150h-143q18 -36 27.5 -63.5
t9.5 -65.5q0 -110 -77.5 -198t-219.5 -140t-334 -52q-292 0 -449 140.5t-157 424.5q0 76 16.5 173.5t47.5 174.5zM1434.1 0v150h144.993v-150h-144.993z" />
    <glyph glyph-name="uni06D0.init" unicode="&#x6d0;" horiz-adv-x="592" arabic-form="initial" 
d="M479 401q0 -196 -94.5 -298.5t-285.5 -102.5h-119v150h119q122 0 180.5 58.5t58.5 189.5q0 57 -9 131t-25 143l136 33q21 -75 30 -155t9 -149zM82 -259l122 123l124 -123l-124 -124zM82 -551l122 123l124 -123l-124 -124z" />
    <glyph glyph-name="uni06D0.medi" unicode="&#x6d0;" horiz-adv-x="687" arabic-form="medial" 
d="M707 0h-27q-108 0 -167 41.5t-99 114.5q-52 -73 -128.5 -114.5t-184.5 -41.5h-121v150h121q125 0 181 57.5t56 174.5q0 44 -2.5 90t-4.5 88l134 16l15 -230q6 -94 56.5 -145t144.5 -51h26v-150zM82 -259l122 123l124 -123l-124 -124zM82 -551l122 123l124 -123l-124 -124
z" />
    <glyph glyph-name="uni06D0.fina" unicode="&#x6d0;" horiz-adv-x="1559" arabic-form="final" 
d="M606 -677l122 123l124 -123l-124 -124zM606 -969l122 123l124 -123l-124 -124zM305 342q-50 -146 -50 -297q0 -224 118 -320.5t346 -96.5q89 0 177.5 17.5t161.5 50.5t117 79t44 103q0 53 -47.5 87.5t-131.5 34.5h-123q-39 0 -50 51l-19 77q-6 22 18 22h591v-150h-143
q18 -36 27.5 -63.5t9.5 -65.5q0 -110 -77.5 -198t-219.5 -140t-334 -52q-292 0 -449 140.5t-157 424.5q0 76 16.5 173.5t47.5 174.5zM1434.1 0v150h144.993v-150h-144.993z" />
    <glyph glyph-name="uni06D5.fina" unicode="&#x6d5;" horiz-adv-x="1038" 
d="M113 397q0 284 509 442l-7 43l130 27l79 -573q12 -87 64 -136.5t139 -49.5h31v-150h-35q-147 0 -216.5 65t-96.5 185q-57 -53 -127.5 -85.5t-151.5 -32.5q-134 0 -226 64t-92 201zM643 709q-176 -65 -281 -136.5t-105 -163.5q0 -69 45.5 -104t122.5 -35q57 0 115 23
t97 67t39 107q0 32 -4 60z" />
    <glyph glyph-name="uniFB50" unicode="&#x671;" horiz-adv-x="465" arabic-form="isolated" 
d="M-37 1337l14 66q14 -12 33 -25.5t38 -20.5q80 134 144.5 194t140.5 60q77 0 124.5 -47t47.5 -118q0 -94 -65.5 -132t-235.5 -38h-24q-175 0 -217 61zM202 1346q126 0 180.5 17.5t54.5 78.5q0 41 -28 69.5t-72 28.5q-60 0 -108 -49t-110 -145h83zM163 1143.28h139
v-1140.42h-139v1140.42z" />
    <glyph glyph-name="uniFB51" unicode="&#x671;" horiz-adv-x="527" arabic-form="final" 
d="M-37 1337l14 66q14 -12 33 -25.5t38 -20.5q80 134 144.5 194t140.5 60q77 0 124.5 -47t47.5 -118q0 -94 -65.5 -132t-235.5 -38h-24q-175 0 -217 61zM202 1346q126 0 180.5 17.5t54.5 78.5q0 41 -28 69.5t-72 28.5q-60 0 -108 -49t-110 -145h83zM547 0h-27
q-177 0 -267 89t-90 300v748h139v-748q0 -131 57 -185t161 -54h27v-150z" />
    <glyph glyph-name="uniFB56" unicode="&#x67e;" horiz-adv-x="1777" arabic-form="isolated" 
d="M956 -268l115 116l115 -116l-115 -114zM631 -268l115 116l115 -116l-115 -114zM792 -512l114 115l116 -115l-116 -115zM975 0h-135q-358 0 -542.5 118.5t-184.5 350.5q0 62 12.5 121t35.5 114l125 -47q-28 -83 -28 -173q1 -175 148.5 -254.5t423.5 -79.5h138
q101 0 199.5 5.5t178.5 31t127.5 83.5t47.5 163q0 89 -33 239l136 33q20 -72 30 -147.5t10 -109.5q0 -147 -49.5 -236t-141 -135t-218 -61.5t-280.5 -15.5z" />
    <glyph glyph-name="uniFB57" unicode="&#x67e;" horiz-adv-x="1878" arabic-form="final" 
d="M956 -268l115 116l115 -116l-115 -114zM631 -268l115 116l115 -116l-115 -114zM792 -512l114 115l116 -115l-116 -115zM985 0h-145q-358 0 -542.5 118.5t-184.5 350.5q0 62 12.5 121t35.5 114l125 -47q-28 -83 -28 -173q1 -175 148.5 -254.5t423.5 -79.5h150
q193 0 323 31.5t189 103.5q38 46 38 132q0 36 -2 72.5t-4 70.5l131 16l15 -232q13 -194 201 -194h27v-150h-27q-108 0 -177 47t-114 137q-89 -93 -235 -138.5t-360 -45.5z" />
    <glyph glyph-name="uniFB58" unicode="&#x67e;" horiz-adv-x="672" arabic-form="initial" 
d="M286 -268l115 116l115 -116l-115 -114zM-39 -268l115 116l115 -116l-115 -114zM122 -512l114 115l116 -115l-116 -115zM520 705q21 -75 30 -155t9 -149q0 -216 -103 -308.5t-327 -92.5h-149v150h149q100 0 164 20t94.5 73.5t30.5 154.5q0 57 -9 131t-25 143z" />
    <glyph glyph-name="uniFB59" unicode="&#x67e;" horiz-adv-x="767" arabic-form="medial" 
d="M787 0h-27q-111 0 -168 41.5t-97 114.5q-54 -75 -141 -115.5t-225 -40.5h-149v150h151q151 0 218.5 47.5t68.5 174.5q0 46 -2 95t-5 94l134 16l15 -232q13 -195 201 -195h26v-150zM286 -268l115 116l115 -116l-115 -114zM-39 -268l115 116l115 -116l-115 -114zM122 -512
l114 115l116 -115l-116 -115z" />
    <glyph glyph-name="uniFB66" unicode="&#x679;" horiz-adv-x="1777" arabic-form="isolated" 
d="M713 783q9 13 17 26.5t15 23.5v429h79v-315q42 45 89.5 77t101.5 32q77 0 125.5 -47.5t48.5 -119.5q-2 -190 -326 -190h-250v84h100zM862 784q244 2 244 102q0 36 -23.5 60.5t-62.5 24.5q-54 0 -111 -54t-112 -135zM975 0h-135q-358 0 -542.5 118.5t-184.5 350.5
q0 62 12.5 121t35.5 114l125 -47q-28 -83 -28 -173q1 -175 148.5 -254.5t423.5 -79.5h138q101 0 199.5 5.5t178.5 31t127.5 83.5t47.5 163q0 89 -33 239l136 33q20 -72 30 -147.5t10 -109.5q0 -147 -49.5 -236t-141 -135t-218 -61.5t-280.5 -15.5z" />
    <glyph glyph-name="uniFB67" unicode="&#x679;" horiz-adv-x="1878" arabic-form="final" 
d="M723 783q9 13 17 26.5t15 23.5v429h79v-315q42 45 89.5 77t101.5 32q77 0 125.5 -47.5t48.5 -119.5q-2 -190 -326 -190h-250v84h100zM872 784q244 2 244 102q0 36 -23.5 60.5t-62.5 24.5q-54 0 -111 -54t-112 -135zM985 0h-145q-358 0 -542.5 118.5t-184.5 350.5
q0 62 12.5 121t35.5 114l125 -47q-28 -83 -28 -173q1 -175 148.5 -254.5t423.5 -79.5h150q193 0 323 31.5t189 103.5q38 46 38 132q0 36 -2 72.5t-4 70.5l131 16l15 -232q13 -194 201 -194h27v-150h-27q-108 0 -177 47t-114 137q-89 -93 -235 -138.5t-360 -45.5z" />
    <glyph glyph-name="uniFB68" unicode="&#x679;" horiz-adv-x="672" arabic-form="initial" 
d="M520 705q21 -75 30 -155t9 -149q0 -216 -103 -308.5t-327 -92.5h-149v150h149q100 0 164 20t94.5 73.5t30.5 154.5q0 57 -9 131t-25 143zM103 933q9 13 17 26.5t15 23.5v429h79v-315q42 45 89.5 77t101.5 32q77 0 125.5 -47.5t48.5 -119.5q-2 -190 -326 -190h-250v84h100
zM252 934q244 2 244 102q0 36 -23.5 60.5t-62.5 24.5q-54 0 -111 -54t-112 -135z" />
    <glyph glyph-name="uniFB69" unicode="&#x679;" horiz-adv-x="767" arabic-form="medial" 
d="M787 0h-27q-111 0 -168 41.5t-97 114.5q-54 -75 -141 -115.5t-225 -40.5h-149v150h151q151 0 218.5 47.5t68.5 174.5q0 46 -2 95t-5 94l134 16l15 -232q13 -195 201 -195h26v-150zM133 843q9 13 17 26.5t15 23.5v429h79v-315q42 45 89.5 77t101.5 32q77 0 125.5 -47.5
t48.5 -119.5q-2 -190 -326 -190h-250v84h100zM282 844q244 2 244 102q0 36 -23.5 60.5t-62.5 24.5q-54 0 -111 -54t-112 -135z" />
    <glyph glyph-name="uniFB6B" unicode="&#x6a4;" horiz-adv-x="1902" arabic-form="final" 
d="M1306 1287l114 114l116 -114l-116 -116zM1470 1042l115 115l115 -115l-115 -115zM1145 1042l115 115l115 -115l-115 -115zM985 150q27 0 76.5 0.5t103 2t95.5 4.5q-56 55 -98.5 131t-42.5 151q0 54 27 113t73.5 109.5t104.5 82.5t120 32q64 0 123.5 -31.5t106 -82.5
t74 -110t27.5 -115q0 -76 -43.5 -151t-99.5 -130q53 -3 107 -4.5t89 -1.5h94v-150h-92q-35 0 -99 7t-140 22.5t-148 40.5q-73 -26 -165.5 -41.5t-173.5 -22t-120 -6.5h-144q-358 0 -542.5 118.5t-184.5 350.5q0 62 12.5 121t35.5 114l125 -47q-28 -83 -28 -173
q1 -175 148.5 -254.5t423.5 -79.5h155zM1444 631q-41 0 -84 -31t-73 -76t-30 -89q0 -47 30 -96t74 -89.5t84 -60.5q49 20 92.5 59.5t71.5 89t28 99.5q0 41 -31 86t-76 76.5t-86 31.5z" />
    <glyph glyph-name="uniFB6C" unicode="&#x6a4;" horiz-adv-x="918" arabic-form="initial" 
d="M682 397q-49 -15 -103 -25t-113 -10q-312 0 -312 254q0 95 33.5 186t102.5 150.5t176 59.5q118 0 193 -79.5t110.5 -208t35.5 -277.5q0 -186 -53 -282.5t-171.5 -130.5t-315.5 -34h-285v150h296q137 0 226.5 19t134 72t45.5 156zM668 533q-6 51 -19 109t-36 109t-60.5 83
t-93.5 32q-65 0 -103 -42.5t-54.5 -99.5t-16.5 -101q0 -73 53 -97t141 -24q47 0 95.5 9t93.5 22zM306 1522l114 114l116 -114l-116 -116zM470 1277l115 115l115 -115l-115 -115zM145 1277l115 115l115 -115l-115 -115z" />
    <glyph glyph-name="uniFB6D" unicode="&#x6a4;" horiz-adv-x="972" arabic-form="medial" 
d="M390 1287l114 114l116 -114l-116 -116zM554 1042l115 115l115 -115l-115 -115zM229 1042l115 115l115 -115l-115 -115zM702 156q53 -3 107 -4.5t89 -1.5h94v-150h-92q-35 0 -99 7t-140 22.5t-148 40.5q-73 -26 -150.5 -41.5t-143.5 -22t-105 -6.5h-134v150h134
q42 0 98 1.5t118 5.5q-56 55 -98.5 131t-42.5 151q0 54 27 113t73.5 109.5t104.5 82.5t120 32q64 0 123.5 -31.5t106 -82.5t74 -110t27.5 -115q0 -76 -43.5 -151t-99.5 -130zM514 631q-41 0 -84 -31t-73 -76t-30 -89q0 -47 30 -96t74 -89.5t84 -60.5q49 20 92.5 59.5
t71.5 89t28 99.5q0 41 -31 86t-76 76.5t-86 31.5z" />
    <glyph glyph-name="uniFB7A" unicode="&#x686;" horiz-adv-x="1347" arabic-form="isolated" 
d="M862 22l115 116l115 -116l-115 -114zM537 22l115 116l115 -116l-115 -114zM698 -222l114 115l116 -115l-116 -115zM887 531q-38 15 -60.5 24t-75.5 31q-102 41 -168 65.5t-106 24.5q-61 0 -114.5 -33.5t-92.5 -79.5l-25 -32l-126 63l21 32q61 91 148 144.5t190 53.5
q60 0 134 -26t163 -68q149 -73 250.5 -108.5t186.5 -42.5l-11 -142q-198 -17 -370.5 -66.5t-303 -126.5t-204 -176.5t-73.5 -217.5q0 -194 140 -290t408 -96q105 0 206.5 15.5t198.5 58.5l37 -135q-97 -44 -212 -62t-244 -18q-201 0 -351.5 55t-234.5 168t-84 288
q0 252 196.5 435t576.5 262z" />
    <glyph glyph-name="uniFB7B" unicode="&#x686;" horiz-adv-x="1378" arabic-form="final" 
d="M712.196 -36.4453l109.209 110.159l109.209 -110.159l-109.209 -108.26zM403.561 -36.4453l109.21 110.159l109.209 -110.159l-109.209 -108.26zM556.454 -268.159l108.26 109.21l110.159 -109.21l-110.159 -109.209zM1240 -597q-97 -44 -212 -62t-244 -18
q-201 0 -351.5 55t-234.5 168t-84 288q0 251 196.5 434.5t576.5 262.5q-38 15 -60.5 24t-75.5 31q-102 41 -168 65.5t-106 24.5q-60 0 -113.5 -32.5t-92.5 -79.5l-26 -33l-126 63l22 33q61 91 148 144t189 53q60 0 134 -26t163 -68q149 -73 250.5 -108.5t186.5 -42.5
l-11 -142q-54 -4 -101.5 -10t-94.5 -12q1 -157 81.5 -211t233.5 -54h78v-150h-75q-152 0 -248.5 36t-142.5 121.5t-47 234.5q-304 -86 -469.5 -228.5t-165.5 -313.5q0 -194 140 -290t408 -96q105 0 206.5 15.5t198.5 58.5z" />
    <glyph glyph-name="uniFB7C" unicode="&#x686;" horiz-adv-x="1334" arabic-form="initial" 
d="M686 -268l115 116l115 -116l-115 -114zM361 -268l115 116l115 -116l-115 -114zM522 -512l114 115l116 -115l-116 -115zM-20 0v150h163q132 0 245.5 28.5t230.5 82t258 127.5l110 58q-35 11 -54.5 18.5t-53 22t-110.5 45.5q-102 41 -168 65.5t-106 24.5q-59 0 -112 -32
t-91 -77l-29 -36l-126 63l26 38q60 89 146 140.5t187 51.5q60 0 134 -26t163 -68q149 -74 251 -109t187 -42l-2 -143q-62 -9 -145.5 -45.5t-229.5 -113.5q-122 -65 -235 -115t-229.5 -79t-249.5 -29h-160z" />
    <glyph glyph-name="uniFB7D" unicode="&#x686;" horiz-adv-x="1351" arabic-form="medial" 
d="M686 -268l115 116l115 -116l-115 -114zM361 -268l115 116l115 -116l-115 -114zM522 -512l114 115l116 -115l-116 -115zM1229 382q-41 -6 -92.5 -21.5t-109.5 -43.5q3 -93 75 -130t215 -37h54v-150h-58q-193 0 -282 61t-106 201q-189 -104 -384.5 -183t-400.5 -79h-160
v150h163q132 0 245.5 29t230.5 82.5t258 126.5l110 57q-35 11 -54.5 19t-53 22.5t-110.5 45.5q-102 41 -168 65.5t-106 24.5q-59 0 -112 -32t-91 -77l-29 -36l-126 62l26 39q60 88 146 140t187 52q60 0 134 -26t163 -69q149 -73 251 -108.5t187 -41.5z" />
    <glyph glyph-name="uniFB88" unicode="&#x688;" horiz-adv-x="963" arabic-form="isolated" 
d="M228 1225q9 13 17 26.5t15 23.5v429h79v-315q42 45 89.5 77t101.5 32q77 0 125.5 -47.5t48.5 -119.5q-2 -190 -326 -190h-250v84h100zM377 1226q244 2 244 102q0 36 -23.5 60.5t-62.5 24.5q-54 0 -111 -54t-112 -135zM113 174q119 -23 204 -23q185 0 286 47.5t101 150.5
q0 102 -105 215.5t-303 240.5l82 123q238 -145 355 -289t117 -287q0 -173 -126.5 -261.5t-393.5 -88.5q-58 0 -113 6t-104 16v150z" />
    <glyph glyph-name="uniFB89" unicode="&#x688;" horiz-adv-x="1055" arabic-form="final" 
d="M113 175q106 -24 194 -24q153 0 253.5 40t100.5 144q0 31 -12.5 72.5t-24.5 70.5l-156 391l128 59l202 -516q48 -124 98 -193t137 -69h42v-150h-42q-107 0 -171 43t-113 130q-60 -85 -160.5 -128.5t-266.5 -43.5q-63 0 -113.5 6t-95.5 16v152zM278 1215q9 13 17 26.5
t15 23.5v429h79v-315q42 45 89.5 77t101.5 32q77 0 125.5 -47.5t48.5 -119.5q-2 -190 -326 -190h-250v84h100zM427 1216q244 2 244 102q0 36 -23.5 60.5t-62.5 24.5q-54 0 -111 -54t-112 -135z" />
    <glyph glyph-name="uniFB8A" unicode="&#x698;" horiz-adv-x="730" arabic-form="isolated" 
d="M275 1019l114 114l116 -114l-116 -116zM439 774l115 115l115 -115l-115 -115zM114 774l115 115l115 -115l-115 -115zM522 493q40 -97 57.5 -197t17.5 -198q0 -142 -54 -271.5t-170 -225.5t-302 -140l-59 120q237 62 343 197t106 304q0 85 -17 177t-56 186z" />
    <glyph glyph-name="uniFB8B" unicode="&#x698;" horiz-adv-x="790" arabic-form="final" 
d="M275 1019l114 114l116 -114l-116 -116zM439 774l115 115l115 -115l-115 -115zM114 774l115 115l115 -115l-115 -115zM598 69q-8 -139 -63 -261.5t-168 -213t-296 -133.5l-59 120q240 63 344.5 199t104.5 307q0 84 -17.5 174.5t-55.5 183.5l133 48l57 -187
q27 -81 72.5 -118.5t120.5 -37.5h39v-150h-29q-75 0 -116 21t-67 48z" />
    <glyph glyph-name="uniFB8C" unicode="&#x691;" horiz-adv-x="730" arabic-form="isolated" 
d="M192 778q9 13 17 26.5t15 23.5v429h79v-315q42 45 89.5 77t101.5 32q77 0 125.5 -47.5t48.5 -119.5q-2 -190 -326 -190h-250v84h100zM341 779q244 2 244 102q0 36 -23.5 60.5t-62.5 24.5q-54 0 -111 -54t-112 -135zM522 493q40 -97 57.5 -197t17.5 -198
q0 -142 -54 -271.5t-170 -225.5t-302 -140l-59 120q237 62 343 197t106 304q0 85 -17 177t-56 186z" />
    <glyph glyph-name="uniFB8D" unicode="&#x691;" horiz-adv-x="790" arabic-form="final" 
d="M598 69q-8 -139 -63 -261.5t-168 -213t-296 -133.5l-59 120q240 63 344.5 199t104.5 307q0 84 -17.5 174.5t-55.5 183.5l133 48l57 -187q27 -81 72.5 -118.5t120.5 -37.5h39v-150h-29q-75 0 -116 21t-67 48zM212 778q9 13 17 26.5t15 23.5v429h79v-315q42 45 89.5 77
t101.5 32q77 0 125.5 -47.5t48.5 -119.5q-2 -190 -326 -190h-250v84h100zM361 779q244 2 244 102q0 36 -23.5 60.5t-62.5 24.5q-54 0 -111 -54t-112 -135z" />
    <glyph glyph-name="uniFB8E" unicode="&#x6a9;" horiz-adv-x="1865" arabic-form="isolated" 
d="M1080 150q205 0 303 43.5t98 150.5q0 59 -42 121t-110.5 127.5t-150 133t-160.5 136.5q-46 38 -46 106q0 40 22.5 78.5t72.5 57.5l723 270v-144l-690 -256q77 -62 168 -134t172.5 -152.5t134 -167.5t52.5 -179q0 -171 -126.5 -256t-419.5 -85h-241q-357 0 -542 118.5
t-185 350.5q0 62 12.5 121t35.5 114l125 -47q-28 -83 -28 -173q1 -175 148.5 -254.5t423.5 -79.5h250z" />
    <glyph glyph-name="uniFB8F" unicode="&#x6a9;" horiz-adv-x="1941" arabic-form="final" 
d="M1079 150q205 0 303 43.5t98 150.5q0 59 -42 121t-110.5 127.5t-150 133t-160.5 136.5q-46 38 -46 106q0 40 22.5 78.5t72.5 57.5l723 270v-144l-690 -256q98 -78 202 -162t191.5 -182t135.5 -218q50 -126 123.5 -194t180.5 -68h29v-150h-29q-116 0 -199.5 50.5
t-150.5 139.5q-41 -63 -101 -105t-155.5 -63.5t-245.5 -21.5h-242q-357 0 -541 118.5t-184 350.5q0 62 12.5 121t35.5 114l125 -47q-28 -82 -28 -163q1 -175 147.5 -259.5t422.5 -84.5h251z" />
    <glyph glyph-name="uniFB90" unicode="&#x6a9;" horiz-adv-x="950" arabic-form="initial" 
d="M712 341q-1 -171 -127 -256t-419 -85h-186v150h185q205 0 303 43.5t98 150.5q0 59 -42 121t-110.5 127.5t-150 133t-160.5 136.5q-46 38 -46 106q0 40 22.5 78.5t72.5 57.5l723 270v-144l-690 -256q77 -62 168 -134t172.5 -152.5t134 -167.5t52.5 -179z" />
    <glyph glyph-name="uniFB91" unicode="&#x6a9;" horiz-adv-x="1027" arabic-form="medial" 
d="M185 974q98 -78 202 -162t191.5 -182t135.5 -218q50 -126 123.5 -194t180.5 -68h29v-150h-29q-116 0 -199.5 50.5t-150.5 139.5q-41 -63 -101 -105t-155.5 -63.5t-245.5 -21.5h-186v150h185q205 0 303 43.5t98 150.5q0 59 -42 121t-110.5 127.5t-150 133t-160.5 136.5
q-46 38 -46 106q0 40 22.5 78.5t72.5 57.5l723 270v-144z" />
    <glyph glyph-name="uniFB92" unicode="&#x6af;" horiz-adv-x="1865" arabic-form="isolated" 
d="M1785.75 1525.62l-756.495 -280.342v84.5312l756.495 281.411v-85.6006zM1080 150q205 0 303 43.5t98 150.5q0 59 -42 121t-110.5 127.5t-150 133t-160.5 136.5q-46 38 -46 106q0 40 22.5 78.5t72.5 57.5l723 270v-144l-690 -256q77 -62 168 -134t172.5 -152.5
t134 -167.5t52.5 -179q0 -171 -126.5 -256t-419.5 -85h-241q-357 0 -542 118.5t-185 350.5q0 62 12.5 121t35.5 114l125 -47q-28 -83 -28 -173q1 -175 148.5 -254.5t423.5 -79.5h250z" />
    <glyph glyph-name="uniFB93" unicode="&#x6af;" horiz-adv-x="1941" arabic-form="final" 
d="M1785.75 1525.62l-756.495 -280.342v84.5312l756.495 281.411v-85.6006zM1079 150q205 0 303 43.5t98 150.5q0 59 -42 121t-110.5 127.5t-150 133t-160.5 136.5q-46 38 -46 106q0 40 22.5 78.5t72.5 57.5l723 270v-144l-690 -256q98 -78 202 -162t191.5 -182t135.5 -218
q50 -126 123.5 -194t180.5 -68h29v-150h-29q-116 0 -199.5 50.5t-150.5 139.5q-41 -63 -101 -105t-155.5 -63.5t-245.5 -21.5h-242q-357 0 -541 118.5t-184 350.5q0 62 12.5 121t35.5 114l125 -47q-28 -82 -28 -163q1 -175 147.5 -259.5t422.5 -84.5h251z" />
    <glyph glyph-name="uniFB94" unicode="&#x6af;" horiz-adv-x="950" arabic-form="initial" 
d="M712 341q-1 -171 -127 -256t-419 -85h-186v150h185q205 0 303 43.5t98 150.5q0 59 -42 121t-110.5 127.5t-150 133t-160.5 136.5q-46 38 -46 106q0 40 22.5 78.5t72.5 57.5l723 270v-144l-690 -256q77 -62 168 -134t172.5 -152.5t134 -167.5t52.5 -179zM870.755 1528.62
l-756.495 -280.342v84.5312l756.495 281.411v-85.6006z" />
    <glyph glyph-name="uniFB95" unicode="&#x6af;" horiz-adv-x="1027" arabic-form="medial" 
d="M185 974q98 -78 202 -162t191.5 -182t135.5 -218q50 -126 123.5 -194t180.5 -68h29v-150h-29q-116 0 -199.5 50.5t-150.5 139.5q-41 -63 -101 -105t-155.5 -63.5t-245.5 -21.5h-186v150h185q205 0 303 43.5t98 150.5q0 59 -42 121t-110.5 127.5t-150 133t-160.5 136.5
q-46 38 -46 106q0 40 22.5 78.5t72.5 57.5l723 270v-144zM870.755 1528.62l-756.495 -280.342v84.5312l756.495 281.411v-85.6006z" />
    <glyph glyph-name="uniFB9E" unicode="&#x6ba;" horiz-adv-x="1447" arabic-form="isolated" 
d="M1108 516l143 49q44 -114 63.5 -224t19.5 -216q0 -188 -78 -316.5t-216.5 -193.5t-318.5 -65q-292 0 -450 144t-158 417q0 200 84 410l127 -52q-69 -188 -69 -353q0 -418 463 -418q228 0 350.5 114t123.5 343q0 90 -21.5 180.5t-62.5 180.5z" />
    <glyph glyph-name="uniFB9F" unicode="&#x6ba;" horiz-adv-x="1528" arabic-form="final" 
d="M1192 85q0 90 -21.5 180t-62.5 180l139 48l67 -211q21 -65 67 -98.5t127 -33.5h40v-150h-36q-76 0 -112 17.5t-72 50.5q-5 -289 -167 -438.5t-440 -149.5q-292 0 -450 143.5t-158 417.5q0 200 84 410l127 -52q-69 -188 -69 -353q0 -418 463 -418q228 0 350.5 114
t123.5 343z" />
    <glyph glyph-name="uniFBA7" unicode="&#x6c1;" horiz-adv-x="919" arabic-form="final" 
d="M232 -16l-117 29q17 162 77 289t138 200t149 73q59 0 97 -30.5t64 -79t48.5 -103t49 -103t66.5 -79t102 -30.5h18v-150h-17q-96 0 -156 40.5t-96 100.5t-60.5 120t-49.5 100.5t-63 40.5q-47 0 -98 -53t-92.5 -147t-59.5 -218z" />
    <glyph glyph-name="uniFBA8" unicode="&#x6c1;" horiz-adv-x="592" arabic-form="initial" 
d="M479 401q0 -196 -94.5 -298.5t-285.5 -102.5h-119v150h119q122 0 180.5 58.5t58.5 189.5q0 57 -9 131t-25 143l136 33q21 -75 30 -155t9 -149zM369.586 -141.977q-53.2773 -49.6777 -82.0762 -98.9961q-28.7988 -49.3174 -28.7988 -124.194q51.8379 0 74.5166 -20.1592
t22.6787 -65.5176q0 -91.4365 -86.3965 -91.4365q-55.4375 0 -79.1963 29.8789t-23.7588 84.5967q0 99.3555 45.7178 177.833q45.7178 78.4766 120.595 137.515z" />
    <glyph glyph-name="uniFBA9" unicode="&#x6c1;" horiz-adv-x="1002" arabic-form="medial" 
d="M236 59q-52 -29 -96.5 -44t-96.5 -15h-63v150h65q83 0 136.5 18t96.5 53.5t97 86.5l90 -100q-102 -89 -102 -205q0 -79 34.5 -149t89 -125.5t113.5 -90.5q0 242 91.5 377t296.5 135h34v-150h-36q-134 0 -201 -88.5t-67 -256.5q0 -19 1 -41.5t3 -44.5l-109 -106
q-171 84 -271 230t-106 366z" />
    <glyph glyph-name="uniFBAA" unicode="&#x6be;" horiz-adv-x="1487" arabic-form="isolated" 
d="M52 150h129q75 0 132 3.5t121 11.5q-67 56 -107.5 121.5t-40.5 164.5q0 95 45 163.5t119 105.5t163 37q21 0 46 -3t61 -14l-92 47l61 110q252 -117 402 -211.5t216.5 -178t66.5 -169.5q0 -163 -102.5 -245.5t-274.5 -82.5q-66 0 -140 10.5t-141 26.5t-113 31
q-82 -31 -194 -54.5t-216 -23.5h-96zM815 691q113 -85 113 -223q0 -100 -44 -173.5t-111 -133.5q47 -6 104 -11t103 -5q117 0 183 46t66 144q0 62 -56 121t-150 117t-208 118zM621 209q90 36 138 100.5t49 138.5q0 89 -51.5 136.5t-134.5 47.5q-86 0 -141 -48.5t-55 -130.5
q0 -78 50.5 -143t144.5 -101z" />
    <glyph glyph-name="uniFBAB" unicode="&#x6be;" horiz-adv-x="1120" arabic-form="final" 
d="M52 150h285q8 174 38.5 313.5t99 221t191.5 81.5q115 0 181 -80.5t66 -213.5q0 -91 -35.5 -175t-97 -150.5t-140 -106t-164.5 -41.5q23 -129 81.5 -212.5t160.5 -149.5q0 242 91.5 377.5t296.5 135.5h34v-150h-36q-134 0 -201 -88.5t-67 -256.5q0 -19 1 -41.5t3 -44.5
l-109 -106q-167 82 -259.5 214.5t-123.5 322.5h-251zM469 149q88 2 159.5 44t113.5 114t42 165q0 71 -33.5 110.5t-86.5 39.5q-102 0 -143 -127t-52 -346z" />
    <glyph glyph-name="uniFBAC" unicode="&#x6be;" horiz-adv-x="1369" arabic-form="initial" 
d="M571 897q252 -117 402 -211.5t216.5 -178t66.5 -169.5q0 -163 -102.5 -245.5t-274.5 -82.5q-66 0 -140 10.5t-141 26.5t-113 31q-82 -31 -194 -54.5t-216 -23.5h-95v150h83q75 0 132 3.5t121 11.5q-67 56 -107.5 121.5t-40.5 164.5q0 95 45 163.5t119 105.5t163 37
q21 0 46 -3t61 -14l-92 47zM697 691q113 -85 113 -223q0 -100 -44 -173.5t-111 -133.5q47 -6 104 -11t103 -5q117 0 183 46t66 144q0 62 -56 121t-150 117t-208 118zM503 209q90 36 138 100.5t49 138.5q0 89 -51.5 136.5t-134.5 47.5q-86 0 -141 -48.5t-55 -130.5
q0 -78 50.5 -143t144.5 -101z" />
    <glyph glyph-name="uniFBAD" unicode="&#x6be;" horiz-adv-x="1002" arabic-form="medial" 
d="M613 -537q-167 82 -259.5 214.5t-123.5 322.5h-250v150h239q8 174 38.5 313.5t99 221t191.5 81.5q115 0 181 -80.5t66 -213.5q0 -91 -35.5 -175t-97 -150.5t-140 -106t-164.5 -41.5q23 -129 81.5 -212.5t160.5 -149.5q0 242 91.5 377.5t296.5 135.5h34v-150h-36
q-134 0 -201 -88.5t-67 -256.5q0 -19 1 -41.5t3 -44.5zM351 149q88 2 159.5 44t113.5 114t42 165q0 71 -33.5 110.5t-86.5 39.5q-102 0 -143 -127t-52 -346z" />
    <glyph glyph-name="uniFBAE" unicode="&#x6d2;" horiz-adv-x="1744" arabic-form="isolated" 
d="M794 460q-43 57 -94.5 123.5t-110.5 120.5q-34 -49 -56 -84t-44 -67.5t-57 -74.5q-62 -74 -100.5 -107t-57 -48.5t-18.5 -38.5q0 -38 47.5 -65t127 -44.5t178 -26t199.5 -8.5q273 0 479.5 22.5t338.5 42.5l5 -148q-121 -16 -333.5 -36t-487.5 -20q-121 0 -244 10.5
t-225.5 39t-165 81t-62.5 136.5q0 64 33.5 103t88.5 84t117 126q74 95 108.5 152.5t58.5 83t65 25.5q38 0 83.5 -34.5t90 -85t79.5 -100t52 -78.5z" />
    <glyph glyph-name="uniFBAF" unicode="&#x6d2;" horiz-adv-x="1576" arabic-form="final" 
d="M1200.77 0v150h395.005v-150h-395.005zM656 0q-80 0 -152.5 -22t-128 -54t-87.5 -62.5t-32 -47.5q0 -38 47.5 -65t127 -44.5t178 -26t199.5 -8.5q227 0 354.5 23.5t186.5 40.5l31 -136q-102 -25 -237.5 -46t-332.5 -21q-121 0 -244 10.5t-225.5 39t-165 81t-62.5 136.5
q0 53 46 114t124 115t175.5 88.5t201.5 34.5h567v-150h-571z" />
    <glyph glyph-name="uniFBB0" unicode="&#x6d3;" horiz-adv-x="1744" arabic-form="isolated" 
d="M572 1085q-34 33 -58 73.5t-24 98.5q0 37 10.5 66.5t28.5 52.5q25 30 61.5 46t74.5 16t62 -9t50 -24l1 -82q-51 25 -99 25q-19 0 -42 -6.5t-41 -22.5q-13 -12 -21 -30.5t-8 -44.5q0 -36 24.5 -67.5t75.5 -46.5q4 -1 10 -3t14 -2q7 0 12 1l113 23v-83l-364 -87v78z
M794 460q-43 57 -94.5 123.5t-110.5 120.5q-34 -49 -56 -84t-44 -67.5t-57 -74.5q-62 -74 -100.5 -107t-57 -48.5t-18.5 -38.5q0 -38 47.5 -65t127 -44.5t178 -26t199.5 -8.5q273 0 479.5 22.5t338.5 42.5l5 -148q-121 -16 -333.5 -36t-487.5 -20q-121 0 -244 10.5
t-225.5 39t-165 81t-62.5 136.5q0 64 33.5 103t88.5 84t117 126q74 95 108.5 152.5t58.5 83t65 25.5q38 0 83.5 -34.5t90 -85t79.5 -100t52 -78.5z" />
    <glyph glyph-name="uniFBB1" unicode="&#x6d3;" horiz-adv-x="1576" arabic-form="final" 
d="M1200.77 0v150h395.005v-150h-395.005zM656 0q-80 0 -152.5 -22t-128 -54t-87.5 -62.5t-32 -47.5q0 -38 47.5 -65t127 -44.5t178 -26t199.5 -8.5q227 0 354.5 23.5t186.5 40.5l31 -136q-102 -25 -237.5 -46t-332.5 -21q-121 0 -244 10.5t-225.5 39t-165 81t-62.5 136.5
q0 53 46 114t124 115t175.5 88.5t201.5 34.5h567v-150h-571zM564 457q-34 33 -58 73.5t-24 98.5q0 37 10.5 66.5t28.5 52.5q25 30 61.5 46t74.5 16t62 -9t50 -24l1 -82q-51 25 -99 25q-19 0 -42 -6.5t-41 -22.5q-13 -12 -21 -30.5t-8 -44.5q0 -36 24.5 -67.5t75.5 -46.5
q4 -1 10 -3t14 -2q7 0 12 1l113 23v-83l-364 -87v78z" />
    <glyph glyph-name="uniFBD3" unicode="&#x6ad;" horiz-adv-x="1831" arabic-form="isolated" 
d="M978 150q178 0 287 19t166.5 57t77.5 95.5t20 133.5v881h139v-879q0 -115 -26.5 -200.5t-99 -142.5t-207 -85.5t-350.5 -28.5h-145q-358 0 -542.5 118.5t-184.5 350.5q0 62 12.5 121t35.5 114l125 -47q-28 -83 -28 -173q1 -175 148.5 -254.5t423.5 -79.5h148zM741 576
q65 1 131 6t111 22.5t45 55.5q0 48 -27.5 66.5t-68 24t-81.5 14t-68 35.5t-27 89q0 63 46.5 102t121 57t156.5 20v-91q-47 -3 -102.5 -11.5t-95 -26.5t-39.5 -51q0 -29 27 -39t67 -15.5t79.5 -19t67 -48t27.5 -102.5q0 -82 -53 -119.5t-137.5 -47.5t-179.5 -10v89zM800 1532
l114 114l116 -114l-116 -116zM964 1287l115 115l115 -115l-115 -115zM639 1287l115 115l115 -115l-115 -115z" />
    <glyph glyph-name="uniFBD4" unicode="&#x6ad;" horiz-adv-x="1891" arabic-form="final" 
d="M978 150q178 0 287 19t166.5 57t77.5 95.5t20 133.5v881h139v-879q0 -97 14 -165.5t58.5 -105t135.5 -36.5h35v-150h-33q-142 0 -200.5 46t-87.5 144q-60 -75 -131 -116.5t-182.5 -57.5t-291.5 -16h-145q-358 0 -542.5 118.5t-184.5 350.5q0 62 12.5 121t35.5 114
l125 -47q-28 -83 -28 -173q1 -175 148.5 -254.5t423.5 -79.5h148zM741 576q65 1 131 6t111 22.5t45 55.5q0 48 -27.5 66.5t-68 24t-81.5 14t-68 35.5t-27 89q0 63 46.5 102t121 57t156.5 20v-91q-47 -3 -102.5 -11.5t-95 -26.5t-39.5 -51q0 -29 27 -39t67 -15.5t79.5 -19
t67 -48t27.5 -102.5q0 -82 -53 -119.5t-137.5 -47.5t-179.5 -10v89zM800 1532l114 114l116 -114l-116 -116zM964 1287l115 115l115 -115l-115 -115zM639 1287l115 115l115 -115l-115 -115z" />
    <glyph glyph-name="uniFBD5" unicode="&#x6ad;" horiz-adv-x="950" arabic-form="initial" 
d="M362 1739l114 114l116 -114l-116 -116zM526 1494l115 115l115 -115l-115 -115zM201 1494l115 115l115 -115l-115 -115zM712 341q-1 -171 -127 -256t-419 -85h-186v150h185q205 0 303 43.5t98 150.5q0 59 -42 121t-110.5 127.5t-150 133t-160.5 136.5q-46 38 -46 106
q0 40 22.5 78.5t72.5 57.5l723 270v-144l-690 -256q77 -62 168 -134t172.5 -152.5t134 -167.5t52.5 -179z" />
    <glyph glyph-name="uniFBD6" unicode="&#x6ad;" horiz-adv-x="1027" arabic-form="medial" 
d="M362 1739l114 114l116 -114l-116 -116zM526 1494l115 115l115 -115l-115 -115zM201 1494l115 115l115 -115l-115 -115zM185 974q98 -78 202 -162t191.5 -182t135.5 -218q50 -126 123.5 -194t180.5 -68h29v-150h-29q-116 0 -199.5 50.5t-150.5 139.5q-41 -63 -101 -105
t-155.5 -63.5t-245.5 -21.5h-186v150h185q205 0 303 43.5t98 150.5q0 59 -42 121t-110.5 127.5t-150 133t-160.5 136.5q-46 38 -46 106q0 40 22.5 78.5t72.5 57.5l723 270v-144z" />
    <glyph glyph-name="uniFBD7" unicode="&#x6c7;" horiz-adv-x="880" arabic-form="isolated" 
d="M631 1003q-41 0 -76 6q-48 -67 -139 -104.5t-213 -45.5v63q213 21 294 106q-72 13 -133 54t-61 112t44 113t112 42q67 0 111 -42.5t44 -113.5q0 -30 -8 -62t-21 -63q11 -1 22.5 -3t23.5 -2v-60zM520 1079q11 26 20.5 56t9.5 57q0 40 -25.5 65.5t-61.5 25.5
q-41 0 -68 -25.5t-27 -67.5q0 -33 24.5 -54.5t59.5 -34.5t68 -22zM631 32q-37 -12 -89.5 -22t-93.5 -10q-335 0 -335 281q0 97 34.5 189t104.5 152t176 60q115 0 190 -75t112 -196t37 -260q0 -271 -147 -449t-442 -238l-49 126q225 46 350 163t152 279zM632 173
q-11 169 -60.5 265.5t-151.5 96.5q-69 0 -106.5 -44.5t-51.5 -103.5t-14 -101q0 -78 53.5 -109t151.5 -31q89 0 179 27z" />
    <glyph glyph-name="uniFBD8" unicode="&#x6c7;" horiz-adv-x="938" arabic-form="final" 
d="M631 1003q-41 0 -76 6q-48 -67 -139 -104.5t-213 -45.5v63q213 21 294 106q-72 13 -133 54t-61 112t44 113t112 42q67 0 111 -42.5t44 -113.5q0 -30 -8 -62t-21 -63q11 -1 22.5 -3t23.5 -2v-60zM520 1079q11 26 20.5 56t9.5 57q0 40 -25.5 65.5t-61.5 25.5
q-41 0 -68 -25.5t-27 -67.5q0 -33 24.5 -54.5t59.5 -34.5t68 -22zM874.877 0v150h83.5098v-150h-83.5098zM427 682q152 0 236 -130t102 -402h131v-150h-141q-39 -205 -179 -344t-398 -192l-49 126q220 45 339.5 152.5t160.5 257.5h-167q-179 0 -264 70t-85 211q0 97 34 189
t104 152t176 60zM632 150q-11 186 -60.5 285.5t-153.5 99.5q-68 0 -104.5 -44.5t-51 -103.5t-14.5 -101q0 -74 51 -105t153 -31h180z" />
    <glyph glyph-name="uniFBD9" unicode="&#x6c6;" horiz-adv-x="880" arabic-form="isolated" 
d="M357 927l-185 309h107l144 -248l146 248h106l-185 -309h-133zM631 32q-37 -12 -89.5 -22t-93.5 -10q-335 0 -335 281q0 97 34.5 189t104.5 152t176 60q115 0 190 -75t112 -196t37 -260q0 -271 -147 -449t-442 -238l-49 126q225 46 350 163t152 279zM632 173
q-11 169 -60.5 265.5t-151.5 96.5q-69 0 -106.5 -44.5t-51.5 -103.5t-14 -101q0 -78 53.5 -109t151.5 -31q89 0 179 27z" />
    <glyph glyph-name="uniFBDA" unicode="&#x6c6;" horiz-adv-x="938" arabic-form="final" 
d="M357 927l-185 309h107l144 -248l146 248h106l-185 -309h-133zM874.877 0v150h83.5098v-150h-83.5098zM427 682q152 0 236 -130t102 -402h131v-150h-141q-39 -205 -179 -344t-398 -192l-49 126q220 45 339.5 152.5t160.5 257.5h-167q-179 0 -264 70t-85 211q0 97 34 189
t104 152t176 60zM632 150q-11 186 -60.5 285.5t-153.5 99.5q-68 0 -104.5 -44.5t-51 -103.5t-14.5 -101q0 -74 51 -105t153 -31h180z" />
    <glyph glyph-name="uniFBDE" unicode="&#x6cb;" horiz-adv-x="880" arabic-form="isolated" 
d="M301 1236l114 114l116 -114l-116 -116zM465 991l115 115l115 -115l-115 -115zM140 991l115 115l115 -115l-115 -115zM631 32q-37 -12 -89.5 -22t-93.5 -10q-335 0 -335 281q0 97 34.5 189t104.5 152t176 60q115 0 190 -75t112 -196t37 -260q0 -271 -147 -449t-442 -238
l-49 126q225 46 350 163t152 279zM632 173q-11 169 -60.5 265.5t-151.5 96.5q-69 0 -106.5 -44.5t-51.5 -103.5t-14 -101q0 -78 53.5 -109t151.5 -31q89 0 179 27z" />
    <glyph glyph-name="uniFBDF" unicode="&#x6cb;" horiz-adv-x="938" arabic-form="final" 
d="M301 1236l114 114l116 -114l-116 -116zM465 991l115 115l115 -115l-115 -115zM140 991l115 115l115 -115l-115 -115zM874.877 0v150h83.5098v-150h-83.5098zM427 682q152 0 236 -130t102 -402h131v-150h-141q-39 -205 -179 -344t-398 -192l-49 126q220 45 339.5 152.5
t160.5 257.5h-167q-179 0 -264 70t-85 211q0 97 34 189t104 152t176 60zM632 150q-11 186 -60.5 285.5t-153.5 99.5q-68 0 -104.5 -44.5t-51 -103.5t-14.5 -101q0 -74 51 -105t153 -31h180z" />
    <glyph glyph-name="uniFBE2" unicode="&#x6c9;" horiz-adv-x="880" arabic-form="isolated" 
d="M355 1202h133l185 -309h-106l-146 247l-144 -247h-107zM631 32q-37 -12 -89.5 -22t-93.5 -10q-335 0 -335 281q0 97 34.5 189t104.5 152t176 60q115 0 190 -75t112 -196t37 -260q0 -271 -147 -449t-442 -238l-49 126q225 46 350 163t152 279zM632 173
q-11 169 -60.5 265.5t-151.5 96.5q-69 0 -106.5 -44.5t-51.5 -103.5t-14 -101q0 -78 53.5 -109t151.5 -31q89 0 179 27z" />
    <glyph glyph-name="uniFBE3" unicode="&#x6c9;" horiz-adv-x="938" arabic-form="final" 
d="M355 1202h133l185 -309h-106l-146 247l-144 -247h-107zM874.877 0v150h83.5098v-150h-83.5098zM427 682q152 0 236 -130t102 -402h131v-150h-141q-39 -205 -179 -344t-398 -192l-49 126q220 45 339.5 152.5t160.5 257.5h-167q-179 0 -264 70t-85 211q0 97 34 189t104 152
t176 60zM632 150q-11 186 -60.5 285.5t-153.5 99.5q-68 0 -104.5 -44.5t-51 -103.5t-14.5 -101q0 -74 51 -105t153 -31h180z" />
    <glyph glyph-name="uniFBE8" unicode="&#x649;" horiz-adv-x="592" arabic-form="initial" 
d="M479 401q0 -196 -94.5 -298.5t-285.5 -102.5h-119v150h119q122 0 180.5 58.5t58.5 189.5q0 57 -9 131t-25 143l136 33q21 -75 30 -155t9 -149z" />
    <glyph glyph-name="uniFBE9" unicode="&#x649;" horiz-adv-x="687" arabic-form="medial" 
d="M707 0h-27q-108 0 -167 41.5t-99 114.5q-52 -73 -128.5 -114.5t-184.5 -41.5h-121v150h121q125 0 181 57.5t56 174.5q0 44 -2.5 90t-4.5 88l134 16l15 -230q6 -94 56.5 -145t144.5 -51h26v-150z" />
    <glyph glyph-name="uniFBFC" unicode="&#x6cc;" horiz-adv-x="1477" arabic-form="isolated" 
d="M342 452q-88 -219 -88 -395q0 -210 114.5 -309.5t345.5 -100.5q87 0 178 16.5t168 51t124.5 89t47.5 129.5q0 48 -23.5 65.5t-70.5 17.5h-164q-231 0 -231 232q0 117 52.5 219.5t151 166t235.5 63.5q27 0 75.5 -4t97.5 -22l-26 -137q-42 11 -81 14t-66 3
q-85 0 -143 -30.5t-92.5 -77t-49.5 -96t-15 -86.5q0 -48 21.5 -73.5t80.5 -25.5h180q112 -1 155.5 -64t43.5 -161q0 -132 -83.5 -230t-228.5 -152t-332 -54q-291 0 -448.5 140t-157.5 423q0 102 25 209.5t76 230.5z" />
    <glyph glyph-name="uniFBFD" unicode="&#x6cc;" horiz-adv-x="1559" arabic-form="final" 
d="M305 342q-50 -146 -50 -297q0 -224 118 -320.5t346 -96.5q89 0 177.5 17.5t161.5 50.5t117 79t44 103q0 53 -47.5 87.5t-131.5 34.5h-123q-39 0 -50 51l-19 77q-6 22 18 22h591v-150h-143q18 -36 27.5 -63.5t9.5 -65.5q0 -110 -77.5 -198t-219.5 -140t-334 -52
q-292 0 -449 140.5t-157 424.5q0 76 16.5 173.5t47.5 174.5zM1434.1 0v150h144.993v-150h-144.993z" />
    <glyph glyph-name="uniFBFE" unicode="&#x6cc;" horiz-adv-x="672" arabic-form="initial" 
d="M520 705q21 -75 30 -155t9 -149q0 -216 -103 -308.5t-327 -92.5h-149v150h149q100 0 164 20t94.5 73.5t30.5 154.5q0 57 -9 131t-25 143zM277 -303l123 123l123 -123l-123 -124zM-40 -303l123 123l123 -123l-123 -124z" />
    <glyph glyph-name="uniFBFF" unicode="&#x6cc;" horiz-adv-x="767" arabic-form="medial" 
d="M787 0h-27q-111 0 -168 41.5t-97 114.5q-54 -75 -141 -115.5t-225 -40.5h-149v150h151q151 0 218.5 47.5t68.5 174.5q0 46 -2 95t-5 94l134 16l15 -232q13 -195 201 -195h26v-150zM277 -303l123 123l123 -123l-123 -124zM-40 -303l123 123l123 -123l-123 -124z" />
    <glyph glyph-name="uniFDFC" unicode="&#xfdfc;" horiz-adv-x="3189" arabic-form="isolated" 
d="M2036 -274l123 123l123 -123l-123 -124zM1719 -274l123 123l123 -123l-123 -124zM316 335q-31 -83 -46.5 -167t-15.5 -147q0 -209 102 -301t319 -92q195 0 296.5 106.5t101.5 318.5l3 1283h138l-1 -1244q0 -310 -134.5 -461t-404.5 -151q-276 0 -418.5 133.5
t-142.5 406.5q0 75 19 173t57 194zM2910 434q40 -97 57.5 -197t17.5 -198q0 -142 -54 -271.5t-170 -225.5t-302 -140l-59 120q237 62 343 197t106 304q0 85 -17 177t-56 186zM2360 401q0 -196 -94.5 -298.5t-285.5 -102.5h-119v150h119q122 0 180.5 58.5t58.5 189.5
q0 57 -9 131t-25 143l136 33q21 -75 30 -155t9 -149zM1903 0h-27q-177 0 -267 89.5t-90 300.5v946h139v-947q0 -131 57 -185t161 -54h27v-150z" />
    <glyph glyph-name="uniFE80" unicode="&#x621;" horiz-adv-x="830" arabic-form="isolated" 
d="M322 165q-89 50 -136.5 112t-47.5 142q0 146 86 230t219 84q119 0 201 -74l-40 -99q-74 46 -148 46q-86 0 -141 -49.5t-55 -136.5q0 -60 53 -108t140 -87q57 18 118 33.5t118 23.5l20 -129q-122 -19 -270 -77.5t-321 -152.5v140q59 34 105.5 56.5t98.5 45.5z" />
    <glyph glyph-name="uniFE81" unicode="&#x622;" horiz-adv-x="465" arabic-form="isolated" 
d="M119 1424q-51 0 -89 -37t-90 -94l-74 67q33 37 71 77t78.5 67.5t79.5 27.5q41 0 82 -21.5t82.5 -43t84.5 -21.5q34 0 55.5 6t44.5 23.5t62 49.5l65 -85q-135 -101 -205 -101q-39 0 -81 21t-84 42.5t-82 21.5zM163 1201h139v-1200h-139v1200z" />
    <glyph glyph-name="uniFE82" unicode="&#x622;" horiz-adv-x="527" arabic-form="final" 
d="M205 1381q-42 0 -72.5 -30t-73.5 -77l-61 56q40 45 89.5 92.5t97.5 47.5q34 0 67 -17.5t67 -35t69 -17.5q38 0 61 12.5t72 52.5l53 -70q-111 -83 -168 -83q-32 0 -66 17t-68.5 34.5t-66.5 17.5zM547 0h-27q-177 0 -267 89t-90 300v748h139v-748q0 -131 57 -185t161 -54
h27v-150z" />
    <glyph glyph-name="uniFE83" unicode="&#x623;" horiz-adv-x="465" arabic-form="isolated" 
d="M156 1355q-34 33 -58 73.5t-24 98.5q0 37 10.5 66.5t28.5 52.5q25 30 61.5 46t74.5 16t62 -9t50 -24l1 -82q-51 25 -99 25q-19 0 -42 -6.5t-41 -22.5q-13 -12 -21 -30.5t-8 -44.5q0 -36 24.5 -67.5t75.5 -46.5q4 -1 10 -3t14 -2q7 0 12 1l113 23v-83l-364 -87v78z
M163 1143.28h139v-1140.42h-139v1140.42z" />
    <glyph glyph-name="uniFE84" unicode="&#x623;" horiz-adv-x="527" arabic-form="final" 
d="M156 1355q-34 33 -58 73.5t-24 98.5q0 37 10.5 66.5t28.5 52.5q25 30 61.5 46t74.5 16t62 -9t50 -24l1 -82q-51 25 -99 25q-19 0 -42 -6.5t-41 -22.5q-13 -12 -21 -30.5t-8 -44.5q0 -36 24.5 -67.5t75.5 -46.5q4 -1 10 -3t14 -2q7 0 12 1l113 23v-83l-364 -87v78zM547 0
h-27q-177 0 -267 89t-90 300v748h139v-748q0 -131 57 -185t161 -54h27v-150z" />
    <glyph glyph-name="uniFE85" unicode="&#x624;" horiz-adv-x="880" arabic-form="isolated" 
d="M346 965q-34 33 -58 73.5t-24 98.5q0 37 10.5 66.5t28.5 52.5q25 30 61.5 46t74.5 16t62 -9t50 -24l1 -82q-51 25 -99 25q-19 0 -42 -6.5t-41 -22.5q-13 -12 -21 -30.5t-8 -44.5q0 -36 24.5 -67.5t75.5 -46.5q4 -1 10 -3t14 -2q7 0 12 1l113 23v-83l-364 -87v78zM631 32
q-37 -12 -89.5 -22t-93.5 -10q-335 0 -335 281q0 97 34.5 189t104.5 152t176 60q115 0 190 -75t112 -196t37 -260q0 -271 -147 -449t-442 -238l-49 126q225 46 350 163t152 279zM632 173q-11 169 -60.5 265.5t-151.5 96.5q-69 0 -106.5 -44.5t-51.5 -103.5t-14 -101
q0 -78 53.5 -109t151.5 -31q89 0 179 27z" />
    <glyph glyph-name="uniFE86" unicode="&#x624;" horiz-adv-x="938" arabic-form="final" 
d="M346 950q-34 33 -58 73.5t-24 98.5q0 37 10.5 66.5t28.5 52.5q25 30 61.5 46t74.5 16t62 -9t50 -24l1 -82q-51 25 -99 25q-19 0 -42 -6.5t-41 -22.5q-13 -12 -21 -30.5t-8 -44.5q0 -36 24.5 -67.5t75.5 -46.5q4 -1 10 -3t14 -2q7 0 12 1l113 23v-83l-364 -87v78z
M874.877 0v150h83.5098v-150h-83.5098zM427 682q152 0 236 -130t102 -402h131v-150h-141q-39 -205 -179 -344t-398 -192l-49 126q220 45 339.5 152.5t160.5 257.5h-167q-179 0 -264 70t-85 211q0 97 34 189t104 152t176 60zM632 150q-11 186 -60.5 285.5t-153.5 99.5
q-68 0 -104.5 -44.5t-51 -103.5t-14.5 -101q0 -74 51 -105t153 -31h180z" />
    <glyph glyph-name="uniFE87" unicode="&#x625;" horiz-adv-x="465" arabic-form="isolated" 
d="M142 -488q-34 33 -58 73.5t-24 98.5q0 37 10.5 66.5t28.5 52.5q25 30 61.5 46t74.5 16t62 -9t50 -24l1 -82q-51 25 -99 25q-19 0 -42 -6.5t-41 -22.5q-13 -12 -21 -30.5t-8 -44.5q0 -36 24.5 -67.5t75.5 -46.5q4 -1 10 -3t14 -2q7 0 12 1l113 23v-83l-364 -87v78z
M164 1336h139v-1335h-139v1335z" />
    <glyph glyph-name="uniFE88" unicode="&#x625;" horiz-adv-x="527" arabic-form="final" 
d="M222 -488q-34 33 -58 73.5t-24 98.5q0 37 10.5 66.5t28.5 52.5q25 30 61.5 46t74.5 16t62 -9t50 -24l1 -82q-51 25 -99 25q-19 0 -42 -6.5t-41 -22.5q-13 -12 -21 -30.5t-8 -44.5q0 -36 24.5 -67.5t75.5 -46.5q4 -1 10 -3t14 -2q7 0 12 1l113 23v-83l-364 -87v78zM547 0
h-27q-177 0 -267 89.5t-90 300.5v946h139v-947q0 -131 57 -185t161 -54h27v-150z" />
    <glyph glyph-name="uniFE89" unicode="&#x626;" horiz-adv-x="1477" arabic-form="isolated" 
d="M522 759q-34 33 -58 73.5t-24 98.5q0 37 10.5 66.5t28.5 52.5q25 30 61.5 46t74.5 16t62 -9t50 -24l1 -82q-51 25 -99 25q-19 0 -42 -6.5t-41 -22.5q-13 -12 -21 -30.5t-8 -44.5q0 -36 24.5 -67.5t75.5 -46.5q4 -1 10 -3t14 -2q7 0 12 1l113 23v-83l-364 -87v78zM342 452
q-88 -219 -88 -395q0 -210 114.5 -309.5t345.5 -100.5q87 0 178 16.5t168 51t124.5 89t47.5 129.5q0 48 -23.5 65.5t-70.5 17.5h-164q-231 0 -231 232q0 117 52.5 219.5t151 166t235.5 63.5q27 0 75.5 -4t97.5 -22l-26 -137q-42 11 -81 14t-66 3q-85 0 -143 -30.5t-92.5 -77
t-49.5 -96t-15 -86.5q0 -48 21.5 -73.5t80.5 -25.5h180q112 -1 155.5 -64t43.5 -161q0 -132 -83.5 -230t-228.5 -152t-332 -54q-291 0 -448.5 140t-157.5 423q0 102 25 209.5t76 230.5z" />
    <glyph glyph-name="uniFE8A" unicode="&#x626;" horiz-adv-x="1559" arabic-form="final" 
d="M305 342q-50 -146 -50 -297q0 -224 118 -320.5t346 -96.5q89 0 177.5 17.5t161.5 50.5t117 79t44 103q0 53 -47.5 87.5t-131.5 34.5h-123q-39 0 -50 51l-19 77q-6 22 18 22h591v-150h-143q18 -36 27.5 -63.5t9.5 -65.5q0 -110 -77.5 -198t-219.5 -140t-334 -52
q-292 0 -449 140.5t-157 424.5q0 76 16.5 173.5t47.5 174.5zM1434.1 0v150h144.993v-150h-144.993zM551 565q-34 33 -58 73.5t-24 98.5q0 37 10.5 66.5t28.5 52.5q25 30 61.5 46t74.5 16t62 -9t50 -24l1 -82q-51 25 -99 25q-19 0 -42 -6.5t-41 -22.5q-13 -12 -21 -30.5
t-8 -44.5q0 -36 24.5 -67.5t75.5 -46.5q4 -1 10 -3t14 -2q7 0 12 1l113 23v-83l-364 -87v78z" />
    <glyph glyph-name="uniFE8B" unicode="&#x626;" horiz-adv-x="592" arabic-form="initial" 
d="M479 401q0 -196 -94.5 -298.5t-285.5 -102.5h-119v150h119q122 0 180.5 58.5t58.5 189.5q0 57 -9 131t-25 143l136 33q21 -75 30 -155t9 -149zM218 933q-34 33 -58 73.5t-24 98.5q0 37 10.5 66.5t28.5 52.5q25 30 61.5 46t74.5 16t62 -9t50 -24l1 -82q-51 25 -99 25
q-19 0 -42 -6.5t-41 -22.5q-13 -12 -21 -30.5t-8 -44.5q0 -36 24.5 -67.5t75.5 -46.5q4 -1 10 -3t14 -2q7 0 12 1l113 23v-83l-364 -87v78z" />
    <glyph glyph-name="uniFE8C" unicode="&#x626;" horiz-adv-x="687" arabic-form="medial" 
d="M707 0h-27q-108 0 -167 41.5t-99 114.5q-52 -73 -128.5 -114.5t-184.5 -41.5h-121v150h121q125 0 181 57.5t56 174.5q0 44 -2.5 90t-4.5 88l134 16l15 -230q6 -94 56.5 -145t144.5 -51h26v-150zM246 826q-34 33 -58 73.5t-24 98.5q0 37 10.5 66.5t28.5 52.5
q25 30 61.5 46t74.5 16t62 -9t50 -24l1 -82q-51 25 -99 25q-19 0 -42 -6.5t-41 -22.5q-13 -12 -21 -30.5t-8 -44.5q0 -36 24.5 -67.5t75.5 -46.5q4 -1 10 -3t14 -2q7 0 12 1l113 23v-83l-364 -87v78z" />
    <glyph glyph-name="uniFE8D" unicode="&#x627;" horiz-adv-x="465" arabic-form="isolated" 
d="M163 1336h139v-1335h-139v1335z" />
    <glyph glyph-name="uniFE8E" unicode="&#x627;" horiz-adv-x="527" arabic-form="final" 
d="M547 0h-27q-177 0 -267 89.5t-90 300.5v946h139v-947q0 -131 57 -185t161 -54h27v-150z" />
    <glyph glyph-name="uniFE8F" unicode="&#x628;" horiz-adv-x="1777" arabic-form="isolated" 
d="M799 -303l128 128l129 -128l-129 -128zM975 0h-135q-358 0 -542.5 118.5t-184.5 350.5q0 62 12.5 121t35.5 114l125 -47q-28 -83 -28 -173q1 -175 148.5 -254.5t423.5 -79.5h138q101 0 199.5 5.5t178.5 31t127.5 83.5t47.5 163q0 89 -33 239l136 33q20 -72 30 -147.5
t10 -109.5q0 -147 -49.5 -236t-141 -135t-218 -61.5t-280.5 -15.5z" />
    <glyph glyph-name="uniFE90" unicode="&#x628;" horiz-adv-x="1878" arabic-form="final" 
d="M775 -303l128 128l129 -128l-129 -128zM985 0h-145q-358 0 -542.5 118.5t-184.5 350.5q0 62 12.5 121t35.5 114l125 -47q-28 -83 -28 -173q1 -175 148.5 -254.5t423.5 -79.5h150q193 0 323 31.5t189 103.5q38 46 38 132q0 36 -2 72.5t-4 70.5l131 16l15 -232
q13 -194 201 -194h27v-150h-27q-108 0 -177 47t-114 137q-89 -93 -235 -138.5t-360 -45.5z" />
    <glyph glyph-name="uniFE91" unicode="&#x628;" horiz-adv-x="592" arabic-form="initial" 
d="M479 401q0 -196 -94.5 -298.5t-285.5 -102.5h-119v150h119q122 0 180.5 58.5t58.5 189.5q0 57 -9 131t-25 143l136 33q21 -75 30 -155t9 -149zM77 -303l128 128l129 -128l-129 -128z" />
    <glyph glyph-name="uniFE92" unicode="&#x628;" horiz-adv-x="687" arabic-form="medial" 
d="M707 0h-27q-108 0 -167 41.5t-99 114.5q-52 -73 -128.5 -114.5t-184.5 -41.5h-121v150h121q125 0 181 57.5t56 174.5q0 44 -2.5 90t-4.5 88l134 16l15 -230q6 -94 56.5 -145t144.5 -51h26v-150zM77 -303l128 128l129 -128l-129 -128z" />
    <glyph glyph-name="uniFE93" unicode="&#x629;" horiz-adv-x="922" arabic-form="isolated" 
d="M372 886q211 -167 324 -304.5t113 -272.5q0 -139 -95 -222t-253 -83q-162 0 -255 78t-93 227q0 106 60 202.5t171 220.5l-51 47zM447 630q-96 -85 -146.5 -164t-50.5 -152q0 -76 52 -120t158 -44q212 0 212 165q0 69 -58.5 148.5t-166.5 166.5zM470 1198l123 123
l123 -123l-123 -124zM153 1198l123 123l123 -123l-123 -124z" />
    <glyph glyph-name="uniFE94" unicode="&#x629;" horiz-adv-x="1038" arabic-form="final" 
d="M615 1201l123 123l123 -123l-123 -124zM298 1201l123 123l123 -123l-123 -124zM113 397q0 284 509 442l-7 43l130 27l79 -573q12 -87 64 -136.5t139 -49.5h31v-150h-35q-147 0 -216.5 65t-96.5 185q-57 -53 -127.5 -85.5t-151.5 -32.5q-134 0 -226 64t-92 201zM643 709
q-176 -65 -281 -136.5t-105 -163.5q0 -69 45.5 -104t122.5 -35q57 0 115 23t97 67t39 107q0 32 -4 60z" />
    <glyph glyph-name="uniFE95" unicode="&#x62a;" horiz-adv-x="1777" arabic-form="isolated" 
d="M975 0h-135q-358 0 -542.5 118.5t-184.5 350.5q0 62 12.5 121t35.5 114l125 -47q-28 -83 -28 -173q1 -175 148.5 -254.5t423.5 -79.5h138q101 0 199.5 5.5t178.5 31t127.5 83.5t47.5 163q0 89 -33 239l136 33q20 -72 30 -147.5t10 -109.5q0 -147 -49.5 -236t-141 -135
t-218 -61.5t-280.5 -15.5zM931 840l123 123l123 -123l-123 -124zM614 840l123 123l123 -123l-123 -124z" />
    <glyph glyph-name="uniFE96" unicode="&#x62a;" horiz-adv-x="1878" arabic-form="final" 
d="M946 839l123 123l123 -123l-123 -124zM629 839l123 123l123 -123l-123 -124zM985 0h-145q-358 0 -542.5 118.5t-184.5 350.5q0 62 12.5 121t35.5 114l125 -47q-28 -83 -28 -173q1 -175 148.5 -254.5t423.5 -79.5h150q193 0 323 31.5t189 103.5q38 46 38 132q0 36 -2 72.5
t-4 70.5l131 16l15 -232q13 -194 201 -194h27v-150h-27q-108 0 -177 47t-114 137q-89 -93 -235 -138.5t-360 -45.5z" />
    <glyph glyph-name="uniFE97" unicode="&#x62a;" horiz-adv-x="672" arabic-form="initial" 
d="M520 705q21 -75 30 -155t9 -149q0 -216 -103 -308.5t-327 -92.5h-149v150h149q100 0 164 20t94.5 73.5t30.5 154.5q0 57 -9 131t-25 143zM345 1020l123 123l123 -123l-123 -124zM28 1020l123 123l123 -123l-123 -124z" />
    <glyph glyph-name="uniFE98" unicode="&#x62a;" horiz-adv-x="767" arabic-form="medial" 
d="M787 0h-27q-111 0 -168 41.5t-97 114.5q-54 -75 -141 -115.5t-225 -40.5h-149v150h151q151 0 218.5 47.5t68.5 174.5q0 46 -2 95t-5 94l134 16l15 -232q13 -195 201 -195h26v-150zM346 937l123 123l123 -123l-123 -124zM29 937l123 123l123 -123l-123 -124z" />
    <glyph glyph-name="uniFE99" unicode="&#x62b;" horiz-adv-x="1777" arabic-form="isolated" 
d="M975 0h-135q-358 0 -542.5 118.5t-184.5 350.5q0 62 12.5 121t35.5 114l125 -47q-28 -83 -28 -173q1 -175 148.5 -254.5t423.5 -79.5h138q101 0 199.5 5.5t178.5 31t127.5 83.5t47.5 163q0 89 -33 239l136 33q20 -72 30 -147.5t10 -109.5q0 -147 -49.5 -236t-141 -135
t-218 -61.5t-280.5 -15.5zM780 1010l114 114l116 -114l-116 -116zM944 765l115 115l115 -115l-115 -115zM619 765l115 115l115 -115l-115 -115z" />
    <glyph glyph-name="uniFE9A" unicode="&#x62b;" horiz-adv-x="1878" arabic-form="final" 
d="M792 1011l114 114l116 -114l-116 -116zM956 766l115 115l115 -115l-115 -115zM631 766l115 115l115 -115l-115 -115zM985 0h-145q-358 0 -542.5 118.5t-184.5 350.5q0 62 12.5 121t35.5 114l125 -47q-28 -83 -28 -173q1 -175 148.5 -254.5t423.5 -79.5h150
q193 0 323 31.5t189 103.5q38 46 38 132q0 36 -2 72.5t-4 70.5l131 16l15 -232q13 -194 201 -194h27v-150h-27q-108 0 -177 47t-114 137q-89 -93 -235 -138.5t-360 -45.5z" />
    <glyph glyph-name="uniFE9B" unicode="&#x62b;" horiz-adv-x="672" arabic-form="initial" 
d="M520 705q21 -75 30 -155t9 -149q0 -216 -103 -308.5t-327 -92.5h-149v150h149q100 0 164 20t94.5 73.5t30.5 154.5q0 57 -9 131t-25 143zM185 1235l114 114l116 -114l-116 -116zM349 990l115 115l115 -115l-115 -115zM24 990l115 115l115 -115l-115 -115z" />
    <glyph glyph-name="uniFE9C" unicode="&#x62b;" horiz-adv-x="767" arabic-form="medial" 
d="M787 0h-27q-111 0 -168 41.5t-97 114.5q-54 -75 -141 -115.5t-225 -40.5h-149v150h151q151 0 218.5 47.5t68.5 174.5q0 46 -2 95t-5 94l134 16l15 -232q13 -195 201 -195h26v-150zM187 1137l114 114l116 -114l-116 -116zM351 892l115 115l115 -115l-115 -115zM26 892
l115 115l115 -115l-115 -115z" />
    <glyph glyph-name="uniFE9D" unicode="&#x62c;" horiz-adv-x="1347" arabic-form="isolated" 
d="M887 531q-38 15 -60.5 24t-75.5 31q-102 41 -168 65.5t-106 24.5q-61 0 -114.5 -33.5t-92.5 -79.5l-25 -32l-126 63l21 32q61 91 148 144.5t190 53.5q60 0 134 -26t163 -68q149 -73 250.5 -108.5t186.5 -42.5l-11 -142q-198 -17 -370.5 -66.5t-303 -126.5t-204 -176.5
t-73.5 -217.5q0 -194 140 -290t408 -96q105 0 206.5 15.5t198.5 58.5l37 -135q-97 -44 -212 -62t-244 -18q-201 0 -351.5 55t-234.5 168t-84 288q0 252 196.5 435t576.5 262zM676 -78l128 128l129 -128l-129 -128z" />
    <glyph glyph-name="uniFE9E" unicode="&#x62c;" horiz-adv-x="1378" arabic-form="final" 
d="M581 -119l128 128l129 -128l-129 -128zM1240 -597q-97 -44 -212 -62t-244 -18q-201 0 -351.5 55t-234.5 168t-84 288q0 251 196.5 434.5t576.5 262.5q-38 15 -60.5 24t-75.5 31q-102 41 -168 65.5t-106 24.5q-60 0 -113.5 -32.5t-92.5 -79.5l-26 -33l-126 63l22 33
q61 91 148 144t189 53q60 0 134 -26t163 -68q149 -73 250.5 -108.5t186.5 -42.5l-11 -142q-54 -4 -101.5 -10t-94.5 -12q1 -157 81.5 -211t233.5 -54h78v-150h-75q-152 0 -248.5 36t-142.5 121.5t-47 234.5q-304 -86 -469.5 -228.5t-165.5 -313.5q0 -194 140 -290t408 -96
q105 0 206.5 15.5t198.5 58.5z" />
    <glyph glyph-name="uniFE9F" unicode="&#x62c;" horiz-adv-x="1334" arabic-form="initial" 
d="M507 -303l128 128l129 -128l-129 -128zM-20 0v150h163q132 0 245.5 28.5t230.5 82t258 127.5l110 58q-35 11 -54.5 18.5t-53 22t-110.5 45.5q-102 41 -168 65.5t-106 24.5q-59 0 -112 -32t-91 -77l-29 -36l-126 63l26 38q60 89 146 140.5t187 51.5q60 0 134 -26t163 -68
q149 -74 251 -109t187 -42l-2 -143q-62 -9 -145.5 -45.5t-229.5 -113.5q-122 -65 -235 -115t-229.5 -79t-249.5 -29h-160z" />
    <glyph glyph-name="uniFEA0" unicode="&#x62c;" horiz-adv-x="1351" arabic-form="medial" 
d="M507 -303l128 128l129 -128l-129 -128zM1229 382q-41 -6 -92.5 -21.5t-109.5 -43.5q3 -93 75 -130t215 -37h54v-150h-58q-193 0 -282 61t-106 201q-189 -104 -384.5 -183t-400.5 -79h-160v150h163q132 0 245.5 29t230.5 82.5t258 126.5l110 57q-35 11 -54.5 19t-53 22.5
t-110.5 45.5q-102 41 -168 65.5t-106 24.5q-59 0 -112 -32t-91 -77l-29 -36l-126 62l26 39q60 88 146 140t187 52q60 0 134 -26t163 -69q149 -73 251 -108.5t187 -41.5z" />
    <glyph glyph-name="uniFEA1" unicode="&#x62d;" horiz-adv-x="1347" arabic-form="isolated" 
d="M887 531q-38 15 -60.5 24t-75.5 31q-102 41 -168 65.5t-106 24.5q-61 0 -114.5 -33.5t-92.5 -79.5l-25 -32l-126 63l21 32q61 91 148 144.5t190 53.5q60 0 134 -26t163 -68q149 -73 250.5 -108.5t186.5 -42.5l-11 -142q-198 -17 -370.5 -66.5t-303 -126.5t-204 -176.5
t-73.5 -217.5q0 -194 140 -290t408 -96q105 0 206.5 15.5t198.5 58.5l37 -135q-97 -44 -212 -62t-244 -18q-201 0 -351.5 55t-234.5 168t-84 288q0 252 196.5 435t576.5 262z" />
    <glyph glyph-name="uniFEA2" unicode="&#x62d;" horiz-adv-x="1378" arabic-form="final" 
d="M1240 -597q-97 -44 -212 -62t-244 -18q-201 0 -351.5 55t-234.5 168t-84 288q0 251 196.5 434.5t576.5 262.5q-38 15 -60.5 24t-75.5 31q-102 41 -168 65.5t-106 24.5q-60 0 -113.5 -32.5t-92.5 -79.5l-26 -33l-126 63l22 33q61 91 148 144t189 53q60 0 134 -26t163 -68
q149 -73 250.5 -108.5t186.5 -42.5l-11 -142q-54 -4 -101.5 -10t-94.5 -12q1 -157 81.5 -211t233.5 -54h78v-150h-75q-152 0 -248.5 36t-142.5 121.5t-47 234.5q-304 -86 -469.5 -228.5t-165.5 -313.5q0 -194 140 -290t408 -96q105 0 206.5 15.5t198.5 58.5z" />
    <glyph glyph-name="uniFEA3" unicode="&#x62d;" horiz-adv-x="1334" arabic-form="initial" 
d="M-20 0v150h163q132 0 245.5 28.5t230.5 82t258 127.5l110 58q-35 11 -54.5 18.5t-53 22t-110.5 45.5q-102 41 -168 65.5t-106 24.5q-59 0 -112 -32t-91 -77l-29 -36l-126 63l26 38q60 89 146 140.5t187 51.5q60 0 134 -26t163 -68q149 -74 251 -109t187 -42l-2 -143
q-62 -9 -145.5 -45.5t-229.5 -113.5q-122 -65 -235 -115t-229.5 -79t-249.5 -29h-160z" />
    <glyph glyph-name="uniFEA4" unicode="&#x62d;" horiz-adv-x="1351" arabic-form="medial" 
d="M1229 382q-41 -6 -92.5 -21.5t-109.5 -43.5q3 -93 75 -130t215 -37h54v-150h-58q-193 0 -282 61t-106 201q-189 -104 -384.5 -183t-400.5 -79h-160v150h163q132 0 245.5 29t230.5 82.5t258 126.5l110 57q-35 11 -54.5 19t-53 22.5t-110.5 45.5q-102 41 -168 65.5
t-106 24.5q-59 0 -112 -32t-91 -77l-29 -36l-126 62l26 39q60 88 146 140t187 52q60 0 134 -26t163 -69q149 -73 251 -108.5t187 -41.5z" />
    <glyph glyph-name="uniFEA5" unicode="&#x62e;" horiz-adv-x="1347" arabic-form="isolated" 
d="M438 1144l128 128l129 -128l-129 -128zM887 531q-38 15 -60.5 24t-75.5 31q-102 41 -168 65.5t-106 24.5q-61 0 -114.5 -33.5t-92.5 -79.5l-25 -32l-126 63l21 32q61 91 148 144.5t190 53.5q60 0 134 -26t163 -68q149 -73 250.5 -108.5t186.5 -42.5l-11 -142
q-198 -17 -370.5 -66.5t-303 -126.5t-204 -176.5t-73.5 -217.5q0 -194 140 -290t408 -96q105 0 206.5 15.5t198.5 58.5l37 -135q-97 -44 -212 -62t-244 -18q-201 0 -351.5 55t-234.5 168t-84 288q0 252 196.5 435t576.5 262z" />
    <glyph glyph-name="uniFEA6" unicode="&#x62e;" horiz-adv-x="1378" arabic-form="final" 
d="M438 1144l128 128l129 -128l-129 -128zM1240 -597q-97 -44 -212 -62t-244 -18q-201 0 -351.5 55t-234.5 168t-84 288q0 251 196.5 434.5t576.5 262.5q-38 15 -60.5 24t-75.5 31q-102 41 -168 65.5t-106 24.5q-60 0 -113.5 -32.5t-92.5 -79.5l-26 -33l-126 63l22 33
q61 91 148 144t189 53q60 0 134 -26t163 -68q149 -73 250.5 -108.5t186.5 -42.5l-11 -142q-54 -4 -101.5 -10t-94.5 -12q1 -157 81.5 -211t233.5 -54h78v-150h-75q-152 0 -248.5 36t-142.5 121.5t-47 234.5q-304 -86 -469.5 -228.5t-165.5 -313.5q0 -194 140 -290t408 -96
q105 0 206.5 15.5t198.5 58.5z" />
    <glyph glyph-name="uniFEA7" unicode="&#x62e;" horiz-adv-x="1334" arabic-form="initial" 
d="M447 1092l128 128l129 -128l-129 -128zM-20 0v150h163q132 0 245.5 28.5t230.5 82t258 127.5l110 58q-35 11 -54.5 18.5t-53 22t-110.5 45.5q-102 41 -168 65.5t-106 24.5q-59 0 -112 -32t-91 -77l-29 -36l-126 63l26 38q60 89 146 140.5t187 51.5q60 0 134 -26t163 -68
q149 -74 251 -109t187 -42l-2 -143q-62 -9 -145.5 -45.5t-229.5 -113.5q-122 -65 -235 -115t-229.5 -79t-249.5 -29h-160z" />
    <glyph glyph-name="uniFEA8" unicode="&#x62e;" horiz-adv-x="1351" arabic-form="medial" 
d="M447 1092l128 128l129 -128l-129 -128zM1229 382q-41 -6 -92.5 -21.5t-109.5 -43.5q3 -93 75 -130t215 -37h54v-150h-58q-193 0 -282 61t-106 201q-189 -104 -384.5 -183t-400.5 -79h-160v150h163q132 0 245.5 29t230.5 82.5t258 126.5l110 57q-35 11 -54.5 19t-53 22.5
t-110.5 45.5q-102 41 -168 65.5t-106 24.5q-59 0 -112 -32t-91 -77l-29 -36l-126 62l26 39q60 88 146 140t187 52q60 0 134 -26t163 -69q149 -73 251 -108.5t187 -41.5z" />
    <glyph glyph-name="uniFEA9" unicode="&#x62f;" horiz-adv-x="963" arabic-form="isolated" 
d="M113 174q119 -23 204 -23q185 0 286 47.5t101 150.5q0 102 -105 215.5t-303 240.5l82 123q238 -145 355 -289t117 -287q0 -173 -126.5 -261.5t-393.5 -88.5q-58 0 -113 6t-104 16v150z" />
    <glyph glyph-name="uniFEAA" unicode="&#x62f;" horiz-adv-x="1055" arabic-form="final" 
d="M113 175q106 -24 194 -24q153 0 253.5 40t100.5 144q0 31 -12.5 72.5t-24.5 70.5l-156 391l128 59l202 -516q48 -124 98 -193t137 -69h42v-150h-42q-107 0 -171 43t-113 130q-60 -85 -160.5 -128.5t-266.5 -43.5q-63 0 -113.5 6t-95.5 16v152z" />
    <glyph glyph-name="uniFEAB" unicode="&#x630;" horiz-adv-x="963" arabic-form="isolated" 
d="M220 1260l128 128l129 -128l-129 -128zM113 174q119 -23 204 -23q185 0 286 47.5t101 150.5q0 102 -105 215.5t-303 240.5l82 123q238 -145 355 -289t117 -287q0 -173 -126.5 -261.5t-393.5 -88.5q-58 0 -113 6t-104 16v150z" />
    <glyph glyph-name="uniFEAC" unicode="&#x630;" horiz-adv-x="1055" arabic-form="final" 
d="M369 1254l128 128l129 -128l-129 -128zM113 175q106 -24 194 -24q153 0 253.5 40t100.5 144q0 31 -12.5 72.5t-24.5 70.5l-156 391l128 59l202 -516q48 -124 98 -193t137 -69h42v-150h-42q-107 0 -171 43t-113 130q-60 -85 -160.5 -128.5t-266.5 -43.5q-63 0 -113.5 6
t-95.5 16v152z" />
    <glyph glyph-name="uniFEAD" unicode="&#x631;" horiz-adv-x="710" arabic-form="isolated" 
d="M522 493q40 -97 57.5 -197t17.5 -198q0 -142 -54 -271.5t-170 -225.5t-302 -140l-59 120q237 62 343 197t106 304q0 85 -17 177t-56 186z" />
    <glyph glyph-name="uniFEAE" unicode="&#x631;" horiz-adv-x="790" arabic-form="final" 
d="M598 69q-8 -139 -63 -261.5t-168 -213t-296 -133.5l-59 120q240 63 344.5 199t104.5 307q0 84 -17.5 174.5t-55.5 183.5l133 48l57 -187q27 -81 72.5 -118.5t120.5 -37.5h39v-150h-29q-75 0 -116 21t-67 48z" />
    <glyph glyph-name="uniFEAF" unicode="&#x632;" horiz-adv-x="710" arabic-form="isolated" 
d="M282 852l128 128l129 -128l-129 -128zM522 493q40 -97 57.5 -197t17.5 -198q0 -142 -54 -271.5t-170 -225.5t-302 -140l-59 120q237 62 343 197t106 304q0 85 -17 177t-56 186z" />
    <glyph glyph-name="uniFEB0" unicode="&#x632;" horiz-adv-x="790" arabic-form="final" 
d="M282 852l128 128l129 -128l-129 -128zM598 69q-8 -139 -63 -261.5t-168 -213t-296 -133.5l-59 120q240 63 344.5 199t104.5 307q0 84 -17.5 174.5t-55.5 183.5l133 48l57 -187q27 -81 72.5 -118.5t120.5 -37.5h39v-150h-29q-75 0 -116 21t-67 48z" />
    <glyph glyph-name="uniFEB1" unicode="&#x633;" horiz-adv-x="2456" arabic-form="isolated" 
d="M1531 0q-71 0 -117 20.5t-86 53.5q-4 -292 -164.5 -443t-442.5 -151q-291 0 -449.5 143.5t-158.5 417.5q0 200 84 410l127 -52q-69 -187 -69 -353q0 -418 463 -418q229 0 351 114t123 343q0 177 -84 360l139 48l54 -168q55 -174 232 -175q106 0 153 59.5t47 164.5
q0 47 -9 165l135 16l15 -210q5 -79 46 -137t127 -58q78 0 116 62.5t38 174.5q0 103 -40 254l139 37q43 -143 43 -276q0 -113 -28.5 -204t-93.5 -144t-173 -54q-93 0 -148 41.5t-91 115.5q-53 -73 -119 -115t-159 -42z" />
    <glyph glyph-name="uniFEB2" unicode="&#x633;" horiz-adv-x="2553" arabic-form="final" 
d="M1531 0q-71 0 -117 20.5t-86 53.5q-4 -292 -164.5 -443t-442.5 -151q-291 0 -449.5 143.5t-158.5 417.5q0 200 84 410l127 -52q-69 -187 -69 -353q0 -418 463 -418q229 0 351 114t123 343q0 177 -84 360l139 48l54 -168q55 -174 232 -175q106 0 153 59.5t47 164.5
q0 47 -9 165l135 16l15 -210q5 -79 46.5 -137t127.5 -58q78 0 116 58.5t38 163.5q0 65 -9 188l135 16l15 -231q13 -195 200 -195h30v-150h-29q-94 0 -162.5 40t-97.5 121q-33 -73 -86.5 -117t-148.5 -44q-94 0 -149 41.5t-91 115.5q-53 -73 -119 -115t-159 -42z" />
    <glyph glyph-name="uniFEB3" unicode="&#x633;" horiz-adv-x="1562" arabic-form="initial" 
d="M1153 150q78 0 116 62.5t38 174.5q0 102 -40 253l135 34q22 -72 34.5 -139t12.5 -133q0 -113 -28.5 -204t-93.5 -144t-173 -54q-94 0 -149 41.5t-91 115.5q-53 -73 -119 -115t-159 -42q-111 0 -169.5 42t-92.5 119q-46 -78 -119 -119.5t-206 -41.5h-69v150h71
q125 0 191 49.5t66 174.5q0 50 -9 165l135 16l15 -210q6 -83 53 -139t136 -56q106 0 153 59.5t47 164.5q0 47 -9 165l135 16l15 -210q5 -79 46.5 -137t127.5 -58z" />
    <glyph glyph-name="uniFEB4" unicode="&#x633;" horiz-adv-x="1658" arabic-form="medial" 
d="M1153 150q78 0 116 58.5t38 163.5q0 65 -9 188l135 16l15 -231q13 -195 200 -195h30v-150h-29q-94 0 -162.5 40t-97.5 121q-33 -73 -86.5 -117t-148.5 -44q-94 0 -149 41.5t-91 115.5q-53 -73 -119.5 -115t-158.5 -42q-111 1 -169.5 42.5t-92.5 118.5
q-46 -78 -119 -119.5t-206 -41.5h-69v150h71q125 0 191 49.5t66 174.5q0 50 -9 165l135 16l15 -210q6 -83 53 -139t136 -56q106 0 153 59.5t47 164.5q0 47 -9 165l135 16l15 -210q5 -79 46.5 -137t127.5 -58z" />
    <glyph glyph-name="uniFEB5" unicode="&#x634;" horiz-adv-x="2456" arabic-form="isolated" 
d="M1630 1147l114 114l116 -114l-116 -116zM1794 902l115 115l115 -115l-115 -115zM1469 902l115 115l115 -115l-115 -115zM1531 0q-71 0 -117 20.5t-86 53.5q-4 -292 -164.5 -443t-442.5 -151q-291 0 -449.5 143.5t-158.5 417.5q0 200 84 410l127 -52q-69 -187 -69 -353
q0 -418 463 -418q229 0 351 114t123 343q0 177 -84 360l139 48l54 -168q55 -174 232 -175q106 0 153 59.5t47 164.5q0 47 -9 165l135 16l15 -210q5 -79 46 -137t127 -58q78 0 116 62.5t38 174.5q0 103 -40 254l139 37q43 -143 43 -276q0 -113 -28.5 -204t-93.5 -144
t-173 -54q-93 0 -148 41.5t-91 115.5q-53 -73 -119 -115t-159 -42z" />
    <glyph glyph-name="uniFEB6" unicode="&#x634;" horiz-adv-x="2553" arabic-form="final" 
d="M1630 1147l114 114l116 -114l-116 -116zM1794 902l115 115l115 -115l-115 -115zM1469 902l115 115l115 -115l-115 -115zM1531 0q-71 0 -117 20.5t-86 53.5q-4 -292 -164.5 -443t-442.5 -151q-291 0 -449.5 143.5t-158.5 417.5q0 200 84 410l127 -52q-69 -187 -69 -353
q0 -418 463 -418q229 0 351 114t123 343q0 177 -84 360l139 48l54 -168q55 -174 232 -175q106 0 153 59.5t47 164.5q0 47 -9 165l135 16l15 -210q5 -79 46.5 -137t127.5 -58q78 0 116 58.5t38 163.5q0 65 -9 188l135 16l15 -231q13 -195 200 -195h30v-150h-29
q-94 0 -162.5 40t-97.5 121q-33 -73 -86.5 -117t-148.5 -44q-94 0 -149 41.5t-91 115.5q-53 -73 -119 -115t-159 -42z" />
    <glyph glyph-name="uniFEB7" unicode="&#x634;" horiz-adv-x="1562" arabic-form="initial" 
d="M736 1147l114 114l116 -114l-116 -116zM900 902l115 115l115 -115l-115 -115zM575 902l115 115l115 -115l-115 -115zM1153 150q78 0 116 62.5t38 174.5q0 102 -40 253l135 34q22 -72 34.5 -139t12.5 -133q0 -113 -28.5 -204t-93.5 -144t-173 -54q-94 0 -149 41.5
t-91 115.5q-53 -73 -119 -115t-159 -42q-111 0 -169.5 42t-92.5 119q-46 -78 -119 -119.5t-206 -41.5h-69v150h71q125 0 191 49.5t66 174.5q0 50 -9 165l135 16l15 -210q6 -83 53 -139t136 -56q106 0 153 59.5t47 164.5q0 47 -9 165l135 16l15 -210q5 -79 46.5 -137
t127.5 -58z" />
    <glyph glyph-name="uniFEB8" unicode="&#x634;" horiz-adv-x="1658" arabic-form="medial" 
d="M736 1147l114 114l116 -114l-116 -116zM900 902l115 115l115 -115l-115 -115zM575 902l115 115l115 -115l-115 -115zM1153 150q78 0 116 58.5t38 163.5q0 65 -9 188l135 16l15 -231q13 -195 200 -195h30v-150h-29q-94 0 -162.5 40t-97.5 121q-33 -73 -86.5 -117
t-148.5 -44q-94 0 -149 41.5t-91 115.5q-53 -73 -119.5 -115t-158.5 -42q-111 1 -169.5 42.5t-92.5 118.5q-46 -78 -119 -119.5t-206 -41.5h-69v150h71q125 0 191 49.5t66 174.5q0 50 -9 165l135 16l15 -210q6 -83 53 -139t136 -56q106 0 153 59.5t47 164.5q0 47 -9 165
l135 16l15 -210q5 -79 46.5 -137t127.5 -58z" />
    <glyph glyph-name="uniFEB9" unicode="&#x635;" horiz-adv-x="2575" arabic-form="isolated" 
d="M324 399q-69 -188 -69 -353q0 -219 120 -318.5t343 -99.5q228 0 350.5 114t123.5 343q0 90 -21.5 180t-62.5 180l139 48l54 -168q22 -70 50.5 -105.5t75.5 -41.5q341 579 671 579q106 0 188 -46.5t129 -125.5t47 -178q-1 -201 -173.5 -304t-531.5 -103h-51
q-139 0 -226 17t-152 49q-4 -295 -169 -440.5t-438 -145.5q-292 0 -450 143.5t-158 417.5q0 200 84 410zM1753 151q270 0 415.5 59t145.5 188q0 88 -58.5 147.5t-151.5 59.5q-129 0 -261 -123.5t-265 -331.5z" />
    <glyph glyph-name="uniFEBA" unicode="&#x635;" horiz-adv-x="2610" arabic-form="final" 
d="M1192 85q0 90 -21.5 180t-62.5 180l139 48l54 -168q21 -70 50 -105.5t76 -41.5q343 579 669 579q109 0 191.5 -45.5t128.5 -124.5t46 -180q0 -66 -27.5 -126.5t-63.5 -107.5q40 -12 85.5 -17.5t143.5 -5.5h30v-150h-29q-125 0 -205.5 26t-134.5 70q-80 -44 -205 -70
t-299 -26h-51q-139 0 -226 17t-152 49q-4 -295 -169 -440.5t-438 -145.5q-292 0 -450 143.5t-158 417.5q0 200 84 410l127 -52q-69 -188 -69 -353q0 -418 463 -418q228 0 350.5 114t123.5 343zM1753 151q270 0 415.5 59t145.5 188q0 88 -58.5 147.5t-151.5 59.5
q-129 0 -261 -123.5t-265 -331.5z" />
    <glyph glyph-name="uniFEBB" unicode="&#x635;" horiz-adv-x="1654" arabic-form="initial" 
d="M505 177q171 287 339 433.5t331 146.5q109 0 191.5 -45.5t128.5 -124.5t46 -180q-1 -201 -173.5 -304t-531.5 -103h-51q-203 0 -305 37.5t-151 117.5q-56 -76 -120 -115.5t-189 -39.5h-40l1 150h39q138 0 188 55.5t50 167.5q0 42 -2.5 93t-4.5 94l134 16l17 -231
q6 -75 29.5 -115t73.5 -53zM832 151q270 0 415.5 59t145.5 188q0 88 -58.5 147.5t-151.5 59.5q-129 0 -261 -123.5t-265 -331.5z" />
    <glyph glyph-name="uniFEBC" unicode="&#x635;" horiz-adv-x="1689" arabic-form="medial" 
d="M506 178q344 579 670 579q109 0 191 -45.5t128 -125t46 -180.5q0 -65 -28 -125.5t-63 -107.5q36 -12 83.5 -17.5t145.5 -5.5h30v-150h-30q-124 0 -204.5 26t-134.5 70q-80 -44 -205 -70t-299 -26h-51q-201 0 -303 38t-153 117q-56 -76 -120 -115.5t-189 -39.5h-40v150h39
q138 0 188.5 56t50.5 166q0 44 -2.5 94.5t-4.5 93.5l134 16l17 -231q6 -75 29.5 -115t74.5 -52zM832 151q270 0 415.5 59t145.5 188q0 88 -58.5 147.5t-151.5 59.5q-129 0 -261 -123.5t-265 -331.5z" />
    <glyph glyph-name="uniFEBD" unicode="&#x636;" horiz-adv-x="2575" arabic-form="isolated" 
d="M1931 1124l128 128l129 -128l-129 -128zM324 399q-69 -188 -69 -353q0 -219 120 -318.5t343 -99.5q228 0 350.5 114t123.5 343q0 90 -21.5 180t-62.5 180l139 48l54 -168q22 -70 50.5 -105.5t75.5 -41.5q341 579 671 579q106 0 188 -46.5t129 -125.5t47 -178
q-1 -201 -173.5 -304t-531.5 -103h-51q-139 0 -226 17t-152 49q-4 -295 -169 -440.5t-438 -145.5q-292 0 -450 143.5t-158 417.5q0 200 84 410zM1753 151q270 0 415.5 59t145.5 188q0 88 -58.5 147.5t-151.5 59.5q-129 0 -261 -123.5t-265 -331.5z" />
    <glyph glyph-name="uniFEBE" unicode="&#x636;" horiz-adv-x="2610" arabic-form="final" 
d="M1931 1124l128 128l129 -128l-129 -128zM1192 85q0 90 -21.5 180t-62.5 180l139 48l54 -168q21 -70 50 -105.5t76 -41.5q343 579 669 579q109 0 191.5 -45.5t128.5 -124.5t46 -180q0 -66 -27.5 -126.5t-63.5 -107.5q40 -12 85.5 -17.5t143.5 -5.5h30v-150h-29
q-125 0 -205.5 26t-134.5 70q-80 -44 -205 -70t-299 -26h-51q-139 0 -226 17t-152 49q-4 -295 -169 -440.5t-438 -145.5q-292 0 -450 143.5t-158 417.5q0 200 84 410l127 -52q-69 -188 -69 -353q0 -418 463 -418q228 0 350.5 114t123.5 343zM1753 151q270 0 415.5 59
t145.5 188q0 88 -58.5 147.5t-151.5 59.5q-129 0 -261 -123.5t-265 -331.5z" />
    <glyph glyph-name="uniFEBF" unicode="&#x636;" horiz-adv-x="1654" arabic-form="initial" 
d="M1010 1124l128 128l129 -128l-129 -128zM505 177q171 287 339 433.5t331 146.5q109 0 191.5 -45.5t128.5 -124.5t46 -180q-1 -201 -173.5 -304t-531.5 -103h-51q-203 0 -305 37.5t-151 117.5q-56 -76 -120 -115.5t-189 -39.5h-40l1 150h39q138 0 188 55.5t50 167.5
q0 42 -2.5 93t-4.5 94l134 16l17 -231q6 -75 29.5 -115t73.5 -53zM832 151q270 0 415.5 59t145.5 188q0 88 -58.5 147.5t-151.5 59.5q-129 0 -261 -123.5t-265 -331.5z" />
    <glyph glyph-name="uniFEC0" unicode="&#x636;" horiz-adv-x="1689" arabic-form="medial" 
d="M1010 1124l128 128l129 -128l-129 -128zM506 178q344 579 670 579q109 0 191 -45.5t128 -125t46 -180.5q0 -65 -28 -125.5t-63 -107.5q36 -12 83.5 -17.5t145.5 -5.5h30v-150h-30q-124 0 -204.5 26t-134.5 70q-80 -44 -205 -70t-299 -26h-51q-201 0 -303 38t-153 117
q-56 -76 -120 -115.5t-189 -39.5h-40v150h39q138 0 188.5 56t50.5 166q0 44 -2.5 94.5t-4.5 93.5l134 16l17 -231q6 -75 29.5 -115t74.5 -52zM832 151q270 0 415.5 59t145.5 188q0 88 -58.5 147.5t-151.5 59.5q-129 0 -261 -123.5t-265 -331.5z" />
    <glyph glyph-name="uniFEC1" unicode="&#x637;" horiz-adv-x="1471" arabic-form="isolated" 
d="M329 150q19 32 39 63.5t40 63.5v1059h139v-857q100 123 210.5 200.5t233.5 77.5q110 0 192.5 -45.5t128.5 -124.5t46 -180q-1 -201 -173.5 -304t-531.5 -103h-540v150h216zM649 152q270 0 415.5 59t145.5 188q0 88 -58.5 147.5t-151.5 59.5q-129 0 -261 -123.5
t-265 -331.5z" />
    <glyph glyph-name="uniFEC2" unicode="&#x637;" horiz-adv-x="1510" arabic-form="final" 
d="M1272 177q23 -18 73.5 -22.5t154.5 -4.5h30v-150h-29q-137 0 -212 26.5t-126 68.5q-79 -41 -211 -68t-299 -27h-540v150h216q19 32 39.5 64t39.5 63v1059h139v-857q99 123 209.5 200.5t235.5 77.5q108 0 190.5 -45.5t128.5 -124.5t46 -180q0 -59 -25.5 -119.5
t-59.5 -110.5zM649 152q270 0 415.5 59t145.5 188q0 88 -58 147.5t-151 59.5q-129 0 -261.5 -123.5t-265.5 -331.5z" />
    <glyph glyph-name="uniFEC3" unicode="&#x637;" horiz-adv-x="1293" arabic-form="initial" 
d="M369 479q101 123 212 200.5t235 77.5q108 0 190 -45.5t128 -125t46 -179.5q-1 -201 -173 -304t-531 -103h-496v150h170q19 32 39.5 63.5t40.5 62.5v1060h139v-857zM471 152q270 0 415.5 59t145.5 188q0 88 -58.5 147.5t-151.5 59.5q-129 0 -261 -123.5t-265 -331.5z" />
    <glyph glyph-name="uniFEC4" unicode="&#x637;" horiz-adv-x="1332" arabic-form="medial" 
d="M1094 177q23 -18 73.5 -22.5t154.5 -4.5h30v-150h-30q-137 0 -211.5 27t-125.5 69q-79 -41 -210.5 -68.5t-298.5 -27.5h-496v150h170q20 32 40.5 64t39.5 63v1059h139v-857q101 123 211.5 200.5t235.5 77.5q107 0 189 -45.5t128.5 -125t46.5 -179.5q0 -59 -26 -119.5
t-60 -110.5zM471 152q270 0 415.5 59t145.5 188q0 88 -58 147.5t-151 59.5q-129 0 -261.5 -123.5t-265.5 -331.5z" />
    <glyph glyph-name="uniFEC5" unicode="&#x638;" horiz-adv-x="1471" arabic-form="isolated" 
d="M843 1124l128 128l129 -128l-129 -128zM329 150q19 32 39 63.5t40 63.5v1059h139v-857q100 123 210.5 200.5t233.5 77.5q110 0 192.5 -45.5t128.5 -124.5t46 -180q-1 -201 -173.5 -304t-531.5 -103h-540v150h216zM649 152q270 0 415.5 59t145.5 188q0 88 -58.5 147.5
t-151.5 59.5q-129 0 -261 -123.5t-265 -331.5z" />
    <glyph glyph-name="uniFEC6" unicode="&#x638;" horiz-adv-x="1510" arabic-form="final" 
d="M842 1124l128 128l129 -128l-129 -128zM1272 177q23 -18 73.5 -22.5t154.5 -4.5h30v-150h-29q-137 0 -212 26.5t-126 68.5q-79 -41 -211 -68t-299 -27h-540v150h216q19 32 39.5 64t39.5 63v1059h139v-857q99 123 209.5 200.5t235.5 77.5q108 0 190.5 -45.5t128.5 -124.5
t46 -180q0 -59 -25.5 -119.5t-59.5 -110.5zM649 152q270 0 415.5 59t145.5 188q0 88 -58 147.5t-151 59.5q-129 0 -261.5 -123.5t-265.5 -331.5z" />
    <glyph glyph-name="uniFEC7" unicode="&#x638;" horiz-adv-x="1293" arabic-form="initial" 
d="M667 1124l128 128l129 -128l-129 -128zM369 479q101 123 212 200.5t235 77.5q108 0 190 -45.5t128 -125t46 -179.5q-1 -201 -173 -304t-531 -103h-496v150h170q19 32 39.5 63.5t40.5 62.5v1060h139v-857zM471 152q270 0 415.5 59t145.5 188q0 88 -58.5 147.5t-151.5 59.5
q-129 0 -261 -123.5t-265 -331.5z" />
    <glyph glyph-name="uniFEC8" unicode="&#x638;" horiz-adv-x="1332" arabic-form="medial" 
d="M667 1124l128 128l129 -128l-129 -128zM1094 177q23 -18 73.5 -22.5t154.5 -4.5h30v-150h-30q-137 0 -211.5 27t-125.5 69q-79 -41 -210.5 -68.5t-298.5 -27.5h-496v150h170q20 32 40.5 64t39.5 63v1059h139v-857q101 123 211.5 200.5t235.5 77.5q107 0 189 -45.5
t128.5 -125t46.5 -179.5q0 -59 -26 -119.5t-60 -110.5zM471 152q270 0 415.5 59t145.5 188q0 88 -58 147.5t-151 59.5q-129 0 -261.5 -123.5t-265.5 -331.5z" />
    <glyph glyph-name="uniFEC9" unicode="&#x639;" horiz-adv-x="1306" arabic-form="isolated" 
d="M961 749q-145 82 -246 82q-92 0 -163.5 -57.5t-71.5 -158.5q0 -79 38.5 -138.5t80.5 -98.5q89 15 169 24t144 9q42 0 83 -2.5t81 -5.5l-19 -142q-28 1 -49 1h-35q-361 0 -542.5 -118t-181.5 -316q0 -171 135 -265.5t382 -94.5q101 0 200.5 15.5t196.5 58.5l37 -137
q-96 -45 -209 -62t-236 -17q-182 0 -327 54.5t-230 164.5t-85 276q0 173 84.5 298.5t264.5 205.5q-60 69 -92.5 144.5t-32.5 158.5q0 92 51.5 172t135.5 129.5t181 49.5q144 0 310 -110z" />
    <glyph glyph-name="uniFECA" unicode="&#x639;" horiz-adv-x="1199" arabic-form="final" 
d="M482 289q-71 64 -138.5 134.5t-111.5 135t-44 110.5q0 59 62 96t159.5 54.5t203.5 17.5q99 0 195.5 -17.5t159.5 -54.5t63 -96q0 -44 -49 -110.5t-122 -140.5t-145 -140q189 -128 444 -128h60v-150h-60q-145 0 -282 49.5t-284 152.5q-154 -87 -248.5 -186.5t-94.5 -228.5
q0 -142 118 -225.5t326 -83.5q80 0 163 9.5t167 42.5l37 -136q-78 -33 -173 -45t-199 -12q-170 0 -299.5 50.5t-203 151t-73.5 248.5q0 160 105 281t264 221zM610 697q-35 0 -88.5 -4t-108.5 -13.5t-95 -26.5q40 -55 90 -108t96 -96t76 -68l30 -25l29.5 25.5t75 68t96 95.5
t92.5 108q-41 17 -96 26.5t-108.5 13.5t-88.5 4z" />
    <glyph glyph-name="uniFECB" unicode="&#x639;" horiz-adv-x="1034" arabic-form="initial" 
d="M183 449q0 99 52 183.5t136 136t180 51.5q79 0 153 -27.5t157 -82.5l-54 -120q-144 82 -246 82q-62 0 -115.5 -31t-86.5 -83.5t-33 -115.5q0 -54 22 -101.5t52.5 -83.5t58 -56.5t38.5 -20.5q13 0 36 6l388 103v-150q-234 -72 -437.5 -105.5t-398.5 -33.5h-105v150h328
q-43 52 -84 131t-41 168z" />
    <glyph glyph-name="uniFECC" unicode="&#x639;" horiz-adv-x="1141" arabic-form="medial" 
d="M730 181q44 -12 102.5 -19t116 -9.5t96.5 -2.5h46v-150h-46q-102 0 -224 25.5t-216 80.5q-99 -54 -238.5 -80t-279.5 -26h-107v150h110q56 0 127 2.5t140.5 9t121.5 18.5q-73 63 -141 133.5t-112 134t-44 106.5q0 59 62 96t159.5 54.5t203.5 17.5q99 0 195 -17.5
t159.5 -54.5t63.5 -96q0 -41 -43 -103.5t-110.5 -133.5t-141.5 -136zM604 582q-35 0 -88.5 -4t-108.5 -13.5t-95 -26.5q40 -55 90 -108t96 -96t76 -68l30 -25l29.5 25.5t75 68t96 95.5t92.5 108q-41 17 -96 26.5t-108.5 13.5t-88.5 4zM1069.38 0v150h91.5674v-150h-91.5674z
" />
    <glyph glyph-name="uniFECD" unicode="&#x63a;" horiz-adv-x="1306" arabic-form="isolated" 
d="M553 1282l128 128l129 -128l-129 -128zM961 749q-145 82 -246 82q-92 0 -163.5 -57.5t-71.5 -158.5q0 -79 38.5 -138.5t80.5 -98.5q89 15 169 24t144 9q42 0 83 -2.5t81 -5.5l-19 -142q-28 1 -49 1h-35q-361 0 -542.5 -118t-181.5 -316q0 -171 135 -265.5t382 -94.5
q101 0 200.5 15.5t196.5 58.5l37 -137q-96 -45 -209 -62t-236 -17q-182 0 -327 54.5t-230 164.5t-85 276q0 173 84.5 298.5t264.5 205.5q-60 69 -92.5 144.5t-32.5 158.5q0 92 51.5 172t135.5 129.5t181 49.5q144 0 310 -110z" />
    <glyph glyph-name="uniFECE" unicode="&#x63a;" horiz-adv-x="1199" arabic-form="final" 
d="M475 1181l128 128l129 -128l-129 -128zM482 289q-71 64 -138.5 134.5t-111.5 135t-44 110.5q0 59 62 96t159.5 54.5t203.5 17.5q99 0 195.5 -17.5t159.5 -54.5t63 -96q0 -44 -49 -110.5t-122 -140.5t-145 -140q189 -128 444 -128h60v-150h-60q-145 0 -282 49.5
t-284 152.5q-154 -87 -248.5 -186.5t-94.5 -228.5q0 -142 118 -225.5t326 -83.5q80 0 163 9.5t167 42.5l37 -136q-78 -33 -173 -45t-199 -12q-170 0 -299.5 50.5t-203 151t-73.5 248.5q0 160 105 281t264 221zM610 697q-35 0 -88.5 -4t-108.5 -13.5t-95 -26.5
q40 -55 90 -108t96 -96t76 -68l30 -25l29.5 25.5t75 68t96 95.5t92.5 108q-41 17 -96 26.5t-108.5 13.5t-88.5 4z" />
    <glyph glyph-name="uniFECF" unicode="&#x63a;" horiz-adv-x="1034" arabic-form="initial" 
d="M387 1174l128 128l129 -128l-129 -128zM183 449q0 99 52 183.5t136 136t180 51.5q79 0 153 -27.5t157 -82.5l-54 -120q-144 82 -246 82q-62 0 -115.5 -31t-86.5 -83.5t-33 -115.5q0 -54 22 -101.5t52.5 -83.5t58 -56.5t38.5 -20.5q13 0 36 6l388 103v-150
q-234 -72 -437.5 -105.5t-398.5 -33.5h-105v150h328q-43 52 -84 131t-41 168z" />
    <glyph glyph-name="uniFED0" unicode="&#x63a;" horiz-adv-x="1141" arabic-form="medial" 
d="M472 1079l128 128l129 -128l-129 -128zM730 181q44 -12 102.5 -19t116 -9.5t96.5 -2.5h46v-150h-46q-102 0 -224 25.5t-216 80.5q-99 -54 -238.5 -80t-279.5 -26h-107v150h110q56 0 127 2.5t140.5 9t121.5 18.5q-73 63 -141 133.5t-112 134t-44 106.5q0 59 62 96
t159.5 54.5t203.5 17.5q99 0 195 -17.5t159.5 -54.5t63.5 -96q0 -41 -43 -103.5t-110.5 -133.5t-141.5 -136zM604 582q-35 0 -88.5 -4t-108.5 -13.5t-95 -26.5q40 -55 90 -108t96 -96t76 -68l30 -25l29.5 25.5t75 68t96 95.5t92.5 108q-41 17 -96 26.5t-108.5 13.5t-88.5 4z
M1069.38 0v150h91.5674v-150h-91.5674z" />
    <glyph glyph-name="uniFED1" unicode="&#x641;" horiz-adv-x="1781" arabic-form="isolated" 
d="M1175 1314l128 128l129 -128l-129 -128zM1544 396q-49 -15 -102.5 -25t-113.5 -10q-159 0 -235 62t-76 195q0 93 34 183.5t103 150t174 59.5q119 0 194 -80t110.5 -209t35.5 -276q-1 -186 -54 -282t-171.5 -130t-315.5 -34h-290q-724 0 -724 469q0 62 12.5 121t35.5 114
l125 -47q-28 -83 -28 -173q0 -175 152.5 -254.5t422.5 -79.5h315q142 0 229 19t127 71.5t40 155.5zM1531 532q-7 50 -19.5 108t-35.5 109t-60.5 83.5t-93.5 32.5q-64 0 -102.5 -42t-55.5 -99t-17 -102q0 -73 52 -97t140 -24q48 0 96.5 9t95.5 22z" />
    <glyph glyph-name="uniFED2" unicode="&#x641;" horiz-adv-x="1902" arabic-form="final" 
d="M1305 1082l128 128l129 -128l-129 -128zM985 150q27 0 76.5 0.5t103 2t95.5 4.5q-56 55 -98.5 131t-42.5 151q0 54 27 113t73.5 109.5t104.5 82.5t120 32q64 0 123.5 -31.5t106 -82.5t74 -110t27.5 -115q0 -76 -43.5 -151t-99.5 -130q53 -3 107 -4.5t89 -1.5h94v-150h-92
q-35 0 -99 7t-140 22.5t-148 40.5q-73 -26 -165.5 -41.5t-173.5 -22t-120 -6.5h-144q-358 0 -542.5 118.5t-184.5 350.5q0 62 12.5 121t35.5 114l125 -47q-28 -83 -28 -173q1 -175 148.5 -254.5t423.5 -79.5h155zM1444 631q-41 0 -84 -31t-73 -76t-30 -89q0 -47 30 -96
t74 -89.5t84 -60.5q49 20 92.5 59.5t71.5 89t28 99.5q0 41 -31 86t-76 76.5t-86 31.5z" />
    <glyph glyph-name="uniFED3" unicode="&#x641;" horiz-adv-x="918" arabic-form="initial" 
d="M307 1314l128 128l129 -128l-129 -128zM682 397q-49 -15 -103 -25t-113 -10q-312 0 -312 254q0 95 33.5 186t102.5 150.5t176 59.5q118 0 193 -79.5t110.5 -208t35.5 -277.5q0 -186 -53 -282.5t-171.5 -130.5t-315.5 -34h-285v150h296q137 0 226.5 19t134 72t45.5 156z
M668 533q-6 51 -19 109t-36 109t-60.5 83t-93.5 32q-65 0 -103 -42.5t-54.5 -99.5t-16.5 -101q0 -73 53 -97t141 -24q47 0 95.5 9t93.5 22z" />
    <glyph glyph-name="uniFED4" unicode="&#x641;" horiz-adv-x="972" arabic-form="medial" 
d="M370 1082l128 128l129 -128l-129 -128zM702 156q53 -3 107 -4.5t89 -1.5h94v-150h-92q-35 0 -99 7t-140 22.5t-148 40.5q-73 -26 -150.5 -41.5t-143.5 -22t-105 -6.5h-134v150h134q42 0 98 1.5t118 5.5q-56 55 -98.5 131t-42.5 151q0 54 27 113t73.5 109.5t104.5 82.5
t120 32q64 0 123.5 -31.5t106 -82.5t74 -110t27.5 -115q0 -76 -43.5 -151t-99.5 -130zM514 631q-41 0 -84 -31t-73 -76t-30 -89q0 -47 30 -96t74 -89.5t84 -60.5q49 20 92.5 59.5t71.5 89t28 99.5q0 41 -31 86t-76 76.5t-86 31.5z" />
    <glyph glyph-name="uniFED5" unicode="&#x642;" horiz-adv-x="1437" arabic-form="isolated" 
d="M993 1030l123 123l123 -123l-123 -124zM676 1030l123 123l123 -123l-123 -124zM324 459q-69 -188 -69 -353q0 -209 113 -313.5t347 -104.5q177 0 281 49.5t149.5 144.5t48.5 232q-52 -15 -101.5 -25t-111.5 -10q-162 0 -238.5 64t-76.5 191q0 95 33.5 186t102.5 150
t176 59q95 0 161.5 -48.5t107 -131.5t59 -188.5t18.5 -219.5q0 -306 -150.5 -453.5t-452.5 -147.5q-294 0 -451 143.5t-157 417.5q0 200 84 410zM1180 250q-6 51 -18.5 109t-36 109t-61 83.5t-93.5 32.5q-64 0 -102.5 -42.5t-55.5 -99.5t-17 -101q0 -73 52 -97.5t139 -24.5
q49 0 97.5 9t95.5 22z" />
    <glyph glyph-name="uniFED6" unicode="&#x642;" horiz-adv-x="1524" arabic-form="final" 
d="M1439.62 0v150h104.004v-150h-104.004zM989 986l123 123l123 -123l-123 -124zM672 986l123 123l123 -123l-123 -124zM1191 0h-164q-179 0 -264 70t-85 211q0 97 34 189t104 152t176 60q152 0 236 -130t102 -402h134v-150h-145q-20 -174 -84.5 -289.5t-188.5 -173
t-325 -57.5q-294 0 -451 143.5t-157 417.5q0 200 84 410l127 -52q-69 -188 -69 -353q0 -210 113.5 -314t349.5 -104q245 0 350 91.5t123 280.5zM1197 150q-11 186 -60.5 285.5t-153.5 99.5q-68 0 -104.5 -44.5t-51 -103.5t-14.5 -101q0 -74 51 -105t153 -31h180z" />
    <glyph glyph-name="uniFED7" unicode="&#x642;" horiz-adv-x="918" arabic-form="initial" 
d="M462 1311l123 123l123 -123l-123 -124zM145 1311l123 123l123 -123l-123 -124zM682 397q-49 -15 -103 -25t-113 -10q-312 0 -312 254q0 95 33.5 186t102.5 150.5t176 59.5q118 0 193 -79.5t110.5 -208t35.5 -277.5q0 -186 -53 -282.5t-171.5 -130.5t-315.5 -34h-285v150
h296q137 0 226.5 19t134 72t45.5 156zM668 533q-6 51 -19 109t-36 109t-60.5 83t-93.5 32q-65 0 -103 -42.5t-54.5 -99.5t-16.5 -101q0 -73 53 -97t141 -24q47 0 95.5 9t93.5 22z" />
    <glyph glyph-name="uniFED8" unicode="&#x642;" horiz-adv-x="972" arabic-form="medial" 
d="M537 1074l123 123l123 -123l-123 -124zM220 1074l123 123l123 -123l-123 -124zM702 156q53 -3 107 -4.5t89 -1.5h94v-150h-92q-35 0 -99 7t-140 22.5t-148 40.5q-73 -26 -150.5 -41.5t-143.5 -22t-105 -6.5h-134v150h134q42 0 98 1.5t118 5.5q-56 55 -98.5 131t-42.5 151
q0 54 27 113t73.5 109.5t104.5 82.5t120 32q64 0 123.5 -31.5t106 -82.5t74 -110t27.5 -115q0 -76 -43.5 -151t-99.5 -130zM514 631q-41 0 -84 -31t-73 -76t-30 -89q0 -47 30 -96t74 -89.5t84 -60.5q49 20 92.5 59.5t71.5 89t28 99.5q0 41 -31 86t-76 76.5t-86 31.5z" />
    <glyph glyph-name="uniFED9" unicode="&#x643;" horiz-adv-x="1831" arabic-form="isolated" 
d="M978 150q178 0 287 19t166.5 57t77.5 95.5t20 133.5v881h139v-879q0 -115 -26.5 -200.5t-99 -142.5t-207 -85.5t-350.5 -28.5h-145q-358 0 -542.5 118.5t-184.5 350.5q0 62 12.5 121t35.5 114l125 -47q-28 -83 -28 -173q1 -175 148.5 -254.5t423.5 -79.5h148zM741 576
q65 1 131 6t111 22.5t45 55.5q0 48 -27.5 66.5t-68 24t-81.5 14t-68 35.5t-27 89q0 63 46.5 102t121 57t156.5 20v-91q-47 -3 -102.5 -11.5t-95 -26.5t-39.5 -51q0 -29 27 -39t67 -15.5t79.5 -19t67 -48t27.5 -102.5q0 -82 -53 -119.5t-137.5 -47.5t-179.5 -10v89z" />
    <glyph glyph-name="uniFEDA" unicode="&#x643;" horiz-adv-x="1891" arabic-form="final" 
d="M978 150q178 0 287 19t166.5 57t77.5 95.5t20 133.5v881h139v-879q0 -97 14 -165.5t58.5 -105t135.5 -36.5h35v-150h-33q-142 0 -200.5 46t-87.5 144q-60 -75 -131 -116.5t-182.5 -57.5t-291.5 -16h-145q-358 0 -542.5 118.5t-184.5 350.5q0 62 12.5 121t35.5 114
l125 -47q-28 -83 -28 -173q1 -175 148.5 -254.5t423.5 -79.5h148zM741 576q65 1 131 6t111 22.5t45 55.5q0 48 -27.5 66.5t-68 24t-81.5 14t-68 35.5t-27 89q0 63 46.5 102t121 57t156.5 20v-91q-47 -3 -102.5 -11.5t-95 -26.5t-39.5 -51q0 -29 27 -39t67 -15.5t79.5 -19
t67 -48t27.5 -102.5q0 -82 -53 -119.5t-137.5 -47.5t-179.5 -10v89z" />
    <glyph glyph-name="uniFEDB" unicode="&#x643;" horiz-adv-x="950" arabic-form="initial" 
d="M712 341q-1 -171 -127 -256t-419 -85h-186v150h185q205 0 303 43.5t98 150.5q0 59 -42 121t-110.5 127.5t-150 133t-160.5 136.5q-46 38 -46 106q0 40 22.5 78.5t72.5 57.5l723 270v-144l-690 -256q77 -62 168 -134t172.5 -152.5t134 -167.5t52.5 -179z" />
    <glyph glyph-name="uniFEDC" unicode="&#x643;" horiz-adv-x="1027" arabic-form="medial" 
d="M185 974q98 -78 202 -162t191.5 -182t135.5 -218q50 -126 123.5 -194t180.5 -68h29v-150h-29q-116 0 -199.5 50.5t-150.5 139.5q-41 -63 -101 -105t-155.5 -63.5t-245.5 -21.5h-186v150h185q205 0 303 43.5t98 150.5q0 59 -42 121t-110.5 127.5t-150 133t-160.5 136.5
q-46 38 -46 106q0 40 22.5 78.5t72.5 57.5l723 270v-144z" />
    <glyph glyph-name="uniFEDD" unicode="&#x644;" horiz-adv-x="1377" arabic-form="isolated" 
d="M316 335q-31 -83 -46.5 -167t-15.5 -147q0 -209 102 -301t319 -92q195 0 296.5 106.5t101.5 318.5l3 1283h138l-1 -1244q0 -310 -134.5 -461t-404.5 -151q-276 0 -418.5 133.5t-142.5 406.5q0 75 19 173t57 194z" />
    <glyph glyph-name="uniFEDE" unicode="&#x644;" horiz-adv-x="1439" arabic-form="final" 
d="M316 335q-31 -83 -46.5 -167t-15.5 -147q0 -209 102 -301t319 -92q399 0 399 425l2 1283h138v-958q0 -111 47 -169.5t168 -58.5h30v-150h-29q-87 0 -131.5 23t-84.5 65q-5 -298 -132 -453t-408 -155q-276 0 -418.5 133.5t-142.5 406.5q0 75 19 173t57 194z" />
    <glyph glyph-name="uniFEDF" unicode="&#x644;" horiz-adv-x="588" arabic-form="initial" 
d="M-20 0v150h81q93 0 141.5 27.5t66 81t17.5 129.5v948h139v-947q0 -194 -82 -291.5t-283 -97.5h-80z" />
    <glyph glyph-name="uniFEE0" unicode="&#x644;" horiz-adv-x="650" arabic-form="medial" 
d="M348 154q-32 -49 -68 -83.5t-91.5 -52.5t-145.5 -18h-63v150h65q239 0 241 224v962h139v-962q0 -108 49.5 -166t164.5 -58h31v-150h-30q-115 0 -179 41t-113 113z" />
    <glyph glyph-name="uniFEE1" unicode="&#x645;" horiz-adv-x="1230" arabic-form="isolated" 
d="M126 -655q-5 84 -7.5 163t-2.5 154q0 178 22 317.5t86 224.5t190 99q73 185 159.5 273t206.5 89q103 0 178.5 -50t117 -134.5t41.5 -188.5q0 -141 -67.5 -228t-206.5 -87q-67 0 -152 37q-37 16 -88 45.5t-101 54t-83 24.5q-92 0 -126 -114t-34 -334q0 -93 3.5 -181
t9.5 -164h-146zM546 261q89 -62 164 -99t132 -37q68 1 102.5 41.5t34.5 113.5q0 96 -52.5 166t-146.5 70q-56 0 -99 -37.5t-76 -96t-59 -121.5z" />
    <glyph glyph-name="uniFEE2" unicode="&#x645;" horiz-adv-x="1296" arabic-form="final" 
d="M780 665q139 0 220 -86.5t111 -226.5q20 -95 63.5 -148.5t112.5 -53.5h29v-150h-29q-132 0 -207 112q-40 -69 -90.5 -102t-146.5 -33q-67 0 -152 37q-37 16 -88 45.5t-101 54t-83 24.5q-92 0 -126 -114t-34 -334q0 -93 3.5 -181t9.5 -164h-146q-5 84 -7.5 163t-2.5 154
q0 178 22 317.5t86 224.5t190 99q73 185 159.5 273t206.5 89zM842 125q68 1 102.5 41.5t34.5 113.5q0 96 -52.5 166t-146.5 70q-56 0 -99 -37.5t-76 -96t-59 -121.5q89 -62 164 -99t132 -37z" />
    <glyph glyph-name="uniFEE3" unicode="&#x645;" horiz-adv-x="1048" arabic-form="initial" 
d="M302 151q-61 -71 -129.5 -111t-149.5 -40h-43v150h38q66 0 113 37.5t80.5 93t58.5 109.5q65 144 146 209.5t181 65.5q102 0 178 -50.5t118 -135t42 -187.5q0 -151 -72.5 -232.5t-210.5 -81.5q-98 0 -181.5 45.5t-168.5 127.5zM374 283q67 -78 134.5 -119t135.5 -41
q154 0 154 154q0 102 -52 170t-145 68q-54 0 -96 -35.5t-74.5 -89t-56.5 -107.5z" />
    <glyph glyph-name="uniFEE4" unicode="&#x645;" horiz-adv-x="1111" arabic-form="medial" 
d="M302 151q-62 -71 -130.5 -111t-149.5 -40h-42v150h37q67 0 114.5 37.5t80.5 93.5t57 109q64 143 145.5 209t181.5 66q145 0 225.5 -90t108.5 -223q19 -95 62 -148.5t111 -53.5h28v-150h-29q-126 0 -202 113q-45 -69 -98.5 -102t-149.5 -33q-98 0 -181.5 45.5
t-168.5 127.5zM374 283q67 -78 134.5 -119t135.5 -41q154 0 154 154q0 102 -52 170t-145 68q-54 0 -96 -35.5t-74.5 -89t-56.5 -107.5z" />
    <glyph glyph-name="uniFEE5" unicode="&#x646;" horiz-adv-x="1447" arabic-form="isolated" 
d="M579 662l128 128l129 -128l-129 -128zM1108 516l143 49q44 -114 63.5 -224t19.5 -216q0 -188 -78 -316.5t-216.5 -193.5t-318.5 -65q-292 0 -450 144t-158 417q0 200 84 410l127 -52q-69 -188 -69 -353q0 -418 463 -418q228 0 350.5 114t123.5 343q0 90 -21.5 180.5
t-62.5 180.5z" />
    <glyph glyph-name="uniFEE6" unicode="&#x646;" horiz-adv-x="1528" arabic-form="final" 
d="M580 589l128 128l129 -128l-129 -128zM1192 85q0 90 -21.5 180t-62.5 180l139 48l67 -211q21 -65 67 -98.5t127 -33.5h40v-150h-36q-76 0 -112 17.5t-72 50.5q-5 -289 -167 -438.5t-440 -149.5q-292 0 -450 143.5t-158 417.5q0 200 84 410l127 -52q-69 -188 -69 -353
q0 -418 463 -418q228 0 350.5 114t123.5 343z" />
    <glyph glyph-name="uniFEE7" unicode="&#x646;" horiz-adv-x="592" arabic-form="initial" 
d="M479 401q0 -196 -94.5 -298.5t-285.5 -102.5h-119v150h119q122 0 180.5 58.5t58.5 189.5q0 57 -9 131t-25 143l136 33q21 -75 30 -155t9 -149zM144 1020l128 128l129 -128l-129 -128z" />
    <glyph glyph-name="uniFEE8" unicode="&#x646;" horiz-adv-x="687" arabic-form="medial" 
d="M707 0h-27q-108 0 -167 41.5t-99 114.5q-52 -73 -128.5 -114.5t-184.5 -41.5h-121v150h121q125 0 181 57.5t56 174.5q0 44 -2.5 90t-4.5 88l134 16l15 -230q6 -94 56.5 -145t144.5 -51h26v-150zM199 935l128 128l129 -128l-129 -128z" />
    <glyph glyph-name="uniFEE9" unicode="&#x647;" horiz-adv-x="922" arabic-form="isolated" 
d="M372 886q211 -167 324 -304.5t113 -272.5q0 -139 -95 -222t-253 -83q-162 0 -255 78t-93 227q0 106 60 202.5t171 220.5l-51 47zM447 630q-96 -85 -146.5 -164t-50.5 -152q0 -76 52 -120t158 -44q212 0 212 165q0 69 -58.5 148.5t-166.5 166.5z" />
    <glyph glyph-name="uniFEEA" unicode="&#x647;" horiz-adv-x="1038" arabic-form="final" 
d="M113 397q0 284 509 442l-7 43l130 27l79 -573q12 -87 64 -136.5t139 -49.5h31v-150h-35q-147 0 -216.5 65t-96.5 185q-57 -53 -127.5 -85.5t-151.5 -32.5q-134 0 -226 64t-92 201zM643 709q-176 -65 -281 -136.5t-105 -163.5q0 -69 45.5 -104t122.5 -35q57 0 115 23
t97 67t39 107q0 32 -4 60z" />
    <glyph glyph-name="uniFEEB" unicode="&#x647;" horiz-adv-x="1369" arabic-form="initial" 
d="M571 897q252 -117 402 -211.5t216.5 -178t66.5 -169.5q0 -163 -102.5 -245.5t-274.5 -82.5q-66 0 -140 10.5t-141 26.5t-113 31q-82 -31 -194 -54.5t-216 -23.5h-95v150h83q75 0 132 3.5t121 11.5q-67 56 -107.5 121.5t-40.5 164.5q0 95 45 163.5t119 105.5t163 37
q21 0 46 -3t61 -14l-92 47zM697 691q113 -85 113 -223q0 -100 -44 -173.5t-111 -133.5q47 -6 104 -11t103 -5q117 0 183 46t66 144q0 62 -56 121t-150 117t-208 118zM503 209q90 36 138 100.5t49 138.5q0 89 -51.5 136.5t-134.5 47.5q-86 0 -141 -48.5t-55 -130.5
q0 -78 50.5 -143t144.5 -101z" />
    <glyph glyph-name="uniFEEC" unicode="&#x647;" horiz-adv-x="1002" arabic-form="medial" 
d="M613 -537q-167 82 -259.5 214.5t-123.5 322.5h-250v150h239q8 174 38.5 313.5t99 221t191.5 81.5q115 0 181 -80.5t66 -213.5q0 -91 -35.5 -175t-97 -150.5t-140 -106t-164.5 -41.5q23 -129 81.5 -212.5t160.5 -149.5q0 242 91.5 377.5t296.5 135.5h34v-150h-36
q-134 0 -201 -88.5t-67 -256.5q0 -19 1 -41.5t3 -44.5zM351 149q88 2 159.5 44t113.5 114t42 165q0 71 -33.5 110.5t-86.5 39.5q-102 0 -143 -127t-52 -346z" />
    <glyph glyph-name="uniFEED" unicode="&#x648;" horiz-adv-x="880" arabic-form="isolated" 
d="M631 32q-37 -12 -89.5 -22t-93.5 -10q-335 0 -335 281q0 97 34.5 189t104.5 152t176 60q115 0 190 -75t112 -196t37 -260q0 -271 -147 -449t-442 -238l-49 126q225 46 350 163t152 279zM632 173q-11 169 -60.5 265.5t-151.5 96.5q-69 0 -106.5 -44.5t-51.5 -103.5
t-14 -101q0 -78 53.5 -109t151.5 -31q89 0 179 27z" />
    <glyph glyph-name="uniFEEE" unicode="&#x648;" horiz-adv-x="938" arabic-form="final" 
d="M874.877 0v150h83.5098v-150h-83.5098zM427 682q152 0 236 -130t102 -402h131v-150h-141q-39 -205 -179 -344t-398 -192l-49 126q220 45 339.5 152.5t160.5 257.5h-167q-179 0 -264 70t-85 211q0 97 34 189t104 152t176 60zM632 150q-11 186 -60.5 285.5t-153.5 99.5
q-68 0 -104.5 -44.5t-51 -103.5t-14.5 -101q0 -74 51 -105t153 -31h180z" />
    <glyph glyph-name="uniFEEF" unicode="&#x649;" horiz-adv-x="1477" arabic-form="isolated" 
d="M342 452q-88 -219 -88 -395q0 -210 114.5 -309.5t345.5 -100.5q87 0 178 16.5t168 51t124.5 89t47.5 129.5q0 48 -23.5 65.5t-70.5 17.5h-164q-231 0 -231 232q0 117 52.5 219.5t151 166t235.5 63.5q27 0 75.5 -4t97.5 -22l-26 -137q-42 11 -81 14t-66 3
q-85 0 -143 -30.5t-92.5 -77t-49.5 -96t-15 -86.5q0 -48 21.5 -73.5t80.5 -25.5h180q112 -1 155.5 -64t43.5 -161q0 -132 -83.5 -230t-228.5 -152t-332 -54q-291 0 -448.5 140t-157.5 423q0 102 25 209.5t76 230.5z" />
    <glyph glyph-name="uniFEF0" unicode="&#x649;" horiz-adv-x="1559" arabic-form="final" 
d="M305 342q-50 -146 -50 -297q0 -224 118 -320.5t346 -96.5q89 0 177.5 17.5t161.5 50.5t117 79t44 103q0 53 -47.5 87.5t-131.5 34.5h-123q-39 0 -50 51l-19 77q-6 22 18 22h591v-150h-143q18 -36 27.5 -63.5t9.5 -65.5q0 -110 -77.5 -198t-219.5 -140t-334 -52
q-292 0 -449 140.5t-157 424.5q0 76 16.5 173.5t47.5 174.5zM1434.1 0v150h144.993v-150h-144.993z" />
    <glyph glyph-name="uniFEF1" unicode="&#x64a;" horiz-adv-x="1477" arabic-form="isolated" 
d="M755 -789l123 123l123 -123l-123 -124zM438 -789l123 123l123 -123l-123 -124zM342 452q-88 -219 -88 -395q0 -210 114.5 -309.5t345.5 -100.5q87 0 178 16.5t168 51t124.5 89t47.5 129.5q0 48 -23.5 65.5t-70.5 17.5h-164q-231 0 -231 232q0 117 52.5 219.5t151 166
t235.5 63.5q27 0 75.5 -4t97.5 -22l-26 -137q-42 11 -81 14t-66 3q-85 0 -143 -30.5t-92.5 -77t-49.5 -96t-15 -86.5q0 -48 21.5 -73.5t80.5 -25.5h180q112 -1 155.5 -64t43.5 -161q0 -132 -83.5 -230t-228.5 -152t-332 -54q-291 0 -448.5 140t-157.5 423q0 102 25 209.5
t76 230.5z" />
    <glyph glyph-name="uniFEF2" unicode="&#x64a;" horiz-adv-x="1559" arabic-form="final" 
d="M305 342q-50 -146 -50 -297q0 -224 118 -320.5t346 -96.5q89 0 177.5 17.5t161.5 50.5t117 79t44 103q0 53 -47.5 87.5t-131.5 34.5h-123q-39 0 -50 51l-19 77q-6 22 18 22h591v-150h-143q18 -36 27.5 -63.5t9.5 -65.5q0 -110 -77.5 -198t-219.5 -140t-334 -52
q-292 0 -449 140.5t-157 424.5q0 76 16.5 173.5t47.5 174.5zM1434.1 0v150h144.993v-150h-144.993zM747 -805l123 123l123 -123l-123 -124zM430 -805l123 123l123 -123l-123 -124z" />
    <glyph glyph-name="uniFEF3" unicode="&#x64a;" horiz-adv-x="672" arabic-form="initial" 
d="M520 705q21 -75 30 -155t9 -149q0 -216 -103 -308.5t-327 -92.5h-149v150h149q100 0 164 20t94.5 73.5t30.5 154.5q0 57 -9 131t-25 143zM277 -303l123 123l123 -123l-123 -124zM-40 -303l123 123l123 -123l-123 -124z" />
    <glyph glyph-name="uniFEF4" unicode="&#x64a;" horiz-adv-x="767" arabic-form="medial" 
d="M787 0h-27q-111 0 -168 41.5t-97 114.5q-54 -75 -141 -115.5t-225 -40.5h-149v150h151q151 0 218.5 47.5t68.5 174.5q0 46 -2 95t-5 94l134 16l15 -232q13 -195 201 -195h26v-150zM277 -303l123 123l123 -123l-123 -124zM-40 -303l123 123l123 -123l-123 -124z" />
    <glyph glyph-name=".notdef" horiz-adv-x="1024" 
d="M102 -410v2048h820v-2048h-820zM204 -308h616v1844h-616v-1844z" />
    <glyph glyph-name=".null" 
 />
    <glyph glyph-name="nonmarkingreturn" horiz-adv-x="682" 
 />
    <glyph glyph-name="uni0000" 
 />
    <glyph glyph-name="uni0000" 
 />
    <glyph glyph-name="uni0002" 
 />
    <glyph glyph-name="uni000D" unicode="&#xd;" horiz-adv-x="507" 
 />
    <glyph glyph-name="space" unicode=" " horiz-adv-x="540" 
 />
    <glyph glyph-name="exclam" unicode="!" horiz-adv-x="632" 
d="M237 1326h163l-15 -894h-133zM198 119q0 49 35 84t83 35t83 -35t35 -84q0 -48 -35 -83t-83 -35q-49 0 -83.5 33.5t-34.5 84.5z" />
    <glyph glyph-name="quotedbl" unicode="&#x22;" horiz-adv-x="655" 
d="M262 1401l-29 -344h-82l1 464h110v-120zM532 1401l-29 -344h-82l1 464h110v-120z" />
    <glyph glyph-name="numbersign" unicode="#" horiz-adv-x="1261" 
d="M765 425h-264h-12l-3 -12l-77 -398h-113l77 392l3 18h-18h-224v107h250h12l3 12l69 354l3 18h-18h-243v109h270h12l3 12l79 404h113l-79 -398l-3 -18h18h264h12l3 12l79 404h114l-79 -398l-3 -18h18h189v-109h-216h-12l-3 -12l-69 -354l-3 -18h18h210v-107h-236h-12
l-3 -12l-77 -398h-114l77 392l3 18h-18zM527 532h264h12l3 12l69 354l3 18h-18h-264h-12l-3 -12l-69 -354l-3 -18h18z" />
    <glyph glyph-name="dollar" unicode="$" horiz-adv-x="1150" 
d="M871 375q0 98 -69 166q-23 22 -55.5 42.5t-74 39t-93.5 35.5q-210 64 -305 166q-93 100 -93 255q0 80 23 144.5t69 114.5q91 101 253 120l13 2v13v204h119v-205v-13l13 -2q81 -11 144 -45t108 -90q86 -110 90 -299h-154q-4 136 -70 218q-72 89 -193 89q-125 0 -192.5 -66
t-67.5 -182q0 -54 18 -97.5t53 -76.5q24 -21 57 -40.5t74.5 -37.5t93.5 -35q75 -24 133.5 -51t100.5 -56q28 -19 50.5 -40.5t40 -44.5t30.5 -48q39 -76 39 -178q0 -163 -97 -261q-98 -100 -276 -118l-13 -1v-14v-176h-118v176v14l-14 1q-180 16 -281 128q-98 106 -102 288
h155q4 -134 77 -209q39 -40 94 -60t124 -20q68 0 122 16.5t94 50.5q40 33 60 79.5t20 103.5z" />
    <glyph glyph-name="percent" unicode="%" horiz-adv-x="1500" 
d="M120 1176q0 125 79 205.5t204 80.5q127 0 205 -81t78 -211v-71q0 -126 -79 -205t-202 -79q-124 0 -204 79q-41 40 -61 92.5t-20 119.5v70zM228 1099q0 -84 48 -138q48 -56 129 -56q78 0 126 54q24 27 35.5 63t11.5 81v73q0 83 -47 139t-128 56q-40 0 -72.5 -14t-55.5 -42
q-24 -28 -35.5 -64t-11.5 -79v-73zM829 357q0 125 79 205t204 80t204.5 -79.5t79.5 -212.5v-71q0 -125 -79 -205t-203 -80q-62 0 -113 19.5t-91.5 59.5t-60.5 92.5t-20 119.5v72zM937 279q0 -42 12 -77t36 -62q48 -56 129 -56q79 0 126 55q47 53 47 144v74q0 85 -47 139
q-48 55 -128 55q-78 0 -127 -54q-48 -54 -48 -144v-74zM442 131l-79 50l695 1112l79 -50z" />
    <glyph glyph-name="ampersand" unicode="&#x26;" horiz-adv-x="1273" 
d="M116 391q0 100 56 185q57 85 220 201l13 9l-10 13q-96 116 -128 186q-32 69 -32 137q0 80 23.5 142t70 107t110 67.5t145.5 22.5q144 0 238 -84q93 -83 93 -209q0 -84 -42 -155q-43 -72 -152 -152l-107 -79l-13 -9l10 -13l324 -387l15 -17l10 20q67 127 70 281h137
q-2 -121 -32 -220.5t-88 -178.5l-7 -10l7 -9l188 -224h-183l-93 110l-9 11l-12 -10q-36 -32 -78 -56.5t-90 -40.5q-98 -34 -198 -34q-207 0 -332 109q-124 109 -124 287zM572 116q153 0 279 116l11 10l-9 11l-355 425l-9 10l-12 -8l-33 -24q-86 -63 -129.5 -129t-43.5 -136
q0 -125 81 -200t220 -75zM390 1128q0 -52 30.5 -114t90.5 -136l9 -10l12 8l118 83q14 10 26 19.5t22.5 19t19.5 19t16.5 19t12.5 19.5q14 24 20.5 52t6.5 61q0 74 -55 123q-54 48 -136 48q-29 0 -54.5 -6.5t-47.5 -20.5t-39 -34q-13 -15 -23 -32t-16.5 -35.5t-9.5 -39.5
t-3 -43z" />
    <glyph glyph-name="quotesingle" unicode="'" horiz-adv-x="357" 
d="M238 1425l-20 -353h-100l1 449h119v-96z" />
    <glyph glyph-name="parenleft" unicode="(" horiz-adv-x="700" 
d="M148 591q0 75 6.5 147.5t20 143t33.5 139.5q60 205 178 373q111 157 228 227l30 -95q-144 -114 -236 -341q-32 -78 -54 -161.5t-34.5 -173.5t-15.5 -186l-1 -85q0 -390 143 -677q83 -166 198 -264l-29 -86q-122 74 -234 235q-233 336 -233 804z" />
    <glyph glyph-name="parenright" unicode=")" horiz-adv-x="712" 
d="M552 581q0 -221 -58 -423t-177 -373q-111 -160 -232 -233l-29 86q151 121 244 366q47 126 71 265t25 292v32q0 212 -44.5 394t-123.5 327q-26 47 -53.5 87t-57.5 73.5t-61 60.5l29 86q30 -18 59.5 -41.5t58.5 -52t57 -63t56 -74.5q40 -56 72.5 -116t58.5 -124t46 -132
q59 -204 59 -437z" />
    <glyph glyph-name="asterisk" unicode="*" horiz-adv-x="882" 
d="M334 997l-287 86l37 121l287 -106l21 -8l-1 22l-9 329h123l-10 -334l-1 -22l21 8l282 104l37 -122l-292 -87l-21 -6l13 -17l189 -259l-99 -75l-177 274l-13 20l-13 -20l-171 -268l-100 73l192 264l13 17z" />
    <glyph glyph-name="plus" unicode="+" horiz-adv-x="1161" 
d="M670 766h391v-145h-391h-15v-15v-445h-156v445v15h-15h-391v145h391h15v15v410h156v-410v-15h15z" />
    <glyph glyph-name="comma" unicode="," horiz-adv-x="402" 
d="M133 -271l-83 57q88 129 92 266v152h151v-130q0 -98 -48 -195q-45 -92 -112 -150z" />
    <glyph glyph-name="hyphen" unicode="-" horiz-adv-x="565" 
d="M510 558h-458v121h458v-121z" />
    <glyph glyph-name="period" unicode="." horiz-adv-x="632" 
d="M198 119q0 49 35 84t83 35t83 -35t35 -84q0 -48 -35 -83t-83 -35q-49 0 -83.5 33.5t-34.5 84.5z" />
    <glyph glyph-name="slash" unicode="/" horiz-adv-x="844" 
d="M167 -110h-127l596 1551h126z" />
    <glyph glyph-name="zero" unicode="0" horiz-adv-x="902" 
d="M159 478q0 80 39.5 146.5t106 106t146.5 39.5t146.5 -39.5t106 -106t39.5 -146.5t-39.5 -146.5t-106 -106t-146.5 -39.5t-146.5 39.5t-106 106t-39.5 146.5zM284 478q0 -69 49 -118.5t118 -49.5t118 49.5t49 118.5t-49 117.5t-118 48.5t-118 -48.5t-49 -117.5z" />
    <glyph glyph-name="one" unicode="1" horiz-adv-x="651" 
d="M266 1286q98 -221 147 -482t49 -574v-230h-140v233q0 315 -46 564.5t-137 442.5z" />
    <glyph glyph-name="two" unicode="2" horiz-adv-x="1114" 
d="M322 233q0 315 -46 564.5t-137 442.5l125 45q21 -57 43 -113t43 -112q36 -96 100.5 -145.5t173.5 -49.5q114 0 167.5 75.5t53.5 194.5q0 36 -5 76.5t-9 70.5l138 16q4 -33 8 -73.5t4 -79.5q0 -200 -91 -311.5t-264 -111.5q-60 0 -106.5 12t-99.5 39q20 -144 31 -282
t11 -261v-230h-140v233z" />
    <glyph glyph-name="three" unicode="3" horiz-adv-x="1411" 
d="M322 233q0 315 -46 564.5t-137 442.5l125 45q26 -73 52 -144.5t52 -143.5q46 -130 198 -132q78 0 112 75t35 206q0 21 0.5 41.5t0.5 41.5l125 11q0 -23 1 -44.5t2 -42.5q5 -136 42 -212t115 -76q59 0 90 32.5t42.5 81.5t11.5 100q0 65 -6 115.5t-12 87.5l138 17
q5 -41 10 -94t5 -120q0 -162 -68.5 -262.5t-214.5 -100.5q-65 0 -121.5 31.5t-101.5 88.5q-43 -57 -98 -88.5t-106 -31.5q-81 0 -147 47q20 -144 30.5 -275.5t10.5 -263.5v-230h-140v233z" />
    <glyph glyph-name="four" unicode="4" horiz-adv-x="1193" 
d="M265 1285l67 -192q38 -109 68.5 -146.5t55.5 -57.5q4 100 42 193.5t113 154t190 60.5q81 0 134 -24t88 -48l-46 -127q-33 19 -72.5 36.5t-92.5 17.5q-74 0 -126.5 -40.5t-80.5 -103t-28 -129.5q0 -44 39.5 -65.5t93 -29t94.5 -7.5q66 0 125.5 14.5t116.5 36.5l19 -140
q-60 -26 -117.5 -40t-122.5 -14q-151 0 -245 46.5t-161 112.5q19 -152 31 -303.5t12 -259.5v-230h-140v233q0 315 -46 564t-137 443z" />
    <glyph glyph-name="five" unicode="5" horiz-adv-x="1246" 
d="M537 1296q308 -288 443 -525.5t135 -460.5q0 -164 -68 -237t-193 -73q-92 0 -148.5 53t-82.5 135q-25 -83 -77.5 -135.5t-148.5 -52.5q-120 0 -193 76t-73 234q0 129 53 262.5t139.5 270t187.5 274.5l-61 60zM396 140q75 0 113 53.5t65 193.5h99q24 -142 64.5 -194.5
t116.5 -52.5q62 0 94.5 47t32.5 122q0 162 -89 337.5t-276 371.5q-171 -225 -261 -399.5t-90 -309.5q0 -74 37 -121.5t94 -47.5z" />
    <glyph glyph-name="six" unicode="6" horiz-adv-x="1009" 
d="M536 1149q-66 0 -121.5 -37.5t-89 -95t-33.5 -115.5q0 -66 75.5 -122t255.5 -71q7 -1 15 5q65 40 107 65t106 57l38 -133q-131 -66 -245 -178t-207 -254.5t-161 -302.5l-128 58q81 195 175 333t190 234q-177 22 -271 105t-94 197q0 98 45.5 190t130 151.5t201.5 59.5
q61 0 114.5 -19t101.5 -53l-45 -128q-35 19 -72 36.5t-88 17.5z" />
    <glyph glyph-name="seven" unicode="7" horiz-adv-x="1246" 
d="M555 0q-68 377 -181.5 688t-251.5 527l128 69q117 -202 217.5 -465t156.5 -590q54 327 155 590.5t218 464.5l128 -69q-139 -217 -252.5 -528t-179.5 -687h-138z" />
    <glyph glyph-name="eight" unicode="8" horiz-adv-x="1246" 
d="M555 1275h138q67 -376 180 -687t252 -527l-128 -70q-118 202 -218.5 465t-154.5 590q-56 -326 -156.5 -590t-217.5 -465l-128 70q138 216 251.5 527t181.5 687z" />
    <glyph glyph-name="nine" unicode="9" horiz-adv-x="1026" 
d="M122 915q0 93 43 178t117.5 139t169.5 54q128 0 201 -59.5t106 -165.5t40 -247q11 -227 19 -426.5t14 -387.5h-138q-2 59 -4.5 146.5t-5 183t-5 180t-3.5 137.5q-35 -10 -78.5 -20t-114.5 -10q-184 0 -272.5 76t-88.5 222zM451 1145q-59 0 -102 -34.5t-67 -87t-24 -108.5
q0 -79 55 -118.5t173 -39.5q45 0 96 10t81 19q-6 89 -19.5 171.5t-56.5 135t-136 52.5z" />
    <glyph glyph-name="colon" unicode=":" horiz-adv-x="632" 
d="M198 739q0 49 35 84t83 35t83 -35t35 -84q0 -48 -35 -83t-83 -35q-49 0 -83.5 33.5t-34.5 84.5zM198 119q0 49 35 84t83 35t83 -35t35 -84q0 -48 -35 -83t-83 -35q-49 0 -83.5 33.5t-34.5 84.5z" />
    <glyph glyph-name="semicolon" unicode=";" horiz-adv-x="433" 
d="M165 1002q0 49 35 84t83 35t83 -35t35 -84q0 -48 -35 -83t-83 -35q-49 0 -83.5 33.5t-34.5 84.5zM145 -271l-83 57q88 129 92 266v152h151v-130q0 -98 -48 -195q-45 -92 -112 -150z" />
    <glyph glyph-name="less" unicode="&#x3c;" horiz-adv-x="1041" 
d="M258 630l617 -249v-163l-788 366v126l788 365v-163l-617 -254l-34 -14z" />
    <glyph glyph-name="equal" unicode="=" horiz-adv-x="1124" 
d="M971 829h-804v131h804v-131zM971 414h-804v130h804v-130z" />
    <glyph glyph-name="greater" unicode="&#x3e;" horiz-adv-x="1070" 
d="M800 664l-651 255v157l824 -365v-126l-824 -366v159l652 258l35 14z" />
    <glyph glyph-name="question" unicode="?" horiz-adv-x="967" 
d="M372 425q4 106 26 168q8 22 21.5 45.5t33 49t44.5 53.5l131 135v0q88 99 88 214q0 111 -59 175t-171 64q-18 0 -34.5 -1.5t-32 -4.5t-30 -8t-28 -11.5t-26 -14.5t-23.5 -18q-31 -26 -47.5 -62t-19.5 -79h-155q8 145 110 235q110 96 286 96q92 0 163 -24.5t121.5 -73
t75.5 -115t25 -152.5q0 -169 -158 -334l-109 -108v-1q-11 -12 -20 -25t-16.5 -27.5t-14 -30t-11 -32.5t-8 -35.5t-5 -37.5t-2.5 -40h-155zM364 93q0 39 24 65q23 26 70 26t71 -26q12 -13 18 -29t6 -36q0 -39 -24 -64q-23 -25 -70.5 -25t-71.5 25q-23 25 -23 64z" />
    <glyph glyph-name="at" unicode="@" horiz-adv-x="1839" 
d="M1723 503q-12 -238 -117 -374q-103 -134 -277 -134q-176 0 -226 158l-9 30l-18 -27q-52 -82 -118 -122q-66 -39 -136 -39q-68 0 -118 27t-84 82q-71 112 -52 312q15 162 74 289q30 63 67.5 112.5t84.5 85.5q46 36 93.5 53.5t97.5 17.5q39 0 74 -5t66 -16q59 -20 133 -77
l-51 -546q-2 -26 -2 -50q0 -95 36.5 -146t108.5 -51q60 0 109.5 30t86.5 89q18 29 32 62.5t23.5 71t15 79t7.5 86.5q19 395 -148 603q-168 210 -509 210q-102 0 -193.5 -25.5t-171.5 -76.5q-160 -102 -252 -294q-91 -190 -102 -439q-12 -252 61 -437q74 -187 225 -286
q152 -99 365 -99q92 0 184 22q27 7 51.5 14.5t46 16.5t40.5 19l28 -86q-58 -34 -150 -56q-101 -25 -204 -25q-246 0 -422 110t-264 317q-88 209 -76 488q12 272 121 489q110 216 296 333q93 58 198 87.5t223 29.5q245 0 419 -110q58 -36 106 -83.5t86.5 -105.5t66.5 -127
q86 -208 74 -487zM697 418q-14 -146 28 -226q45 -84 142 -84q13 0 26.5 2.5t26 7t25 11t24.5 15t24 19.5q29 27 52.5 65t42.5 87l1 1v2l1 9l46 504l1 10l-9 4q-30 16 -61.5 23.5t-65.5 7.5q-125 0 -206 -126q-26 -41 -46 -91.5t-33 -110.5t-19 -130z" />
    <glyph glyph-name="A" unicode="A" horiz-adv-x="1336" 
d="M973 395h-610h-11l-3 -10l-134 -370h-165l544 1426h148l545 -1426h-165l-135 370l-4 10h-10zM421 523h495h21l-7 20l-248 681l-14 39l-14 -39l-247 -681l-7 -20h21z" />
    <glyph glyph-name="B" unicode="B" horiz-adv-x="1275" 
d="M184 15v1426h461q58 0 109 -6t94.5 -18t79 -29.5t64.5 -41.5q114 -93 114 -278q0 -49 -13.5 -91.5t-41.5 -80.5q-19 -25 -41.5 -46t-50.5 -38.5t-60 -31.5l-39 -17l41 -11q28 -8 53.5 -19.5t48 -26.5t41.5 -33.5t35 -40.5q33 -45 49.5 -97.5t16.5 -114.5
q0 -189 -122 -297q-123 -108 -349 -108h-490zM346 681v-524v-15h15h317q46 0 86 8t74 24.5t62 40.5q41 37 61.5 88t20.5 115q0 137 -76.5 207.5t-224.5 70.5h-320h-15v-15zM361 820h290q131 0 211 66q81 68 81 183q0 127 -76 186q-74 58 -222 58h-284h-15v-15v-463v-15h15z
" />
    <glyph glyph-name="C" unicode="C" horiz-adv-x="1333" 
d="M1223 447q-30 -213 -163 -330q-140 -122 -372 -122q-251 0 -402 180q-152 180 -152 485v140q0 200 71 351q24 50 54 92t66.5 76.5t79.5 61.5q129 80 300 80q226 0 362 -126q130 -120 156 -332h-163q-9 56 -24 102t-37 82.5t-50 63.5q-30 27 -67 45.5t-81.5 27.5t-95.5 9
q-191 0 -300 -142q-54 -70 -81 -169t-27 -227v-141q0 -242 102 -386q103 -146 289 -146q166 0 255 76q87 73 117 249h163z" />
    <glyph glyph-name="D" unicode="D" horiz-adv-x="1343" 
d="M184 15v1426h396q37 0 72.5 -3.5t69.5 -10t66 -16t62 -23t59 -29.5q142 -82 219 -233q78 -152 79 -349v-93q0 -101 -19.5 -189.5t-58.5 -164.5q-77 -151 -221 -232q-72 -40 -156 -61t-180 -22h-388zM346 1298v-1141v-15h15h202q229 0 357 143q127 142 127 403v85
q0 254 -120 395q-61 72 -146.5 108t-195.5 37h-224h-15v-15z" />
    <glyph glyph-name="E" unicode="E" horiz-adv-x="1164" 
d="M977 688h-616h-15v-15v-516v-15h15h718v-127h-895v1426h885v-128h-708h-15v-15v-468v-15h15h616v-127z" />
    <glyph glyph-name="F" unicode="F" horiz-adv-x="1132" 
d="M957 658h-596h-15v-15v-628h-162v1426h872v-128h-695h-15v-15v-498v-15h15h596v-127z" />
    <glyph glyph-name="G" unicode="G" horiz-adv-x="1395" 
d="M1229 196q-72 -100 -197 -150q-130 -51 -303 -51q-174 0 -308 81.5t-208 231.5q-25 50 -41.5 105.5t-25 116.5t-9.5 128v127q0 323 150 500q149 176 420 176q75 0 139.5 -12.5t119 -37.5t98.5 -63q65 -54 105.5 -130t56.5 -174h-162q-20 95 -66.5 159.5t-119 97
t-170.5 32.5q-201 0 -305 -142q-51 -70 -76.5 -170t-26.5 -231v-119q0 -250 115 -399q117 -150 315 -150q55 0 103.5 6t89.5 19q85 25 141 85l4 4v6v327v15h-15h-322v126h498v-514z" />
    <glyph glyph-name="H" unicode="H" horiz-adv-x="1460" 
d="M1273 15h-163v658v15h-15h-734h-15v-15v-658h-162v1426h162v-611v-15h15h734h15v15v611h163v-1426z" />
    <glyph glyph-name="I" unicode="I" horiz-adv-x="557" 
d="M360 15h-162v1426h162v-1426z" />
    <glyph glyph-name="J" unicode="J" horiz-adv-x="1130" 
d="M794 1441h163v-1016q0 -203 -121 -316q-121 -114 -324 -114q-211 0 -328 107q-111 102 -116 285h162q4 -120 73 -190q73 -75 209 -75q125 0 203 79.5t79 220.5v1019z" />
    <glyph glyph-name="K" unicode="K" horiz-adv-x="1284" 
d="M528 687l-178 -185l-4 -4v-6v-477h-162v1426h162v-705v-39l26 29l643 715h192l-551 -618l-8 -9l7 -10l600 -789h-193l-511 671l-11 14z" />
    <glyph glyph-name="L" unicode="L" horiz-adv-x="1102" 
d="M362 142h675v-127h-853v1426h163v-1284v-15h15z" />
    <glyph glyph-name="M" unicode="M" horiz-adv-x="1788" 
d="M407 1441l472 -1179l14 -34l14 34l472 1179h224v-1426h-162v552l18 612l2 83l-31 -77l-474 -1170h-127l-473 1167l-32 77l3 -83l19 -609v-552h-162v1426h223z" />
    <glyph glyph-name="N" unicode="N" horiz-adv-x="1460" 
d="M1273 15h-170l-728 1115l-28 42v-50v-1107h-163v1426h170l730 -1120l28 -42v50v1112h161v-1426z" />
    <glyph glyph-name="O" unicode="O" horiz-adv-x="1408" 
d="M1274 681q0 -211 -71 -367q-70 -156 -198 -237.5t-300 -81.5q-168 0 -297 82q-65 41 -115 99.5t-86 135.5q-72 153 -74 356v105q0 207 72 365q71 157 201 240q43 28 90.5 46t99 27.5t107.5 9.5q171 0 300 -82q65 -41 115 -100.5t85 -138.5q71 -157 71 -367v-92zM1113 775
q-1 264 -107 407q-109 144 -303 144q-47 0 -89.5 -9t-79.5 -27t-69.5 -45.5t-59.5 -62.5q-54 -72 -81.5 -170.5t-29.5 -223.5v-107q0 -85 12 -158t36 -134.5t60 -110.5q110 -150 303 -150t300 141q105 140 108 398v108z" />
    <glyph glyph-name="P" unicode="P" horiz-adv-x="1292" 
d="M346 570v-555h-162v1426h522q233 0 364 -118t131 -312q0 -205 -127 -315q-129 -111 -370 -111h-343h-15v-15zM361 712h345q32 0 60.5 3t54.5 9t49.5 15t43.5 21.5t38 27.5q87 77 87 221q0 34 -5.5 64.5t-16 58t-27 51.5t-38.5 45q-43 41 -102 62t-133 23h-356h-15v-15
v-571v-15h15z" />
    <glyph glyph-name="Q" unicode="Q" horiz-adv-x="1408" 
d="M1266 681q0 -208 -66 -357q-32 -75 -78 -133t-105 -100l-16 -11l16 -13l246 -193l-109 -100l-297 236l-5 4l-8 -1q-70 -18 -148 -18q-168 0 -297 82q-65 41 -115 99.5t-86 135.5q-72 153 -74 356v105q0 207 72 365q71 157 201 240q43 28 90.5 46t99 27.5t107.5 9.5
q172 0 301 -83q65 -41 115 -100.5t85 -137.5q71 -156 71 -366v-93zM1104 775q0 262 -105 405q-107 146 -305 146q-47 0 -89 -9t-79.5 -27t-69.5 -45.5t-59 -62.5q-54 -72 -81.5 -170.5t-29.5 -223.5v-107q0 -127 26.5 -228t80.5 -175q109 -150 302.5 -150t300.5 141
q105 140 108 398v108z" />
    <glyph glyph-name="R" unicode="R" horiz-adv-x="1261" 
d="M703 604h-342h-15v-15v-574h-163v1426h467q121 0 213 -27t156 -81q127 -108 127 -315q0 -66 -17.5 -123t-53.5 -105q-71 -98 -197 -146l-16 -6l8 -15l336 -608h-178l-312 581l-4 8h-9zM361 731h295q149 0 237 78q90 78 90 209q0 70 -21.5 125t-64 93t-103.5 57t-139 20
h-294h-15v-15v-552v-15h15z" />
    <glyph glyph-name="S" unicode="S" horiz-adv-x="1215" 
d="M602 663q-243 70 -353 172q-108 99 -108 244q0 165 132 273q133 109 348 109q73 0 138.5 -14t122.5 -42q38 -19 70 -42.5t58.5 -51.5t47.5 -61q58 -92 62 -200h-163q-1 32 -7.5 60.5t-17.5 54t-27 48t-37 41.5q-88 79 -247 79q-147 0 -231 -66q-85 -67 -85 -185
q0 -96 81 -162q78 -64 262 -115q90 -26 160.5 -53.5t120.5 -57.5q33 -20 60.5 -42.5t49 -46.5t37.5 -50q47 -78 47 -185q0 -85 -33 -152.5t-99 -119.5q-134 -103 -360 -103q-147 0 -274 56q-126 56 -194 153q-64 90 -68 203h163q6 -129 103 -205q34 -27 76 -45t90 -26.5
t104 -8.5q157 0 242 65q87 67 87 181q0 56 -20.5 101t-60.5 76q-39 31 -108 60t-169 58z" />
    <glyph glyph-name="T" unicode="T" horiz-adv-x="1222" 
d="M1160 1313h-453h-15v-15v-1283h-161v1283v15h-15h-452v128h1096v-128z" />
    <glyph glyph-name="U" unicode="U" horiz-adv-x="1328" 
d="M1179 1441v-975q-1 -200 -125 -326q-62 -64 -146.5 -99.5t-192.5 -43.5l-50 -2q-234 0 -371 125t-139 344v977h160v-971q0 -164 91.5 -256t258.5 -92q169 0 260 91.5t91 255.5v972h163z" />
    <glyph glyph-name="V" unicode="V" horiz-adv-x="1303" 
d="M665 250l413 1191h177l-528 -1426h-150l-527 1426h176l411 -1191l14 -41z" />
    <glyph glyph-name="W" unicode="W" horiz-adv-x="1817" 
d="M468 456l28 -191l11 -78l19 77l41 172l284 1005h140l277 -1005l40 -175l18 -76l12 77l31 195l223 984h162l-346 -1426h-152l-296 1050l-23 110l-15 71l-15 -71l-23 -110l-307 -1050h-152l-345 1426h161z" />
    <glyph glyph-name="X" unicode="X" horiz-adv-x="1284" 
d="M657 890l344 551h191l-446 -699l-5 -8l5 -8l457 -711h-193l-353 561l-13 20l-13 -20l-355 -561h-192l458 711l5 8l-5 8l-447 699h190l346 -551l13 -20z" />
    <glyph glyph-name="Y" unicode="Y" horiz-adv-x="1230" 
d="M626 718l376 723h184l-490 -891l-2 -3v-4v-528h-162v528v4l-2 3l-490 891h186l374 -723l13 -26z" />
    <glyph glyph-name="Z" unicode="Z" horiz-adv-x="1226" 
d="M313 142h818v-127h-1030v124l795 1150l17 24h-29h-770v128h985v-121l-798 -1154l-17 -24h29z" />
    <glyph glyph-name="bracketleft" unicode="[" horiz-adv-x="543" 
d="M508 1527h-176h-15v-15v-1672v-15h15h176v-122h-347v1946h347v-122z" />
    <glyph glyph-name="backslash" unicode="\" horiz-adv-x="840" 
d="M62 1441h144l596 -1551h-144z" />
    <glyph glyph-name="bracketright" unicode="]" horiz-adv-x="543" 
d="M24 1649h348v-1946h-348v122h178h15v15v1672v15h-15h-178v122z" />
    <glyph glyph-name="asciicircum" unicode="^" horiz-adv-x="856" 
d="M412 1217l-186 -473h-140l287 697h107l286 -697h-139l-187 473l-14 35z" />
    <glyph glyph-name="underscore" unicode="_" horiz-adv-x="924" 
d="M905 -136h-886v121h886v-121z" />
    <glyph glyph-name="grave" unicode="`" horiz-adv-x="633" 
d="M446 1257h-124l-232 264h182z" />
    <glyph glyph-name="a" unicode="a" horiz-adv-x="1114" 
d="M818 15q-13 32 -21 101l-4 31l-22 -23q-124 -129 -297 -129q-154 0 -253 87q-97 86 -97 218q0 161 122 250q125 91 353 91h180h15v15v85q0 103 -62.5 165t-181.5 62q-104 0 -175 -53q-32 -24 -50.5 -54t-21.5 -64h-156q5 68 53 132q56 73 151 115q47 22 99.5 32.5
t110.5 10.5q181 0 283 -90q51 -44 77 -105.5t28 -140.5v-498q0 -148 37 -238h-168zM501 126q91 0 172 47q82 47 119 123l2 4v3v222v15h-15h-145q-355 0 -355 -214q0 -94 63 -147t159 -53z" />
    <glyph glyph-name="b" unicode="b" horiz-adv-x="1149" 
d="M1041 529q0 -243 -111 -389q-109 -145 -294 -145q-198 0 -305 139l-24 31l-3 -39l-8 -111h-141v1506h155v-558v-43l27 34q107 133 297 133t298 -143q109 -145 109 -399v-16zM886 550q0 96 -19 171.5t-57 129.5q-19 27 -43 47.5t-51.5 34t-59.5 20.5t-68 7
q-193 0 -277 -179l-1 -3v-3v-468v-4l2 -3q89 -178 278 -178q141 0 219 109q77 107 77 319z" />
    <glyph glyph-name="c" unicode="c" horiz-adv-x="1072" 
d="M574 116q26 0 50.5 4t47 12t44 20t40.5 27q73 59 86 147h146q-9 -80 -60 -153q-58 -81 -152 -130q-48 -24 -98.5 -36t-103.5 -12q-214 0 -340 142q-127 144 -127 394v31q0 155 57 275q56 119 160.5 184.5t248.5 65.5q89 0 161.5 -26.5t130.5 -78.5q111 -100 123 -257
h-145q-12 102 -83 168q-76 72 -187 72q-29 0 -56 -4.5t-51.5 -13t-46.5 -21.5t-41 -30t-35 -38q-41 -54 -61 -129.5t-20 -173.5v-35q0 -192 80 -297q82 -107 232 -107z" />
    <glyph glyph-name="d" unicode="d" horiz-adv-x="1155" 
d="M110 550q0 244 115 391q113 146 297 146q183 0 290 -125l26 -31v41v549h155v-1506h-141l-8 102l-3 37l-24 -29q-107 -130 -297 -130q-181 0 -295 148q-115 150 -115 393v14zM265 529q0 -189 79 -297q27 -36 60.5 -60.5t74 -37t87.5 -12.5q185 0 270 166l2 3v4v497v4l-2 3
q-87 161 -268 161q-144 0 -224 -111q-79 -109 -79 -320z" />
    <glyph glyph-name="e" unicode="e" horiz-adv-x="1085" 
d="M589 -5q-214 0 -347 140q-134 140 -134 376v34q0 79 15 149t45 132q60 123 167 192q106 69 231 69q204 0 317 -134t113 -388v-62h-718h-15v-15q4 -166 97 -269q94 -103 239 -103q102 0 174 42q64 38 113 98l91 -70q-132 -191 -388 -191zM566 965q-39 0 -74.5 -9.5
t-66.5 -29t-58 -47.5q-79 -85 -98 -237l-2 -17h17h542h15v15v14v1q-4 72 -24 129t-56 98q-72 83 -195 83z" />
    <glyph glyph-name="f" unicode="f" horiz-adv-x="711" 
d="M246 15v924v15h-15h-156v113h156h15v15v111q0 85 22.5 149t66.5 109.5t106.5 68t145.5 22.5q19 0 37.5 -1.5t37 -4.5t36.5 -7l-8 -121q-41 6 -86 6q-97 0 -150 -57t-53 -161v-114v-15h15h216v-113h-216h-15v-15v-924h-155z" />
    <glyph glyph-name="g" unicode="g" horiz-adv-x="1149" 
d="M111 550q0 83 13 154.5t38 131t63 107.5q112 144 298 144q96 0 170 -33.5t127 -100.5l24 -30l3 38l8 106h140v-1041q0 -68 -13.5 -126.5t-40 -106.5t-66.5 -87q-60 -59 -140.5 -88t-183.5 -29q-16 0 -32.5 1t-32.5 3t-32 5t-31.5 7t-31.5 9t-31.5 11t-31.5 13
q-102 45 -158 122l77 89q120 -139 291 -139q141 0 221 80.5t80 224.5v93v40l-26 -30q-107 -123 -292 -123q-183 0 -296 147q-114 149 -114 408zM267 529q0 -188 78 -296q79 -111 222 -111q91 0 159.5 42t110.5 125l2 3v4v494v4l-2 3q-89 163 -268 163q-143 0 -223 -111
q-79 -109 -79 -320z" />
    <glyph glyph-name="h" unicode="h" horiz-adv-x="1128" 
d="M337 942q118 145 308 145q166 0 248 -91.5t83 -280.5v-700h-155v701q-1 123 -58 183q-57 61 -174 61q-95 0 -167 -51q-71 -50 -110 -131l-2 -4v-3v-756h-155v1506h155v-570v-42z" />
    <glyph glyph-name="i" unicode="i" horiz-adv-x="497" 
d="M326 15h-155v1052h155v-1052zM156 1369q0 10 1.5 19t4.5 17.5t7.5 15.5t10.5 14q11 13 28.5 19.5t41.5 6.5q47 0 71 -26q24 -27 24 -66t-24 -65q-24 -25 -71 -25q-24 0 -41.5 6.5t-28.5 18.5q-12 13 -18 29t-6 36z" />
    <glyph glyph-name="j" unicode="j" horiz-adv-x="489" 
d="M316 1067v-1192q0 -151 -66 -224t-202 -73q-52 0 -98 14v119q29 -5 69 -5q33 0 60 9.5t45 28.5q37 38 37 127v1196h155zM142 1369q0 13 2.5 24.5t8 21.5t13.5 20q23 26 69 26q47 0 71 -26q24 -27 24 -66t-24 -65q-24 -25 -71 -25q-24 0 -41.5 6.5t-28.5 18.5
q-11 13 -17 29t-6 36z" />
    <glyph glyph-name="k" unicode="k" horiz-adv-x="1038" 
d="M431 511l-116 -121l-4 -4v-6v-365h-155v1506h155v-914v-41l27 31l98 119l332 351h185l-398 -427l-9 -9l8 -10l452 -606h-180l-372 495l-11 14z" />
    <glyph glyph-name="l" unicode="l" horiz-adv-x="497" 
d="M326 15h-155v1506h155v-1506z" />
    <glyph glyph-name="m" unicode="m" horiz-adv-x="1795" 
d="M300 1067l4 -106l2 -38l24 29q115 135 310 135q110 0 183 -41t112 -124l12 -24l14 21q26 38 60 68.5t76 53.5q83 46 197 46q172 0 258 -89.5t89 -272.5v-710h-155v699q0 122 -57 184t-189 62q-36 0 -68 -7t-60.5 -22t-52.5 -36q-36 -33 -57 -77t-27 -98v-1v-1v-703h-156
v694q0 123 -62.5 187t-183.5 64q-192 0 -263 -164l-1 -3v-3v-775h-155v1052h146z" />
    <glyph glyph-name="n" unicode="n" horiz-adv-x="1130" 
d="M301 1067l5 -122l2 -40l25 32q119 150 312 150q166 0 248 -91.5t83 -280.5v-700h-155v701q-1 123 -58 183q-57 61 -174 61q-95 0 -167 -51q-71 -50 -110 -131l-2 -4v-3v-756h-155v1052h146z" />
    <glyph glyph-name="o" unicode="o" horiz-adv-x="1168" 
d="M106 551q0 78 15 147.5t45.5 131.5t72.5 109.5t96 80.5q108 67 247 67q108 0 194 -37t152 -111q133 -149 133 -397v-13q0 -155 -59 -277t-167.5 -189.5t-250.5 -67.5q-213 0 -345 148q-133 149 -133 395v13zM262 529q0 -185 87 -298q43 -57 102.5 -86t132.5 -29
q148 0 236 116q86 115 86 319q0 45 -5.5 86.5t-16.5 79t-27.5 70.5t-38.5 62q-29 38 -65.5 64t-79 39t-91.5 13q-144 0 -233 -115q-87 -113 -87 -321z" />
    <glyph glyph-name="p" unicode="p" horiz-adv-x="1149" 
d="M1039 529q0 -242 -110 -389q-109 -145 -294 -145q-190 0 -299 120l-26 29v-39v-506h-155v1468h140l8 -106l3 -38l24 30q108 134 302 134q63 0 116.5 -15.5t98.5 -47t82 -78.5q110 -143 110 -400v-17zM884 550q0 188 -81 298q-82 112 -226 112q-35 0 -67 -6.5t-60 -19
t-53 -31.5t-46.5 -44t-38.5 -56l-2 -3v-4v-517v-4l2 -3q87 -156 267 -156q141 0 224 112q81 109 81 322z" />
    <glyph glyph-name="q" unicode="q" horiz-adv-x="1164" 
d="M110 550q0 250 114 394q112 143 302 143q185 0 292 -124l23 -27l3 36l7 95h141v-1468h-155v501v38l-26 -28q-108 -115 -287 -115q-189 0 -301 147q-56 74 -84.5 172.5t-28.5 222.5v13zM265 529q0 -191 81 -301q83 -112 224 -112q174 0 265 153l2 4v4v530v4l-2 4
q-93 150 -263 150q-142 0 -225 -113q-82 -110 -82 -323z" />
    <glyph glyph-name="r" unicode="r" horiz-adv-x="693" 
d="M648 933q-36 5 -76 5q-192 0 -261 -164l-1 -3v-3v-753h-155v1052h150l3 -110l1 -50l27 42q86 138 245 138q42 0 67 -9v-145z" />
    <glyph glyph-name="s" unicode="s" horiz-adv-x="1056" 
d="M785 287q0 41 -16 73.5t-47 55.5q-59 43 -202 74q-139 29 -220 70q-39 21 -68.5 44.5t-47.5 50.5q-37 55 -37 130q0 126 107 213q108 89 278 89q60 0 112 -10.5t96 -30.5t81 -51q35 -28 58.5 -62t36 -72t14.5 -82h-157q-6 74 -69 127q-68 59 -172 59q-106 0 -167 -47
q-63 -49 -63 -127q0 -37 15 -66t45 -48q28 -18 76.5 -34.5t119.5 -32.5q137 -30 221 -72q17 -9 32 -18t28 -18.5t24 -19.5t20.5 -21t17.5 -22q20 -28 29.5 -62.5t9.5 -76.5q0 -138 -110 -221q-112 -84 -292 -84q-127 0 -224 45q-96 44 -150 123q-25 36 -38.5 75t-15.5 80
h156q10 -90 79 -144q74 -58 193 -58q54 0 98.5 11t78.5 34q70 47 70 126z" />
    <glyph glyph-name="t" unicode="t" horiz-adv-x="669" 
d="M376 1329v-247v-15h15h187v-113h-187h-15v-15v-671q0 -70 30 -107q32 -38 104 -38q28 0 73 9v-120q-66 -17 -127 -17q-117 0 -176 70t-59 203v671v15h-15h-182v113h182h15v15v247h155z" />
    <glyph glyph-name="u" unicode="u" horiz-adv-x="1129" 
d="M797 117q-104 -122 -306 -122q-166 0 -252 96q-87 96 -88 287v689h155v-684q0 -127 54.5 -194t160.5 -67q222 0 296 167l1 3v3v772h155v-1052h-147l-3 93l-1 38z" />
    <glyph glyph-name="v" unicode="v" horiz-adv-x="992" 
d="M511 246l265 821h157l-378 -1052h-119l-382 1052h157l272 -821l14 -43z" />
    <glyph glyph-name="w" unicode="w" horiz-adv-x="1539" 
d="M1113 251l205 816h153l-306 -1052h-128l-260 810l-14 45l-14 -46l-253 -809h-128l-305 1052h152l210 -799l14 -50l15 50l249 799h127l254 -816l16 -51z" />
    <glyph glyph-name="x" unicode="x" horiz-adv-x="1015" 
d="M516 679l235 388h180l-339 -512l-5 -8l6 -8l349 -524h-178l-245 398l-13 21l-13 -21l-245 -398h-179l349 524l6 8l-5 8l-339 512h178l232 -388l13 -21z" />
    <glyph glyph-name="y" unicode="y" horiz-adv-x="969" 
d="M508 267l249 800h166l-428 -1229q-97 -259 -306 -260l-34 3l-56 10v122l34 -3h1q33 0 60.5 4.5t51.5 13.5t43 23q57 41 92 146l41 110l2 5l-2 5l-379 1050h170l267 -801l14 -44z" />
    <glyph glyph-name="z" unicode="z" horiz-adv-x="1015" 
d="M314 136h618v-121h-829v116l594 789l18 24h-30h-573v123h790v-111l-600 -796l-18 -24h30z" />
    <glyph glyph-name="braceleft" unicode="{" horiz-adv-x="693" 
d="M622 -348q-162 50 -245 156q-86 110 -86 293v199q0 122 -53.5 187.5t-158.5 70.5v115q70 3 117.5 33.5t71 86.5t23.5 137v208q2 178 86 286q81 105 245 155l29 -88q-205 -75 -205 -358v-202q0 -218 -159 -303l-25 -13l25 -13q159 -86 159 -306v-206q3 -276 205 -350z" />
    <glyph glyph-name="bar" unicode="|" horiz-adv-x="499" 
d="M309 -255h-119v1696h119v-1696z" />
    <glyph glyph-name="braceright" unicode="}" horiz-adv-x="693" 
d="M38 -260q199 73 206 340v220q0 221 172 301l30 14l-30 14q-172 78 -172 301v203q0 93 -22.5 164t-68.5 120t-114 74l29 88q162 -50 244 -154q43 -54 65 -126t22 -162v-210q0 -80 23.5 -135.5t71 -85.5t117.5 -33v-115q-105 -5 -158.5 -70.5t-53.5 -187.5v-202
q0 -183 -87 -292q-84 -104 -244 -154z" />
    <glyph glyph-name="asciitilde" unicode="~" horiz-adv-x="1393" 
d="M1248 762q-1 -36 -7.5 -69t-17.5 -63t-27 -57.5t-38 -52.5q-45 -52 -99.5 -77.5t-119.5 -25.5q-35 0 -67.5 6.5t-62.5 18.5q-62 26 -145 98q-28 26 -51 44t-41.5 31t-31.5 19q-41 20 -86 20q-85 0 -132 -59q-21 -27 -32 -62.5t-13 -79.5l-131 -2q5 144 88 238
q88 98 220 98q73 0 140 -31q13 -6 27.5 -14t29.5 -18t30.5 -22t32.5 -26t34 -30q91 -83 160 -94h1l29 -2h1q83 0 135 63q24 29 36.5 66.5t14.5 81.5z" />
    <glyph glyph-name="uni00A0" unicode="&#xa0;" horiz-adv-x="540" 
 />
    <glyph glyph-name="exclamdown" unicode="&#xa1;" horiz-adv-x="499" 
d="M185 669h138l13 -1014h-164zM343 996q0 -10 -1.5 -19t-4.5 -17.5t-7.5 -15.5t-10.5 -14q-11 -13 -28.5 -19.5t-41.5 -6.5q-16 0 -29.5 3t-23.5 9t-18 14q-8 9 -13.5 19t-8 22t-2.5 25q0 39 24 65q24 25 71 25t70 -25q24 -26 24 -65z" />
    <glyph glyph-name="cent" unicode="&#xa2;" horiz-adv-x="1120" 
d="M586 116q26 0 50.5 4t47.5 12t44.5 20t40.5 28q73 59 86 146h146q-6 -56 -30.5 -106t-69.5 -95q-48 -49 -106.5 -79.5t-128.5 -42.5l-12 -2v-13v-218h-155v219v12l-12 3q-173 33 -270 170q-97 138 -97 353v35q0 207 98 346q98 137 269 169l12 3v12v211h155v-208v-13
l13 -2q48 -7 90.5 -23.5t79 -41.5t67.5 -59q87 -96 97 -231h-145q-12 102 -83 168q-76 72 -187 72q-74 0 -132 -27t-98 -80q-41 -54 -61 -129.5t-20 -173.5v-35q0 -192 81 -297q82 -107 230 -107z" />
    <glyph glyph-name="sterling" unicode="&#xa3;" horiz-adv-x="1190" 
d="M434 621l8 -219q0 -149 -59 -237l-16 -23h28h718l-1 -127h-1002v127h62h2h1q25 6 44 27.5t32 56.5q26 68 28 167v8l-8 222l-1 14h-14h-150v127h145h16l-1 16l-9 259q0 193 118 307q59 58 137 86.5t175 28.5q184 0 291 -102q101 -97 106 -257h-161q-5 103 -68 165
q-68 66 -185 66q-55 0 -101 -20.5t-80 -61.5q-69 -82 -69 -212l9 -261l1 -14h14h304v-127h-299h-16z" />
    <glyph glyph-name="currency" unicode="&#xa4;" horiz-adv-x="1460" 
d="M1093 124q-154 -129 -358 -129q-101 0 -190 31.5t-167 95.5l-10 8l-10 -9l-123 -126l-109 114l129 130l8 9l-7 10q-101 153 -101 350q0 201 109 361l7 10l-8 8l-137 141l109 114l136 -138l10 -10l10 8q77 59 163 88t181 29q191 0 346 -118l10 -8l10 9l138 141l111 -115
l-141 -143l-8 -9l7 -10q107 -160 107 -358q0 -192 -100 -347l-6 -10l8 -9l133 -133l-111 -115l-125 128l-10 10zM296 608q0 -63 15 -122.5t44 -113.5q60 -110 161 -173q102 -63 219 -63q59 0 113.5 16t105.5 48q101 63 159.5 172t58.5 236q0 126 -58 235q-20 36 -44 67
t-53.5 57t-63.5 47q-51 32 -105.5 47.5t-112.5 15.5q-118 -1 -219 -62q-101 -62 -161 -172q-29 -54 -44 -113t-15 -122z" />
    <glyph glyph-name="yen" unicode="&#xa5;" horiz-adv-x="1075" 
d="M553 787l304 654h179l-356 -698l-11 -22h24h246v-95h-309h-15v-15v-165v-15h15h309v-94h-309h-15v-15v-307h-163v307v15h-15h-303v94h303h15v15v165v15h-15h-303v95h248h24l-11 22l-356 698h182l304 -654l14 -30z" />
    <glyph glyph-name="brokenbar" unicode="&#xa6;" horiz-adv-x="491" 
d="M162 -255v761h156v-761h-156zM318 713h-156v728h156v-728z" />
    <glyph glyph-name="section" unicode="&#xa7;" horiz-adv-x="1256" 
d="M1130 431q0 -90 -44 -154.5t-133 -105.5l-24 -11l21 -15q66 -47 100.5 -112t34.5 -161q0 -161 -124 -256q-126 -96 -349 -96q-110 0 -208 27q-25 7 -47.5 15.5t-43 19t-39.5 22.5t-36 26q-128 104 -133 291l156 2q5 -127 95 -202q32 -26 71 -44t85.5 -26.5t99.5 -8.5
q141 0 228 61q89 63 89 167q0 48 -19.5 86.5t-57.5 67.5q-73 54 -285 116q-180 48 -274 102q-93 54 -138 128q-44 74 -44 181q0 177 174 260l22 11l-20 15q-63 47 -97 112t-34 161q0 80 31.5 143t95.5 111q65 48 151.5 72.5t195.5 24.5q114 0 202 -27.5t150 -81.5
q120 -104 125 -292h-155q-5 121 -89 199q-44 40 -102.5 60.5t-130.5 20.5q-147 0 -231 -60q-87 -62 -87 -168q0 -74 31 -118q10 -14 25 -28t34 -26t42 -23q69 -33 213 -73q48 -14 89 -26.5t75.5 -25t62.5 -24.5q20 -9 39 -18.5t36 -19.5t32.5 -21t29.5 -23
q54 -46 81.5 -107.5t27.5 -147.5zM606 705q-90 24 -164 51l-4 2l-4 -1q-86 -21 -127 -76q-20 -27 -30 -59t-10 -69q0 -75 30 -118q14 -22 39 -41.5t60 -36.5q68 -34 211 -75q70 -21 116.5 -35.5t68.5 -22.5l4 -2l5 1q82 22 128 76q45 55 45 129q0 95 -75 154
q-37 29 -109.5 59.5t-183.5 63.5z" />
    <glyph glyph-name="dieresis" unicode="&#xa8;" horiz-adv-x="856" 
d="M116 1371q0 39 24 65q23 26 70 26t71 -26t24 -65t-24 -65q-24 -25 -71 -25q-24 0 -41.5 6.5t-28.5 18.5q-24 26 -24 65zM546 1369q0 8 1 15.5t3 14.5t4.5 13t6.5 12t9 11q11 13 28.5 19.5t41.5 6.5t41.5 -6.5t29.5 -19.5q12 -14 18 -30t6 -36q0 -39 -24 -65
q-24 -25 -71 -25t-70 25q-24 26 -24 65z" />
    <glyph glyph-name="copyright" unicode="&#xa9;" horiz-adv-x="1609" 
d="M1104 582q-1 -28 -5 -52.5t-10.5 -46.5t-16 -41.5t-22 -36t-28.5 -31.5q-41 -38 -99 -57t-135 -19q-150 0 -240 101q-91 101 -91 277v110q0 170 92 271q45 51 104.5 76t134.5 25q78 0 136.5 -19.5t99.5 -58.5q77 -73 81 -205h-116q-4 94 -52 138q-52 46 -149 46
q-25 0 -47.5 -4.5t-42.5 -14t-37.5 -23.5t-32.5 -33q-29 -37 -43 -87t-14 -114v-113q0 -125 57 -198q59 -75 160 -75q48 0 85.5 11.5t63.5 34.5q24 22 36.5 57t14.5 82h116zM191 729q0 -176 82 -326t223 -235t305 -85t304.5 85t222.5 235t82 326q0 174 -81 322
q-40 74 -95.5 133t-126.5 101q-141 86 -306 86q-82 0 -158.5 -21t-147.5 -64q-141 -84 -223 -234q-81 -149 -81 -323zM106 729q0 198 92 368q91 169 253 267q81 48 168.5 72.5t181.5 24.5q188 0 349.5 -97.5t252.5 -266.5q92 -170 92 -368q0 -97 -22 -187.5t-66 -174.5
q-88 -168 -251 -271q-161 -102 -355 -102q-64 0 -125 11t-118.5 33.5t-111.5 56.5t-99.5 75t-83.5 90t-68 105q-89 169 -89 364z" />
    <glyph glyph-name="ordfeminine" unicode="&#xaa;" horiz-adv-x="915" 
d="M629 720q-9 29 -14 59l-5 32l-21 -24q-72 -81 -193 -81q-113 0 -174 58q-60 57 -60 154q0 103 77 159q80 57 247 57h108h15v15v52q0 72 -35.5 111t-103.5 39q-74 0 -117 -30q-19 -13 -30.5 -32t-14.5 -42l-132 10q6 86 80 142q82 62 214 62q127 0 200 -67q72 -68 72 -195
v-316q0 -29 2.5 -57.5t7 -55t11.5 -50.5h-134zM435 813q12 0 23.5 1.5t23 4t23.5 6.5t23.5 9.5t22 11t20 11.5t18 13t15.5 14l5 5v6v142v15h-15h-112q-88 -1 -136 -35q-51 -36 -51 -95q0 -54 36.5 -81.5t103.5 -27.5z" />
    <glyph glyph-name="guillemotleft" unicode="&#xab;" horiz-adv-x="946" 
d="M503 440q0 64 44 184t178 273l71 -65q-108 -142 -137 -239t-29 -152q0 -60 28.5 -154.5t137.5 -238.5l-71 -64q-134 153 -178 272.5t-44 183.5zM125 440q0 64 44 184t178 273l71 -65q-108 -142 -137 -239t-29 -152q0 -60 28.5 -154.5t137.5 -238.5l-71 -64
q-134 153 -178 272.5t-44 183.5z" />
    <glyph glyph-name="logicalnot" unicode="&#xac;" horiz-adv-x="1134" 
d="M943 390h-156v249v15h-15h-630v131h801v-395z" />
    <glyph glyph-name="uni00AD" unicode="&#xad;" horiz-adv-x="565" 
d="M510 558h-458v121h458v-121z" />
    <glyph glyph-name="registered" unicode="&#xae;" horiz-adv-x="1610" 
d="M105 729q0 198 92 368q91 169 253 267q81 48 168.5 72.5t181.5 24.5q188 0 349.5 -97.5t252.5 -266.5q92 -170 92 -368q0 -97 -22 -187.5t-66 -174.5q-88 -168 -251 -271q-161 -102 -355 -102q-64 0 -125 11t-118.5 33.5t-111.5 56.5t-99.5 75t-83.5 90t-68 105
q-89 169 -89 364zM190 729q0 -176 82 -326t223 -235t305 -85q165 0 307 87q70 43 126 102t96 133q26 49 44 101.5t27 108.5t9 114q0 175 -80 323q-81 148 -222 233q-71 43 -148 64.5t-159 21.5q-55 0 -107 -9.5t-102 -28t-97 -47.5q-141 -84 -223 -234q-81 -149 -81 -323z
M638 654v-323h-111v819h261q148 0 228 -62q79 -61 79 -179q0 -114 -120 -175l-29 -14l30 -13q57 -23 85.5 -70t28.5 -120v-61q0 -21 1 -39t3 -33.5t5 -28.5t7 -24h-118q-10 36 -10 113q0 49 -0.5 75.5t-2.5 37.5q-9 53 -46.5 81.5t-99.5 30.5h-176h-15v-15zM653 767h156
q77 2 125 38q50 38 50 99q0 80 -45 115q-43 34 -148 34h-138h-15v-15v-256v-15h15z" />
    <glyph glyph-name="macron" unicode="&#xaf;" horiz-adv-x="938" 
d="M799 1317h-642v113h642v-113z" />
    <glyph glyph-name="degree" unicode="&#xb0;" horiz-adv-x="765" 
d="M145 1216q0 49 17.5 92t53 80t77.5 55t92 18q98 0 167 -73q35 -37 52 -79.5t17 -92.5t-17 -92.5t-52 -78.5q-69 -70 -167 -70q-99 0 -169 71q-36 35 -53.5 77.5t-17.5 92.5zM385 1073q30 0 55.5 10t45.5 30q42 40 42 103q0 64 -41.5 106t-101.5 42q-61 0 -103 -44
t-42 -104t42 -101.5t103 -41.5z" />
    <glyph glyph-name="plusminus" unicode="&#xb1;" horiz-adv-x="1094" 
d="M649 839h349v-121h-349h-15v-15v-399h-137v399v15h-15h-370v121h370h15v15v398h137v-398v-15h15zM955 15h-805v122h805v-122z" />
    <glyph glyph-name="acute" unicode="&#xb4;" horiz-adv-x="642" 
d="M324 1521h182l-241 -264h-114z" />
    <glyph glyph-name="mu" unicode="&#xb5;" horiz-adv-x="1160" 
d="M324 1067v-618q1 -168 55 -249q56 -85 180 -85q41 0 77 6.5t66.5 19.5t55 32t44 45t32.5 58l1 3v3v785h156v-1052h-138l-8 101l-3 42l-24 -34q-89 -129 -251 -129q-48 0 -88 8t-72.5 23t-57.5 38l-25 23v-34v-454h-155v1468h155z" />
    <glyph glyph-name="paragraph" unicode="&#xb6;" horiz-adv-x="1001" 
d="M661 15v505v15h-15h-84q-113 0 -200.5 31t-151.5 92q-128 122 -128 330q0 104 32 186t96.5 143.5t152 92.5t200.5 31h254v-1426h-156z" />
    <glyph glyph-name="periodcentered" unicode="&#xb7;" horiz-adv-x="534" 
d="M162 729q0 42 25 70q24 27 74 27q26 0 44.5 -7t30.5 -20q13 -14 19.5 -31.5t6.5 -38.5q0 -41 -25 -68q-26 -27 -76 -27t-74 27q-25 27 -25 68z" />
    <glyph glyph-name="cedilla" unicode="&#xb8;" horiz-adv-x="507" 
d="M266 -15l-8 -34l-3 -15l15 -3q72 -12 106.5 -51t34.5 -107q0 -30 -8 -55.5t-24.5 -47t-41.5 -38.5q-72 -51 -200 -54l-5 77q72 3 114 28q25 15 38 37t13 49q0 52 -39 78q-32 20 -119 30l25 106h102z" />
    <glyph glyph-name="ordmasculine" unicode="&#xba;" horiz-adv-x="931" 
d="M137 1123q0 152 90 245q89 93 237 93q149 0 238.5 -92t89.5 -252v-74q0 -153 -89 -246q-89 -92 -237 -92q-74 0 -133.5 23t-105 69.5t-68 109t-22.5 142.5v74zM270 1043q0 -106 52 -167q53 -62 144 -62q90 0 142 63q51 62 51 168v78q0 52 -13 93.5t-39 72.5t-62.5 46.5
t-80.5 15.5q-88 0 -140 -60q-52 -59 -54 -162v-86z" />
    <glyph glyph-name="guillemotright" unicode="&#xbb;" horiz-adv-x="946" 
d="M443 440q0 -63 -44 -183.5t-178 -272.5l-71 64q110 145 138 239t28 154q0 55 -29 152.5t-137 238.5l71 65q135 -153 178.5 -273t43.5 -184zM821 440q0 -63 -44 -183.5t-178 -272.5l-71 64q110 145 138 239t28 154q0 55 -29 152.5t-137 238.5l71 65q135 -153 178.5 -273
t43.5 -184z" />
    <glyph glyph-name="questiondown" unicode="&#xbf;" horiz-adv-x="969" 
d="M573 665q-1 -47 -6.5 -84.5t-14.5 -65.5q-19 -61 -66 -118q-9 -11 -20.5 -24.5t-24.5 -28t-27.5 -30.5t-31.5 -34t-35 -37q-95 -100 -107 -204v-1l-2 -37v-1q0 -115 62 -177q32 -31 76.5 -46.5t101.5 -15.5q26 0 50 3.5t45.5 11t41 19t36.5 26.5q62 56 67 144h155
q-8 -144 -110 -237q-108 -98 -285 -98q-190 0 -293 96q-102 96 -102 269q0 167 156 338l109 113v0q34 40 51 95t19 124h155zM581 997q0 -10 -1.5 -19t-4.5 -17.5t-7.5 -15.5t-10.5 -14q-11 -13 -28.5 -19.5t-41.5 -6.5t-41.5 6.5t-29.5 19.5q-12 14 -18 30t-6 36q0 38 24 64
q24 25 71 25t70 -25q24 -26 24 -64z" />
    <glyph glyph-name="multiply" unicode="&#xd7;" horiz-adv-x="1092" 
d="M110 329l320 325l10 11l-10 10l-318 325l98 102l318 -325l11 -10l11 10l318 325l98 -102l-318 -325l-10 -10l10 -11l320 -325l-98 -102l-320 327l-11 10l-11 -10l-320 -327z" />
    <glyph glyph-name="divide" unicode="&#xf7;" horiz-adv-x="1169" 
d="M1054 615h-968v154h968v-154zM476 1098q0 42 25 70q24 27 74 27q17 0 31.5 -3t25 -9t18.5 -15q13 -14 19.5 -31.5t6.5 -38.5q0 -14 -3 -26t-8.5 -22.5t-13.5 -19.5q-25 -26 -75.5 -26t-74.5 26q-13 14 -19 30.5t-6 37.5zM476 281q0 42 25 70q24 27 74 27q26 0 44.5 -7
t30.5 -20q13 -14 19.5 -31.5t6.5 -38.5q0 -4 -0.5 -8l-1 -8t-1 -7.5t-1.5 -7t-2.5 -6.5t-3 -6.5t-3 -6.5t-3.5 -6t-4.5 -6t-4.5 -5q-9 -9 -19.5 -15t-25 -9t-31.5 -3t-31.5 3t-25 9t-17.5 15q-9 9 -14.5 19t-8 22t-2.5 26z" />
    <glyph glyph-name="uni02BC" unicode="&#x2bc;" horiz-adv-x="409" 
d="M152 1065l-83 57q44 65 66.5 132t23.5 138v129h153v-115q0 -32 -5.5 -64t-16 -64.5t-26.5 -64.5q-22 -45 -50 -82.5t-62 -65.5z" />
    <glyph glyph-name="circumflex" unicode="&#x2c6;" horiz-adv-x="964" 
d="M749 1267h-121l-146 165l-11 13l-11 -13l-145 -165h-123l230 254h98z" />
    <glyph glyph-name="caron" unicode="&#x2c7;" horiz-adv-x="909" 
d="M460 1355l146 165h128l-236 -254h-99l-233 254h125l147 -165l11 -13z" />
    <glyph glyph-name="uni02C9" unicode="&#x2c9;" horiz-adv-x="939" 
d="M799 1317h-642v113h642v-113z" />
    <glyph glyph-name="breve" unicode="&#x2d8;" horiz-adv-x="874" 
d="M713 1480q-5 -104 -77 -168q-40 -35 -91 -52.5t-116 -17.5q-128 0 -207 70q-37 33 -56 74.5t-22 93.5h121q4 -66 42 -105q43 -44 122 -44q25 0 46.5 4.5t40 14.5t33.5 24q7 7 12.5 14.5t10 15.5t8.5 17t6.5 18.5t4 19.5t2.5 21h120z" />
    <glyph glyph-name="dotaccent" unicode="&#x2d9;" horiz-adv-x="497" 
d="M156 1367q0 8 1 15.5t3 14.5t4.5 13t6.5 12t9 11q7 9 17 14.5t23.5 8.5t29.5 3q47 0 71 -26q24 -27 24 -66t-24 -65q-24 -25 -71 -25q-24 0 -41.5 6.5t-28.5 18.5q-12 13 -18 29t-6 36z" />
    <glyph glyph-name="ring" unicode="&#x2da;" horiz-adv-x="685" 
d="M536 1408q0 -81 -57 -135q-58 -54 -143 -54q-86 0 -143 55q-57 54 -57 134q0 27 6.5 51t19 45t31.5 40q57 57 143 57t143 -56.5t57 -136.5zM205 1408q0 -53 38 -91.5t93 -38.5q27 0 50 9.5t42.5 28t29 42t9.5 50.5q0 18 -4 34.5t-12.5 31.5t-21.5 28q-18 19 -42 29
t-51 10q-19 0 -35.5 -4.5t-31.5 -13.5t-27 -22q-37 -39 -37 -93z" />
    <glyph glyph-name="ogonek" unicode="&#x2db;" horiz-adv-x="554" 
d="M357 0l-42 -33q-119 -96 -119 -189q0 -42 24.5 -64.5t68.5 -22.5q21 0 43.5 5t43.5 14l10 -91q-64 -37 -144 -37q-42 0 -74 12t-56 36q-16 15 -26 34.5t-15.5 42.5t-5.5 50q0 83 63 156q63 72 177 126z" />
    <glyph glyph-name="tilde" unicode="&#x2dc;" horiz-adv-x="966" 
d="M815 1486q-4 -93 -58 -151q-57 -62 -142 -62q-10 0 -19 0.5t-17 2t-15.5 3t-14.5 3.5q-28 10 -75 40q-51 32 -74.5 39t-53.5 7q-48 0 -81 -36q-28 -31 -32 -75l-95 5q4 92 57 153q56 65 142 65q7 0 13 -0.5l12 -1t11.5 -1.5t11 -2.5t10.5 -3.5q6 -2 14 -5.5t17 -8.5
t20 -11t22 -13q50 -30 77 -39q27 -10 61 -10q50 0 83 39q27 32 31 73z" />
    <glyph glyph-name="hungarumlaut" unicode="&#x2dd;" horiz-adv-x="764" 
d="M612 1520h167l-243 -273h-132zM274 1520h159l-197 -273h-116z" />
    <glyph glyph-name="uni02F3" unicode="&#x2f3;" horiz-adv-x="602" 
d="M141 -242q0 64 45.5 108t113.5 44q65 0 109.5 -43.5t44.5 -108.5q0 -16 -2.5 -30.5t-8 -28t-13.5 -25t-19 -22.5q-22 -21 -49.5 -31.5t-61.5 -10.5q-70 0 -115 43q-44 42 -44 105zM198 -242q0 -20 8 -38t23 -32t33 -21t38 -7q41 0 69.5 28.5t28.5 69.5q0 42 -28 71
q-29 30 -70 30q-43 0 -73 -31q-29 -30 -29 -70z" />
    <glyph glyph-name="gravecomb" unicode="&#x300;" 
d="M-468 1257h-124l-232 264h183z" />
    <glyph glyph-name="acutecomb" unicode="&#x301;" 
d="M-456 1521h182l-241 -264h-114z" />
    <glyph glyph-name="tildecomb" unicode="&#x303;" 
d="M-193 1486q-4 -93 -58 -151q-57 -62 -142 -62q-10 0 -19 0.5t-17 2t-15.5 3t-14.5 3.5q-28 10 -75 40q-51 32 -74.5 39t-53.5 7q-48 0 -81 -36q-28 -31 -32 -75l-95 5q4 92 57 153q56 65 142 65q7 0 13 -0.5l12 -1t11.5 -1.5t11 -2.5t10.5 -3.5q6 -2 14 -5.5t17 -8.5
t20 -11t22 -13q50 -30 77 -39q27 -10 61 -10q50 0 83 39q27 32 31 73z" />
    <glyph glyph-name="hookabovecomb" unicode="&#x309;" 
d="M-637 1256l-1 124q67 6 101 20q21 9 32.5 26.5t11.5 41.5t-14.5 42.5t-40.5 29.5q-43 19 -110 21l5 76q45 -1 83 -7t68 -16.5t53 -25.5q35 -24 52.5 -54.5t17.5 -69.5q0 -55 -35 -91t-107 -46l-13 -2v-13l-1 -56h-102z" />
    <glyph glyph-name="uni030F" unicode="&#x30f;" 
d="M-545 1267h-128l-272 236h179zM-278 1267h-114l-219 236h164z" />
    <glyph glyph-name="dotbelowcomb" unicode="&#x323;" 
d="M-697 -245q0 39 24 66q23 26 70 26q8 0 15.5 -1t14 -2.5t12.5 -3.5t11 -5t9.5 -6.5t8.5 -7.5q12 -14 18 -30t6 -36q0 -39 -24 -65q-24 -25 -71 -25t-70 25q-24 26 -24 65z" />
    <glyph glyph-name="Delta" unicode="&#x394;" horiz-adv-x="1444" 
d="M666 1426h130l555 -1396h-1275zM293 127h844h22h22l-8 20l-8 21l-409 1064l-14 35l-13 35l-14 -35l-15 -35l-435 -1064l-8 -20l-9 -21h23h22z" />
    <glyph glyph-name="Omega" unicode="&#x3a9;" horiz-adv-x="1362" 
d="M767 138q135 38 211 179q81 148 84 390v134q0 241 -103 373q-106 134 -290 134t-289 -137q-51 -67 -77 -161q-25 -92 -25 -211v-113q0 -247 82 -402q78 -147 220 -186v-108h-432v97h191h37h37l-26 26l-27 26q-101 97 -159 244q-19 50 -32 100q-7 25 -11.5 50.5t-8.5 51.5
q-6 51 -6 103v111q0 179 68 319q33 69 79.5 122.5t106.5 90.5q120 75 272 75q151 0 271 -74q59 -36 105.5 -88t80.5 -119q68 -136 71 -309v-130q0 -154 -58 -303q-14 -37 -31.5 -70.5t-37.5 -64.5q-10 -15 -20.5 -29.5t-21.5 -28.5q-23 -27 -48 -51l-27 -26l-26 -26h37h37
h190v-97h-424v108z" />
    <glyph glyph-name="uni060C" unicode="&#x60c;" horiz-adv-x="669" 
d="M480 557q-74 -69 -114 -137.5t-40 -172.5q72 0 103.5 -28t31.5 -91q0 -127 -120 -127q-77 0 -110 41.5t-33 117.5q0 138 63.5 247t167.5 191z" />
    <glyph glyph-name="uni060D" unicode="&#x60d;" horiz-adv-x="828" 
d="M621 1424l114 -35l-546 -1596l-115 34z" />
    <glyph glyph-name="uni0610" unicode="&#x610;" 
d="M147 1195q28 52 28 131q0 93 -42 183l69 24l28 -85q22 -68 63 -74q172 292 339 292q80 0 132.5 -51t52.5 -126q-1 -102 -88.5 -153.5t-268.5 -51.5h-26q-70 0 -114 8.5t-77 24.5q-2 -99 -34 -160zM458 1360q137 0 210.5 30t73.5 95q0 44 -30 74.5t-77 30.5
q-65 0 -131.5 -62.5t-133.5 -167.5h88z" />
    <glyph glyph-name="uni0611" unicode="&#x611;" 
d="M247 1283q-1 -37 -11 -70t-27 -65l-62 38q28 52 28 131q0 92 -42 182l69 25l28 -86q22 -68 59 -73h111q-25 30 -45 64.5t-20 86.5q0 90 58 155.5t157 65.5q105 0 176 -68l-30 -66q-64 48 -129 50q-67 0 -111 -41t-44 -100q0 -16 14.5 -56t71.5 -66q3 -1 10 -3.5t15 -0.5
l222 56v-82q-250 -77 -454 -77h-44z" />
    <glyph glyph-name="uni0612" unicode="&#x612;" 
d="M530 1005q-38 -2 -70 -2q-165 0 -266 68.5t-101 212.5q0 138 109.5 237.5t312.5 144.5q-21 8 -32.5 13t-40.5 17q-55 23 -91.5 36.5t-58.5 13.5q-34 0 -64 -19.5t-51 -46.5l-12 -14l-70 34l8 14q33 52 82.5 83t107.5 31q33 0 73.5 -14.5t89.5 -37.5q82 -40 137.5 -60
t102.5 -23l-6 -79q-145 -12 -263.5 -56t-188 -111.5t-69.5 -153.5q0 -211 299 -211q26 0 48 1zM874 1597q47 -111 47 -218q0 -117 -68 -215.5t-221 -134.5l-33 68q130 34 188 107.5t58 165.5q0 47 -12.5 97.5t-33.5 102.5z" />
    <glyph glyph-name="uni0615" unicode="&#x615;" 
d="M240 1357q10 16 20 31.5t20 31.5v470h70v-369q49 61 104.5 100.5t117.5 39.5q83 0 133 -49.5t50 -126.5q-1 -100 -87 -151.5t-266 -51.5h-269v75h107zM400 1358q135 0 208.5 29.5t73.5 93.5q0 44 -29.5 74t-76.5 30q-64 0 -130.5 -62.5t-133.5 -165.5z" />
    <glyph glyph-name="uni061B" unicode="&#x61b;" horiz-adv-x="669" 
d="M480 989q-74 -69 -114 -137.5t-40 -172.5q72 0 103.5 -28t31.5 -91q0 -127 -120 -127q-77 0 -110 41.5t-33 117.5q0 138 63.5 247t167.5 191zM226 119q0 49 35 84t83 35t83 -35t35 -84q0 -48 -35 -83t-83 -35q-49 0 -83.5 33.5t-34.5 84.5z" />
    <glyph glyph-name="uni061F" unicode="&#x61f;" horiz-adv-x="924" 
d="M114 996q0 103 49.5 179t130.5 118.5t175 42.5q179 0 258.5 -90.5t83.5 -274.5h-126q-4 100 -51.5 157.5t-153.5 57.5q-94 0 -154.5 -52t-60.5 -147q0 -60 33 -106t82 -88.5t99 -91.5t85 -113.5t39 -155.5h-155q-4 91 -39 150t-84 102t-97.5 84t-81 94t-32.5 134z
M407 119q0 49 35 84t83 35t83 -35t35 -84q0 -48 -35 -83t-83 -35q-49 0 -83.5 33.5t-34.5 84.5z" />
    <glyph glyph-name="uni0621" unicode="&#x621;" horiz-adv-x="830" 
d="M322 165q-89 50 -136.5 112t-47.5 142q0 146 86 230t219 84q119 0 201 -74l-40 -99q-74 46 -148 46q-86 0 -141 -49.5t-55 -136.5q0 -60 53 -108t140 -87q57 18 118 33.5t118 23.5l20 -129q-122 -19 -270 -77.5t-321 -152.5v140q59 34 105.5 56.5t98.5 45.5z" />
    <glyph glyph-name="uni0627" unicode="&#x627;" horiz-adv-x="465" 
d="M163 1336h139v-1335h-139v1335z" />
    <glyph glyph-name="uni0628" unicode="&#x628;" horiz-adv-x="1777" 
d="M799 -303l128 128l129 -128l-129 -128zM975 0h-135q-358 0 -542.5 118.5t-184.5 350.5q0 62 12.5 121t35.5 114l125 -47q-28 -83 -28 -173q1 -175 148.5 -254.5t423.5 -79.5h138q101 0 199.5 5.5t178.5 31t127.5 83.5t47.5 163q0 89 -33 239l136 33q20 -72 30 -147.5
t10 -109.5q0 -147 -49.5 -236t-141 -135t-218 -61.5t-280.5 -15.5z" />
    <glyph glyph-name="uni0629" unicode="&#x629;" horiz-adv-x="922" 
d="M372 886q211 -167 324 -304.5t113 -272.5q0 -139 -95 -222t-253 -83q-162 0 -255 78t-93 227q0 106 60 202.5t171 220.5l-51 47zM447 630q-96 -85 -146.5 -164t-50.5 -152q0 -76 52 -120t158 -44q212 0 212 165q0 69 -58.5 148.5t-166.5 166.5zM470 1198l123 123
l123 -123l-123 -124zM153 1198l123 123l123 -123l-123 -124z" />
    <glyph glyph-name="uni062A" unicode="&#x62a;" horiz-adv-x="1777" 
d="M975 0h-135q-358 0 -542.5 118.5t-184.5 350.5q0 62 12.5 121t35.5 114l125 -47q-28 -83 -28 -173q1 -175 148.5 -254.5t423.5 -79.5h138q101 0 199.5 5.5t178.5 31t127.5 83.5t47.5 163q0 89 -33 239l136 33q20 -72 30 -147.5t10 -109.5q0 -147 -49.5 -236t-141 -135
t-218 -61.5t-280.5 -15.5zM931 840l123 123l123 -123l-123 -124zM614 840l123 123l123 -123l-123 -124z" />
    <glyph glyph-name="uni062B" unicode="&#x62b;" horiz-adv-x="1777" 
d="M975 0h-135q-358 0 -542.5 118.5t-184.5 350.5q0 62 12.5 121t35.5 114l125 -47q-28 -83 -28 -173q1 -175 148.5 -254.5t423.5 -79.5h138q101 0 199.5 5.5t178.5 31t127.5 83.5t47.5 163q0 89 -33 239l136 33q20 -72 30 -147.5t10 -109.5q0 -147 -49.5 -236t-141 -135
t-218 -61.5t-280.5 -15.5zM780 1010l114 114l116 -114l-116 -116zM944 765l115 115l115 -115l-115 -115zM619 765l115 115l115 -115l-115 -115z" />
    <glyph glyph-name="uni062C" unicode="&#x62c;" horiz-adv-x="1347" 
d="M887 531q-38 15 -60.5 24t-75.5 31q-102 41 -168 65.5t-106 24.5q-61 0 -114.5 -33.5t-92.5 -79.5l-25 -32l-126 63l21 32q61 91 148 144.5t190 53.5q60 0 134 -26t163 -68q149 -73 250.5 -108.5t186.5 -42.5l-11 -142q-198 -17 -370.5 -66.5t-303 -126.5t-204 -176.5
t-73.5 -217.5q0 -194 140 -290t408 -96q105 0 206.5 15.5t198.5 58.5l37 -135q-97 -44 -212 -62t-244 -18q-201 0 -351.5 55t-234.5 168t-84 288q0 252 196.5 435t576.5 262zM676 -78l128 128l129 -128l-129 -128z" />
    <glyph glyph-name="uni062D" unicode="&#x62d;" horiz-adv-x="1347" 
d="M887 531q-38 15 -60.5 24t-75.5 31q-102 41 -168 65.5t-106 24.5q-61 0 -114.5 -33.5t-92.5 -79.5l-25 -32l-126 63l21 32q61 91 148 144.5t190 53.5q60 0 134 -26t163 -68q149 -73 250.5 -108.5t186.5 -42.5l-11 -142q-198 -17 -370.5 -66.5t-303 -126.5t-204 -176.5
t-73.5 -217.5q0 -194 140 -290t408 -96q105 0 206.5 15.5t198.5 58.5l37 -135q-97 -44 -212 -62t-244 -18q-201 0 -351.5 55t-234.5 168t-84 288q0 252 196.5 435t576.5 262z" />
    <glyph glyph-name="uni062E" unicode="&#x62e;" horiz-adv-x="1347" 
d="M438 1144l128 128l129 -128l-129 -128zM887 531q-38 15 -60.5 24t-75.5 31q-102 41 -168 65.5t-106 24.5q-61 0 -114.5 -33.5t-92.5 -79.5l-25 -32l-126 63l21 32q61 91 148 144.5t190 53.5q60 0 134 -26t163 -68q149 -73 250.5 -108.5t186.5 -42.5l-11 -142
q-198 -17 -370.5 -66.5t-303 -126.5t-204 -176.5t-73.5 -217.5q0 -194 140 -290t408 -96q105 0 206.5 15.5t198.5 58.5l37 -135q-97 -44 -212 -62t-244 -18q-201 0 -351.5 55t-234.5 168t-84 288q0 252 196.5 435t576.5 262z" />
    <glyph glyph-name="uni062F" unicode="&#x62f;" horiz-adv-x="963" 
d="M113 174q119 -23 204 -23q185 0 286 47.5t101 150.5q0 102 -105 215.5t-303 240.5l82 123q238 -145 355 -289t117 -287q0 -173 -126.5 -261.5t-393.5 -88.5q-58 0 -113 6t-104 16v150z" />
    <glyph glyph-name="uni0630" unicode="&#x630;" horiz-adv-x="963" 
d="M220 1260l128 128l129 -128l-129 -128zM113 174q119 -23 204 -23q185 0 286 47.5t101 150.5q0 102 -105 215.5t-303 240.5l82 123q238 -145 355 -289t117 -287q0 -173 -126.5 -261.5t-393.5 -88.5q-58 0 -113 6t-104 16v150z" />
    <glyph glyph-name="uni0631" unicode="&#x631;" horiz-adv-x="710" 
d="M522 493q40 -97 57.5 -197t17.5 -198q0 -142 -54 -271.5t-170 -225.5t-302 -140l-59 120q237 62 343 197t106 304q0 85 -17 177t-56 186z" />
    <glyph glyph-name="uni0632" unicode="&#x632;" horiz-adv-x="710" 
d="M282 852l128 128l129 -128l-129 -128zM522 493q40 -97 57.5 -197t17.5 -198q0 -142 -54 -271.5t-170 -225.5t-302 -140l-59 120q237 62 343 197t106 304q0 85 -17 177t-56 186z" />
    <glyph glyph-name="uni0633" unicode="&#x633;" horiz-adv-x="2456" 
d="M1531 0q-71 0 -117 20.5t-86 53.5q-4 -292 -164.5 -443t-442.5 -151q-291 0 -449.5 143.5t-158.5 417.5q0 200 84 410l127 -52q-69 -187 -69 -353q0 -418 463 -418q229 0 351 114t123 343q0 177 -84 360l139 48l54 -168q55 -174 232 -175q106 0 153 59.5t47 164.5
q0 47 -9 165l135 16l15 -210q5 -79 46 -137t127 -58q78 0 116 62.5t38 174.5q0 103 -40 254l139 37q43 -143 43 -276q0 -113 -28.5 -204t-93.5 -144t-173 -54q-93 0 -148 41.5t-91 115.5q-53 -73 -119 -115t-159 -42z" />
    <glyph glyph-name="uni0634" unicode="&#x634;" horiz-adv-x="2456" 
d="M1630 1147l114 114l116 -114l-116 -116zM1794 902l115 115l115 -115l-115 -115zM1469 902l115 115l115 -115l-115 -115zM1531 0q-71 0 -117 20.5t-86 53.5q-4 -292 -164.5 -443t-442.5 -151q-291 0 -449.5 143.5t-158.5 417.5q0 200 84 410l127 -52q-69 -187 -69 -353
q0 -418 463 -418q229 0 351 114t123 343q0 177 -84 360l139 48l54 -168q55 -174 232 -175q106 0 153 59.5t47 164.5q0 47 -9 165l135 16l15 -210q5 -79 46 -137t127 -58q78 0 116 62.5t38 174.5q0 103 -40 254l139 37q43 -143 43 -276q0 -113 -28.5 -204t-93.5 -144
t-173 -54q-93 0 -148 41.5t-91 115.5q-53 -73 -119 -115t-159 -42z" />
    <glyph glyph-name="uni0635" unicode="&#x635;" horiz-adv-x="2575" 
d="M324 399q-69 -188 -69 -353q0 -219 120 -318.5t343 -99.5q228 0 350.5 114t123.5 343q0 90 -21.5 180t-62.5 180l139 48l54 -168q22 -70 50.5 -105.5t75.5 -41.5q341 579 671 579q106 0 188 -46.5t129 -125.5t47 -178q-1 -201 -173.5 -304t-531.5 -103h-51
q-139 0 -226 17t-152 49q-4 -295 -169 -440.5t-438 -145.5q-292 0 -450 143.5t-158 417.5q0 200 84 410zM1753 151q270 0 415.5 59t145.5 188q0 88 -58.5 147.5t-151.5 59.5q-129 0 -261 -123.5t-265 -331.5z" />
    <glyph glyph-name="uni0636" unicode="&#x636;" horiz-adv-x="2575" 
d="M1931 1124l128 128l129 -128l-129 -128zM324 399q-69 -188 -69 -353q0 -219 120 -318.5t343 -99.5q228 0 350.5 114t123.5 343q0 90 -21.5 180t-62.5 180l139 48l54 -168q22 -70 50.5 -105.5t75.5 -41.5q341 579 671 579q106 0 188 -46.5t129 -125.5t47 -178
q-1 -201 -173.5 -304t-531.5 -103h-51q-139 0 -226 17t-152 49q-4 -295 -169 -440.5t-438 -145.5q-292 0 -450 143.5t-158 417.5q0 200 84 410zM1753 151q270 0 415.5 59t145.5 188q0 88 -58.5 147.5t-151.5 59.5q-129 0 -261 -123.5t-265 -331.5z" />
    <glyph glyph-name="uni0637" unicode="&#x637;" horiz-adv-x="1471" 
d="M329 150q19 32 39 63.5t40 63.5v1059h139v-857q100 123 210.5 200.5t233.5 77.5q110 0 192.5 -45.5t128.5 -124.5t46 -180q-1 -201 -173.5 -304t-531.5 -103h-540v150h216zM649 152q270 0 415.5 59t145.5 188q0 88 -58.5 147.5t-151.5 59.5q-129 0 -261 -123.5
t-265 -331.5z" />
    <glyph glyph-name="uni0638" unicode="&#x638;" horiz-adv-x="1471" 
d="M843 1124l128 128l129 -128l-129 -128zM329 150q19 32 39 63.5t40 63.5v1059h139v-857q100 123 210.5 200.5t233.5 77.5q110 0 192.5 -45.5t128.5 -124.5t46 -180q-1 -201 -173.5 -304t-531.5 -103h-540v150h216zM649 152q270 0 415.5 59t145.5 188q0 88 -58.5 147.5
t-151.5 59.5q-129 0 -261 -123.5t-265 -331.5z" />
    <glyph glyph-name="uni0639" unicode="&#x639;" horiz-adv-x="1306" 
d="M961 749q-145 82 -246 82q-92 0 -163.5 -57.5t-71.5 -158.5q0 -79 38.5 -138.5t80.5 -98.5q89 15 169 24t144 9q42 0 83 -2.5t81 -5.5l-19 -142q-28 1 -49 1h-35q-361 0 -542.5 -118t-181.5 -316q0 -171 135 -265.5t382 -94.5q101 0 200.5 15.5t196.5 58.5l37 -137
q-96 -45 -209 -62t-236 -17q-182 0 -327 54.5t-230 164.5t-85 276q0 173 84.5 298.5t264.5 205.5q-60 69 -92.5 144.5t-32.5 158.5q0 92 51.5 172t135.5 129.5t181 49.5q144 0 310 -110z" />
    <glyph glyph-name="uni063A" unicode="&#x63a;" horiz-adv-x="1306" 
d="M553 1282l128 128l129 -128l-129 -128zM961 749q-145 82 -246 82q-92 0 -163.5 -57.5t-71.5 -158.5q0 -79 38.5 -138.5t80.5 -98.5q89 15 169 24t144 9q42 0 83 -2.5t81 -5.5l-19 -142q-28 1 -49 1h-35q-361 0 -542.5 -118t-181.5 -316q0 -171 135 -265.5t382 -94.5
q101 0 200.5 15.5t196.5 58.5l37 -137q-96 -45 -209 -62t-236 -17q-182 0 -327 54.5t-230 164.5t-85 276q0 173 84.5 298.5t264.5 205.5q-60 69 -92.5 144.5t-32.5 158.5q0 92 51.5 172t135.5 129.5t181 49.5q144 0 310 -110z" />
    <glyph glyph-name="uni063D" unicode="&#x63d;" horiz-adv-x="1477" 
d="M488 1048h133l185 -309h-106l-146 247l-144 -247h-107zM342 452q-88 -219 -88 -395q0 -210 114.5 -309.5t345.5 -100.5q87 0 178 16.5t168 51t124.5 89t47.5 129.5q0 48 -23.5 65.5t-70.5 17.5h-164q-231 0 -231 232q0 117 52.5 219.5t151 166t235.5 63.5q27 0 75.5 -4
t97.5 -22l-26 -137q-42 11 -81 14t-66 3q-85 0 -143 -30.5t-92.5 -77t-49.5 -96t-15 -86.5q0 -48 21.5 -73.5t80.5 -25.5h180q112 -1 155.5 -64t43.5 -161q0 -132 -83.5 -230t-228.5 -152t-332 -54q-291 0 -448.5 140t-157.5 423q0 102 25 209.5t76 230.5z" />
    <glyph glyph-name="uni0640" unicode="&#x640;" horiz-adv-x="540" 
d="M-20 0v150h580v-150h-580z" />
    <glyph glyph-name="uni0641" unicode="&#x641;" horiz-adv-x="1781" 
d="M1175 1314l128 128l129 -128l-129 -128zM1544 396q-49 -15 -102.5 -25t-113.5 -10q-159 0 -235 62t-76 195q0 93 34 183.5t103 150t174 59.5q119 0 194 -80t110.5 -209t35.5 -276q-1 -186 -54 -282t-171.5 -130t-315.5 -34h-290q-724 0 -724 469q0 62 12.5 121t35.5 114
l125 -47q-28 -83 -28 -173q0 -175 152.5 -254.5t422.5 -79.5h315q142 0 229 19t127 71.5t40 155.5zM1531 532q-7 50 -19.5 108t-35.5 109t-60.5 83.5t-93.5 32.5q-64 0 -102.5 -42t-55.5 -99t-17 -102q0 -73 52 -97t140 -24q48 0 96.5 9t95.5 22z" />
    <glyph glyph-name="uni0642" unicode="&#x642;" horiz-adv-x="1437" 
d="M993 1030l123 123l123 -123l-123 -124zM676 1030l123 123l123 -123l-123 -124zM324 459q-69 -188 -69 -353q0 -209 113 -313.5t347 -104.5q177 0 281 49.5t149.5 144.5t48.5 232q-52 -15 -101.5 -25t-111.5 -10q-162 0 -238.5 64t-76.5 191q0 95 33.5 186t102.5 150
t176 59q95 0 161.5 -48.5t107 -131.5t59 -188.5t18.5 -219.5q0 -306 -150.5 -453.5t-452.5 -147.5q-294 0 -451 143.5t-157 417.5q0 200 84 410zM1180 250q-6 51 -18.5 109t-36 109t-61 83.5t-93.5 32.5q-64 0 -102.5 -42.5t-55.5 -99.5t-17 -101q0 -73 52 -97.5t139 -24.5
q49 0 97.5 9t95.5 22z" />
    <glyph glyph-name="uni0643" unicode="&#x643;" horiz-adv-x="1831" 
d="M978 150q178 0 287 19t166.5 57t77.5 95.5t20 133.5v881h139v-879q0 -115 -26.5 -200.5t-99 -142.5t-207 -85.5t-350.5 -28.5h-145q-358 0 -542.5 118.5t-184.5 350.5q0 62 12.5 121t35.5 114l125 -47q-28 -83 -28 -173q1 -175 148.5 -254.5t423.5 -79.5h148zM741 576
q65 1 131 6t111 22.5t45 55.5q0 48 -27.5 66.5t-68 24t-81.5 14t-68 35.5t-27 89q0 63 46.5 102t121 57t156.5 20v-91q-47 -3 -102.5 -11.5t-95 -26.5t-39.5 -51q0 -29 27 -39t67 -15.5t79.5 -19t67 -48t27.5 -102.5q0 -82 -53 -119.5t-137.5 -47.5t-179.5 -10v89z" />
    <glyph glyph-name="uni0644" unicode="&#x644;" horiz-adv-x="1377" 
d="M316 335q-31 -83 -46.5 -167t-15.5 -147q0 -209 102 -301t319 -92q195 0 296.5 106.5t101.5 318.5l3 1283h138l-1 -1244q0 -310 -134.5 -461t-404.5 -151q-276 0 -418.5 133.5t-142.5 406.5q0 75 19 173t57 194z" />
    <glyph glyph-name="uni0645" unicode="&#x645;" horiz-adv-x="1230" 
d="M126 -655q-5 84 -7.5 163t-2.5 154q0 178 22 317.5t86 224.5t190 99q73 185 159.5 273t206.5 89q103 0 178.5 -50t117 -134.5t41.5 -188.5q0 -141 -67.5 -228t-206.5 -87q-67 0 -152 37q-37 16 -88 45.5t-101 54t-83 24.5q-92 0 -126 -114t-34 -334q0 -93 3.5 -181
t9.5 -164h-146zM546 261q89 -62 164 -99t132 -37q68 1 102.5 41.5t34.5 113.5q0 96 -52.5 166t-146.5 70q-56 0 -99 -37.5t-76 -96t-59 -121.5z" />
    <glyph glyph-name="uni0646" unicode="&#x646;" horiz-adv-x="1447" 
d="M579 662l128 128l129 -128l-129 -128zM1108 516l143 49q44 -114 63.5 -224t19.5 -216q0 -188 -78 -316.5t-216.5 -193.5t-318.5 -65q-292 0 -450 144t-158 417q0 200 84 410l127 -52q-69 -188 -69 -353q0 -418 463 -418q228 0 350.5 114t123.5 343q0 90 -21.5 180.5
t-62.5 180.5z" />
    <glyph glyph-name="uni0647" unicode="&#x647;" horiz-adv-x="922" 
d="M372 886q211 -167 324 -304.5t113 -272.5q0 -139 -95 -222t-253 -83q-162 0 -255 78t-93 227q0 106 60 202.5t171 220.5l-51 47zM447 630q-96 -85 -146.5 -164t-50.5 -152q0 -76 52 -120t158 -44q212 0 212 165q0 69 -58.5 148.5t-166.5 166.5z" />
    <glyph glyph-name="uni0648" unicode="&#x648;" horiz-adv-x="880" 
d="M631 32q-37 -12 -89.5 -22t-93.5 -10q-335 0 -335 281q0 97 34.5 189t104.5 152t176 60q115 0 190 -75t112 -196t37 -260q0 -271 -147 -449t-442 -238l-49 126q225 46 350 163t152 279zM632 173q-11 169 -60.5 265.5t-151.5 96.5q-69 0 -106.5 -44.5t-51.5 -103.5
t-14 -101q0 -78 53.5 -109t151.5 -31q89 0 179 27z" />
    <glyph glyph-name="uni0649" unicode="&#x649;" horiz-adv-x="1477" 
d="M342 452q-88 -219 -88 -395q0 -210 114.5 -309.5t345.5 -100.5q87 0 178 16.5t168 51t124.5 89t47.5 129.5q0 48 -23.5 65.5t-70.5 17.5h-164q-231 0 -231 232q0 117 52.5 219.5t151 166t235.5 63.5q27 0 75.5 -4t97.5 -22l-26 -137q-42 11 -81 14t-66 3
q-85 0 -143 -30.5t-92.5 -77t-49.5 -96t-15 -86.5q0 -48 21.5 -73.5t80.5 -25.5h180q112 -1 155.5 -64t43.5 -161q0 -132 -83.5 -230t-228.5 -152t-332 -54q-291 0 -448.5 140t-157.5 423q0 102 25 209.5t76 230.5z" />
    <glyph glyph-name="uni064A" unicode="&#x64a;" horiz-adv-x="1477" 
d="M755 -789l123 123l123 -123l-123 -124zM438 -789l123 123l123 -123l-123 -124zM342 452q-88 -219 -88 -395q0 -210 114.5 -309.5t345.5 -100.5q87 0 178 16.5t168 51t124.5 89t47.5 129.5q0 48 -23.5 65.5t-70.5 17.5h-164q-231 0 -231 232q0 117 52.5 219.5t151 166
t235.5 63.5q27 0 75.5 -4t97.5 -22l-26 -137q-42 11 -81 14t-66 3q-85 0 -143 -30.5t-92.5 -77t-49.5 -96t-15 -86.5q0 -48 21.5 -73.5t80.5 -25.5h180q112 -1 155.5 -64t43.5 -161q0 -132 -83.5 -230t-228.5 -152t-332 -54q-291 0 -448.5 140t-157.5 423q0 102 25 209.5
t76 230.5z" />
    <glyph glyph-name="uni064B" unicode="&#x64b;" 
d="M48 1215v88l440 180v-87zM48 1003v88l440 180v-87z" />
    <glyph glyph-name="uni064C" unicode="&#x64c;" 
d="M298 1228q0 70 44 112.5t112 42.5t111 -42.5t43 -113.5q0 -31 -8.5 -64t-21.5 -63q27 -4 46 -5v-61q-15 1 -33 3t-39 6q-47 -66 -135 -105.5t-183 -39.5q-68 0 -92 36.5t-24 98.5q0 26 3.5 57t8.5 61l-108 -25l6 67l171 40q-10 -53 -18 -102t-8 -86q0 -36 13.5 -60
t48.5 -24q64 0 136 24.5t121 73.5q-76 13 -135 55t-59 114zM515 1113q11 26 20.5 56t9.5 57q0 39 -25.5 65.5t-61.5 26.5q-41 0 -68 -26t-27 -68q0 -33 24.5 -54.5t59.5 -34.5t68 -22z" />
    <glyph glyph-name="uni064D" unicode="&#x64d;" 
d="M47 -423v88l441 180v-88zM47 -635v88l441 180v-88z" />
    <glyph glyph-name="uni064E" unicode="&#x64e;" 
d="M52 1129v88l441 180v-88z" />
    <glyph glyph-name="uni064F" unicode="&#x64f;" 
d="M454 1057q-41 0 -76 6q-48 -67 -139 -104.5t-213 -45.5v63q213 21 294 106q-72 13 -133 54t-61 112t44 113t112 42q67 0 111 -42.5t44 -113.5q0 -30 -8 -62t-21 -63q11 -1 22.5 -3t23.5 -2v-60zM343 1133q11 26 20.5 56t9.5 57q0 40 -25.5 65.5t-61.5 25.5
q-41 0 -68 -25.5t-27 -67.5q0 -33 24.5 -54.5t59.5 -34.5t68 -22z" />
    <glyph glyph-name="uni0650" unicode="&#x650;" 
d="M48 -495v88l440 180v-87z" />
    <glyph glyph-name="uni0651" unicode="&#x651;" 
d="M332 1283q1 -43 5 -85.5t20.5 -70.5t54.5 -28q40 0 57.5 28.5t17.5 79.5q0 37 -16 112l74 12q16 -57 16 -114q0 -194 -140 -195q-81 0 -111 71q-16 -62 -54.5 -88.5t-92.5 -26.5q-130 0 -130 170q0 48 11 92l63 -11q-4 -22 -5.5 -41t-1.5 -36q0 -91 75 -91q46 0 66 27
t24.5 70.5t4.5 92.5v32h62z" />
    <glyph glyph-name="uni0652" unicode="&#x652;" 
d="M48 1147q0 68 48.5 116.5t117.5 48.5q68 0 116.5 -48.5t48.5 -116.5q0 -69 -48.5 -117.5t-116.5 -48.5q-69 0 -117.5 48.5t-48.5 117.5zM112 1147q0 -42 30 -71.5t72 -29.5t71 29.5t29 71.5t-29 71.5t-71 29.5t-72 -29.5t-30 -71.5z" />
    <glyph glyph-name="uni0653" unicode="&#x653;" 
d="M230 1201q-42 0 -72.5 -30t-73.5 -77l-61 56q40 45 89.5 92.5t97.5 47.5q34 0 67 -17.5t67 -35t69 -17.5q38 0 61 12.5t72 52.5l53 -70q-111 -83 -168 -83q-32 0 -66 17t-68.5 34.5t-66.5 17.5z" />
    <glyph glyph-name="uni0654" unicode="&#x654;" 
d="M154 1060q-34 33 -58 73.5t-24 98.5q0 37 10.5 66.5t28.5 52.5q25 30 61.5 46t74.5 16t62 -9t50 -24l1 -82q-51 25 -99 25q-19 0 -42 -6.5t-41 -22.5q-13 -12 -21 -30.5t-8 -44.5q0 -36 24.5 -67.5t75.5 -46.5q4 -1 10 -3t14 -2q7 0 12 1l113 23v-83l-364 -87v78z" />
    <glyph glyph-name="uni0655" unicode="&#x655;" 
d="M133 -398q-34 33 -58 73.5t-24 98.5q0 37 10.5 66.5t28.5 52.5q25 30 61.5 46t74.5 16t62 -9t50 -24l1 -82q-51 25 -99 25q-19 0 -42 -6.5t-41 -22.5q-13 -12 -21 -30.5t-8 -44.5q0 -36 24.5 -67.5t75.5 -46.5q4 -1 10 -3t14 -2q7 0 12 1l113 23v-83l-364 -87v78z" />
    <glyph glyph-name="uni0656" unicode="&#x656;" 
d="M72 -380v343h69v-343h-69z" />
    <glyph glyph-name="uni0657" unicode="&#x657;" 
d="M40 1344q29 -1 60.5 -3.5t64.5 -5.5q57 79 152 150.5t228 85.5v-63q-96 -17 -171 -64.5t-133 -122.5q67 -20 122 -61t55 -114q0 -66 -42 -110t-108 -44t-113.5 43t-47.5 115q0 54 25 126q-22 1 -44 2.5t-48 1.5v64zM268 1055q39 0 61.5 25t22.5 64q0 52 -51 80t-101 41
q-14 -33 -22 -62t-8 -51q0 -43 29 -70t69 -27z" />
    <glyph glyph-name="uni0658" unicode="&#x658;" 
d="M547 1267q-12 -106 -71 -179t-167 -73q-109 0 -167 73.5t-70 178.5h86q10 -71 43.5 -118t107.5 -47t107 48t44 117h87z" />
    <glyph glyph-name="uni065A" unicode="&#x65a;" 
d="M507 1452l-185 309h107l144 -248l146 248h106l-185 -309h-133z" />
    <glyph glyph-name="uni065B" unicode="&#x65b;" 
d="M507 1761h133l185 -309h-106l-146 247l-144 -247h-107z" />
    <glyph glyph-name="uni0660" unicode="&#x660;" horiz-adv-x="902" 
d="M159 478q0 80 39.5 146.5t106 106t146.5 39.5t146.5 -39.5t106 -106t39.5 -146.5t-39.5 -146.5t-106 -106t-146.5 -39.5t-146.5 39.5t-106 106t-39.5 146.5zM284 478q0 -69 49 -118.5t118 -49.5t118 49.5t49 118.5t-49 117.5t-118 48.5t-118 -48.5t-49 -117.5z" />
    <glyph glyph-name="uni0661" unicode="&#x661;" horiz-adv-x="651" 
d="M266 1286q98 -221 147 -482t49 -574v-230h-140v233q0 315 -46 564.5t-137 442.5z" />
    <glyph glyph-name="uni0662" unicode="&#x662;" horiz-adv-x="1114" 
d="M322 233q0 315 -46 564.5t-137 442.5l125 45q21 -57 43 -113t43 -112q36 -96 100.5 -145.5t173.5 -49.5q114 0 167.5 75.5t53.5 194.5q0 36 -5 76.5t-9 70.5l138 16q4 -33 8 -73.5t4 -79.5q0 -200 -91 -311.5t-264 -111.5q-60 0 -106.5 12t-99.5 39q20 -144 31 -282
t11 -261v-230h-140v233z" />
    <glyph glyph-name="uni0663" unicode="&#x663;" horiz-adv-x="1411" 
d="M322 233q0 315 -46 564.5t-137 442.5l125 45q26 -73 52 -144.5t52 -143.5q46 -130 198 -132q78 0 112 75t35 206q0 21 0.5 41.5t0.5 41.5l125 11q0 -23 1 -44.5t2 -42.5q5 -136 42 -212t115 -76q59 0 90 32.5t42.5 81.5t11.5 100q0 65 -6 115.5t-12 87.5l138 17
q5 -41 10 -94t5 -120q0 -162 -68.5 -262.5t-214.5 -100.5q-65 0 -121.5 31.5t-101.5 88.5q-43 -57 -98 -88.5t-106 -31.5q-81 0 -147 47q20 -144 30.5 -275.5t10.5 -263.5v-230h-140v233z" />
    <glyph glyph-name="uni0664" unicode="&#x664;" horiz-adv-x="1193" 
d="M265 1285l67 -192q38 -109 68.5 -146.5t55.5 -57.5q4 100 42 193.5t113 154t190 60.5q81 0 134 -24t88 -48l-46 -127q-33 19 -72.5 36.5t-92.5 17.5q-74 0 -126.5 -40.5t-80.5 -103t-28 -129.5q0 -44 39.5 -65.5t93 -29t94.5 -7.5q66 0 125.5 14.5t116.5 36.5l19 -140
q-60 -26 -117.5 -40t-122.5 -14q-151 0 -245 46.5t-161 112.5q19 -152 31 -303.5t12 -259.5v-230h-140v233q0 315 -46 564t-137 443z" />
    <glyph glyph-name="uni0665" unicode="&#x665;" horiz-adv-x="1246" 
d="M537 1296q308 -288 443 -525.5t135 -460.5q0 -164 -68 -237t-193 -73q-92 0 -148.5 53t-82.5 135q-25 -83 -77.5 -135.5t-148.5 -52.5q-120 0 -193 76t-73 234q0 129 53 262.5t139.5 270t187.5 274.5l-61 60zM396 140q75 0 113 53.5t65 193.5h99q24 -142 64.5 -194.5
t116.5 -52.5q62 0 94.5 47t32.5 122q0 162 -89 337.5t-276 371.5q-171 -225 -261 -399.5t-90 -309.5q0 -74 37 -121.5t94 -47.5z" />
    <glyph glyph-name="uni0666" unicode="&#x666;" horiz-adv-x="1009" 
d="M536 1149q-66 0 -121.5 -37.5t-89 -95t-33.5 -115.5q0 -66 75.5 -122t255.5 -71q7 -1 15 5q65 40 107 65t106 57l38 -133q-131 -66 -245 -178t-207 -254.5t-161 -302.5l-128 58q81 195 175 333t190 234q-177 22 -271 105t-94 197q0 98 45.5 190t130 151.5t201.5 59.5
q61 0 114.5 -19t101.5 -53l-45 -128q-35 19 -72 36.5t-88 17.5z" />
    <glyph glyph-name="uni0667" unicode="&#x667;" horiz-adv-x="1246" 
d="M555 0q-68 377 -181.5 688t-251.5 527l128 69q117 -202 217.5 -465t156.5 -590q54 327 155 590.5t218 464.5l128 -69q-139 -217 -252.5 -528t-179.5 -687h-138z" />
    <glyph glyph-name="uni0668" unicode="&#x668;" horiz-adv-x="1246" 
d="M555 1275h138q67 -376 180 -687t252 -527l-128 -70q-118 202 -218.5 465t-154.5 590q-56 -326 -156.5 -590t-217.5 -465l-128 70q138 216 251.5 527t181.5 687z" />
    <glyph glyph-name="uni0669" unicode="&#x669;" horiz-adv-x="1026" 
d="M122 915q0 93 43 178t117.5 139t169.5 54q128 0 201 -59.5t106 -165.5t40 -247q11 -227 19 -426.5t14 -387.5h-138q-2 59 -4.5 146.5t-5 183t-5 180t-3.5 137.5q-35 -10 -78.5 -20t-114.5 -10q-184 0 -272.5 76t-88.5 222zM451 1145q-59 0 -102 -34.5t-67 -87t-24 -108.5
q0 -79 55 -118.5t173 -39.5q45 0 96 10t81 19q-6 89 -19.5 171.5t-56.5 135t-136 52.5z" />
    <glyph glyph-name="uni066A" unicode="&#x66a;" horiz-adv-x="1033" 
d="M750 1317l104 -47l-569 -1260l-105 48zM145 1144q0 49 35 84t83 35t83 -35t35 -84q0 -48 -35 -83t-83 -35q-49 0 -83.5 33.5t-34.5 84.5zM652 178q0 49 35 84t83 35t83 -35t35 -84q0 -48 -35 -83t-83 -35q-49 0 -83.5 33.5t-34.5 84.5z" />
    <glyph glyph-name="uni066B" unicode="&#x66b;" horiz-adv-x="772" 
d="M542 679l99 -43l-450 -1039l-102 44z" />
    <glyph glyph-name="uni066C" unicode="&#x66c;" horiz-adv-x="560" 
d="M178 -295l-74 56q45 64 71.5 135t26.5 141v152h141v-130q0 -106 -52 -203t-113 -151z" />
    <glyph glyph-name="uni066D" unicode="&#x66d;" horiz-adv-x="1436" 
d="M197 1009h397l124 378l124 -378h397l-320 -235l123 -377l-324 234l-323 -234l123 377z" />
    <glyph glyph-name="uni066E" unicode="&#x66e;" horiz-adv-x="1777" 
d="M975 0h-135q-358 0 -542.5 118.5t-184.5 350.5q0 62 12.5 121t35.5 114l125 -47q-28 -83 -28 -173q1 -175 148.5 -254.5t423.5 -79.5h138q101 0 199.5 5.5t178.5 31t127.5 83.5t47.5 163q0 89 -33 239l136 33q20 -72 30 -147.5t10 -109.5q0 -147 -49.5 -236t-141 -135
t-218 -61.5t-280.5 -15.5z" />
    <glyph glyph-name="uni066F" unicode="&#x66f;" horiz-adv-x="1437" 
d="M324 459q-69 -188 -69 -353q0 -209 113 -313.5t347 -104.5q177 0 281 49.5t149.5 144.5t48.5 232q-52 -15 -101.5 -25t-111.5 -10q-162 0 -238.5 64t-76.5 191q0 95 33.5 186t102.5 150t176 59q95 0 161.5 -48.5t107 -131.5t59 -188.5t18.5 -219.5q0 -306 -150.5 -453.5
t-452.5 -147.5q-294 0 -451 143.5t-157 417.5q0 200 84 410zM1180 250q-6 51 -18.5 109t-36 109t-61 83.5t-93.5 32.5q-64 0 -102.5 -42.5t-55.5 -99.5t-17 -101q0 -73 52 -97.5t139 -24.5q49 0 97.5 9t95.5 22z" />
    <glyph glyph-name="uni0670" unicode="&#x670;" 
d="M72 1101v343h69v-343h-69z" />
    <glyph glyph-name="uni0671" unicode="&#x671;" horiz-adv-x="465" 
d="M-37 1337l14 66q14 -12 33 -25.5t38 -20.5q80 134 144.5 194t140.5 60q77 0 124.5 -47t47.5 -118q0 -94 -65.5 -132t-235.5 -38h-24q-175 0 -217 61zM202 1346q126 0 180.5 17.5t54.5 78.5q0 41 -28 69.5t-72 28.5q-60 0 -108 -49t-110 -145h83zM163 1143.28h139
v-1140.42h-139v1140.42z" />
    <glyph glyph-name="uni0674" unicode="&#x674;" horiz-adv-x="551" 
d="M220 1241q-34 33 -58 73.5t-24 98.5q0 37 10.5 66.5t28.5 52.5q25 30 61.5 46t74.5 16t62 -9t50 -24l1 -82q-51 25 -99 25q-19 0 -42 -6.5t-41 -22.5q-13 -12 -21 -30.5t-8 -44.5q0 -36 24.5 -67.5t75.5 -46.5q4 -1 10 -3t14 -2q7 0 12 1l113 23v-83l-364 -87v78z" />
    <glyph glyph-name="uni0679" unicode="&#x679;" horiz-adv-x="1777" 
d="M713 783q9 13 17 26.5t15 23.5v429h79v-315q42 45 89.5 77t101.5 32q77 0 125.5 -47.5t48.5 -119.5q-2 -190 -326 -190h-250v84h100zM862 784q244 2 244 102q0 36 -23.5 60.5t-62.5 24.5q-54 0 -111 -54t-112 -135zM975 0h-135q-358 0 -542.5 118.5t-184.5 350.5
q0 62 12.5 121t35.5 114l125 -47q-28 -83 -28 -173q1 -175 148.5 -254.5t423.5 -79.5h138q101 0 199.5 5.5t178.5 31t127.5 83.5t47.5 163q0 89 -33 239l136 33q20 -72 30 -147.5t10 -109.5q0 -147 -49.5 -236t-141 -135t-218 -61.5t-280.5 -15.5z" />
    <glyph glyph-name="uni067C" unicode="&#x67c;" horiz-adv-x="1777" 
d="M724 -105q0 72 51 123.5t123 51.5t123.5 -51.5t51.5 -123.5t-51.5 -123t-123.5 -51t-123 51t-51 123zM797 -105q0 -42 29.5 -71t71.5 -29t71.5 29t29.5 71t-29.5 72t-71.5 30t-71.5 -30t-29.5 -72zM975 0h-135q-358 0 -542.5 118.5t-184.5 350.5q0 62 12.5 121t35.5 114
l125 -47q-28 -83 -28 -173q1 -175 148.5 -254.5t423.5 -79.5h138q101 0 199.5 5.5t178.5 31t127.5 83.5t47.5 163q0 89 -33 239l136 33q20 -72 30 -147.5t10 -109.5q0 -147 -49.5 -236t-141 -135t-218 -61.5t-280.5 -15.5zM931 830l123 123l123 -123l-123 -124zM614 830
l123 123l123 -123l-123 -124z" />
    <glyph glyph-name="uni067E" unicode="&#x67e;" horiz-adv-x="1777" 
d="M956 -268l115 116l115 -116l-115 -114zM631 -268l115 116l115 -116l-115 -114zM792 -512l114 115l116 -115l-116 -115zM975 0h-135q-358 0 -542.5 118.5t-184.5 350.5q0 62 12.5 121t35.5 114l125 -47q-28 -83 -28 -173q1 -175 148.5 -254.5t423.5 -79.5h138
q101 0 199.5 5.5t178.5 31t127.5 83.5t47.5 163q0 89 -33 239l136 33q20 -72 30 -147.5t10 -109.5q0 -147 -49.5 -236t-141 -135t-218 -61.5t-280.5 -15.5z" />
    <glyph glyph-name="uni0681" unicode="&#x681;" horiz-adv-x="1347" 
d="M564 1109q-34 33 -58 73.5t-24 98.5q0 37 10.5 66.5t28.5 52.5q25 30 61.5 46t74.5 16t62 -9t50 -24l1 -82q-51 25 -99 25q-19 0 -42 -6.5t-41 -22.5q-13 -12 -21 -30.5t-8 -44.5q0 -36 24.5 -67.5t75.5 -46.5q4 -1 10 -3t14 -2q7 0 12 1l113 23v-83l-364 -87v78z
M887 531q-38 15 -60.5 24t-75.5 31q-102 41 -168 65.5t-106 24.5q-61 0 -114.5 -33.5t-92.5 -79.5l-25 -32l-126 63l21 32q61 91 148 144.5t190 53.5q60 0 134 -26t163 -68q149 -73 250.5 -108.5t186.5 -42.5l-11 -142q-198 -17 -370.5 -66.5t-303 -126.5t-204 -176.5
t-73.5 -217.5q0 -194 140 -290t408 -96q105 0 206.5 15.5t198.5 58.5l37 -135q-97 -44 -212 -62t-244 -18q-201 0 -351.5 55t-234.5 168t-84 288q0 252 196.5 435t576.5 262z" />
    <glyph glyph-name="uni0685" unicode="&#x685;" horiz-adv-x="1347" 
d="M522 1348l114 114l116 -114l-116 -116zM686 1103l115 115l115 -115l-115 -115zM361 1103l115 115l115 -115l-115 -115zM887 531q-38 15 -60.5 24t-75.5 31q-102 41 -168 65.5t-106 24.5q-61 0 -114.5 -33.5t-92.5 -79.5l-25 -32l-126 63l21 32q61 91 148 144.5t190 53.5
q60 0 134 -26t163 -68q149 -73 250.5 -108.5t186.5 -42.5l-11 -142q-198 -17 -370.5 -66.5t-303 -126.5t-204 -176.5t-73.5 -217.5q0 -194 140 -290t408 -96q105 0 206.5 15.5t198.5 58.5l37 -135q-97 -44 -212 -62t-244 -18q-201 0 -351.5 55t-234.5 168t-84 288
q0 252 196.5 435t576.5 262z" />
    <glyph glyph-name="uni0686" unicode="&#x686;" horiz-adv-x="1347" 
d="M862 22l115 116l115 -116l-115 -114zM537 22l115 116l115 -116l-115 -114zM698 -222l114 115l116 -115l-116 -115zM887 531q-38 15 -60.5 24t-75.5 31q-102 41 -168 65.5t-106 24.5q-61 0 -114.5 -33.5t-92.5 -79.5l-25 -32l-126 63l21 32q61 91 148 144.5t190 53.5
q60 0 134 -26t163 -68q149 -73 250.5 -108.5t186.5 -42.5l-11 -142q-198 -17 -370.5 -66.5t-303 -126.5t-204 -176.5t-73.5 -217.5q0 -194 140 -290t408 -96q105 0 206.5 15.5t198.5 58.5l37 -135q-97 -44 -212 -62t-244 -18q-201 0 -351.5 55t-234.5 168t-84 288
q0 252 196.5 435t576.5 262z" />
    <glyph glyph-name="uni0688" unicode="&#x688;" horiz-adv-x="963" 
d="M228 1225q9 13 17 26.5t15 23.5v429h79v-315q42 45 89.5 77t101.5 32q77 0 125.5 -47.5t48.5 -119.5q-2 -190 -326 -190h-250v84h100zM377 1226q244 2 244 102q0 36 -23.5 60.5t-62.5 24.5q-54 0 -111 -54t-112 -135zM113 174q119 -23 204 -23q185 0 286 47.5t101 150.5
q0 102 -105 215.5t-303 240.5l82 123q238 -145 355 -289t117 -287q0 -173 -126.5 -261.5t-393.5 -88.5q-58 0 -113 6t-104 16v150z" />
    <glyph glyph-name="uni0689" unicode="&#x689;" horiz-adv-x="963" 
d="M256 -101q0 72 51 123.5t123 51.5t123.5 -51.5t51.5 -123.5t-51.5 -123t-123.5 -51t-123 51t-51 123zM329 -101q0 -42 29.5 -71t71.5 -29t71.5 29t29.5 71t-29.5 72t-71.5 30t-71.5 -30t-29.5 -72zM113 174q119 -23 204 -23q185 0 286 47.5t101 150.5q0 102 -105 215.5
t-303 240.5l82 123q238 -145 355 -289t117 -287q0 -173 -126.5 -261.5t-393.5 -88.5q-58 0 -113 6t-104 16v150z" />
    </font>
</defs>
</svg>
