<?xml version="1.0" standalone="no"?>
<!DOCTYPE svg PUBLIC "-//W3C//DTD SVG 1.1//EN" "http://www.w3.org/Graphics/SVG/1.1/DTD/svg11.dtd" >
<svg xmlns="http://www.w3.org/2000/svg" xmlns:xlink="http://www.w3.org/1999/xlink" version="1.1">
<metadata>
Created by FontForge 20170731 at Mon Aug 23 11:10:56 2021
 By Aleksey,,,
Copyright (c) 2015, Saber Rastikerdar &#60;saber.rastikerdar@gmail.com&#62;.
</metadata>
<defs>
<font id="Vazir-Bold-FD" horiz-adv-x="0" >
  <font-face 
    font-family="Vazir FD"
    font-weight="700"
    font-stretch="normal"
    units-per-em="2048"
    panose-1="0 0 0 0 0 0 0 0 0 0"
    ascent="1638"
    descent="-410"
    x-height="1082"
    cap-height="1456"
    bbox="-1040 -1158 3040 2163"
    underline-thickness="100"
    underline-position="-880"
    unicode-range="U+0002-FFFD"
  />
<missing-glyph horiz-adv-x="1024" 
d="M102 -410v2048h820v-2048h-820zM204 -308h616v1844h-616v-1844z" />
    <glyph glyph-name="uni0622" unicode="&#x627;&#x653;" horiz-adv-x="465" 
d="M119 1452q-42 0 -86 -44t-91 -96l-109 99q35 39 76.5 84.5t88.5 78.5t97 33q43 0 85 -21.5t82.5 -43t81.5 -21.5q35 0 57 9t46 28.5t63 52.5l94 -123q-72 -54 -131 -87.5t-107 -33.5q-42 0 -84 21.5t-83.5 42.5t-79.5 21zM108 1246h249v-1245h-249v1245z" />
    <glyph glyph-name="uni0623" unicode="&#x627;&#x654;" horiz-adv-x="465" 
d="M128 1410q-30 32 -49.5 71.5t-19.5 92.5q0 39 11 70t30 55q27 34 67 52t82 18q43 0 70 -11t56 -28l1 -113q-30 16 -56 24.5t-57 8.5q-18 0 -38 -5t-35 -19q-25 -23 -25 -65q0 -31 21 -59t69 -42q5 -1 10 -2.5t10 -1.5h9l130 27v-111l-393 -94v107zM108 1185.99h249
v-1183.13h-249v1183.13z" />
    <glyph glyph-name="uni0624" unicode="&#x648;&#x654;" horiz-adv-x="880" 
d="M319 1037q-30 32 -49.5 71.5t-19.5 92.5q0 39 11 70t30 55q27 34 67 52t82 18q43 0 70 -11t56 -28l1 -113q-30 16 -56 24.5t-57 8.5q-18 0 -38 -5t-35 -19q-25 -23 -25 -65q0 -31 21 -59t69 -42q5 -1 10 -2.5t10 -1.5h9l130 27v-111l-393 -94v107zM553 12
q-54 -12 -105 -12q-182 0 -286 83.5t-104 252.5q0 79 22 159t67.5 147.5t115 108.5t165.5 41q103 0 177.5 -51t122.5 -136.5t71 -189.5t23 -209q0 -306 -174 -497t-505 -252l-90 230q198 36 327 120t173 205zM573 270q-13 148 -54 206.5t-99 58.5q-43 0 -68.5 -32t-37 -77.5
t-11.5 -84.5q0 -46 28 -65.5t122 -19.5q62 0 120 14z" />
    <glyph glyph-name="uni0625" unicode="&#x627;&#x655;" horiz-adv-x="465" 
d="M114 -480q-30 32 -49.5 71.5t-19.5 92.5q0 39 11 70t30 55q27 34 67 52t82 18q43 0 70 -11t56 -28l1 -113q-30 16 -56 24.5t-57 8.5q-18 0 -38 -5t-35 -19q-25 -23 -25 -65q0 -31 21 -59t69 -42q5 -1 10 -2.5t10 -1.5h9l130 27v-111l-393 -94v107zM109 1386h249v-1385
h-249v1385z" />
    <glyph glyph-name="uni0626" unicode="&#x64a;&#x654;" horiz-adv-x="1477" 
d="M493 832q-30 32 -49.5 71.5t-19.5 92.5q0 39 11 70t30 55q27 34 67 52t82 18q43 0 70 -11t56 -28l1 -113q-30 16 -56 24.5t-57 8.5q-18 0 -38 -5t-35 -19q-25 -23 -25 -65q0 -31 21 -59t69 -42q5 -1 10 -2.5t10 -1.5h9l130 27v-111l-393 -94v107zM413 537
q-44 -108 -74 -221t-30 -204q0 -188 94.5 -271t310.5 -84q114 0 220 28t174 78t68 117q0 22 -8.5 29t-42.5 7h-151q-135 0 -210.5 75t-75.5 212q0 130 60 245t170.5 187t263.5 72q46 0 112 -12t123 -35l-46 -241q-43 13 -90 22.5t-99 9.5q-95 0 -148.5 -42.5t-75 -98
t-21.5 -94.5q0 -26 8.5 -35t38.5 -9h180q134 0 192.5 -81.5t58.5 -198.5q0 -155 -94 -265t-252 -168t-350 -58q-308 0 -484.5 156t-176.5 462q0 119 35.5 249t91.5 262z" />
    <glyph glyph-name="uni06C0" unicode="&#x647;&#x654;" horiz-adv-x="922" 
d="M178 1289q29 -14 62 -23t80 -9q59 0 112 16t86.5 45t33.5 67q0 14 -35 14h-72q-65 0 -101.5 36t-36.5 102q0 72 35 125.5t91.5 82.5t120.5 29q16 0 48 -5.5t59 -16.5l-22 -110q-20 6 -44 10.5t-41 4.5q-61 0 -96.5 -37t-35.5 -76q0 -19 3 -23t25 -4h90q58 0 90.5 -32
t32.5 -80q0 -128 -97.5 -196t-247.5 -68q-58 0 -105 11t-86 29zM360 1018q146 -111 260 -218.5t179 -215.5t65 -220q0 -110 -52 -191t-143.5 -125t-207.5 -44q-177 0 -290 90t-113 270q0 119 54.5 211.5t154.5 207.5l-49 43zM448 618q-77 -73 -110 -136.5t-33 -112.5
q0 -50 31 -79.5t124 -29.5q96 0 126.5 26t30.5 84q0 42 -39.5 107t-129.5 141z" />
    <glyph glyph-name="uniFBA5.fina" unicode="&#xfeea;&#x654;" horiz-adv-x="1038" arabic-form="final" 
d="M322 1253q29 -14 62 -23t80 -9q59 0 112 16t86.5 45t33.5 67q0 14 -35 14h-72q-65 0 -101.5 36t-36.5 102q0 72 35 125.5t91.5 82.5t120.5 29q16 0 48 -5.5t59 -16.5l-22 -110q-20 6 -44 10.5t-41 4.5q-61 0 -96.5 -37t-35.5 -76q0 -19 3 -23t25 -4h90q58 0 90.5 -32
t32.5 -80q0 -128 -97.5 -196t-247.5 -68q-58 0 -105 11t-86 29zM58 452q0 162 129.5 280.5t372.5 198.5l-7 49l238 50l87 -632q19 -138 149 -138h31v-260h-35q-264 0 -343 212q-114 -80 -249 -80q-97 0 -182 33.5t-138 104.5t-53 182zM599 688q-155 -62 -221 -118t-66 -106
q0 -42 24 -63t89 -21q76 0 136 41t60 101q0 26 -3 51z" />
    <glyph glyph-name="uniFDF2" unicode="&#x627;&#xfedf;&#xfee0;&#xfeea;" horiz-adv-x="2513" arabic-form="isolated" 
d="M1249 1519.39v297.596h98v-297.596h-98zM1344 1461q2 -40 4.5 -82.5t16 -72t46.5 -29.5q60 0 60 94q0 18 -5 51.5t-13 71.5l101 17q20 -69 20 -130q0 -208 -154 -210q-30 0 -60 13t-47 36q-19 -54 -63 -73.5t-88 -19.5q-145 0 -145 185q0 29 4.5 56t10.5 52l91 -16
q-10 -46 -10 -88q0 -77 61 -77q59 0 69.5 41.5t10.5 134.5v46h90zM58 452q0 162 129.5 280.5t372.5 198.5l-7 49l238 50l87 -632q19 -138 149 -138h31v-260h-35q-264 0 -343 212q-114 -80 -249 -80q-97 0 -182 33.5t-138 104.5t-53 182zM599 688q-155 -62 -221 -118
t-66 -106q0 -42 24 -63t89 -21q76 0 136 41t60 101q0 26 -3 51zM1310 95q-45 -56 -107.5 -75.5t-141.5 -19.5h-42v260h44q61 0 86.5 18.5t31.5 64t6 126.5v600h249v-600q0 -86 5 -131t27 -61.5t73 -16.5h43v-260h-40q-76 0 -134 20.5t-100 74.5zM1545 0v260h31
q76 0 97.5 39.5t21.5 143.5v779h249v-777q0 -133 -35 -233.5t-115.5 -156t-218.5 -55.5h-30zM2155 1386h249v-1385h-249v1385z" />
    <glyph glyph-name="uniFE70" unicode="&#x20;&#x64b;" horiz-adv-x="592" arabic-form="isolated" 
d="M52 1152v118l469 192v-117zM52 940v118l469 192v-117z" />
    <glyph glyph-name="uniFE71" unicode="&#x640;&#x64b;" horiz-adv-x="592" arabic-form="medial" 
d="M286 0v260h326v-260h-326zM-20 0v260h326v-260h-326zM52 1152v118l469 192v-117zM52 940v118l469 192v-117z" />
    <glyph glyph-name="uniFE72" unicode="&#x20;&#x64c;" horiz-adv-x="743" arabic-form="isolated" 
d="M325 1112q0 75 48.5 122t121.5 47q74 0 121.5 -46.5t47.5 -123.5q0 -55 -25 -116q19 -2 41 -2v-90q-18 1 -36.5 2.5t-43.5 6.5q-50 -68 -140 -106.5t-185 -38.5q-75 0 -102 42.5t-27 107.5q0 23 2.5 48t5.5 51l-104 -23l5 95l203 48q-10 -57 -19.5 -113t-9.5 -94
q0 -70 47 -70q51 0 119.5 20t112.5 56q-69 16 -126 61t-57 116zM548 1014q10 24 17 49t7 47q0 33 -21.5 55t-51.5 22q-35 0 -57.5 -21.5t-22.5 -57.5q0 -37 40.5 -59t88.5 -35z" />
    <glyph glyph-name="uniFE74" unicode="&#x20;&#x64d;" horiz-adv-x="592" arabic-form="isolated" 
d="M65 -416v118l470 192v-118zM65 -628v118l470 192v-118z" />
    <glyph glyph-name="uniFE76" unicode="&#x20;&#x64e;" horiz-adv-x="592" arabic-form="isolated" 
d="M50 968v118l470 192v-118z" />
    <glyph glyph-name="uniFE77" unicode="&#x640;&#x64e;" horiz-adv-x="592" arabic-form="medial" 
d="M50 968v118l470 192v-118zM286 0v260h326v-260h-326zM-20 0v260h326v-260h-326z" />
    <glyph glyph-name="uniFE78" unicode="&#x20;&#x64f;" horiz-adv-x="592" arabic-form="isolated" 
d="M523 972q-46 0 -84 6q-52 -71 -150 -107t-223 -43v91q93 9 167.5 30t111.5 54q-67 15 -123 59.5t-56 115.5q0 76 48.5 122.5t121.5 46.5t121.5 -47t48.5 -123q0 -54 -24 -114q21 -2 41 -2v-89zM389 1080q10 24 17 49t7 47q0 34 -21.5 55t-51.5 21q-36 0 -58 -21t-22 -57
q0 -37 40.5 -59t88.5 -35z" />
    <glyph glyph-name="uniFE79" unicode="&#x640;&#x64f;" horiz-adv-x="592" arabic-form="medial" 
d="M286 0v260h326v-260h-326zM-20 0v260h326v-260h-326zM523 972q-46 0 -84 6q-52 -71 -150 -107t-223 -43v91q93 9 167.5 30t111.5 54q-67 15 -123 59.5t-56 115.5q0 76 48.5 122.5t121.5 46.5t121.5 -47t48.5 -123q0 -54 -24 -114q21 -2 41 -2v-89zM389 1080q10 24 17 49
t7 47q0 34 -21.5 55t-51.5 21q-36 0 -58 -21t-22 -57q0 -37 40.5 -59t88.5 -35z" />
    <glyph glyph-name="uniFE7A" unicode="&#x20;&#x650;" horiz-adv-x="592" arabic-form="isolated" 
d="M52 -412v118l469 192v-117z" />
    <glyph glyph-name="uniFE7B" unicode="&#x640;&#x650;" horiz-adv-x="592" arabic-form="medial" 
d="M52 -412v118l469 192v-117zM286 0v260h326v-260h-326zM-20 0v260h326v-260h-326z" />
    <glyph glyph-name="uniFE7C" unicode="&#x20;&#x651;" horiz-adv-x="592" arabic-form="isolated" 
d="M345 1149q2 -40 4.5 -82.5t16 -72t46.5 -29.5q60 0 60 94q0 18 -5 51.5t-13 71.5l101 17q20 -69 20 -130q0 -208 -154 -210q-30 0 -60 13t-47 36q-19 -54 -63 -73.5t-88 -19.5q-145 0 -145 185q0 29 4.5 56t10.5 52l91 -16q-10 -46 -10 -88q0 -77 61 -77q59 0 69.5 41.5
t10.5 134.5v46h90z" />
    <glyph glyph-name="uniFE7D" unicode="&#x640;&#x651;" horiz-adv-x="592" arabic-form="medial" 
d="M345 1149q2 -40 4.5 -82.5t16 -72t46.5 -29.5q60 0 60 94q0 18 -5 51.5t-13 71.5l101 17q20 -69 20 -130q0 -208 -154 -210q-30 0 -60 13t-47 36q-19 -54 -63 -73.5t-88 -19.5q-145 0 -145 185q0 29 4.5 56t10.5 52l91 -16q-10 -46 -10 -88q0 -77 61 -77q59 0 69.5 41.5
t10.5 134.5v46h90zM286 0v260h326v-260h-326zM-20 0v260h326v-260h-326z" />
    <glyph glyph-name="uniFE7E" unicode="&#x20;&#x652;" horiz-adv-x="592" arabic-form="isolated" 
d="M116 1017q0 74 53 127t127 53t127 -53t53 -127t-53 -127t-127 -53t-127 53t-53 127zM209 1017q0 -36 25.5 -61t61.5 -25t61 25t25 61t-25 61.5t-61 25.5t-61.5 -25.5t-25.5 -61.5z" />
    <glyph glyph-name="uniFE7F" unicode="&#x640;&#x652;" horiz-adv-x="592" arabic-form="medial" 
d="M116 1017q0 74 53 127t127 53t127 -53t53 -127t-53 -127t-127 -53t-127 53t-53 127zM209 1017q0 -36 25.5 -61t61.5 -25t61 25t25 61t-25 61.5t-61 25.5t-61.5 -25.5t-25.5 -61.5zM286 0v260h326v-260h-326zM-20 0v260h326v-260h-326z" />
    <glyph glyph-name="uniFEF5" unicode="&#xfedf;&#xfe82;" horiz-adv-x="1132" arabic-form="isolated" 
d="M196 1498q-36 0 -70.5 -35t-74.5 -78l-82 75q27 31 60.5 67t70.5 62t76 26q35 0 69 -17.5t67 -35t67 -17.5q43 0 64.5 15.5t70.5 56.5l71 -94q-59 -44 -104.5 -69.5t-83.5 -25.5q-33 0 -67.5 17.5t-68.5 35t-65 17.5zM357 255q-35 157 -64 273.5t-60.5 219.5t-72.5 215
t-100 259l220 120q60 -155 103 -277t76.5 -235t65 -240.5t67.5 -293.5q89 36 136 112.5t47 229.5v748h249v-749q0 -337 -183 -485.5t-525 -148.5q-29 0 -75 1t-94 3t-82 6v249q51 -4 110.5 -6.5t92.5 -2.5q39 0 89 2z" />
    <glyph glyph-name="uniFEF6" unicode="&#xfee0;&#xfe82;" horiz-adv-x="1193" arabic-form="final" 
d="M196 1498q-36 0 -70.5 -35t-74.5 -78l-82 75q27 31 60.5 67t70.5 62t76 26q35 0 69 -17.5t67 -35t67 -17.5q43 0 64.5 15.5t70.5 56.5l71 -94q-59 -44 -104.5 -69.5t-83.5 -25.5q-33 0 -67.5 17.5t-68.5 35t-65 17.5zM775 638v748h249v-799q0 -184 37.5 -255.5
t115.5 -71.5h36v-260h-39q-227 0 -311 194q-181 -191 -547 -191q-29 0 -75 1t-94 3t-82 6v249q51 -4 110.5 -6.5t92.5 -2.5q39 0 89 2q-35 157 -64 273.5t-60.5 219.5t-72.5 215t-100 259l220 120q60 -155 103 -277t76.5 -235t65 -240.5t67.5 -293.5q89 36 136 112.5
t47 229.5z" />
    <glyph glyph-name="uniFEF7" unicode="&#xfedf;&#xfe84;" horiz-adv-x="1132" arabic-form="isolated" 
d="M96 1504q-30 32 -49.5 71.5t-19.5 92.5q0 39 11 70t30 55q27 34 67 52t82 18q43 0 70 -11t56 -28l1 -113q-30 16 -56 24.5t-57 8.5q-18 0 -38 -5t-35 -19q-25 -23 -25 -65q0 -31 21 -59t69 -42q5 -1 10 -2.5t10 -1.5h9l130 27v-111l-393 -94v107zM357 255
q-35 157 -64 273.5t-60.5 219.5t-72.5 215t-100 259l220 120q60 -155 103 -277t76.5 -235t65 -240.5t67.5 -293.5q89 36 136 112.5t47 229.5v748h249v-749q0 -337 -183 -485.5t-525 -148.5q-29 0 -75 1t-94 3t-82 6v249q51 -4 110.5 -6.5t92.5 -2.5q39 0 89 2z" />
    <glyph glyph-name="uniFEF8" unicode="&#xfee0;&#xfe84;" horiz-adv-x="1193" arabic-form="final" 
d="M96 1504q-30 32 -49.5 71.5t-19.5 92.5q0 39 11 70t30 55q27 34 67 52t82 18q43 0 70 -11t56 -28l1 -113q-30 16 -56 24.5t-57 8.5q-18 0 -38 -5t-35 -19q-25 -23 -25 -65q0 -31 21 -59t69 -42q5 -1 10 -2.5t10 -1.5h9l130 27v-111l-393 -94v107zM775 638v748h249v-799
q0 -184 37.5 -255.5t115.5 -71.5h36v-260h-39q-227 0 -311 194q-181 -191 -547 -191q-29 0 -75 1t-94 3t-82 6v249q51 -4 110.5 -6.5t92.5 -2.5q39 0 89 2q-35 157 -64 273.5t-60.5 219.5t-72.5 215t-100 259l220 120q60 -155 103 -277t76.5 -235t65 -240.5t67.5 -293.5
q89 36 136 112.5t47 229.5z" />
    <glyph glyph-name="uniFEF9" unicode="&#xfedf;&#xfe88;" horiz-adv-x="1132" arabic-form="isolated" 
d="M234 -477q-30 32 -49.5 71.5t-19.5 92.5q0 39 11 70t30 55q27 34 67 52t82 18q43 0 70 -11t56 -28l1 -113q-30 16 -56 24.5t-57 8.5q-18 0 -38 -5t-35 -19q-25 -23 -25 -65q0 -31 21 -59t69 -42q5 -1 10 -2.5t10 -1.5h9l130 27v-111l-393 -94v107zM357 255
q-35 157 -64 273.5t-60.5 219.5t-72.5 215t-100 259l220 120q60 -155 103 -277t76.5 -235t65 -240.5t67.5 -293.5q89 36 136 112.5t47 229.5v748h249v-749q0 -337 -183 -485.5t-525 -148.5q-29 0 -75 1t-94 3t-82 6v249q51 -4 110.5 -6.5t92.5 -2.5q39 0 89 2z" />
    <glyph glyph-name="uniFEFA" unicode="&#xfee0;&#xfe88;" horiz-adv-x="1193" arabic-form="final" 
d="M234 -477q-30 32 -49.5 71.5t-19.5 92.5q0 39 11 70t30 55q27 34 67 52t82 18q43 0 70 -11t56 -28l1 -113q-30 16 -56 24.5t-57 8.5q-18 0 -38 -5t-35 -19q-25 -23 -25 -65q0 -31 21 -59t69 -42q5 -1 10 -2.5t10 -1.5h9l130 27v-111l-393 -94v107zM775 638v748h249v-799
q0 -184 37.5 -255.5t115.5 -71.5h36v-260h-39q-227 0 -311 194q-181 -191 -547 -191q-29 0 -75 1t-94 3t-82 6v249q51 -4 110.5 -6.5t92.5 -2.5q39 0 89 2q-35 157 -64 273.5t-60.5 219.5t-72.5 215t-100 259l220 120q60 -155 103 -277t76.5 -235t65 -240.5t67.5 -293.5
q89 36 136 112.5t47 229.5z" />
    <glyph glyph-name="uniFEFB" unicode="&#xfedf;&#xfe8e;" horiz-adv-x="1132" arabic-form="isolated" 
d="M357 255q-35 157 -64 273.5t-60.5 219.5t-72.5 215t-100 259l220 120q60 -155 103 -277t76.5 -235t65 -240.5t67.5 -293.5q89 36 136 112.5t47 229.5v748h249v-749q0 -337 -183 -485.5t-525 -148.5q-29 0 -75 1t-94 3t-82 6v249q51 -4 110.5 -6.5t92.5 -2.5q39 0 89 2z
" />
    <glyph glyph-name="uniFEFC" unicode="&#xfee0;&#xfe8e;" horiz-adv-x="1193" arabic-form="final" 
d="M775 638v748h249v-799q0 -184 37.5 -255.5t115.5 -71.5h36v-260h-39q-227 0 -311 194q-181 -191 -547 -191q-29 0 -75 1t-94 3t-82 6v249q51 -4 110.5 -6.5t92.5 -2.5q39 0 89 2q-35 157 -64 273.5t-60.5 219.5t-72.5 215t-100 259l220 120q60 -155 103 -277t76.5 -235
t65 -240.5t67.5 -293.5q89 36 136 112.5t47 229.5z" />
    <glyph glyph-name="LamAlefWasla" unicode="&#xfedf;&#xfb51;" horiz-adv-x="1132" 
d="M-32 1461l20 95q14 -12 34.5 -28.5t39.5 -26.5q80 133 145 192t146 59q82 0 134 -51t52 -128q0 -103 -72.5 -144t-242.5 -41h-24q-91 0 -149.5 17t-82.5 56zM222 1487q129 0 174.5 16t45.5 66q0 36 -23 59.5t-62 23.5q-50 0 -91 -37t-101 -128h57zM357 255
q-35 157 -64 273.5t-60.5 219.5t-72.5 215t-100 259l220 120q60 -155 103 -277t76.5 -235t65 -240.5t67.5 -293.5q89 36 136 112.5t47 229.5v748h249v-749q0 -337 -183 -485.5t-525 -148.5q-29 0 -75 1t-94 3t-82 6v249q51 -4 110.5 -6.5t92.5 -2.5q39 0 89 2z" />
    <glyph glyph-name="LamAlefWasla.fina" unicode="&#xfee0;&#xfb51;" horiz-adv-x="1193" 
d="M-32 1461l20 95q14 -12 34.5 -28.5t39.5 -26.5q80 133 145 192t146 59q82 0 134 -51t52 -128q0 -103 -72.5 -144t-242.5 -41h-24q-91 0 -149.5 17t-82.5 56zM222 1487q129 0 174.5 16t45.5 66q0 36 -23 59.5t-62 23.5q-50 0 -91 -37t-101 -128h57zM775 638v748h249v-799
q0 -184 37.5 -255.5t115.5 -71.5h36v-260h-39q-227 0 -311 194q-181 -191 -547 -191q-29 0 -75 1t-94 3t-82 6v249q51 -4 110.5 -6.5t92.5 -2.5q39 0 89 2q-35 157 -64 273.5t-60.5 219.5t-72.5 215t-100 259l220 120q60 -155 103 -277t76.5 -235t65 -240.5t67.5 -293.5
q89 36 136 112.5t47 229.5z" />
    <glyph glyph-name="uni063D.init" unicode="&#x63d;" horiz-adv-x="672" 
d="M262 1293h150l202 -338h-140l-137 234l-136 -234h-140zM557 826q26 -85 41.5 -185t15.5 -185q0 -237 -123 -346.5t-362 -109.5h-149v260h149q95 0 145.5 12.5t69.5 53.5t19 127q0 64 -14 153.5t-31 160.5zM247 -303l163 162l163 -163l-163 -163zM-90 -303l163 162
l163 -162l-163 -164z" />
    <glyph glyph-name="uni063D.medi" unicode="&#x63d;" horiz-adv-x="767" 
d="M262 1253h150l202 -338h-140l-137 234l-136 -234h-140zM787 0h-24q-184 0 -275 120q-61 -62 -153 -91t-206 -29h-149v260h151q95 0 145 13.5t68.5 50t18.5 103.5q0 58 -3.5 120t-7.5 117l244 29l19 -289q5 -78 39 -111t111 -33h22v-260zM247 -303l163 162l163 -163
l-163 -163zM-90 -303l163 162l163 -162l-163 -164z" />
    <glyph glyph-name="uni063D.fina" unicode="&#x63d;" horiz-adv-x="1559" 
d="M550 907h150l202 -338h-140l-137 234l-136 -234h-140zM375 428q-28 -77 -46.5 -160t-18.5 -168q0 -201 98.5 -281.5t310.5 -80.5q124 0 225 30.5t160.5 75.5t59.5 89q0 20 -25 43.5t-99 23.5h-130q-46 0 -65.5 21t-27.5 54l-26 110q-11 46 -0.5 60.5t49.5 14.5h617v-260
h-70q9 -25 10.5 -42.5t1.5 -31.5q0 -134 -89 -234t-243 -155.5t-347 -55.5q-309 0 -485 157t-176 463q0 97 25.5 213.5t64.5 205.5zM1434.1 0v260h144.993v-260h-144.993z" />
    <glyph glyph-name="uni066E.init.compact" unicode="&#x66e;" horiz-adv-x="592" 
d="M534 456q0 -213 -111.5 -334.5t-323.5 -121.5h-120v260h120q103 0 143.5 40.5t40.5 152.5q0 64 -14 153.5t-31 160.5l239 58q26 -85 41.5 -184.5t15.5 -184.5z" />
    <glyph glyph-name="uni066E.medi.compact" unicode="&#x66e;" horiz-adv-x="687" 
d="M707 0h-24q-184 0 -275 119q-57 -60 -136 -89.5t-171 -29.5h-121v260h121q107 0 144.5 39t37.5 138q0 54 -3.5 113t-6.5 113l243 30l19 -288q5 -79 39 -112t111 -33h22v-260z" />
    <glyph glyph-name="uni066E.fina" unicode="&#x66e;" horiz-adv-x="1878" 
d="M985 0h-145q-242 0 -417.5 57t-270 173.5t-94.5 293.5q0 83 21.5 159.5t50.5 145.5l226 -85q-16 -44 -29.5 -99t-13.5 -106q1 -139 122 -209t395 -70h150q192 0 309 31t160 83q11 14 18.5 37t7.5 61q0 48 -3 96.5t-6 94.5l240 30l19 -290q5 -78 37.5 -110.5t110.5 -32.5
h25v-260h-25q-204 0 -306 157q-97 -82 -245.5 -119.5t-336.5 -37.5z" />
    <glyph glyph-name="uni066F.init" unicode="&#x66f;" horiz-adv-x="918" 
d="M612 391q-72 -16 -148 -16q-172 0 -269 71.5t-97 227.5q0 75 21.5 154t66 145.5t114 107.5t164.5 41q107 0 182 -54.5t122 -144.5t69 -200t22 -221q0 -202 -64 -311t-196 -150t-334 -41h-285v260h296q164 0 242 28t94 103zM605 629q-16 97 -51.5 167t-95.5 70
q-39 0 -65.5 -31t-40 -75t-13.5 -82q0 -37 29.5 -51.5t107.5 -14.5q32 0 64.5 4.5t64.5 12.5z" />
    <glyph glyph-name="uni066F.medi" unicode="&#x66f;" horiz-adv-x="972" 
d="M813 261q26 -1 46.5 -1h37.5h95v-260h-92q-49 0 -117 8.5t-139 23.5t-131 35q-61 -21 -134 -36t-143 -23t-122 -8h-134v260h135h49t56 2q-38 53 -62 111.5t-24 120.5q0 70 31.5 139.5t85.5 126.5t122 91.5t141 34.5q75 0 144.5 -34t124 -91.5t86 -127.5t31.5 -141
q0 -63 -24 -120.5t-63 -110.5zM514 631q-24 0 -55 -23t-54 -55.5t-23 -62.5q0 -34 22.5 -70.5t54 -67t59.5 -47.5q48 25 91 78t43 109q0 29 -24.5 61.5t-57 55t-56.5 22.5z" />
    <glyph glyph-name="uni066F.fina" unicode="&#x66f;" horiz-adv-x="1444" 
d="M1127 0h-100q-192 0 -298 84t-106 252q0 79 22 159t67 147.5t114.5 108.5t165.5 41q164 0 265 -138t124 -394h83v-260h-97q-37 -256 -191.5 -388t-454.5 -132q-312 0 -487.5 159.5t-175.5 456.5q0 120 30.5 242t77.5 239l228 -92q-35 -94 -59.5 -194t-24.5 -190
q0 -189 94 -276t314 -87q209 0 298 64.5t111 197.5zM1138 260q-15 159 -55.5 217t-99.5 58q-41 0 -66.5 -32t-37 -77.5t-11.5 -84.5q0 -42 28 -61.5t121 -19.5h121z" />
    <glyph glyph-name="uni067C.init" unicode="&#x67c;" horiz-adv-x="672" 
d="M99 -83q0 78 55.5 133.5t133.5 55.5t133.5 -55.5t55.5 -133.5t-55.5 -133.5t-133.5 -55.5t-133.5 55.5t-55.5 133.5zM201 -83q0 -36 25.5 -61t61.5 -25t61 25t25 61t-25 61.5t-61 25.5t-61.5 -25.5t-25.5 -61.5zM557 826q26 -85 41.5 -185t15.5 -185q0 -237 -123 -346.5
t-362 -109.5h-149v260h149q95 0 145.5 12.5t69.5 53.5t19 127q0 64 -14 153.5t-31 160.5zM315 1100l163 162l163 -163l-163 -163zM-22 1100l163 162l163 -162l-163 -164z" />
    <glyph glyph-name="uni067C.medi" unicode="&#x67c;" horiz-adv-x="767" 
d="M99 -83q0 78 55.5 133.5t133.5 55.5t133.5 -55.5t55.5 -133.5t-55.5 -133.5t-133.5 -55.5t-133.5 55.5t-55.5 133.5zM201 -83q0 -36 25.5 -61t61.5 -25t61 25t25 61t-25 61.5t-61 25.5t-61.5 -25.5t-25.5 -61.5zM787 0h-24q-184 0 -275 120q-61 -62 -153 -91t-206 -29
h-149v260h151q95 0 145 13.5t68.5 50t18.5 103.5q0 58 -3.5 120t-7.5 117l244 29l19 -289q5 -78 39 -111t111 -33h22v-260zM316 1017l163 162l163 -163l-163 -163zM-21 1017l163 162l163 -162l-163 -164z" />
    <glyph glyph-name="uni067C.fina" unicode="&#x67c;" horiz-adv-x="1878" 
d="M709 -95q0 78 55.5 133.5t133.5 55.5t133.5 -55.5t55.5 -133.5t-55.5 -133.5t-133.5 -55.5t-133.5 55.5t-55.5 133.5zM811 -95q0 -36 25.5 -61t61.5 -25t61 25t25 61t-25 61.5t-61 25.5t-61.5 -25.5t-25.5 -61.5zM916 919l163 162l163 -163l-163 -163zM579 919l163 162
l163 -162l-163 -164zM985 0h-145q-242 0 -417.5 57t-270 173.5t-94.5 293.5q0 83 21.5 159.5t50.5 145.5l226 -85q-16 -44 -29.5 -99t-13.5 -106q1 -139 122 -209t395 -70h150q192 0 309 31t160 83q11 14 18.5 37t7.5 61q0 48 -3 96.5t-6 94.5l240 30l19 -290
q5 -78 37.5 -110.5t110.5 -32.5h25v-260h-25q-204 0 -306 157q-97 -82 -245.5 -119.5t-336.5 -37.5z" />
    <glyph glyph-name="uni0681.init" unicode="&#x681;" horiz-adv-x="1334" 
d="M532 1171q-30 32 -49.5 71.5t-19.5 92.5q0 39 11 70t30 55q27 34 67 52t82 18q43 0 70 -11t56 -28l1 -113q-30 16 -56 24.5t-57 8.5q-18 0 -38 -5t-35 -19q-25 -23 -25 -65q0 -31 21 -59t69 -42q5 -1 10 -2.5t10 -1.5h9l130 27v-111l-393 -94v107zM-20 0v260h163
q114 0 213.5 23t201.5 67t224 106l71 37q-17 6 -38.5 15.5t-66.5 27.5q-101 41 -165.5 63.5t-87.5 22.5q-44 0 -90 -28t-79 -71l-48 -61l-218 109l36 64q66 111 170 178t230 67q72 0 151.5 -28.5t168.5 -71.5q115 -56 192 -86.5t140.5 -44t138.5 -17.5l-4 -244
q-58 -7 -106 -20.5t-115 -45.5t-182 -93q-123 -65 -239.5 -116.5t-238.5 -82t-262 -30.5h-160z" />
    <glyph glyph-name="uni0681.medi" unicode="&#x681;" horiz-adv-x="1351" 
d="M532 1171q-30 32 -49.5 71.5t-19.5 92.5q0 39 11 70t30 55q27 34 67 52t82 18q43 0 70 -11t56 -28l1 -113q-30 16 -56 24.5t-57 8.5q-18 0 -38 -5t-35 -19q-25 -23 -25 -65q0 -31 21 -59t69 -42q5 -1 10 -2.5t10 -1.5h9l130 27v-111l-393 -94v107zM1283 388
q-51 -6 -92.5 -14t-101.5 -34q9 -36 62.5 -58t165.5 -22h54v-260h-58q-170 0 -281 53t-146 180q-179 -95 -363 -164t-383 -69h-160v260h163q114 0 213.5 23t201.5 67t224 106l71 37q-17 6 -38.5 15.5t-66.5 27.5q-101 41 -165.5 63.5t-87.5 22.5q-44 0 -90 -28t-79 -71
l-48 -61l-218 109l36 64q66 111 170 178t230 67q72 0 151.5 -28.5t168.5 -71.5q115 -56 192 -86.5t140.5 -44t138.5 -17.5z" />
    <glyph glyph-name="uni0681.fina" unicode="&#x681;" horiz-adv-x="1378" 
d="M533 1193q-30 32 -49.5 71.5t-19.5 92.5q0 39 11 70t30 55q27 34 67 52t82 18q43 0 70 -11t56 -28l1 -113q-30 16 -56 24.5t-57 8.5q-18 0 -38 -5t-35 -19q-25 -23 -25 -65q0 -31 21 -59t69 -42q5 -1 10 -2.5t10 -1.5h9l130 27v-111l-393 -94v107zM1281 -584
q-111 -53 -230 -73t-267 -20q-207 0 -371 60t-259 185t-95 321q0 237 169 425.5t484 282.5q-15 6 -28.5 11.5t-35.5 13.5q-67 26 -109.5 40t-61.5 14q-44 0 -90 -28t-79 -71l-48 -61l-218 109l36 64q66 111 170 178t230 67q72 0 151.5 -28.5t168.5 -71.5
q115 -56 192.5 -86.5t141.5 -44t139 -17.5l-19 -245q-49 -4 -97.5 -8.5t-92.5 -10.5q7 -97 60.5 -129.5t184.5 -32.5h91v-260h-88q-216 0 -340 83t-137 291q-273 -85 -400.5 -212t-127.5 -257q0 -164 116 -247.5t377 -83.5q118 0 218.5 20t202.5 67z" />
    <glyph glyph-name="uni0685.init" unicode="&#x685;" horiz-adv-x="1334" 
d="M452 1405l154 153l155 -153l-155 -155zM624 1143l154 153l155 -153l-155 -155zM284 1143l154 153l155 -153l-155 -155zM-20 0v260h163q114 0 213.5 23t201.5 67t224 106l71 37q-17 6 -38.5 15.5t-66.5 27.5q-101 41 -165.5 63.5t-87.5 22.5q-44 0 -90 -28t-79 -71
l-48 -61l-218 109l36 64q66 111 170 178t230 67q72 0 151.5 -28.5t168.5 -71.5q115 -56 192 -86.5t140.5 -44t138.5 -17.5l-4 -244q-58 -7 -106 -20.5t-115 -45.5t-182 -93q-123 -65 -239.5 -116.5t-238.5 -82t-262 -30.5h-160z" />
    <glyph glyph-name="uni0685.medi" unicode="&#x685;" horiz-adv-x="1351" 
d="M452 1405l154 153l155 -153l-155 -155zM624 1143l154 153l155 -153l-155 -155zM284 1143l154 153l155 -153l-155 -155zM1283 388q-51 -6 -92.5 -14t-101.5 -34q9 -36 62.5 -58t165.5 -22h54v-260h-58q-170 0 -281 53t-146 180q-179 -95 -363 -164t-383 -69h-160v260h163
q114 0 213.5 23t201.5 67t224 106l71 37q-17 6 -38.5 15.5t-66.5 27.5q-101 41 -165.5 63.5t-87.5 22.5q-44 0 -90 -28t-79 -71l-48 -61l-218 109l36 64q66 111 170 178t230 67q72 0 151.5 -28.5t168.5 -71.5q115 -56 192 -86.5t140.5 -44t138.5 -17.5z" />
    <glyph glyph-name="uni0685.fina" unicode="&#x685;" horiz-adv-x="1378" 
d="M482 1445l154 153l155 -153l-155 -155zM654 1183l154 153l155 -153l-155 -155zM314 1183l154 153l155 -153l-155 -155zM1281 -584q-111 -53 -230 -73t-267 -20q-207 0 -371 60t-259 185t-95 321q0 237 169 425.5t484 282.5q-15 6 -28.5 11.5t-35.5 13.5q-67 26 -109.5 40
t-61.5 14q-44 0 -90 -28t-79 -71l-48 -61l-218 109l36 64q66 111 170 178t230 67q72 0 151.5 -28.5t168.5 -71.5q115 -56 192.5 -86.5t141.5 -44t139 -17.5l-19 -245q-49 -4 -97.5 -8.5t-92.5 -10.5q7 -97 60.5 -129.5t184.5 -32.5h91v-260h-88q-216 0 -340 83t-137 291
q-273 -85 -400.5 -212t-127.5 -257q0 -164 116 -247.5t377 -83.5q118 0 218.5 20t202.5 67z" />
    <glyph glyph-name="uni0689.fina" unicode="&#x689;" horiz-adv-x="1055" 
d="M241 -91q0 78 55.5 133.5t133.5 55.5t133.5 -55.5t55.5 -133.5t-55.5 -133.5t-133.5 -55.5t-133.5 55.5t-55.5 133.5zM343 -91q0 -36 25.5 -61t61.5 -25t61 25t25 61t-25 61.5t-61 25.5t-61.5 -25.5t-25.5 -61.5zM58 300q60 -15 126.5 -27t122.5 -12q78 0 146.5 10
t110.5 38t42 81q0 24 -12 62.5t-21 59.5l-175 441l228 104l223 -570q40 -102 79 -164.5t105 -62.5h42v-260h-42q-192 0 -291 139q-72 -70 -172.5 -104t-247.5 -34q-82 0 -143.5 9.5t-120.5 23.5v266z" />
    <glyph glyph-name="uni0693.fina" unicode="&#x693;" horiz-adv-x="790" 
d="M312 -438q0 78 55.5 133.5t133.5 55.5t133.5 -55.5t55.5 -133.5t-55.5 -133.5t-133.5 -55.5t-133.5 55.5t-55.5 133.5zM414 -438q0 -36 25.5 -61t61.5 -25t61 25t25 61t-25 61.5t-61 25.5t-61.5 -25.5t-25.5 -61.5zM642 30q-32 -205 -179 -360.5t-422 -217.5l-109 221
q245 60 359.5 177t114.5 292q0 88 -25.5 192t-65.5 198l240 86l75 -240q23 -69 53.5 -93.5t87.5 -24.5h39v-260h-28q-44 0 -79.5 9t-60.5 21z" />
    <glyph glyph-name="uni0695.fina" unicode="&#x695;" horiz-adv-x="790" 
d="M249 -925l-201 338h140l136 -234l137 234h140l-202 -338h-150zM642 30q-32 -205 -179 -360.5t-422 -217.5l-109 221q245 60 359.5 177t114.5 292q0 88 -25.5 192t-65.5 198l240 86l75 -240q23 -69 53.5 -93.5t87.5 -24.5h39v-260h-28q-44 0 -79.5 9t-60.5 21z" />
    <glyph glyph-name="uni0696.fina" unicode="&#x696;" horiz-adv-x="790" 
d="M357 -616l174 173l174 -173l-174 -174zM-7 70l174 173l174 -173l-174 -174zM642 30q-32 -205 -179 -360.5t-422 -217.5l-109 221q245 60 359.5 177t114.5 292q0 88 -25.5 192t-65.5 198l240 86l75 -240q23 -69 53.5 -93.5t87.5 -24.5h39v-260h-28q-44 0 -79.5 9t-60.5 21
z" />
    <glyph glyph-name="uni069A.init" unicode="&#x69a;" horiz-adv-x="1562" 
d="M744 -298l174 173l174 -173l-174 -174zM684 1006l174 173l174 -173l-174 -174zM1153 260q43 0 71 37.5t28 144.5q0 53 -16.5 135.5t-36.5 157.5l240 60q25 -82 45 -168.5t20 -169.5q0 -118 -33 -222t-110 -169t-207 -66q-164 0 -248 117q-108 -117 -270 -117
q-183 0 -267 116q-53 -60 -134 -88t-186 -28h-69v260h71q113 0 157.5 34t44.5 135q0 23 -4.5 90.5t-8.5 122.5l245 30l19 -268q10 -144 134 -144q81 0 113 39t32 130q0 14 -2 50.5t-5 81t-6 81.5l245 30l19 -268q10 -144 119 -144z" />
    <glyph glyph-name="uni069A.medi" unicode="&#x69a;" horiz-adv-x="1658" 
d="M744 -298l174 173l174 -173l-174 -174zM684 1006l174 173l174 -173l-174 -174zM1153 260q46 0 72.5 34.5t26.5 132.5q0 33 -4 103.5t-9 132.5l245 30l19 -289q5 -79 39 -111.5t106 -32.5h30v-260h-28q-85 0 -153 26.5t-108 83.5q-83 -110 -235 -110q-163 0 -247 117
q-108 -117 -271 -117q-89 1 -157 28.5t-110 86.5q-53 -60 -133.5 -87.5t-186.5 -27.5h-69v260h71q113 0 157.5 34t44.5 135q0 23 -4 90t-9 123l245 30l19 -268q5 -70 37 -107t97 -37q82 0 113.5 38.5t31.5 130.5q0 14 -2 50.5t-5 81t-6 81.5l245 30l19 -268
q10 -144 119 -144z" />
    <glyph glyph-name="uni069A.fina" unicode="&#x69a;" horiz-adv-x="2553" 
d="M1634 -298l174 173l174 -173l-174 -174zM1574 1006l174 173l174 -173l-174 -174zM1531 0q-89 0 -153 33q-15 -181 -104 -304t-232 -186t-321 -63q-309 0 -486 159.5t-177 456.5q0 119 30.5 242t77.5 239l228 -92q-35 -95 -59.5 -196t-24.5 -188q0 -187 95.5 -275
t312.5 -88q210 0 314 96t105 306q0 97 -30.5 198t-74.5 194l249 86l72 -222q23 -72 64 -103.5t116 -32.5q82 0 113.5 38.5t31.5 130.5q0 14 -2 50.5t-5 81t-6 81.5l245 30l19 -268q10 -144 118 -144q47 0 73.5 34.5t26.5 132.5q0 33 -4 103.5t-9 132.5l245 30l19 -289
q5 -79 39 -111.5t106 -32.5h30v-260h-28q-85 0 -153 26.5t-108 83.5q-83 -110 -236 -110q-162 0 -246 117q-108 -117 -271 -117z" />
    <glyph glyph-name="uni06A1.init" unicode="&#x6a1;" horiz-adv-x="918" 
d="M612 391q-72 -16 -148 -16q-172 0 -269 71.5t-97 227.5q0 75 21.5 154t66 145.5t114 107.5t164.5 41q107 0 182 -54.5t122 -144.5t69 -200t22 -221q0 -202 -64 -311t-196 -150t-334 -41h-285v260h296q164 0 242 28t94 103zM605 629q-16 97 -51.5 167t-95.5 70
q-39 0 -65.5 -31t-40 -75t-13.5 -82q0 -37 29.5 -51.5t107.5 -14.5q32 0 64.5 4.5t64.5 12.5z" />
    <glyph glyph-name="uni06A1.medi" unicode="&#x6a1;" horiz-adv-x="972" 
d="M813 261q26 -1 46.5 -1h37.5h95v-260h-92q-49 0 -117 8.5t-139 23.5t-131 35q-61 -21 -134 -36t-143 -23t-122 -8h-134v260h135h49t56 2q-38 53 -62 111.5t-24 120.5q0 70 31.5 139.5t85.5 126.5t122 91.5t141 34.5q75 0 144.5 -34t124 -91.5t86 -127.5t31.5 -141
q0 -63 -24 -120.5t-63 -110.5zM514 631q-24 0 -55 -23t-54 -55.5t-23 -62.5q0 -34 22.5 -70.5t54 -67t59.5 -47.5q48 25 91 78t43 109q0 29 -24.5 61.5t-57 55t-56.5 22.5z" />
    <glyph glyph-name="uni06A1.fina" unicode="&#x6a1;" horiz-adv-x="1902" 
d="M984 260h79t87 2q-38 53 -62 111.5t-24 120.5q0 70 31.5 139.5t85.5 126.5t122 91.5t141 34.5q75 0 144.5 -34t124 -91.5t86 -127.5t31.5 -141q0 -63 -24 -120.5t-63 -110.5q26 -1 46.5 -1h37.5h95v-260h-92q-49 0 -117 8.5t-139 23.5t-131 35q-61 -21 -149 -36t-173 -23
t-137 -8h-144q-242 0 -417.5 57t-270 173t-94.5 294q0 83 21.5 160t51.5 145l226 -85q-17 -44 -30.5 -99.5t-13.5 -105.5q1 -139 122 -209t395 -70h154zM1444 631q-25 0 -55.5 -23t-53.5 -55.5t-23 -62.5q0 -34 22.5 -70.5t54 -67t58.5 -47.5q49 25 92 78t43 109
q0 29 -24.5 61.5t-57 55t-56.5 22.5z" />
    <glyph glyph-name="uni06AA.init" unicode="&#x6aa;" horiz-adv-x="1550" 
d="M730 260q145 0 260.5 9.5t183 32t67.5 61.5q0 34 -65.5 55t-178 31t-253.5 10h-370q-62 1 -121.5 16t-99 57.5t-39.5 126.5q0 62 39 109.5t80 81.5q81 66 212 139t286.5 141.5t310.5 121.5v-256q-163 -52 -307 -122t-278 -159h292q218 0 385.5 -36t262.5 -114t95 -203
q0 -107 -64 -177.5t-172.5 -111t-244.5 -57t-280 -16.5h-751v260h750z" />
    <glyph glyph-name="uni06AA.medi" unicode="&#x6aa;" horiz-adv-x="1623" 
d="M1295 92q-107 -50 -252.5 -71t-311.5 -21h-751v260h750q145 0 260.5 9.5t183 32t67.5 61.5q0 34 -65.5 55t-178 31t-253.5 10h-370q-62 0 -121.5 15t-99 58t-39.5 127q0 62 39 109.5t80 81.5q81 66 212 139t286.5 141.5t310.5 121.5v-256q-163 -52 -307 -122t-278 -159
h292q219 0 386.5 -36t262 -114t94.5 -203q0 -22 -4.5 -44t-11.5 -40q24 -12 55.5 -15t62.5 -3h49v-260h-49q-106 0 -177.5 28t-121.5 64z" />
    <glyph glyph-name="uni06AA.fina" unicode="&#x6aa;" horiz-adv-x="2083" 
d="M1191 0h-351q-33 0 -121.5 3t-206.5 10.5t-242.5 22.5t-228.5 39l78 228q128 -18 266.5 -27.5t257 -12.5t187.5 -3h360q145 0 260.5 9.5t183 32t67.5 61.5q0 34 -65.5 55t-178 31t-253.5 10h-370q-62 0 -121.5 15t-99 58t-39.5 127q0 62 39 109.5t80 81.5q81 66 212 139
t286.5 141.5t310.5 121.5v-256q-163 -52 -307 -122t-278 -159h292q219 0 386.5 -36t262 -114t94.5 -203q0 -22 -4.5 -44t-11.5 -40q24 -12 55.5 -15t62.5 -3h49v-260h-49q-106 0 -177.5 28t-121.5 64q-107 -50 -252.5 -71t-311.5 -21z" />
    <glyph glyph-name="uni06AB.init" unicode="&#x6ab;" horiz-adv-x="950" 
d="M500 1061q0 78 55.5 133.5t133.5 55.5t133.5 -55.5t55.5 -133.5t-55.5 -133.5t-133.5 -55.5t-133.5 55.5t-55.5 133.5zM602 1061q0 -36 25.5 -61t61.5 -25t61 25t25 61t-25 61.5t-61 25.5t-61.5 -25.5t-25.5 -61.5z" />
    <glyph glyph-name="uni06AB.medi" unicode="&#x6ab;" horiz-adv-x="1027" 
d="M500 1061q0 78 55.5 133.5t133.5 55.5t133.5 -55.5t55.5 -133.5t-55.5 -133.5t-133.5 -55.5t-133.5 55.5t-55.5 133.5zM602 1061q0 -36 25.5 -61t61.5 -25t61 25t25 61t-25 61.5t-61 25.5t-61.5 -25.5t-25.5 -61.5z" />
    <glyph glyph-name="uni06AB.fina" unicode="&#x6ab;" horiz-adv-x="1941" 
d="M1415 1061q0 78 55.5 133.5t133.5 55.5t133.5 -55.5t55.5 -133.5t-55.5 -133.5t-133.5 -55.5t-133.5 55.5t-55.5 133.5zM1517 1061q0 -36 25.5 -61t61.5 -25t61 25t25 61t-25 61.5t-61 25.5t-61.5 -25.5t-25.5 -61.5zM1079 260q140 0 215 16.5t103 47.5t28 75
q0 54 -65 128.5t-167 163t-212 183.5q-33 28 -49 68t-16 81q0 63 33.5 113t96.5 74l757 282v-261l-593 -220q87 -71 178.5 -148.5t168.5 -169.5t122 -206q47 -120 108 -173.5t145 -53.5h29v-260h-29q-106 0 -193.5 40.5t-154.5 115.5q-71 -81 -191 -118.5t-313 -37.5h-242
q-242 0 -416.5 57t-269 173.5t-94.5 293.5q0 83 21.5 159.5t50.5 145.5l226 -85q-16 -44 -29.5 -97.5t-13.5 -104.5q1 -139 121.5 -210.5t393.5 -71.5h251z" />
    <glyph glyph-name="uni06B5.init" unicode="&#x6b5;" horiz-adv-x="588" 
d="M277 1501l-201 338h140l136 -234l137 234h140l-202 -338h-150zM-20 0v260h81q110 0 140 41.5t30 141.5v943h249v-942q0 -210 -99 -327t-321 -117h-80z" />
    <glyph glyph-name="uni06B5.medi" unicode="&#x6b5;" horiz-adv-x="650" 
d="M276 1501l-201 338h140l136 -234l137 234h140l-202 -338h-150zM348 121q-54 -60 -122 -90.5t-183 -30.5h-63v260h65q108 0 147 40.5t39 128.5v957h249v-957q0 -93 32.5 -131t125.5 -38h32v-260h-30q-101 0 -170 31t-122 90z" />
    <glyph glyph-name="uni06B5.fina" unicode="&#x6b5;" horiz-adv-x="1439" 
d="M523 1047l-201 338h140l136 -234l137 234h140l-202 -338h-150zM387 420q-33 -85 -55.5 -178t-22.5 -166q0 -180 86.5 -259t279.5 -79q175 0 259.5 87.5t84.5 282.5l2 1278h248l-1 -953q0 -97 30.5 -135t129.5 -38h31v-260h-29q-57 0 -95 11t-71 32
q-20 -272 -168.5 -417.5t-421.5 -145.5q-294 0 -455 151t-161 444q0 99 28 215.5t72 222.5z" />
    <glyph glyph-name="uni06BA.init" unicode="&#x6ba;" horiz-adv-x="592" 
d="M534 456q0 -213 -111.5 -334.5t-323.5 -121.5h-120v260h120q103 0 143.5 40.5t40.5 152.5q0 64 -14 153.5t-31 160.5l239 58q26 -85 41.5 -184.5t15.5 -184.5z" />
    <glyph glyph-name="uni06BA.medi" unicode="&#x6ba;" horiz-adv-x="687" 
d="M707 0h-24q-184 0 -275 119q-57 -60 -136 -89.5t-171 -29.5h-121v260h121q107 0 144.5 39t37.5 138q0 54 -3.5 113t-6.5 113l243 30l19 -288q5 -79 39 -112t111 -33h22v-260z" />
    <glyph glyph-name="uni06BC.init" unicode="&#x6bc;" horiz-adv-x="592" 
d="M49 -83q0 78 55.5 133.5t133.5 55.5t133.5 -55.5t55.5 -133.5t-55.5 -133.5t-133.5 -55.5t-133.5 55.5t-55.5 133.5zM151 -83q0 -36 25.5 -61t61.5 -25t61 25t25 61t-25 61.5t-61 25.5t-61.5 -25.5t-25.5 -61.5zM534 456q0 -213 -111.5 -334.5t-323.5 -121.5h-120v260
h120q103 0 143.5 40.5t40.5 152.5q0 64 -14 153.5t-31 160.5l239 58q26 -85 41.5 -184.5t15.5 -184.5zM98 1100l174 173l174 -173l-174 -174z" />
    <glyph glyph-name="uni06BC.medi" unicode="&#x6bc;" horiz-adv-x="687" 
d="M49 -83q0 78 55.5 133.5t133.5 55.5t133.5 -55.5t55.5 -133.5t-55.5 -133.5t-133.5 -55.5t-133.5 55.5t-55.5 133.5zM151 -83q0 -36 25.5 -61t61.5 -25t61 25t25 61t-25 61.5t-61 25.5t-61.5 -25.5t-25.5 -61.5zM707 0h-24q-184 0 -275 119q-57 -60 -136 -89.5
t-171 -29.5h-121v260h121q107 0 144.5 39t37.5 138q0 54 -3.5 113t-6.5 113l243 30l19 -288q5 -79 39 -112t111 -33h22v-260zM153 1015l174 173l174 -173l-174 -174z" />
    <glyph glyph-name="uni06BC.fina" unicode="&#x6bc;" horiz-adv-x="1528" 
d="M546 -616q0 78 55.5 133.5t133.5 55.5t133.5 -55.5t55.5 -133.5t-55.5 -133.5t-133.5 -55.5t-133.5 55.5t-55.5 133.5zM648 -616q0 -36 25.5 -61t61.5 -25t61 25t25 61t-25 61.5t-61 25.5t-61.5 -25.5t-25.5 -61.5zM534 656l174 173l174 -173l-174 -174zM1137 140
q0 99 -31 199.5t-74 192.5l249 86l85 -264q16 -52 45.5 -73t96.5 -21h40v-260h-36q-44 0 -76.5 8t-58.5 22q-16 -179 -106 -301.5t-233 -185.5t-317 -63q-309 0 -486 159.5t-177 456.5q0 120 31 242.5t77 239.5l228 -94q-35 -94 -59.5 -193.5t-24.5 -189.5q0 -187 95.5 -275
t312.5 -88q209 0 313.5 96t105.5 306z" />
    <glyph glyph-name="uni06C2.init" unicode="&#x6c2;" horiz-adv-x="592" 
d="M188 1021q-30 32 -49.5 71.5t-19.5 92.5q0 39 11 70t30 55q27 34 67 52t82 18q43 0 70 -11t56 -28l1 -113q-30 16 -56 24.5t-57 8.5q-18 0 -38 -5t-35 -19q-25 -23 -25 -65q0 -31 21 -59t69 -42q5 -1 10 -2.5t10 -1.5h9l130 27v-111l-393 -94v107zM534 456
q0 -213 -111.5 -334.5t-323.5 -121.5h-120v260h120q103 0 143.5 40.5t40.5 152.5q0 64 -14 153.5t-31 160.5l239 58q26 -85 41.5 -184.5t15.5 -184.5zM430.063 -100.218q-46.7979 -43.1982 -84.9561 -89.6367q-38.1592 -46.4385 -44.6387 -99.7158
q53.2773 -7.91992 74.1572 -42.1182q20.8789 -34.1982 20.8789 -79.5566q0 -56.1582 -33.4785 -93.5967t-92.5166 -37.4385q-73.4365 0 -107.995 44.6387q-34.5586 44.6377 -34.5586 109.436q0 121.675 60.1172 210.231q60.1182 88.5566 146.515 155.514z" />
    <glyph glyph-name="uni06C2.medi" unicode="&#x6c2;" horiz-adv-x="1002" 
d="M408 701q-30 32 -49.5 71.5t-19.5 92.5q0 39 11 70t30 55q27 34 67 52t82 18q43 0 70 -11t56 -28l1 -113q-30 16 -56 24.5t-57 8.5q-18 0 -38 -5t-35 -19q-25 -23 -25 -65q0 -31 21 -59t69 -42q5 -1 10 -2.5t10 -1.5h9l130 27v-111l-393 -94v107zM186 31
q-38 -16 -70 -23.5t-73 -7.5h-63v260h65q82 0 133.5 22t96 62.5t104.5 96.5l164 -182q-45 -40 -85 -87.5t-40 -114.5q0 -70 38 -139t94 -118q16 212 126.5 336t311.5 124h34v-260h-36q-106 0 -159.5 -66.5t-53.5 -223.5q0 -25 1.5 -53.5t3.5 -53.5l-154 -151
q-175 83 -296 223.5t-142 355.5z" />
    <glyph glyph-name="uni06C2.fina" unicode="&#x6c2;" horiz-adv-x="919" 
d="M336 905q-30 32 -49.5 71.5t-19.5 92.5q0 39 11 70t30 55q27 34 67 52t82 18q43 0 70 -11t56 -28l1 -113q-30 16 -56 24.5t-57 8.5q-18 0 -38 -5t-35 -19q-25 -23 -25 -65q0 -31 21 -59t69 -42q5 -1 10 -2.5t10 -1.5h9l130 27v-111l-393 -94v107zM278 -29l-223 54
q12 131 50 249.5t95 211t128.5 146t150.5 53.5q92 0 146 -43t86.5 -106.5t57 -126.5t55 -106t82.5 -43h33v-260h-32q-98 0 -165 37t-110.5 93t-71 114t-46.5 102t-37 55q-34 -9 -74 -66.5t-74.5 -151.5t-50.5 -212z" />
    <glyph glyph-name="uni06C3.fina" unicode="&#x6c3;" horiz-adv-x="919" 
d="M440 985l163 162l163 -163l-163 -163zM103 985l163 162l163 -162l-163 -164zM278 -29l-223 54q12 131 50 249.5t95 211t128.5 146t150.5 53.5q92 0 146 -43t86.5 -106.5t57 -126.5t55 -106t82.5 -43h33v-260h-32q-98 0 -165 37t-110.5 93t-71 114t-46.5 102t-37 55
q-34 -9 -74 -66.5t-74.5 -151.5t-50.5 -212z" />
    <glyph glyph-name="uni06CA.fina" unicode="&#x6ca;" horiz-adv-x="938" 
d="M403 1078l163 162l163 -163l-163 -163zM66 1078l163 162l163 -162l-163 -164zM874.877 0v260h83.5098v-260h-83.5098zM427 792q174 0 270 -138t119 -394h80v-260h-97q-102 -440 -656 -543l-90 230q199 36 323.5 116t174.5 197h-89q-192 0 -298 84t-106 252q0 79 22 159
t67 147.5t114.5 108.5t165.5 41zM573 260q-15 159 -55.5 217t-99.5 58q-41 0 -66.5 -32t-37 -77.5t-11.5 -84.5q0 -42 25.5 -61.5t123.5 -19.5h121z" />
    <glyph glyph-name="uni06CD.fina" unicode="&#x6cd;" horiz-adv-x="1798" 
d="M615 428q-28 -77 -46.5 -160t-18.5 -168q0 -201 98.5 -281.5t310.5 -80.5q124 0 225 30.5t160.5 75.5t59.5 89q0 20 -25 43.5t-99 23.5h-130q-46 0 -65.5 21t-27.5 54l-26 110q-11 46 -0.5 60.5t49.5 14.5h617v-260h-70q9 -25 10.5 -42.5t1.5 -31.5q0 -134 -89 -234
t-243 -155.5t-347 -55.5q-309 0 -485 157t-176 463q0 67 13 147l-317 -125l56 263l338 134zM1673.1 0v260h144.993v-260h-144.993z" />
    <glyph glyph-name="uni06CE.init" unicode="&#x6ce;" horiz-adv-x="672" 
d="M301 992l-201 338h140l136 -234l137 234h140l-202 -338h-150zM557 826q26 -85 41.5 -185t15.5 -185q0 -237 -123 -346.5t-362 -109.5h-149v260h149q95 0 145.5 12.5t69.5 53.5t19 127q0 64 -14 153.5t-31 160.5zM247 -303l163 162l163 -163l-163 -163zM-90 -303l163 162
l163 -162l-163 -164z" />
    <glyph glyph-name="uni06CE.medi" unicode="&#x6ce;" horiz-adv-x="767" 
d="M350 882l-201 338h140l136 -234l137 234h140l-202 -338h-150zM787 0h-24q-184 0 -275 120q-61 -62 -153 -91t-206 -29h-149v260h151q95 0 145 13.5t68.5 50t18.5 103.5q0 58 -3.5 120t-7.5 117l244 29l19 -289q5 -78 39 -111t111 -33h22v-260zM247 -303l163 162l163 -163
l-163 -163zM-90 -303l163 162l163 -162l-163 -164z" />
    <glyph glyph-name="uni06CE.fina" unicode="&#x6ce;" horiz-adv-x="1559" 
d="M549 575l-201 338h140l136 -234l137 234h140l-202 -338h-150zM375 428q-28 -77 -46.5 -160t-18.5 -168q0 -201 98.5 -281.5t310.5 -80.5q124 0 225 30.5t160.5 75.5t59.5 89q0 20 -25 43.5t-99 23.5h-130q-46 0 -65.5 21t-27.5 54l-26 110q-11 46 -0.5 60.5t49.5 14.5
h617v-260h-70q9 -25 10.5 -42.5t1.5 -31.5q0 -134 -89 -234t-243 -155.5t-347 -55.5q-309 0 -485 157t-176 463q0 97 25.5 213.5t64.5 205.5zM1434.1 0v260h144.993v-260h-144.993z" />
    <glyph glyph-name="uni06D0.init" unicode="&#x6d0;" horiz-adv-x="592" arabic-form="initial" 
d="M534 456q0 -213 -111.5 -334.5t-323.5 -121.5h-120v260h120q103 0 143.5 40.5t40.5 152.5q0 64 -14 153.5t-31 160.5l239 58q26 -85 41.5 -184.5t15.5 -184.5zM45 -252l160 159l159 -159l-159 -161zM45 -579l160 158l159 -158l-159 -161z" />
    <glyph glyph-name="uni06D0.medi" unicode="&#x6d0;" horiz-adv-x="687" arabic-form="medial" 
d="M707 0h-24q-184 0 -275 119q-57 -60 -136 -89.5t-171 -29.5h-121v260h121q107 0 144.5 39t37.5 138q0 54 -3.5 113t-6.5 113l243 30l19 -288q5 -79 39 -112t111 -33h22v-260zM45 -252l160 159l159 -159l-159 -161zM45 -579l160 158l159 -158l-159 -161z" />
    <glyph glyph-name="uni06D0.fina" unicode="&#x6d0;" horiz-adv-x="1559" arabic-form="final" 
d="M569 -670l160 159l159 -159l-159 -161zM569 -997l160 158l159 -158l-159 -161zM375 428q-28 -77 -46.5 -160t-18.5 -168q0 -201 98.5 -281.5t310.5 -80.5q124 0 225 30.5t160.5 75.5t59.5 89q0 20 -25 43.5t-99 23.5h-130q-46 0 -65.5 21t-27.5 54l-26 110
q-11 46 -0.5 60.5t49.5 14.5h617v-260h-70q9 -25 10.5 -42.5t1.5 -31.5q0 -134 -89 -234t-243 -155.5t-347 -55.5q-309 0 -485 157t-176 463q0 97 25.5 213.5t64.5 205.5zM1434.1 0v260h144.993v-260h-144.993z" />
    <glyph glyph-name="uni06D5.fina" unicode="&#x6d5;" horiz-adv-x="1038" 
d="M58 452q0 162 129.5 280.5t372.5 198.5l-7 49l238 50l87 -632q19 -138 149 -138h31v-260h-35q-264 0 -343 212q-114 -80 -249 -80q-97 0 -182 33.5t-138 104.5t-53 182zM599 688q-155 -62 -221 -118t-66 -106q0 -42 24 -63t89 -21q76 0 136 41t60 101q0 26 -3 51z" />
    <glyph glyph-name="uniFB50" unicode="&#x671;" horiz-adv-x="465" arabic-form="isolated" 
d="M-52 1367l20 95q14 -12 34.5 -28.5t39.5 -26.5q80 133 145 192t146 59q82 0 134 -51t52 -128q0 -103 -72.5 -144t-242.5 -41h-24q-91 0 -149.5 17t-82.5 56zM202 1393q129 0 174.5 16t45.5 66q0 36 -23 59.5t-62 23.5q-50 0 -91 -37t-101 -128h57zM108 1185.99h249
v-1183.13h-249v1183.13z" />
    <glyph glyph-name="uniFB51" unicode="&#x671;" horiz-adv-x="527" arabic-form="final" 
d="M-52 1354l20 95q14 -12 34.5 -28.5t39.5 -26.5q80 133 145 192t146 59q82 0 134 -51t52 -128q0 -103 -72.5 -144t-242.5 -41h-24q-91 0 -149.5 17t-82.5 56zM202 1380q129 0 174.5 16t45.5 66q0 36 -23 59.5t-62 23.5q-50 0 -91 -37t-101 -128h57zM547 0h-25
q-197 0 -305.5 107t-108.5 337v743h249v-743q0 -113 39.5 -148.5t125.5 -35.5h25v-260z" />
    <glyph glyph-name="uniFB56" unicode="&#x67e;" horiz-adv-x="1777" arabic-form="isolated" 
d="M924 -268l154 155l155 -155l-155 -154zM584 -268l154 155l155 -155l-155 -154zM752 -530l154 155l155 -155l-155 -154zM975 0h-135q-242 0 -417.5 57t-270 173.5t-94.5 293.5q0 83 21.5 159.5t50.5 145.5l226 -85q-16 -44 -29.5 -95.5t-13.5 -102.5q1 -139 122 -212.5
t395 -73.5h138q144 0 256.5 10.5t177 58t64.5 159.5q0 44 -14 126t-30 153l239 59q16 -51 29 -114t21 -120t8 -89q0 -165 -58 -265t-160.5 -151.5t-237.5 -69t-288 -17.5z" />
    <glyph glyph-name="uniFB57" unicode="&#x67e;" horiz-adv-x="1878" arabic-form="final" 
d="M924 -268l154 155l155 -155l-155 -154zM584 -268l154 155l155 -155l-155 -154zM752 -530l154 155l155 -155l-155 -154zM985 0h-145q-242 0 -417.5 57t-270 173.5t-94.5 293.5q0 83 21.5 159.5t50.5 145.5l226 -85q-16 -44 -29.5 -99t-13.5 -106q1 -139 122 -209t395 -70
h150q192 0 309 31t160 83q11 14 18.5 37t7.5 61q0 48 -3 96.5t-6 94.5l240 30l19 -290q5 -78 37.5 -110.5t110.5 -32.5h25v-260h-25q-204 0 -306 157q-97 -82 -245.5 -119.5t-336.5 -37.5z" />
    <glyph glyph-name="uniFB58" unicode="&#x67e;" horiz-adv-x="672" arabic-form="initial" 
d="M254 -268l154 155l155 -155l-155 -154zM-86 -268l154 155l155 -155l-155 -154zM82 -530l154 155l155 -155l-155 -154zM557 826q26 -85 41.5 -185t15.5 -185q0 -237 -123 -346.5t-362 -109.5h-149v260h149q95 0 145.5 12.5t69.5 53.5t19 127q0 64 -14 153.5t-31 160.5z
" />
    <glyph glyph-name="uniFB59" unicode="&#x67e;" horiz-adv-x="767" arabic-form="medial" 
d="M787 0h-24q-184 0 -275 120q-61 -62 -153 -91t-206 -29h-149v260h151q95 0 145 13.5t68.5 50t18.5 103.5q0 58 -3.5 120t-7.5 117l244 29l19 -289q5 -78 39 -111t111 -33h22v-260zM254 -268l154 155l155 -155l-155 -154zM-86 -268l154 155l155 -155l-155 -154zM82 -530
l154 155l155 -155l-155 -154z" />
    <glyph glyph-name="uniFB66" unicode="&#x679;" horiz-adv-x="1777" arabic-form="isolated" 
d="M705 839q7 11 13.5 21.5t11.5 19.5v438h108v-294q40 40 84 64t93 24q82 0 135 -51.5t53 -129.5q-1 -105 -89 -155t-251 -50h-265v113h107zM862 840q124 0 176.5 24t52.5 64q0 31 -19 50.5t-52 19.5q-43 0 -93.5 -42t-102.5 -117zM975 0h-135q-242 0 -417.5 57t-270 173.5
t-94.5 293.5q0 83 21.5 159.5t50.5 145.5l226 -85q-16 -44 -29.5 -95.5t-13.5 -102.5q1 -139 122 -212.5t395 -73.5h138q144 0 256.5 10.5t177 58t64.5 159.5q0 44 -14 126t-30 153l239 59q16 -51 29 -114t21 -120t8 -89q0 -165 -58 -265t-160.5 -151.5t-237.5 -69
t-288 -17.5z" />
    <glyph glyph-name="uniFB67" unicode="&#x679;" horiz-adv-x="1878" arabic-form="final" 
d="M715 839q7 11 13.5 21.5t11.5 19.5v438h108v-294q40 40 84 64t93 24q82 0 135 -51.5t53 -129.5q-1 -105 -89 -155t-251 -50h-265v113h107zM872 840q124 0 176.5 24t52.5 64q0 31 -19 50.5t-52 19.5q-43 0 -93.5 -42t-102.5 -117zM985 0h-145q-242 0 -417.5 57t-270 173.5
t-94.5 293.5q0 83 21.5 159.5t50.5 145.5l226 -85q-16 -44 -29.5 -99t-13.5 -106q1 -139 122 -209t395 -70h150q192 0 309 31t160 83q11 14 18.5 37t7.5 61q0 48 -3 96.5t-6 94.5l240 30l19 -290q5 -78 37.5 -110.5t110.5 -32.5h25v-260h-25q-204 0 -306 157
q-97 -82 -245.5 -119.5t-336.5 -37.5z" />
    <glyph glyph-name="uniFB68" unicode="&#x679;" horiz-adv-x="672" arabic-form="initial" 
d="M557 826q26 -85 41.5 -185t15.5 -185q0 -237 -123 -346.5t-362 -109.5h-149v260h149q95 0 145.5 12.5t69.5 53.5t19 127q0 64 -14 153.5t-31 160.5zM95 1042q7 11 13.5 21.5t11.5 19.5v438h108v-294q40 40 84 64t93 24q82 0 135 -51.5t53 -129.5q-1 -105 -89 -155
t-251 -50h-265v113h107zM252 1043q124 0 176.5 24t52.5 64q0 31 -19 50.5t-52 19.5q-43 0 -93.5 -42t-102.5 -117z" />
    <glyph glyph-name="uniFB69" unicode="&#x679;" horiz-adv-x="767" arabic-form="medial" 
d="M787 0h-24q-184 0 -275 120q-61 -62 -153 -91t-206 -29h-149v260h151q95 0 145 13.5t68.5 50t18.5 103.5q0 58 -3.5 120t-7.5 117l244 29l19 -289q5 -78 39 -111t111 -33h22v-260zM125 952q7 11 13.5 21.5t11.5 19.5v438h108v-294q40 40 84 64t93 24q82 0 135 -51.5
t53 -129.5q-1 -105 -89 -155t-251 -50h-265v113h107zM282 953q124 0 176.5 24t52.5 64q0 31 -19 50.5t-52 19.5q-43 0 -93.5 -42t-102.5 -117z" />
    <glyph glyph-name="uniFB6B" unicode="&#x6a4;" horiz-adv-x="1902" arabic-form="final" 
d="M1266 1399l154 153l155 -153l-155 -155zM1438 1137l154 153l155 -153l-155 -155zM1098 1137l154 153l155 -153l-155 -155zM984 260h79t87 2q-38 53 -62 111.5t-24 120.5q0 70 31.5 139.5t85.5 126.5t122 91.5t141 34.5q75 0 144.5 -34t124 -91.5t86 -127.5t31.5 -141
q0 -63 -24 -120.5t-63 -110.5q26 -1 46.5 -1h37.5h95v-260h-92q-49 0 -117 8.5t-139 23.5t-131 35q-61 -21 -149 -36t-173 -23t-137 -8h-144q-242 0 -417.5 57t-270 173t-94.5 294q0 83 21.5 160t51.5 145l226 -85q-17 -44 -30.5 -99.5t-13.5 -105.5q1 -139 122 -209
t395 -70h154zM1444 631q-25 0 -55.5 -23t-53.5 -55.5t-23 -62.5q0 -34 22.5 -70.5t54 -67t58.5 -47.5q49 25 92 78t43 109q0 29 -24.5 61.5t-57 55t-56.5 22.5z" />
    <glyph glyph-name="uniFB6C" unicode="&#x6a4;" horiz-adv-x="918" arabic-form="initial" 
d="M612 391q-72 -16 -148 -16q-172 0 -269 71.5t-97 227.5q0 75 21.5 154t66 145.5t114 107.5t164.5 41q107 0 182 -54.5t122 -144.5t69 -200t22 -221q0 -202 -64 -311t-196 -150t-334 -41h-285v260h296q164 0 242 28t94 103zM605 629q-16 97 -51.5 167t-95.5 70
q-39 0 -65.5 -31t-40 -75t-13.5 -82q0 -37 29.5 -51.5t107.5 -14.5q32 0 64.5 4.5t64.5 12.5zM266 1626l154 153l155 -153l-155 -155zM438 1364l154 153l155 -153l-155 -155zM98 1364l154 153l155 -153l-155 -155z" />
    <glyph glyph-name="uniFB6D" unicode="&#x6a4;" horiz-adv-x="972" arabic-form="medial" 
d="M350 1399l154 153l155 -153l-155 -155zM522 1137l154 153l155 -153l-155 -155zM182 1137l154 153l155 -153l-155 -155zM813 261q26 -1 46.5 -1h37.5h95v-260h-92q-49 0 -117 8.5t-139 23.5t-131 35q-61 -21 -134 -36t-143 -23t-122 -8h-134v260h135h49t56 2
q-38 53 -62 111.5t-24 120.5q0 70 31.5 139.5t85.5 126.5t122 91.5t141 34.5q75 0 144.5 -34t124 -91.5t86 -127.5t31.5 -141q0 -63 -24 -120.5t-63 -110.5zM514 631q-24 0 -55 -23t-54 -55.5t-23 -62.5q0 -34 22.5 -70.5t54 -67t59.5 -47.5q48 25 91 78t43 109
q0 29 -24.5 61.5t-57 55t-56.5 22.5z" />
    <glyph glyph-name="uniFB7A" unicode="&#x686;" horiz-adv-x="1347" arabic-form="isolated" 
d="M829.537 52.4688l143.736 144.669l144.669 -144.669l-144.669 -143.736zM512.199 52.4688l143.735 144.669l144.669 -144.669l-144.669 -143.736zM669.002 -192.068l143.735 144.669l144.669 -144.669l-144.669 -143.736zM712 597q-15 6 -28.5 11.5t-35.5 13.5
q-67 26 -109.5 40t-61.5 14q-44 0 -90 -28t-79 -71l-48 -61l-218 109l36 64q66 111 170 178t230 67q72 0 151.5 -28.5t168.5 -71.5q115 -56 192.5 -86.5t141.5 -44t139 -17.5l-19 -245q-202 -17 -375 -63.5t-301 -118t-199.5 -161.5t-71.5 -193q0 -164 116 -247.5t377 -83.5
q118 0 218.5 20t202.5 67l62 -245q-111 -53 -230 -73t-267 -20q-207 0 -371 60t-259 185t-95 321q0 238 169 426t484 282z" />
    <glyph glyph-name="uniFB7B" unicode="&#x686;" horiz-adv-x="1378" arabic-form="final" 
d="M680.925 -9.60156l131.62 132.475l132.475 -132.475l-132.475 -131.62zM390.335 -9.60156l131.62 132.475l132.475 -132.475l-132.475 -131.62zM533.921 -233.526l131.62 132.475l132.475 -132.475l-132.475 -131.62zM1281 -584q-111 -53 -230 -73t-267 -20
q-207 0 -371 60t-259 185t-95 321q0 237 169 425.5t484 282.5q-15 6 -28.5 11.5t-35.5 13.5q-67 26 -109.5 40t-61.5 14q-44 0 -90 -28t-79 -71l-48 -61l-218 109l36 64q66 111 170 178t230 67q72 0 151.5 -28.5t168.5 -71.5q115 -56 192.5 -86.5t141.5 -44t139 -17.5
l-19 -245q-49 -4 -97.5 -8.5t-92.5 -10.5q7 -97 60.5 -129.5t184.5 -32.5h91v-260h-88q-216 0 -340 83t-137 291q-273 -85 -400.5 -212t-127.5 -257q0 -164 116 -247.5t377 -83.5q118 0 218.5 20t202.5 67z" />
    <glyph glyph-name="uniFB7C" unicode="&#x686;" horiz-adv-x="1334" arabic-form="initial" 
d="M654 -268l154 155l155 -155l-155 -154zM314 -268l154 155l155 -155l-155 -154zM482 -530l154 155l155 -155l-155 -154zM-20 0v260h163q114 0 213.5 23t201.5 67t224 106l71 37q-17 6 -38.5 15.5t-66.5 27.5q-101 41 -165.5 63.5t-87.5 22.5q-44 0 -90 -28t-79 -71
l-48 -61l-218 109l36 64q66 111 170 178t230 67q72 0 151.5 -28.5t168.5 -71.5q115 -56 192 -86.5t140.5 -44t138.5 -17.5l-4 -244q-58 -7 -106 -20.5t-115 -45.5t-182 -93q-123 -65 -239.5 -116.5t-238.5 -82t-262 -30.5h-160z" />
    <glyph glyph-name="uniFB7D" unicode="&#x686;" horiz-adv-x="1351" arabic-form="medial" 
d="M654 -268l154 155l155 -155l-155 -154zM314 -268l154 155l155 -155l-155 -154zM482 -530l154 155l155 -155l-155 -154zM1283 388q-51 -6 -92.5 -14t-101.5 -34q9 -36 62.5 -58t165.5 -22h54v-260h-58q-170 0 -281 53t-146 180q-179 -95 -363 -164t-383 -69h-160v260h163
q114 0 213.5 23t201.5 67t224 106l71 37q-17 6 -38.5 15.5t-66.5 27.5q-101 41 -165.5 63.5t-87.5 22.5q-44 0 -90 -28t-79 -71l-48 -61l-218 109l36 64q66 111 170 178t230 67q72 0 151.5 -28.5t168.5 -71.5q115 -56 192 -86.5t140.5 -44t138.5 -17.5z" />
    <glyph glyph-name="uniFB88" unicode="&#x688;" horiz-adv-x="963" arabic-form="isolated" 
d="M220 1334q7 11 13.5 21.5t11.5 19.5v438h108v-294q40 40 84 64t93 24q82 0 135 -51.5t53 -129.5q-1 -105 -89 -155t-251 -50h-265v113h107zM377 1335q124 0 176.5 24t52.5 64q0 31 -19 50.5t-52 19.5q-43 0 -93.5 -42t-102.5 -117zM58 296q63 -13 135 -24t124 -11
q187 0 259.5 40.5t72.5 102.5q0 79 -115.5 196t-314.5 243l142 214q250 -149 397 -310t147 -340q0 -205 -150.5 -305t-424.5 -100q-75 0 -142.5 9t-129.5 22v263z" />
    <glyph glyph-name="uniFB89" unicode="&#x688;" horiz-adv-x="1055" arabic-form="final" 
d="M58 300q60 -15 126.5 -27t122.5 -12q78 0 146.5 10t110.5 38t42 81q0 24 -12 62.5t-21 59.5l-175 441l228 104l223 -570q40 -102 79 -164.5t105 -62.5h42v-260h-42q-192 0 -291 139q-72 -70 -172.5 -104t-247.5 -34q-82 0 -143.5 9.5t-120.5 23.5v266zM270 1324
q7 11 13.5 21.5t11.5 19.5v438h108v-294q40 40 84 64t93 24q82 0 135 -51.5t53 -129.5q-1 -105 -89 -155t-251 -50h-265v113h107zM427 1325q124 0 176.5 24t52.5 64q0 31 -19 50.5t-52 19.5q-43 0 -93.5 -42t-102.5 -117z" />
    <glyph glyph-name="uniFB8A" unicode="&#x698;" horiz-adv-x="730" arabic-form="isolated" 
d="M235 1129l154 153l155 -153l-155 -155zM407 867l154 153l155 -153l-155 -155zM67 867l154 153l155 -153l-155 -155zM552 617q47 -108 73.5 -227.5t26.5 -236.5q0 -164 -65.5 -306t-200.5 -245t-345 -150l-109 221q243 60 358.5 176.5t115.5 287.5q0 90 -25.5 195
t-65.5 200z" />
    <glyph glyph-name="uniFB8B" unicode="&#x698;" horiz-adv-x="790" arabic-form="final" 
d="M235 1129l154 153l155 -153l-155 -155zM407 867l154 153l155 -153l-155 -155zM67 867l154 153l155 -153l-155 -155zM642 30q-32 -205 -179 -360.5t-422 -217.5l-109 221q245 60 359.5 177t114.5 292q0 88 -25.5 192t-65.5 198l240 86l75 -240q23 -69 53.5 -93.5
t87.5 -24.5h39v-260h-28q-44 0 -79.5 9t-60.5 21z" />
    <glyph glyph-name="uniFB8C" unicode="&#x691;" horiz-adv-x="730" arabic-form="isolated" 
d="M184 887q7 11 13.5 21.5t11.5 19.5v438h108v-294q40 40 84 64t93 24q82 0 135 -51.5t53 -129.5q-1 -105 -89 -155t-251 -50h-265v113h107zM341 888q124 0 176.5 24t52.5 64q0 31 -19 50.5t-52 19.5q-43 0 -93.5 -42t-102.5 -117zM552 617q47 -108 73.5 -227.5
t26.5 -236.5q0 -164 -65.5 -306t-200.5 -245t-345 -150l-109 221q243 60 358.5 176.5t115.5 287.5q0 90 -25.5 195t-65.5 200z" />
    <glyph glyph-name="uniFB8D" unicode="&#x691;" horiz-adv-x="790" arabic-form="final" 
d="M642 30q-32 -205 -179 -360.5t-422 -217.5l-109 221q245 60 359.5 177t114.5 292q0 88 -25.5 192t-65.5 198l240 86l75 -240q23 -69 53.5 -93.5t87.5 -24.5h39v-260h-28q-44 0 -79.5 9t-60.5 21zM197 887q7 11 13.5 21.5t11.5 19.5v438h108v-294q40 40 84 64t93 24
q82 0 135 -51.5t53 -129.5q-1 -105 -89 -155t-251 -50h-265v113h107zM354 888q124 0 176.5 24t52.5 64q0 31 -19 50.5t-52 19.5q-43 0 -93.5 -42t-102.5 -117z" />
    <glyph glyph-name="uniFB8E" unicode="&#x6a9;" horiz-adv-x="1865" arabic-form="isolated" 
d="M1077 260q140 0 214.5 16.5t103 47.5t28.5 75q0 54 -65.5 128.5t-167 163t-211.5 183.5q-33 28 -49 68t-16 81q0 63 33 113t97 74l757 282v-261l-594 -220q73 -58 155 -125.5t154 -144.5t117.5 -163t45.5 -182q0 -203 -151.5 -299.5t-449.5 -96.5h-238q-242 0 -417.5 57
t-270 173.5t-94.5 293.5q0 83 21.5 159.5t50.5 145.5l226 -85q-16 -44 -29.5 -99t-13.5 -106q1 -139 122 -209t395 -70h247z" />
    <glyph glyph-name="uniFB8F" unicode="&#x6a9;" horiz-adv-x="1941" arabic-form="final" 
d="M1079 260q140 0 215 16.5t103 47.5t28 75q0 54 -65 128.5t-167 163t-212 183.5q-33 28 -49 68t-16 81q0 63 33.5 113t96.5 74l757 282v-261l-593 -220q87 -71 178.5 -148.5t168.5 -169.5t122 -206q47 -120 108 -173.5t145 -53.5h29v-260h-29q-106 0 -193.5 40.5
t-154.5 115.5q-71 -81 -191 -118.5t-313 -37.5h-242q-242 0 -416.5 57t-269 173.5t-94.5 293.5q0 83 21.5 159.5t50.5 145.5l226 -85q-16 -44 -29.5 -97.5t-13.5 -104.5q1 -139 121.5 -210.5t393.5 -71.5h251z" />
    <glyph glyph-name="uniFB90" unicode="&#x6a9;" horiz-adv-x="950" arabic-form="initial" 
d="M767 396q-1 -203 -151.5 -299.5t-449.5 -96.5h-186v260h185q140 0 215 16.5t103 47.5t28 75q0 54 -65 128.5t-167 163t-212 183.5q-33 28 -49 68t-16 81q0 63 33.5 113t96.5 74l757 282v-261l-593 -220q73 -58 154.5 -125.5t153.5 -144.5t117.5 -163t45.5 -182z" />
    <glyph glyph-name="uniFB91" unicode="&#x6a9;" horiz-adv-x="1027" arabic-form="medial" 
d="M296 1011q87 -71 178.5 -148.5t168.5 -169.5t122 -206q47 -120 108 -173.5t145 -53.5h29v-260h-29q-106 0 -193.5 40.5t-154.5 115.5q-71 -81 -191 -118.5t-313 -37.5h-186v260h185q140 0 215 16.5t103 47.5t28 75q0 54 -65 128.5t-167 163t-212 183.5q-33 28 -49 68
t-16 81q0 63 33.5 113t96.5 74l757 282v-261z" />
    <glyph glyph-name="uniFB92" unicode="&#x6af;" horiz-adv-x="1865" arabic-form="isolated" 
d="M1796.46 1588.09l-777.895 -288.902v126.261l777.895 288.902v-126.261zM1077 260q140 0 214.5 16.5t103 47.5t28.5 75q0 54 -65.5 128.5t-167 163t-211.5 183.5q-33 28 -49 68t-16 81q0 63 33 113t97 74l757 282v-261l-594 -220q73 -58 155 -125.5t154 -144.5
t117.5 -163t45.5 -182q0 -203 -151.5 -299.5t-449.5 -96.5h-238q-242 0 -417.5 57t-270 173.5t-94.5 293.5q0 83 21.5 159.5t50.5 145.5l226 -85q-16 -44 -29.5 -99t-13.5 -106q1 -139 122 -209t395 -70h247z" />
    <glyph glyph-name="uniFB93" unicode="&#x6af;" horiz-adv-x="1941" arabic-form="final" 
d="M1796.46 1588.09l-777.895 -288.902v126.261l777.895 288.902v-126.261zM1079 260q140 0 215 16.5t103 47.5t28 75q0 54 -65 128.5t-167 163t-212 183.5q-33 28 -49 68t-16 81q0 63 33.5 113t96.5 74l757 282v-261l-593 -220q87 -71 178.5 -148.5t168.5 -169.5t122 -206
q47 -120 108 -173.5t145 -53.5h29v-260h-29q-106 0 -193.5 40.5t-154.5 115.5q-71 -81 -191 -118.5t-313 -37.5h-242q-242 0 -416.5 57t-269 173.5t-94.5 293.5q0 83 21.5 159.5t50.5 145.5l226 -85q-16 -44 -29.5 -97.5t-13.5 -104.5q1 -139 121.5 -210.5t393.5 -71.5h251z
" />
    <glyph glyph-name="uniFB94" unicode="&#x6af;" horiz-adv-x="950" arabic-form="initial" 
d="M767 396q-1 -203 -151.5 -299.5t-449.5 -96.5h-186v260h185q140 0 215 16.5t103 47.5t28 75q0 54 -65 128.5t-167 163t-212 183.5q-33 28 -49 68t-16 81q0 63 33.5 113t96.5 74l757 282v-261l-593 -220q73 -58 154.5 -125.5t153.5 -144.5t117.5 -163t45.5 -182z
M881.455 1591.09l-777.895 -288.902v126.261l777.895 288.902v-126.261z" />
    <glyph glyph-name="uniFB95" unicode="&#x6af;" horiz-adv-x="1027" arabic-form="medial" 
d="M296 1011q87 -71 178.5 -148.5t168.5 -169.5t122 -206q47 -120 108 -173.5t145 -53.5h29v-260h-29q-106 0 -193.5 40.5t-154.5 115.5q-71 -81 -191 -118.5t-313 -37.5h-186v260h185q140 0 215 16.5t103 47.5t28 75q0 54 -65 128.5t-167 163t-212 183.5q-33 28 -49 68
t-16 81q0 63 33.5 113t96.5 74l757 282v-261zM881.455 1591.09l-777.895 -288.902v126.261l777.895 288.902v-126.261z" />
    <glyph glyph-name="uniFB9E" unicode="&#x6ba;" horiz-adv-x="1447" arabic-form="isolated" 
d="M1032 602l251 88q49 -124 77.5 -255t28.5 -255q0 -204 -87.5 -344.5t-238.5 -213t-342 -72.5q-309 0 -486 160t-177 456q0 119 30.5 242t77.5 239l228 -92q-35 -95 -59.5 -194.5t-24.5 -189.5q0 -186 95.5 -274.5t312.5 -88.5q209 0 313.5 97t105.5 305q0 99 -30.5 199.5
t-74.5 192.5z" />
    <glyph glyph-name="uniFB9F" unicode="&#x6ba;" horiz-adv-x="1528" arabic-form="final" 
d="M1137 140q0 99 -31 199.5t-74 192.5l249 86l85 -264q16 -52 45.5 -73t96.5 -21h40v-260h-36q-44 0 -76.5 8t-58.5 22q-16 -179 -106 -301.5t-233 -185.5t-317 -63q-309 0 -486 159.5t-177 456.5q0 120 31 242.5t77 239.5l228 -94q-35 -94 -59.5 -193.5t-24.5 -189.5
q0 -187 95.5 -275t312.5 -88q209 0 313.5 96t105.5 306z" />
    <glyph glyph-name="uniFBA7" unicode="&#x6c1;" horiz-adv-x="919" arabic-form="final" 
d="M278 -29l-223 54q12 131 50 249.5t95 211t128.5 146t150.5 53.5q92 0 146 -43t86.5 -106.5t57 -126.5t55 -106t82.5 -43h33v-260h-32q-98 0 -165 37t-110.5 93t-71 114t-46.5 102t-37 55q-34 -9 -74 -66.5t-74.5 -151.5t-50.5 -212z" />
    <glyph glyph-name="uniFBA8" unicode="&#x6c1;" horiz-adv-x="592" arabic-form="initial" 
d="M534 456q0 -213 -111.5 -334.5t-323.5 -121.5h-120v260h120q103 0 143.5 40.5t40.5 152.5q0 64 -14 153.5t-31 160.5l239 58q26 -85 41.5 -184.5t15.5 -184.5zM430.063 -100.218q-46.7979 -43.1982 -84.9561 -89.6367q-38.1592 -46.4385 -44.6387 -99.7158
q53.2773 -7.91992 74.1572 -42.1182q20.8789 -34.1982 20.8789 -79.5566q0 -56.1582 -33.4785 -93.5967t-92.5166 -37.4385q-73.4365 0 -107.995 44.6387q-34.5586 44.6377 -34.5586 109.436q0 121.675 60.1172 210.231q60.1182 88.5566 146.515 155.514z" />
    <glyph glyph-name="uniFBA9" unicode="&#x6c1;" horiz-adv-x="1002" arabic-form="medial" 
d="M186 31q-38 -16 -70 -23.5t-73 -7.5h-63v260h65q82 0 133.5 22t96 62.5t104.5 96.5l164 -182q-45 -40 -85 -87.5t-40 -114.5q0 -70 38 -139t94 -118q16 212 126.5 336t311.5 124h34v-260h-36q-106 0 -159.5 -66.5t-53.5 -223.5q0 -25 1.5 -53.5t3.5 -53.5l-154 -151
q-175 83 -296 223.5t-142 355.5z" />
    <glyph glyph-name="uniFBAA" unicode="&#x6be;" horiz-adv-x="1487" arabic-form="isolated" 
d="M47 260h134q40 0 71 0.5t62 3.5q-83 100 -83 242q0 105 47 182t124.5 122.5t169.5 53.5q24 1 45 -1l-23 13l92 168q133 -65 264.5 -138t240 -155t173.5 -171.5t65 -186.5q0 -126 -56 -211.5t-154 -128.5t-222 -43q-99 0 -210 21t-183 44q-86 -31 -196.5 -53t-214.5 -22
h-98zM620 323q68 31 101 80t34 100q0 136 -133 136q-68 0 -105.5 -37t-37.5 -94q0 -53 35 -103.5t106 -81.5zM939 626q19 -24 26 -48t7 -55q0 -150 -94 -264q23 -2 47.5 -3t43.5 -1q108 0 156.5 33t48.5 102q0 39 -58.5 99.5t-176.5 136.5z" />
    <glyph glyph-name="uniFBAB" unicode="&#x6be;" horiz-adv-x="1120" arabic-form="final" 
d="M47 260h238q8 120 28.5 231t62 197.5t112 137t178.5 50.5q138 0 219.5 -97t81.5 -245q0 -91 -38 -178t-101 -159.5t-137.5 -122.5t-147.5 -69q30 -126 125 -205q2 58 36 136t93.5 152t138.5 123t170 49h34v-260h-36q-106 0 -159.5 -66.5t-53.5 -223.5q0 -26 1.5 -53.5
t3.5 -53.5l-154 -151q-179 85 -289.5 218.5t-150.5 329.5h-207zM528 268q87 18 147.5 92.5t60.5 166.5q0 59 -23 77t-49 18q-49 0 -85.5 -77t-50.5 -277z" />
    <glyph glyph-name="uniFBAC" unicode="&#x6be;" horiz-adv-x="1369" arabic-form="initial" 
d="M568 1044q133 -65 264.5 -138t240 -155t173.5 -171.5t65 -186.5q0 -126 -56 -211.5t-154 -128.5t-222 -43q-99 0 -210 21t-183 44q-86 -31 -196.5 -53t-214.5 -22h-95v260h83q40 0 71 0.5t62 3.5q-83 100 -83 242q0 105 47 182t124.5 122.5t169.5 53.5q24 1 45 -1l-23 13
zM502 323q68 31 101 80t34 100q0 136 -133 136q-68 0 -105.5 -37t-37.5 -94q0 -53 35 -103.5t106 -81.5zM821 626q19 -24 26 -48t7 -55q0 -150 -94 -264q23 -2 47.5 -3t43.5 -1q108 0 156.5 33t48.5 102q0 39 -58.5 99.5t-176.5 136.5z" />
    <glyph glyph-name="uniFBAD" unicode="&#x6be;" horiz-adv-x="1002" arabic-form="medial" 
d="M624 -548q-179 85 -289.5 218.5t-150.5 329.5h-204v260h187q8 120 28.5 231t62 197.5t112 137t178.5 50.5q138 0 219.5 -97t81.5 -245q0 -91 -38 -178t-101 -159.5t-137.5 -122.5t-147.5 -69q30 -126 125 -205q2 58 36 136t93.5 152t138.5 123t170 49h34v-260h-36
q-106 0 -159.5 -66.5t-53.5 -223.5q0 -26 1.5 -53.5t3.5 -53.5zM410 268q87 18 147.5 92.5t60.5 166.5q0 59 -23 77t-49 18q-49 0 -85.5 -77t-50.5 -277z" />
    <glyph glyph-name="uniFBAE" unicode="&#x6d2;" horiz-adv-x="1744" arabic-form="isolated" 
d="M785 434q-43 57 -89 120.5t-99 118.5q-33 -49 -56 -85.5t-67 -89.5q-66 -79 -102.5 -109.5t-50.5 -50.5q23 -25 95.5 -45t175.5 -31.5t216 -11.5q344 0 563 30t308 44l8 -260q-78 -10 -306 -36.5t-571 -26.5q-90 0 -192.5 5.5t-201.5 23t-180 52.5t-129.5 93.5
t-48.5 147.5q0 62 23.5 105t61.5 78.5t82 73.5t84 90q66 84 102.5 148t72.5 99t100 35t124.5 -45t111.5 -109t87 -123t52 -88z" />
    <glyph glyph-name="uniFBAF" unicode="&#x6d2;" horiz-adv-x="1576" arabic-form="final" 
d="M1200.77 0v260h395.005v-260h-395.005zM656 0q-60 0 -119.5 -17t-108 -41t-77.5 -45t-29 -29q0 -18 43.5 -33.5t115 -28t157 -19.5t170.5 -7q169 0 275 12.5t170 30.5t108 33l56 -247q-74 -20 -223 -49t-384 -29q-90 0 -192.5 5.5t-201.5 23t-180 52.5t-129.5 93.5
t-48.5 147.5q0 73 52 145t139.5 131.5t194.5 95t216 35.5h567v-260h-571z" />
    <glyph glyph-name="uniFBB0" unicode="&#x6d3;" horiz-adv-x="1744" arabic-form="isolated" 
d="M544 1173q-30 32 -49.5 71.5t-19.5 92.5q0 39 11 70t30 55q27 34 67 52t82 18q43 0 70 -11t56 -28l1 -113q-30 16 -56 24.5t-57 8.5q-18 0 -38 -5t-35 -19q-25 -23 -25 -65q0 -31 21 -59t69 -42q5 -1 10 -2.5t10 -1.5h9l130 27v-111l-393 -94v107zM785 434
q-43 57 -89 120.5t-99 118.5q-33 -49 -56 -85.5t-67 -89.5q-66 -79 -102.5 -109.5t-50.5 -50.5q23 -25 95.5 -45t175.5 -31.5t216 -11.5q344 0 563 30t308 44l8 -260q-78 -10 -306 -36.5t-571 -26.5q-90 0 -192.5 5.5t-201.5 23t-180 52.5t-129.5 93.5t-48.5 147.5
q0 62 23.5 105t61.5 78.5t82 73.5t84 90q66 84 102.5 148t72.5 99t100 35t124.5 -45t111.5 -109t87 -123t52 -88z" />
    <glyph glyph-name="uniFBB1" unicode="&#x6d3;" horiz-adv-x="1576" arabic-form="final" 
d="M1200.77 0v260h395.005v-260h-395.005zM656 0q-60 0 -119.5 -17t-108 -41t-77.5 -45t-29 -29q0 -18 43.5 -33.5t115 -28t157 -19.5t170.5 -7q169 0 275 12.5t170 30.5t108 33l56 -247q-74 -20 -223 -49t-384 -29q-90 0 -192.5 5.5t-201.5 23t-180 52.5t-129.5 93.5
t-48.5 147.5q0 73 52 145t139.5 131.5t194.5 95t216 35.5h567v-260h-571zM536 492q-30 32 -49.5 71.5t-19.5 92.5q0 39 11 70t30 55q27 34 67 52t82 18q43 0 70 -11t56 -28l1 -113q-30 16 -56 24.5t-57 8.5q-18 0 -38 -5t-35 -19q-25 -23 -25 -65q0 -31 21 -59t69 -42
q5 -1 10 -2.5t10 -1.5h9l130 27v-111l-393 -94v107z" />
    <glyph glyph-name="uniFBD3" unicode="&#x6ad;" horiz-adv-x="1831" arabic-form="isolated" 
d="M978 260q177 0 278 16t147.5 48t58.5 78.5t12 107.5v876h249v-874q0 -128 -33.5 -224t-115.5 -160t-225.5 -96t-363.5 -32h-145q-242 0 -417.5 57t-270 173.5t-94.5 293.5q0 83 21.5 159.5t50.5 145.5l226 -85q-16 -44 -29.5 -99t-13.5 -106q1 -139 122 -209t395 -70h148
zM723 633q70 1 136 6.5t108.5 19.5t42.5 41q0 40 -27.5 53.5t-68 18.5t-81 15.5t-68 41.5t-27.5 100q0 75 54.5 117.5t137 60t167.5 18.5v-124q-50 -4 -105 -12.5t-93.5 -23.5t-38.5 -37q0 -19 27 -24.5t67 -11t80 -22t67 -55t27 -111.5q0 -71 -36 -111t-95 -57.5
t-130.5 -22t-143.5 -4.5v124zM760 1609l154 153l155 -153l-155 -155zM932 1347l154 153l155 -153l-155 -155zM592 1347l154 153l155 -153l-155 -155z" />
    <glyph glyph-name="uniFBD4" unicode="&#x6ad;" horiz-adv-x="1891" arabic-form="final" 
d="M978 260q177 0 278 16t147.5 48t58.5 78.5t12 107.5v876h249v-874q0 -97 9.5 -152t41.5 -77.5t102 -22.5h35v-260h-33q-124 0 -197.5 37t-111.5 115q-69 -61 -144.5 -94t-180 -45.5t-259.5 -12.5h-145q-242 0 -417.5 57t-270 173.5t-94.5 293.5q0 83 21.5 159.5
t50.5 145.5l226 -85q-16 -44 -29.5 -99.5t-13.5 -105.5q1 -139 122 -209t395 -70h148zM723 633q70 1 136 6.5t108.5 19.5t42.5 41q0 40 -27.5 53.5t-68 18.5t-81 15.5t-68 41.5t-27.5 100q0 75 54.5 117.5t137 60t167.5 18.5v-124q-50 -4 -105 -12.5t-93.5 -23.5t-38.5 -37
q0 -19 27 -24.5t67 -11t80 -22t67 -55t27 -111.5q0 -71 -36 -111t-95 -57.5t-130.5 -22t-143.5 -4.5v124zM760 1609l154 153l155 -153l-155 -155zM932 1347l154 153l155 -153l-155 -155zM592 1347l154 153l155 -153l-155 -155z" />
    <glyph glyph-name="uniFBD5" unicode="&#x6ad;" horiz-adv-x="950" arabic-form="initial" 
d="M322 1856l154 153l155 -153l-155 -155zM494 1594l154 153l155 -153l-155 -155zM154 1594l154 153l155 -153l-155 -155zM767 396q-1 -203 -151.5 -299.5t-449.5 -96.5h-186v260h185q140 0 215 16.5t103 47.5t28 75q0 54 -65 128.5t-167 163t-212 183.5q-33 28 -49 68
t-16 81q0 63 33.5 113t96.5 74l757 282v-261l-593 -220q73 -58 154.5 -125.5t153.5 -144.5t117.5 -163t45.5 -182z" />
    <glyph glyph-name="uniFBD6" unicode="&#x6ad;" horiz-adv-x="1027" arabic-form="medial" 
d="M322 1856l154 153l155 -153l-155 -155zM494 1594l154 153l155 -153l-155 -155zM154 1594l154 153l155 -153l-155 -155zM296 1011q87 -71 178.5 -148.5t168.5 -169.5t122 -206q47 -120 108 -173.5t145 -53.5h29v-260h-29q-106 0 -193.5 40.5t-154.5 115.5
q-71 -81 -191 -118.5t-313 -37.5h-186v260h185q140 0 215 16.5t103 47.5t28 75q0 54 -65 128.5t-167 163t-212 183.5q-33 28 -49 68t-16 81q0 63 33.5 113t96.5 74l757 282v-261z" />
    <glyph glyph-name="uniFBD7" unicode="&#x6c7;" horiz-adv-x="880" arabic-form="isolated" 
d="M646 1043q-46 0 -84 6q-52 -71 -150 -107t-223 -43v91q93 9 167.5 30t111.5 54q-67 15 -123 59.5t-56 115.5q0 76 48.5 122.5t121.5 46.5t121.5 -47t48.5 -123q0 -54 -24 -114q21 -2 41 -2v-89zM512 1151q10 24 17 49t7 47q0 34 -21.5 55t-51.5 21q-36 0 -58 -21t-22 -57
q0 -37 40.5 -59t88.5 -35zM553 12q-54 -12 -105 -12q-182 0 -286 83.5t-104 252.5q0 79 22 159t67.5 147.5t115 108.5t165.5 41q103 0 177.5 -51t122.5 -136.5t71 -189.5t23 -209q0 -306 -174 -497t-505 -252l-90 230q198 36 327 120t173 205zM573 270q-13 148 -54 206.5
t-99 58.5q-43 0 -68.5 -32t-37 -77.5t-11.5 -84.5q0 -46 28 -65.5t122 -19.5q62 0 120 14z" />
    <glyph glyph-name="uniFBD8" unicode="&#x6c7;" horiz-adv-x="938" arabic-form="final" 
d="M646 1043q-46 0 -84 6q-52 -71 -150 -107t-223 -43v91q93 9 167.5 30t111.5 54q-67 15 -123 59.5t-56 115.5q0 76 48.5 122.5t121.5 46.5t121.5 -47t48.5 -123q0 -54 -24 -114q21 -2 41 -2v-89zM512 1151q10 24 17 49t7 47q0 34 -21.5 55t-51.5 21q-36 0 -58 -21t-22 -57
q0 -37 40.5 -59t88.5 -35zM874.877 0v260h83.5098v-260h-83.5098zM427 792q174 0 270 -138t119 -394h80v-260h-97q-102 -440 -656 -543l-90 230q199 36 323.5 116t174.5 197h-89q-192 0 -298 84t-106 252q0 79 22 159t67 147.5t114.5 108.5t165.5 41zM573 260
q-15 159 -55.5 217t-99.5 58q-41 0 -66.5 -32t-37 -77.5t-11.5 -84.5q0 -42 25.5 -61.5t123.5 -19.5h121z" />
    <glyph glyph-name="uniFBD9" unicode="&#x6c6;" horiz-adv-x="880" arabic-form="isolated" 
d="M348 965l-201 338h140l136 -234l137 234h140l-202 -338h-150zM553 12q-54 -12 -105 -12q-182 0 -286 83.5t-104 252.5q0 79 22 159t67.5 147.5t115 108.5t165.5 41q103 0 177.5 -51t122.5 -136.5t71 -189.5t23 -209q0 -306 -174 -497t-505 -252l-90 230q198 36 327 120
t173 205zM573 270q-13 148 -54 206.5t-99 58.5q-43 0 -68.5 -32t-37 -77.5t-11.5 -84.5q0 -46 28 -65.5t122 -19.5q62 0 120 14z" />
    <glyph glyph-name="uniFBDA" unicode="&#x6c6;" horiz-adv-x="938" arabic-form="final" 
d="M348 965l-201 338h140l136 -234l137 234h140l-202 -338h-150zM874.877 0v260h83.5098v-260h-83.5098zM427 792q174 0 270 -138t119 -394h80v-260h-97q-102 -440 -656 -543l-90 230q199 36 323.5 116t174.5 197h-89q-192 0 -298 84t-106 252q0 79 22 159t67 147.5
t114.5 108.5t165.5 41zM573 260q-15 159 -55.5 217t-99.5 58q-41 0 -66.5 -32t-37 -77.5t-11.5 -84.5q0 -42 25.5 -61.5t123.5 -19.5h121z" />
    <glyph glyph-name="uniFBDE" unicode="&#x6cb;" horiz-adv-x="880" arabic-form="isolated" 
d="M261 1306l154 153l155 -153l-155 -155zM433 1044l154 153l155 -153l-155 -155zM93 1044l154 153l155 -153l-155 -155zM553 12q-54 -12 -105 -12q-182 0 -286 83.5t-104 252.5q0 79 22 159t67.5 147.5t115 108.5t165.5 41q103 0 177.5 -51t122.5 -136.5t71 -189.5t23 -209
q0 -306 -174 -497t-505 -252l-90 230q198 36 327 120t173 205zM573 270q-13 148 -54 206.5t-99 58.5q-43 0 -68.5 -32t-37 -77.5t-11.5 -84.5q0 -46 28 -65.5t122 -19.5q62 0 120 14z" />
    <glyph glyph-name="uniFBDF" unicode="&#x6cb;" horiz-adv-x="938" arabic-form="final" 
d="M261 1306l154 153l155 -153l-155 -155zM433 1044l154 153l155 -153l-155 -155zM93 1044l154 153l155 -153l-155 -155zM874.877 0v260h83.5098v-260h-83.5098zM427 792q174 0 270 -138t119 -394h80v-260h-97q-102 -440 -656 -543l-90 230q199 36 323.5 116t174.5 197h-89
q-192 0 -298 84t-106 252q0 79 22 159t67 147.5t114.5 108.5t165.5 41zM573 260q-15 159 -55.5 217t-99.5 58q-41 0 -66.5 -32t-37 -77.5t-11.5 -84.5q0 -42 25.5 -61.5t123.5 -19.5h121z" />
    <glyph glyph-name="uniFBE2" unicode="&#x6c9;" horiz-adv-x="880" arabic-form="isolated" 
d="M346 1271h150l202 -338h-140l-137 234l-136 -234h-140zM553 12q-54 -12 -105 -12q-182 0 -286 83.5t-104 252.5q0 79 22 159t67.5 147.5t115 108.5t165.5 41q103 0 177.5 -51t122.5 -136.5t71 -189.5t23 -209q0 -306 -174 -497t-505 -252l-90 230q198 36 327 120t173 205
zM573 270q-13 148 -54 206.5t-99 58.5q-43 0 -68.5 -32t-37 -77.5t-11.5 -84.5q0 -46 28 -65.5t122 -19.5q62 0 120 14z" />
    <glyph glyph-name="uniFBE3" unicode="&#x6c9;" horiz-adv-x="938" arabic-form="final" 
d="M346 1271h150l202 -338h-140l-137 234l-136 -234h-140zM874.877 0v260h83.5098v-260h-83.5098zM427 792q174 0 270 -138t119 -394h80v-260h-97q-102 -440 -656 -543l-90 230q199 36 323.5 116t174.5 197h-89q-192 0 -298 84t-106 252q0 79 22 159t67 147.5t114.5 108.5
t165.5 41zM573 260q-15 159 -55.5 217t-99.5 58q-41 0 -66.5 -32t-37 -77.5t-11.5 -84.5q0 -42 25.5 -61.5t123.5 -19.5h121z" />
    <glyph glyph-name="uniFBE8" unicode="&#x649;" horiz-adv-x="592" arabic-form="initial" 
d="M534 456q0 -213 -111.5 -334.5t-323.5 -121.5h-120v260h120q103 0 143.5 40.5t40.5 152.5q0 64 -14 153.5t-31 160.5l239 58q26 -85 41.5 -184.5t15.5 -184.5z" />
    <glyph glyph-name="uniFBE9" unicode="&#x649;" horiz-adv-x="687" arabic-form="medial" 
d="M707 0h-24q-184 0 -275 119q-57 -60 -136 -89.5t-171 -29.5h-121v260h121q107 0 144.5 39t37.5 138q0 54 -3.5 113t-6.5 113l243 30l19 -288q5 -79 39 -112t111 -33h22v-260z" />
    <glyph glyph-name="uniFBFC" unicode="&#x6cc;" horiz-adv-x="1477" arabic-form="isolated" 
d="M413 537q-44 -108 -74 -221t-30 -204q0 -188 94.5 -271t310.5 -84q114 0 220 28t174 78t68 117q0 22 -8.5 29t-42.5 7h-151q-135 0 -210.5 75t-75.5 212q0 130 60 245t170.5 187t263.5 72q46 0 112 -12t123 -35l-46 -241q-43 13 -90 22.5t-99 9.5q-95 0 -148.5 -42.5
t-75 -98t-21.5 -94.5q0 -26 8.5 -35t38.5 -9h180q134 0 192.5 -81.5t58.5 -198.5q0 -155 -94 -265t-252 -168t-350 -58q-308 0 -484.5 156t-176.5 462q0 119 35.5 249t91.5 262z" />
    <glyph glyph-name="uniFBFD" unicode="&#x6cc;" horiz-adv-x="1559" arabic-form="final" 
d="M375 428q-28 -77 -46.5 -160t-18.5 -168q0 -201 98.5 -281.5t310.5 -80.5q124 0 225 30.5t160.5 75.5t59.5 89q0 20 -25 43.5t-99 23.5h-130q-46 0 -65.5 21t-27.5 54l-26 110q-11 46 -0.5 60.5t49.5 14.5h617v-260h-70q9 -25 10.5 -42.5t1.5 -31.5q0 -134 -89 -234
t-243 -155.5t-347 -55.5q-309 0 -485 157t-176 463q0 97 25.5 213.5t64.5 205.5zM1434.1 0v260h144.993v-260h-144.993z" />
    <glyph glyph-name="uniFBFE" unicode="&#x6cc;" horiz-adv-x="672" arabic-form="initial" 
d="M557 826q26 -85 41.5 -185t15.5 -185q0 -237 -123 -346.5t-362 -109.5h-149v260h149q95 0 145.5 12.5t69.5 53.5t19 127q0 64 -14 153.5t-31 160.5zM247 -303l163 162l163 -163l-163 -163zM-90 -303l163 162l163 -162l-163 -164z" />
    <glyph glyph-name="uniFBFF" unicode="&#x6cc;" horiz-adv-x="767" arabic-form="medial" 
d="M787 0h-24q-184 0 -275 120q-61 -62 -153 -91t-206 -29h-149v260h151q95 0 145 13.5t68.5 50t18.5 103.5q0 58 -3.5 120t-7.5 117l244 29l19 -289q5 -78 39 -111t111 -33h22v-260zM247 -303l163 162l163 -163l-163 -163zM-90 -303l163 162l163 -162l-163 -164z" />
    <glyph glyph-name="uniFDFC" unicode="&#xfdfc;" horiz-adv-x="3189" arabic-form="isolated" 
d="M2006 -254l163 162l163 -163l-163 -163zM1669 -254l163 162l163 -162l-163 -164zM387 420q-33 -85 -55.5 -178t-22.5 -166q0 -180 86.5 -259t279.5 -79q174 0 258.5 87.5t84.5 282.5l3 1278h248l-1 -1239q0 -326 -150.5 -496.5t-443.5 -170.5q-294 0 -455 151.5
t-161 444.5q0 98 28 214.5t72 222.5zM2940 558q47 -108 73.5 -227.5t26.5 -236.5q0 -164 -65.5 -306t-200.5 -245t-345 -150l-109 221q243 60 358.5 176.5t115.5 287.5q0 90 -25.5 195t-65.5 200zM2415 456q0 -213 -111.5 -334.5t-323.5 -121.5h-120v260h120
q103 0 143.5 40.5t40.5 152.5q0 64 -14 153.5t-31 160.5l239 58q26 -85 41.5 -184.5t15.5 -184.5zM1903 0h-25q-197 0 -305.5 107.5t-108.5 337.5v941h249v-942q0 -113 39.5 -148.5t125.5 -35.5h25v-260z" />
    <glyph glyph-name="uniFE80" unicode="&#x621;" horiz-adv-x="830" arabic-form="isolated" 
d="M213 230q-130 94 -130 244q0 112 47 194.5t128.5 128.5t184.5 46q84 0 148.5 -32t117.5 -83l-80 -197q-38 27 -83.5 51t-89.5 24q-141 0 -141 -131q0 -29 33 -64.5t109 -72.5q136 42 278 61l37 -238q-154 -20 -332 -93.5t-377 -181.5v262q41 26 76.5 45t73.5 37z" />
    <glyph glyph-name="uniFE81" unicode="&#x622;" horiz-adv-x="465" arabic-form="isolated" 
d="M119 1452q-42 0 -86 -44t-91 -96l-109 99q35 39 76.5 84.5t88.5 78.5t97 33q43 0 85 -21.5t82.5 -43t81.5 -21.5q35 0 57 9t46 28.5t63 52.5l94 -123q-72 -54 -131 -87.5t-107 -33.5q-42 0 -84 21.5t-83.5 42.5t-79.5 21zM108 1246h249v-1245h-249v1245z" />
    <glyph glyph-name="uniFE82" unicode="&#x622;" horiz-adv-x="527" arabic-form="final" 
d="M205 1409q-36 0 -70.5 -35t-74.5 -78l-82 75q27 31 60.5 67t70.5 62t76 26q35 0 69 -17.5t67 -35t67 -17.5q43 0 64.5 15.5t70.5 56.5l71 -94q-59 -44 -104.5 -69.5t-83.5 -25.5q-33 0 -67.5 17.5t-68.5 35t-65 17.5zM547 0h-25q-197 0 -305.5 107t-108.5 337v743h249
v-743q0 -113 39.5 -148.5t125.5 -35.5h25v-260z" />
    <glyph glyph-name="uniFE83" unicode="&#x623;" horiz-adv-x="465" arabic-form="isolated" 
d="M128 1410q-30 32 -49.5 71.5t-19.5 92.5q0 39 11 70t30 55q27 34 67 52t82 18q43 0 70 -11t56 -28l1 -113q-30 16 -56 24.5t-57 8.5q-18 0 -38 -5t-35 -19q-25 -23 -25 -65q0 -31 21 -59t69 -42q5 -1 10 -2.5t10 -1.5h9l130 27v-111l-393 -94v107zM108 1185.99h249
v-1183.13h-249v1183.13z" />
    <glyph glyph-name="uniFE84" unicode="&#x623;" horiz-adv-x="527" arabic-form="final" 
d="M128 1410q-30 32 -49.5 71.5t-19.5 92.5q0 39 11 70t30 55q27 34 67 52t82 18q43 0 70 -11t56 -28l1 -113q-30 16 -56 24.5t-57 8.5q-18 0 -38 -5t-35 -19q-25 -23 -25 -65q0 -31 21 -59t69 -42q5 -1 10 -2.5t10 -1.5h9l130 27v-111l-393 -94v107zM547 0h-25
q-197 0 -305.5 107t-108.5 337v743h249v-743q0 -113 39.5 -148.5t125.5 -35.5h25v-260z" />
    <glyph glyph-name="uniFE85" unicode="&#x624;" horiz-adv-x="880" arabic-form="isolated" 
d="M319 1037q-30 32 -49.5 71.5t-19.5 92.5q0 39 11 70t30 55q27 34 67 52t82 18q43 0 70 -11t56 -28l1 -113q-30 16 -56 24.5t-57 8.5q-18 0 -38 -5t-35 -19q-25 -23 -25 -65q0 -31 21 -59t69 -42q5 -1 10 -2.5t10 -1.5h9l130 27v-111l-393 -94v107zM553 12
q-54 -12 -105 -12q-182 0 -286 83.5t-104 252.5q0 79 22 159t67.5 147.5t115 108.5t165.5 41q103 0 177.5 -51t122.5 -136.5t71 -189.5t23 -209q0 -306 -174 -497t-505 -252l-90 230q198 36 327 120t173 205zM573 270q-13 148 -54 206.5t-99 58.5q-43 0 -68.5 -32t-37 -77.5
t-11.5 -84.5q0 -46 28 -65.5t122 -19.5q62 0 120 14z" />
    <glyph glyph-name="uniFE86" unicode="&#x624;" horiz-adv-x="938" arabic-form="final" 
d="M319 1037q-30 32 -49.5 71.5t-19.5 92.5q0 39 11 70t30 55q27 34 67 52t82 18q43 0 70 -11t56 -28l1 -113q-30 16 -56 24.5t-57 8.5q-18 0 -38 -5t-35 -19q-25 -23 -25 -65q0 -31 21 -59t69 -42q5 -1 10 -2.5t10 -1.5h9l130 27v-111l-393 -94v107zM874.877 0v260h83.5098
v-260h-83.5098zM427 792q174 0 270 -138t119 -394h80v-260h-97q-102 -440 -656 -543l-90 230q199 36 323.5 116t174.5 197h-89q-192 0 -298 84t-106 252q0 79 22 159t67 147.5t114.5 108.5t165.5 41zM573 260q-15 159 -55.5 217t-99.5 58q-41 0 -66.5 -32t-37 -77.5
t-11.5 -84.5q0 -42 25.5 -61.5t123.5 -19.5h121z" />
    <glyph glyph-name="uniFE87" unicode="&#x625;" horiz-adv-x="465" arabic-form="isolated" 
d="M114 -480q-30 32 -49.5 71.5t-19.5 92.5q0 39 11 70t30 55q27 34 67 52t82 18q43 0 70 -11t56 -28l1 -113q-30 16 -56 24.5t-57 8.5q-18 0 -38 -5t-35 -19q-25 -23 -25 -65q0 -31 21 -59t69 -42q5 -1 10 -2.5t10 -1.5h9l130 27v-111l-393 -94v107zM109 1386h249v-1385
h-249v1385z" />
    <glyph glyph-name="uniFE88" unicode="&#x625;" horiz-adv-x="527" arabic-form="final" 
d="M194 -480q-30 32 -49.5 71.5t-19.5 92.5q0 39 11 70t30 55q27 34 67 52t82 18q43 0 70 -11t56 -28l1 -113q-30 16 -56 24.5t-57 8.5q-18 0 -38 -5t-35 -19q-25 -23 -25 -65q0 -31 21 -59t69 -42q5 -1 10 -2.5t10 -1.5h9l130 27v-111l-393 -94v107zM547 0h-25
q-197 0 -305.5 107.5t-108.5 337.5v941h249v-942q0 -113 39.5 -148.5t125.5 -35.5h25v-260z" />
    <glyph glyph-name="uniFE89" unicode="&#x626;" horiz-adv-x="1477" arabic-form="isolated" 
d="M493 832q-30 32 -49.5 71.5t-19.5 92.5q0 39 11 70t30 55q27 34 67 52t82 18q43 0 70 -11t56 -28l1 -113q-30 16 -56 24.5t-57 8.5q-18 0 -38 -5t-35 -19q-25 -23 -25 -65q0 -31 21 -59t69 -42q5 -1 10 -2.5t10 -1.5h9l130 27v-111l-393 -94v107zM413 537
q-44 -108 -74 -221t-30 -204q0 -188 94.5 -271t310.5 -84q114 0 220 28t174 78t68 117q0 22 -8.5 29t-42.5 7h-151q-135 0 -210.5 75t-75.5 212q0 130 60 245t170.5 187t263.5 72q46 0 112 -12t123 -35l-46 -241q-43 13 -90 22.5t-99 9.5q-95 0 -148.5 -42.5t-75 -98
t-21.5 -94.5q0 -26 8.5 -35t38.5 -9h180q134 0 192.5 -81.5t58.5 -198.5q0 -155 -94 -265t-252 -168t-350 -58q-308 0 -484.5 156t-176.5 462q0 119 35.5 249t91.5 262z" />
    <glyph glyph-name="uniFE8A" unicode="&#x626;" horiz-adv-x="1559" arabic-form="final" 
d="M375 428q-28 -77 -46.5 -160t-18.5 -168q0 -201 98.5 -281.5t310.5 -80.5q124 0 225 30.5t160.5 75.5t59.5 89q0 20 -25 43.5t-99 23.5h-130q-46 0 -65.5 21t-27.5 54l-26 110q-11 46 -0.5 60.5t49.5 14.5h617v-260h-70q9 -25 10.5 -42.5t1.5 -31.5q0 -134 -89 -234
t-243 -155.5t-347 -55.5q-309 0 -485 157t-176 463q0 97 25.5 213.5t64.5 205.5zM1434.1 0v260h144.993v-260h-144.993zM523 640q-30 32 -49.5 71.5t-19.5 92.5q0 39 11 70t30 55q27 34 67 52t82 18q43 0 70 -11t56 -28l1 -113q-30 16 -56 24.5t-57 8.5q-18 0 -38 -5
t-35 -19q-25 -23 -25 -65q0 -31 21 -59t69 -42q5 -1 10 -2.5t10 -1.5h9l130 27v-111l-393 -94v107z" />
    <glyph glyph-name="uniFE8B" unicode="&#x626;" horiz-adv-x="592" arabic-form="initial" 
d="M534 456q0 -213 -111.5 -334.5t-323.5 -121.5h-120v260h120q103 0 143.5 40.5t40.5 152.5q0 64 -14 153.5t-31 160.5l239 58q26 -85 41.5 -184.5t15.5 -184.5zM190 1008q-30 32 -49.5 71.5t-19.5 92.5q0 39 11 70t30 55q27 34 67 52t82 18q43 0 70 -11t56 -28l1 -113
q-30 16 -56 24.5t-57 8.5q-18 0 -38 -5t-35 -19q-25 -23 -25 -65q0 -31 21 -59t69 -42q5 -1 10 -2.5t10 -1.5h9l130 27v-111l-393 -94v107z" />
    <glyph glyph-name="uniFE8C" unicode="&#x626;" horiz-adv-x="687" arabic-form="medial" 
d="M707 0h-24q-184 0 -275 119q-57 -60 -136 -89.5t-171 -29.5h-121v260h121q107 0 144.5 39t37.5 138q0 54 -3.5 113t-6.5 113l243 30l19 -288q5 -79 39 -112t111 -33h22v-260zM219 900q-30 32 -49.5 71.5t-19.5 92.5q0 39 11 70t30 55q27 34 67 52t82 18q43 0 70 -11
t56 -28l1 -113q-30 16 -56 24.5t-57 8.5q-18 0 -38 -5t-35 -19q-25 -23 -25 -65q0 -31 21 -59t69 -42q5 -1 10 -2.5t10 -1.5h9l130 27v-111l-393 -94v107z" />
    <glyph glyph-name="uniFE8D" unicode="&#x627;" horiz-adv-x="465" arabic-form="isolated" 
d="M108 1386h249v-1385h-249v1385z" />
    <glyph glyph-name="uniFE8E" unicode="&#x627;" horiz-adv-x="527" arabic-form="final" 
d="M547 0h-25q-197 0 -305.5 107.5t-108.5 337.5v941h249v-942q0 -113 39.5 -148.5t125.5 -35.5h25v-260z" />
    <glyph glyph-name="uniFE8F" unicode="&#x628;" horiz-adv-x="1777" arabic-form="isolated" 
d="M753 -303l174 173l174 -173l-174 -174zM975 0h-135q-242 0 -417.5 57t-270 173.5t-94.5 293.5q0 83 21.5 159.5t50.5 145.5l226 -85q-16 -44 -29.5 -95.5t-13.5 -102.5q1 -139 122 -212.5t395 -73.5h138q144 0 256.5 10.5t177 58t64.5 159.5q0 44 -14 126t-30 153l239 59
q16 -51 29 -114t21 -120t8 -89q0 -165 -58 -265t-160.5 -151.5t-237.5 -69t-288 -17.5z" />
    <glyph glyph-name="uniFE90" unicode="&#x628;" horiz-adv-x="1878" arabic-form="final" 
d="M729 -303l174 173l174 -173l-174 -174zM985 0h-145q-242 0 -417.5 57t-270 173.5t-94.5 293.5q0 83 21.5 159.5t50.5 145.5l226 -85q-16 -44 -29.5 -99t-13.5 -106q1 -139 122 -209t395 -70h150q192 0 309 31t160 83q11 14 18.5 37t7.5 61q0 48 -3 96.5t-6 94.5l240 30
l19 -290q5 -78 37.5 -110.5t110.5 -32.5h25v-260h-25q-204 0 -306 157q-97 -82 -245.5 -119.5t-336.5 -37.5z" />
    <glyph glyph-name="uniFE91" unicode="&#x628;" horiz-adv-x="592" arabic-form="initial" 
d="M534 456q0 -213 -111.5 -334.5t-323.5 -121.5h-120v260h120q103 0 143.5 40.5t40.5 152.5q0 64 -14 153.5t-31 160.5l239 58q26 -85 41.5 -184.5t15.5 -184.5zM31 -303l174 173l174 -173l-174 -174z" />
    <glyph glyph-name="uniFE92" unicode="&#x628;" horiz-adv-x="687" arabic-form="medial" 
d="M707 0h-24q-184 0 -275 119q-57 -60 -136 -89.5t-171 -29.5h-121v260h121q107 0 144.5 39t37.5 138q0 54 -3.5 113t-6.5 113l243 30l19 -288q5 -79 39 -112t111 -33h22v-260zM31 -303l174 173l174 -173l-174 -174z" />
    <glyph glyph-name="uniFE93" unicode="&#x629;" horiz-adv-x="922" arabic-form="isolated" 
d="M360 1018q146 -111 260 -218.5t179 -215.5t65 -220q0 -110 -52 -191t-143.5 -125t-207.5 -44q-177 0 -290 90t-113 270q0 119 54.5 211.5t154.5 207.5l-49 43zM448 618q-77 -73 -110 -136.5t-33 -112.5q0 -50 31 -79.5t124 -29.5q96 0 126.5 26t30.5 84q0 42 -39.5 107
t-129.5 141zM440 1285l163 162l163 -163l-163 -163zM103 1285l163 162l163 -162l-163 -164z" />
    <glyph glyph-name="uniFE94" unicode="&#x629;" horiz-adv-x="1038" arabic-form="final" 
d="M585 1281l163 162l163 -163l-163 -163zM248 1281l163 162l163 -162l-163 -164zM58 452q0 162 129.5 280.5t372.5 198.5l-7 49l238 50l87 -632q19 -138 149 -138h31v-260h-35q-264 0 -343 212q-114 -80 -249 -80q-97 0 -182 33.5t-138 104.5t-53 182zM599 688
q-155 -62 -221 -118t-66 -106q0 -42 24 -63t89 -21q76 0 136 41t60 101q0 26 -3 51z" />
    <glyph glyph-name="uniFE95" unicode="&#x62a;" horiz-adv-x="1777" arabic-form="isolated" 
d="M975 0h-135q-242 0 -417.5 57t-270 173.5t-94.5 293.5q0 83 21.5 159.5t50.5 145.5l226 -85q-16 -44 -29.5 -95.5t-13.5 -102.5q1 -139 122 -212.5t395 -73.5h138q144 0 256.5 10.5t177 58t64.5 159.5q0 44 -14 126t-30 153l239 59q16 -51 29 -114t21 -120t8 -89
q0 -165 -58 -265t-160.5 -151.5t-237.5 -69t-288 -17.5zM901 920l163 162l163 -163l-163 -163zM564 920l163 162l163 -162l-163 -164z" />
    <glyph glyph-name="uniFE96" unicode="&#x62a;" horiz-adv-x="1878" arabic-form="final" 
d="M916 919l163 162l163 -163l-163 -163zM579 919l163 162l163 -162l-163 -164zM985 0h-145q-242 0 -417.5 57t-270 173.5t-94.5 293.5q0 83 21.5 159.5t50.5 145.5l226 -85q-16 -44 -29.5 -99t-13.5 -106q1 -139 122 -209t395 -70h150q192 0 309 31t160 83q11 14 18.5 37
t7.5 61q0 48 -3 96.5t-6 94.5l240 30l19 -290q5 -78 37.5 -110.5t110.5 -32.5h25v-260h-25q-204 0 -306 157q-97 -82 -245.5 -119.5t-336.5 -37.5z" />
    <glyph glyph-name="uniFE97" unicode="&#x62a;" horiz-adv-x="672" arabic-form="initial" 
d="M557 826q26 -85 41.5 -185t15.5 -185q0 -237 -123 -346.5t-362 -109.5h-149v260h149q95 0 145.5 12.5t69.5 53.5t19 127q0 64 -14 153.5t-31 160.5zM315 1100l163 162l163 -163l-163 -163zM-22 1100l163 162l163 -162l-163 -164z" />
    <glyph glyph-name="uniFE98" unicode="&#x62a;" horiz-adv-x="767" arabic-form="medial" 
d="M787 0h-24q-184 0 -275 120q-61 -62 -153 -91t-206 -29h-149v260h151q95 0 145 13.5t68.5 50t18.5 103.5q0 58 -3.5 120t-7.5 117l244 29l19 -289q5 -78 39 -111t111 -33h22v-260zM316 1017l163 162l163 -163l-163 -163zM-21 1017l163 162l163 -162l-163 -164z" />
    <glyph glyph-name="uniFE99" unicode="&#x62b;" horiz-adv-x="1777" arabic-form="isolated" 
d="M975 0h-135q-242 0 -417.5 57t-270 173.5t-94.5 293.5q0 83 21.5 159.5t50.5 145.5l226 -85q-16 -44 -29.5 -95.5t-13.5 -102.5q1 -139 122 -212.5t395 -73.5h138q144 0 256.5 10.5t177 58t64.5 159.5q0 44 -14 126t-30 153l239 59q16 -51 29 -114t21 -120t8 -89
q0 -165 -58 -265t-160.5 -151.5t-237.5 -69t-288 -17.5zM740 1107l154 153l155 -153l-155 -155zM912 845l154 153l155 -153l-155 -155zM572 845l154 153l155 -153l-155 -155z" />
    <glyph glyph-name="uniFE9A" unicode="&#x62b;" horiz-adv-x="1878" arabic-form="final" 
d="M751 1108l154 153l155 -153l-155 -155zM923 846l154 153l155 -153l-155 -155zM583 846l154 153l155 -153l-155 -155zM985 0h-145q-242 0 -417.5 57t-270 173.5t-94.5 293.5q0 83 21.5 159.5t50.5 145.5l226 -85q-16 -44 -29.5 -99t-13.5 -106q1 -139 122 -209t395 -70
h150q192 0 309 31t160 83q11 14 18.5 37t7.5 61q0 48 -3 96.5t-6 94.5l240 30l19 -290q5 -78 37.5 -110.5t110.5 -32.5h25v-260h-25q-204 0 -306 157q-97 -82 -245.5 -119.5t-336.5 -37.5z" />
    <glyph glyph-name="uniFE9B" unicode="&#x62b;" horiz-adv-x="672" arabic-form="initial" 
d="M557 826q26 -85 41.5 -185t15.5 -185q0 -237 -123 -346.5t-362 -109.5h-149v260h149q95 0 145.5 12.5t69.5 53.5t19 127q0 64 -14 153.5t-31 160.5zM145 1332l154 153l155 -153l-155 -155zM317 1070l154 153l155 -153l-155 -155zM-23 1070l154 153l155 -153l-155 -155z
" />
    <glyph glyph-name="uniFE9C" unicode="&#x62b;" horiz-adv-x="767" arabic-form="medial" 
d="M787 0h-24q-184 0 -275 120q-61 -62 -153 -91t-206 -29h-149v260h151q95 0 145 13.5t68.5 50t18.5 103.5q0 58 -3.5 120t-7.5 117l244 29l19 -289q5 -78 39 -111t111 -33h22v-260zM147 1234l154 153l155 -153l-155 -155zM319 972l154 153l155 -153l-155 -155zM-21 972
l154 153l155 -153l-155 -155z" />
    <glyph glyph-name="uniFE9D" unicode="&#x62c;" horiz-adv-x="1347" arabic-form="isolated" 
d="M712 597q-15 6 -28.5 11.5t-35.5 13.5q-67 26 -109.5 40t-61.5 14q-44 0 -90 -28t-79 -71l-48 -61l-218 109l36 64q66 111 170 178t230 67q72 0 151.5 -28.5t168.5 -71.5q115 -56 192.5 -86.5t141.5 -44t139 -17.5l-19 -245q-202 -17 -375 -63.5t-301 -118t-199.5 -161.5
t-71.5 -193q0 -164 116 -247.5t377 -83.5q118 0 218.5 20t202.5 67l62 -245q-111 -53 -230 -73t-267 -20q-207 0 -371 60t-259 185t-95 321q0 238 169 426t484 282zM630 -38l174 173l174 -173l-174 -174z" />
    <glyph glyph-name="uniFE9E" unicode="&#x62c;" horiz-adv-x="1378" arabic-form="final" 
d="M535 -79l174 173l174 -173l-174 -174zM1281 -584q-111 -53 -230 -73t-267 -20q-207 0 -371 60t-259 185t-95 321q0 237 169 425.5t484 282.5q-15 6 -28.5 11.5t-35.5 13.5q-67 26 -109.5 40t-61.5 14q-44 0 -90 -28t-79 -71l-48 -61l-218 109l36 64q66 111 170 178
t230 67q72 0 151.5 -28.5t168.5 -71.5q115 -56 192.5 -86.5t141.5 -44t139 -17.5l-19 -245q-49 -4 -97.5 -8.5t-92.5 -10.5q7 -97 60.5 -129.5t184.5 -32.5h91v-260h-88q-216 0 -340 83t-137 291q-273 -85 -400.5 -212t-127.5 -257q0 -164 116 -247.5t377 -83.5
q118 0 218.5 20t202.5 67z" />
    <glyph glyph-name="uniFE9F" unicode="&#x62c;" horiz-adv-x="1334" arabic-form="initial" 
d="M461 -303l174 173l174 -173l-174 -174zM-20 0v260h163q114 0 213.5 23t201.5 67t224 106l71 37q-17 6 -38.5 15.5t-66.5 27.5q-101 41 -165.5 63.5t-87.5 22.5q-44 0 -90 -28t-79 -71l-48 -61l-218 109l36 64q66 111 170 178t230 67q72 0 151.5 -28.5t168.5 -71.5
q115 -56 192 -86.5t140.5 -44t138.5 -17.5l-4 -244q-58 -7 -106 -20.5t-115 -45.5t-182 -93q-123 -65 -239.5 -116.5t-238.5 -82t-262 -30.5h-160z" />
    <glyph glyph-name="uniFEA0" unicode="&#x62c;" horiz-adv-x="1351" arabic-form="medial" 
d="M461 -303l174 173l174 -173l-174 -174zM1283 388q-51 -6 -92.5 -14t-101.5 -34q9 -36 62.5 -58t165.5 -22h54v-260h-58q-170 0 -281 53t-146 180q-179 -95 -363 -164t-383 -69h-160v260h163q114 0 213.5 23t201.5 67t224 106l71 37q-17 6 -38.5 15.5t-66.5 27.5
q-101 41 -165.5 63.5t-87.5 22.5q-44 0 -90 -28t-79 -71l-48 -61l-218 109l36 64q66 111 170 178t230 67q72 0 151.5 -28.5t168.5 -71.5q115 -56 192 -86.5t140.5 -44t138.5 -17.5z" />
    <glyph glyph-name="uniFEA1" unicode="&#x62d;" horiz-adv-x="1347" arabic-form="isolated" 
d="M712 597q-15 6 -28.5 11.5t-35.5 13.5q-67 26 -109.5 40t-61.5 14q-44 0 -90 -28t-79 -71l-48 -61l-218 109l36 64q66 111 170 178t230 67q72 0 151.5 -28.5t168.5 -71.5q115 -56 192.5 -86.5t141.5 -44t139 -17.5l-19 -245q-202 -17 -375 -63.5t-301 -118t-199.5 -161.5
t-71.5 -193q0 -164 116 -247.5t377 -83.5q118 0 218.5 20t202.5 67l62 -245q-111 -53 -230 -73t-267 -20q-207 0 -371 60t-259 185t-95 321q0 238 169 426t484 282z" />
    <glyph glyph-name="uniFEA2" unicode="&#x62d;" horiz-adv-x="1378" arabic-form="final" 
d="M1281 -584q-111 -53 -230 -73t-267 -20q-207 0 -371 60t-259 185t-95 321q0 237 169 425.5t484 282.5q-15 6 -28.5 11.5t-35.5 13.5q-67 26 -109.5 40t-61.5 14q-44 0 -90 -28t-79 -71l-48 -61l-218 109l36 64q66 111 170 178t230 67q72 0 151.5 -28.5t168.5 -71.5
q115 -56 192.5 -86.5t141.5 -44t139 -17.5l-19 -245q-49 -4 -97.5 -8.5t-92.5 -10.5q7 -97 60.5 -129.5t184.5 -32.5h91v-260h-88q-216 0 -340 83t-137 291q-273 -85 -400.5 -212t-127.5 -257q0 -164 116 -247.5t377 -83.5q118 0 218.5 20t202.5 67z" />
    <glyph glyph-name="uniFEA3" unicode="&#x62d;" horiz-adv-x="1334" arabic-form="initial" 
d="M-20 0v260h163q114 0 213.5 23t201.5 67t224 106l71 37q-17 6 -38.5 15.5t-66.5 27.5q-101 41 -165.5 63.5t-87.5 22.5q-44 0 -90 -28t-79 -71l-48 -61l-218 109l36 64q66 111 170 178t230 67q72 0 151.5 -28.5t168.5 -71.5q115 -56 192 -86.5t140.5 -44t138.5 -17.5
l-4 -244q-58 -7 -106 -20.5t-115 -45.5t-182 -93q-123 -65 -239.5 -116.5t-238.5 -82t-262 -30.5h-160z" />
    <glyph glyph-name="uniFEA4" unicode="&#x62d;" horiz-adv-x="1351" arabic-form="medial" 
d="M1283 388q-51 -6 -92.5 -14t-101.5 -34q9 -36 62.5 -58t165.5 -22h54v-260h-58q-170 0 -281 53t-146 180q-179 -95 -363 -164t-383 -69h-160v260h163q114 0 213.5 23t201.5 67t224 106l71 37q-17 6 -38.5 15.5t-66.5 27.5q-101 41 -165.5 63.5t-87.5 22.5q-44 0 -90 -28
t-79 -71l-48 -61l-218 109l36 64q66 111 170 178t230 67q72 0 151.5 -28.5t168.5 -71.5q115 -56 192 -86.5t140.5 -44t138.5 -17.5z" />
    <glyph glyph-name="uniFEA5" unicode="&#x62e;" horiz-adv-x="1347" arabic-form="isolated" 
d="M392 1231l174 173l174 -173l-174 -174zM712 597q-15 6 -28.5 11.5t-35.5 13.5q-67 26 -109.5 40t-61.5 14q-44 0 -90 -28t-79 -71l-48 -61l-218 109l36 64q66 111 170 178t230 67q72 0 151.5 -28.5t168.5 -71.5q115 -56 192.5 -86.5t141.5 -44t139 -17.5l-19 -245
q-202 -17 -375 -63.5t-301 -118t-199.5 -161.5t-71.5 -193q0 -164 116 -247.5t377 -83.5q118 0 218.5 20t202.5 67l62 -245q-111 -53 -230 -73t-267 -20q-207 0 -371 60t-259 185t-95 321q0 238 169 426t484 282z" />
    <glyph glyph-name="uniFEA6" unicode="&#x62e;" horiz-adv-x="1378" arabic-form="final" 
d="M392 1231l174 173l174 -173l-174 -174zM1281 -584q-111 -53 -230 -73t-267 -20q-207 0 -371 60t-259 185t-95 321q0 237 169 425.5t484 282.5q-15 6 -28.5 11.5t-35.5 13.5q-67 26 -109.5 40t-61.5 14q-44 0 -90 -28t-79 -71l-48 -61l-218 109l36 64q66 111 170 178
t230 67q72 0 151.5 -28.5t168.5 -71.5q115 -56 192.5 -86.5t141.5 -44t139 -17.5l-19 -245q-49 -4 -97.5 -8.5t-92.5 -10.5q7 -97 60.5 -129.5t184.5 -32.5h91v-260h-88q-216 0 -340 83t-137 291q-273 -85 -400.5 -212t-127.5 -257q0 -164 116 -247.5t377 -83.5
q118 0 218.5 20t202.5 67z" />
    <glyph glyph-name="uniFEA7" unicode="&#x62e;" horiz-adv-x="1334" arabic-form="initial" 
d="M401 1179l174 173l174 -173l-174 -174zM-20 0v260h163q114 0 213.5 23t201.5 67t224 106l71 37q-17 6 -38.5 15.5t-66.5 27.5q-101 41 -165.5 63.5t-87.5 22.5q-44 0 -90 -28t-79 -71l-48 -61l-218 109l36 64q66 111 170 178t230 67q72 0 151.5 -28.5t168.5 -71.5
q115 -56 192 -86.5t140.5 -44t138.5 -17.5l-4 -244q-58 -7 -106 -20.5t-115 -45.5t-182 -93q-123 -65 -239.5 -116.5t-238.5 -82t-262 -30.5h-160z" />
    <glyph glyph-name="uniFEA8" unicode="&#x62e;" horiz-adv-x="1351" arabic-form="medial" 
d="M401 1179l174 173l174 -173l-174 -174zM1283 388q-51 -6 -92.5 -14t-101.5 -34q9 -36 62.5 -58t165.5 -22h54v-260h-58q-170 0 -281 53t-146 180q-179 -95 -363 -164t-383 -69h-160v260h163q114 0 213.5 23t201.5 67t224 106l71 37q-17 6 -38.5 15.5t-66.5 27.5
q-101 41 -165.5 63.5t-87.5 22.5q-44 0 -90 -28t-79 -71l-48 -61l-218 109l36 64q66 111 170 178t230 67q72 0 151.5 -28.5t168.5 -71.5q115 -56 192 -86.5t140.5 -44t138.5 -17.5z" />
    <glyph glyph-name="uniFEA9" unicode="&#x62f;" horiz-adv-x="963" arabic-form="isolated" 
d="M58 296q63 -13 135 -24t124 -11q187 0 259.5 40.5t72.5 102.5q0 79 -115.5 196t-314.5 243l142 214q250 -149 397 -310t147 -340q0 -205 -150.5 -305t-424.5 -100q-75 0 -142.5 9t-129.5 22v263z" />
    <glyph glyph-name="uniFEAA" unicode="&#x62f;" horiz-adv-x="1055" arabic-form="final" 
d="M58 300q60 -15 126.5 -27t122.5 -12q78 0 146.5 10t110.5 38t42 81q0 24 -12 62.5t-21 59.5l-175 441l228 104l223 -570q40 -102 79 -164.5t105 -62.5h42v-260h-42q-192 0 -291 139q-72 -70 -172.5 -104t-247.5 -34q-82 0 -143.5 9.5t-120.5 23.5v266z" />
    <glyph glyph-name="uniFEAB" unicode="&#x630;" horiz-adv-x="963" arabic-form="isolated" 
d="M174 1340l174 173l174 -173l-174 -174zM58 296q63 -13 135 -24t124 -11q187 0 259.5 40.5t72.5 102.5q0 79 -115.5 196t-314.5 243l142 214q250 -149 397 -310t147 -340q0 -205 -150.5 -305t-424.5 -100q-75 0 -142.5 9t-129.5 22v263z" />
    <glyph glyph-name="uniFEAC" unicode="&#x630;" horiz-adv-x="1055" arabic-form="final" 
d="M323 1334l174 173l174 -173l-174 -174zM58 300q60 -15 126.5 -27t122.5 -12q78 0 146.5 10t110.5 38t42 81q0 24 -12 62.5t-21 59.5l-175 441l228 104l223 -570q40 -102 79 -164.5t105 -62.5h42v-260h-42q-192 0 -291 139q-72 -70 -172.5 -104t-247.5 -34
q-82 0 -143.5 9.5t-120.5 23.5v266z" />
    <glyph glyph-name="uniFEAD" unicode="&#x631;" horiz-adv-x="710" arabic-form="isolated" 
d="M552 617q47 -108 73.5 -227.5t26.5 -236.5q0 -164 -65.5 -306t-200.5 -245t-345 -150l-109 221q243 60 358.5 176.5t115.5 287.5q0 90 -25.5 195t-65.5 200z" />
    <glyph glyph-name="uniFEAE" unicode="&#x631;" horiz-adv-x="790" arabic-form="final" 
d="M642 30q-32 -205 -179 -360.5t-422 -217.5l-109 221q245 60 359.5 177t114.5 292q0 88 -25.5 192t-65.5 198l240 86l75 -240q23 -69 53.5 -93.5t87.5 -24.5h39v-260h-28q-44 0 -79.5 9t-60.5 21z" />
    <glyph glyph-name="uniFEAF" unicode="&#x632;" horiz-adv-x="710" arabic-form="isolated" 
d="M236 932l174 173l174 -173l-174 -174zM552 617q47 -108 73.5 -227.5t26.5 -236.5q0 -164 -65.5 -306t-200.5 -245t-345 -150l-109 221q243 60 358.5 176.5t115.5 287.5q0 90 -25.5 195t-65.5 200z" />
    <glyph glyph-name="uniFEB0" unicode="&#x632;" horiz-adv-x="790" arabic-form="final" 
d="M236 932l174 173l174 -173l-174 -174zM642 30q-32 -205 -179 -360.5t-422 -217.5l-109 221q245 60 359.5 177t114.5 292q0 88 -25.5 192t-65.5 198l240 86l75 -240q23 -69 53.5 -93.5t87.5 -24.5h39v-260h-28q-44 0 -79.5 9t-60.5 21z" />
    <glyph glyph-name="uniFEB1" unicode="&#x633;" horiz-adv-x="2456" arabic-form="isolated" 
d="M1531 0q-89 0 -153 33q-15 -181 -104 -304t-232 -186t-321 -63q-309 0 -486 159.5t-177 456.5q0 119 30.5 242t77.5 239l228 -92q-35 -95 -59.5 -196t-24.5 -188q0 -187 95.5 -275t312.5 -88q210 0 314 96t105 306q0 97 -30.5 198t-74.5 194l249 86l72 -222
q23 -72 64 -103.5t116 -32.5q82 0 113.5 38.5t31.5 130.5q0 14 -2 50.5t-5 81t-6 81.5l245 30l19 -268q5 -70 32.5 -107t85.5 -37q43 0 71 37.5t28 144.5q0 53 -16.5 135.5t-36.5 157.5l241 61q25 -82 44.5 -169t19.5 -170q0 -118 -33 -222t-110 -169t-207 -66
q-162 0 -246 117q-108 -117 -271 -117z" />
    <glyph glyph-name="uniFEB2" unicode="&#x633;" horiz-adv-x="2553" arabic-form="final" 
d="M1531 0q-89 0 -153 33q-15 -181 -104 -304t-232 -186t-321 -63q-309 0 -486 159.5t-177 456.5q0 119 30.5 242t77.5 239l228 -92q-35 -95 -59.5 -196t-24.5 -188q0 -187 95.5 -275t312.5 -88q210 0 314 96t105 306q0 97 -30.5 198t-74.5 194l249 86l72 -222
q23 -72 64 -103.5t116 -32.5q82 0 113.5 38.5t31.5 130.5q0 14 -2 50.5t-5 81t-6 81.5l245 30l19 -268q10 -144 118 -144q47 0 73.5 34.5t26.5 132.5q0 33 -4 103.5t-9 132.5l245 30l19 -289q5 -79 39 -111.5t106 -32.5h30v-260h-28q-85 0 -153 26.5t-108 83.5
q-83 -110 -236 -110q-162 0 -246 117q-108 -117 -271 -117z" />
    <glyph glyph-name="uniFEB3" unicode="&#x633;" horiz-adv-x="1562" arabic-form="initial" 
d="M1153 260q43 0 71 37.5t28 144.5q0 53 -16.5 135.5t-36.5 157.5l240 60q25 -82 45 -168.5t20 -169.5q0 -118 -33 -222t-110 -169t-207 -66q-164 0 -248 117q-108 -117 -270 -117q-183 0 -267 116q-53 -60 -134 -88t-186 -28h-69v260h71q113 0 157.5 34t44.5 135
q0 23 -4.5 90.5t-8.5 122.5l245 30l19 -268q10 -144 134 -144q81 0 113 39t32 130q0 14 -2 50.5t-5 81t-6 81.5l245 30l19 -268q10 -144 119 -144z" />
    <glyph glyph-name="uniFEB4" unicode="&#x633;" horiz-adv-x="1658" arabic-form="medial" 
d="M1153 260q46 0 72.5 34.5t26.5 132.5q0 33 -4 103.5t-9 132.5l245 30l19 -289q5 -79 39 -111.5t106 -32.5h30v-260h-28q-85 0 -153 26.5t-108 83.5q-83 -110 -235 -110q-163 0 -247 117q-108 -117 -271 -117q-89 1 -157 28.5t-110 86.5q-53 -60 -133.5 -87.5
t-186.5 -27.5h-69v260h71q113 0 157.5 34t44.5 135q0 23 -4 90t-9 123l245 30l19 -268q5 -70 37 -107t97 -37q82 0 113.5 38.5t31.5 130.5q0 14 -2 50.5t-5 81t-6 81.5l245 30l19 -268q10 -144 119 -144z" />
    <glyph glyph-name="uniFEB5" unicode="&#x634;" horiz-adv-x="2456" arabic-form="isolated" 
d="M1590 1244l154 153l155 -153l-155 -155zM1762 982l154 153l155 -153l-155 -155zM1422 982l154 153l155 -153l-155 -155zM1531 0q-89 0 -153 33q-15 -181 -104 -304t-232 -186t-321 -63q-309 0 -486 159.5t-177 456.5q0 119 30.5 242t77.5 239l228 -92q-35 -95 -59.5 -196
t-24.5 -188q0 -187 95.5 -275t312.5 -88q210 0 314 96t105 306q0 97 -30.5 198t-74.5 194l249 86l72 -222q23 -72 64 -103.5t116 -32.5q82 0 113.5 38.5t31.5 130.5q0 14 -2 50.5t-5 81t-6 81.5l245 30l19 -268q5 -70 32.5 -107t85.5 -37q43 0 71 37.5t28 144.5
q0 53 -16.5 135.5t-36.5 157.5l241 61q25 -82 44.5 -169t19.5 -170q0 -118 -33 -222t-110 -169t-207 -66q-162 0 -246 117q-108 -117 -271 -117z" />
    <glyph glyph-name="uniFEB6" unicode="&#x634;" horiz-adv-x="2553" arabic-form="final" 
d="M1590 1244l154 153l155 -153l-155 -155zM1762 982l154 153l155 -153l-155 -155zM1422 982l154 153l155 -153l-155 -155zM1531 0q-89 0 -153 33q-15 -181 -104 -304t-232 -186t-321 -63q-309 0 -486 159.5t-177 456.5q0 119 30.5 242t77.5 239l228 -92q-35 -95 -59.5 -196
t-24.5 -188q0 -187 95.5 -275t312.5 -88q210 0 314 96t105 306q0 97 -30.5 198t-74.5 194l249 86l72 -222q23 -72 64 -103.5t116 -32.5q82 0 113.5 38.5t31.5 130.5q0 14 -2 50.5t-5 81t-6 81.5l245 30l19 -268q10 -144 118 -144q47 0 73.5 34.5t26.5 132.5q0 33 -4 103.5
t-9 132.5l245 30l19 -289q5 -79 39 -111.5t106 -32.5h30v-260h-28q-85 0 -153 26.5t-108 83.5q-83 -110 -236 -110q-162 0 -246 117q-108 -117 -271 -117z" />
    <glyph glyph-name="uniFEB7" unicode="&#x634;" horiz-adv-x="1562" arabic-form="initial" 
d="M696 1244l154 153l155 -153l-155 -155zM868 982l154 153l155 -153l-155 -155zM528 982l154 153l155 -153l-155 -155zM1153 260q43 0 71 37.5t28 144.5q0 53 -16.5 135.5t-36.5 157.5l240 60q25 -82 45 -168.5t20 -169.5q0 -118 -33 -222t-110 -169t-207 -66
q-164 0 -248 117q-108 -117 -270 -117q-183 0 -267 116q-53 -60 -134 -88t-186 -28h-69v260h71q113 0 157.5 34t44.5 135q0 23 -4.5 90.5t-8.5 122.5l245 30l19 -268q10 -144 134 -144q81 0 113 39t32 130q0 14 -2 50.5t-5 81t-6 81.5l245 30l19 -268q10 -144 119 -144z" />
    <glyph glyph-name="uniFEB8" unicode="&#x634;" horiz-adv-x="1658" arabic-form="medial" 
d="M696 1244l154 153l155 -153l-155 -155zM868 982l154 153l155 -153l-155 -155zM528 982l154 153l155 -153l-155 -155zM1153 260q46 0 72.5 34.5t26.5 132.5q0 33 -4 103.5t-9 132.5l245 30l19 -289q5 -79 39 -111.5t106 -32.5h30v-260h-28q-85 0 -153 26.5t-108 83.5
q-83 -110 -235 -110q-163 0 -247 117q-108 -117 -271 -117q-89 1 -157 28.5t-110 86.5q-53 -60 -133.5 -87.5t-186.5 -27.5h-69v260h71q113 0 157.5 34t44.5 135q0 23 -4 90t-9 123l245 30l19 -268q5 -70 37 -107t97 -37q82 0 113.5 38.5t31.5 130.5q0 14 -2 50.5t-5 81
t-6 81.5l245 30l19 -268q10 -144 119 -144z" />
    <glyph glyph-name="uniFEB9" unicode="&#x635;" horiz-adv-x="2575" arabic-form="isolated" 
d="M394 485q-35 -95 -59.5 -194.5t-24.5 -189.5q0 -190 97 -276.5t311 -86.5q209 0 313.5 96.5t105.5 305.5q0 99 -30.5 199.5t-74.5 192.5l249 86l72 -222q24 -72 54 -90q166 274 336.5 417.5t354.5 143.5q120 0 214.5 -53.5t149.5 -145.5t55 -206q-1 -237 -199.5 -349.5
t-560.5 -112.5h-51q-208 0 -327 41q-14 -187 -104 -311.5t-234 -187t-320 -62.5q-309 0 -486 159.5t-177 456.5q0 119 30.5 242t77.5 239zM1753 261q276 0 391 54t115 138q0 66 -42 109t-113 43q-89 0 -196 -84.5t-227 -259.5h72z" />
    <glyph glyph-name="uniFEBA" unicode="&#x635;" horiz-adv-x="2610" arabic-form="final" 
d="M1137 140q0 99 -30.5 199.5t-74.5 192.5l249 86l72 -222q23 -73 54 -90q167 272 338 416.5t351 144.5q122 0 217.5 -53t149.5 -144.5t54 -207.5q0 -53 -16 -103t-40 -92q22 -3 55.5 -5t83.5 -2h30v-260h-29q-114 0 -200 22t-146 64q-177 -86 -498 -86h-51q-208 0 -327 41
q-14 -187 -104 -311.5t-234 -187t-320 -62.5q-309 0 -486 159.5t-177 456.5q0 119 30.5 242t77.5 239l228 -92q-35 -95 -59.5 -194.5t-24.5 -189.5q0 -187 95.5 -275t312.5 -88q209 0 313.5 96t105.5 306zM1753 261q276 0 391 54t115 138q0 66 -42 109t-113 43
q-89 0 -196 -84.5t-227 -259.5h72z" />
    <glyph glyph-name="uniFEBB" unicode="&#x635;" horiz-adv-x="1654" arabic-form="initial" 
d="M491 313q165 269 335 411.5t349 142.5q122 0 217.5 -53t149.5 -144.5t54 -207.5q-1 -237 -199.5 -349.5t-560.5 -112.5h-51q-168 0 -281 29t-175 95q-56 -62 -128.5 -93t-180.5 -31h-40l1 260h39q80 0 119 15.5t51.5 52t12.5 100.5q0 53 -3.5 117t-6.5 118l243 30
l21 -289q6 -70 34 -91zM832 261q276 0 391 54t115 138q0 66 -42 109t-113 43q-89 0 -196 -84.5t-227 -259.5h72z" />
    <glyph glyph-name="uniFEBC" unicode="&#x635;" horiz-adv-x="1689" arabic-form="medial" 
d="M491 313q166 270 336 412t349 142q123 0 218 -53t148.5 -145.5t53.5 -208.5q0 -52 -16 -101.5t-40 -91.5q21 -3 55.5 -5t83.5 -2h30v-260h-30q-114 0 -199.5 22t-145.5 64q-177 -86 -498 -86h-51q-167 0 -280 29t-176 95q-55 -62 -128 -93t-181 -31h-40v260h39
q80 0 119.5 15.5t52 52t12.5 99.5q0 55 -3.5 118.5t-6.5 117.5l243 30l21 -289q6 -70 34 -91zM832 261q276 0 391 54t115 138q0 66 -42 109t-113 43q-89 0 -196 -84.5t-227 -259.5h72z" />
    <glyph glyph-name="uniFEBD" unicode="&#x636;" horiz-adv-x="2575" arabic-form="isolated" 
d="M1885 1197l174 173l174 -173l-174 -174zM394 485q-35 -95 -59.5 -194.5t-24.5 -189.5q0 -190 97 -276.5t311 -86.5q209 0 313.5 96.5t105.5 305.5q0 99 -30.5 199.5t-74.5 192.5l249 86l72 -222q24 -72 54 -90q166 274 336.5 417.5t354.5 143.5q120 0 214.5 -53.5
t149.5 -145.5t55 -206q-1 -237 -199.5 -349.5t-560.5 -112.5h-51q-208 0 -327 41q-14 -187 -104 -311.5t-234 -187t-320 -62.5q-309 0 -486 159.5t-177 456.5q0 119 30.5 242t77.5 239zM1753 261q276 0 391 54t115 138q0 66 -42 109t-113 43q-89 0 -196 -84.5t-227 -259.5
h72z" />
    <glyph glyph-name="uniFEBE" unicode="&#x636;" horiz-adv-x="2610" arabic-form="final" 
d="M1885 1197l174 173l174 -173l-174 -174zM1137 140q0 99 -30.5 199.5t-74.5 192.5l249 86l72 -222q23 -73 54 -90q167 272 338 416.5t351 144.5q122 0 217.5 -53t149.5 -144.5t54 -207.5q0 -53 -16 -103t-40 -92q22 -3 55.5 -5t83.5 -2h30v-260h-29q-114 0 -200 22
t-146 64q-177 -86 -498 -86h-51q-208 0 -327 41q-14 -187 -104 -311.5t-234 -187t-320 -62.5q-309 0 -486 159.5t-177 456.5q0 119 30.5 242t77.5 239l228 -92q-35 -95 -59.5 -194.5t-24.5 -189.5q0 -187 95.5 -275t312.5 -88q209 0 313.5 96t105.5 306zM1753 261
q276 0 391 54t115 138q0 66 -42 109t-113 43q-89 0 -196 -84.5t-227 -259.5h72z" />
    <glyph glyph-name="uniFEBF" unicode="&#x636;" horiz-adv-x="1654" arabic-form="initial" 
d="M964 1197l174 173l174 -173l-174 -174zM491 313q165 269 335 411.5t349 142.5q122 0 217.5 -53t149.5 -144.5t54 -207.5q-1 -237 -199.5 -349.5t-560.5 -112.5h-51q-168 0 -281 29t-175 95q-56 -62 -128.5 -93t-180.5 -31h-40l1 260h39q80 0 119 15.5t51.5 52t12.5 100.5
q0 53 -3.5 117t-6.5 118l243 30l21 -289q6 -70 34 -91zM832 261q276 0 391 54t115 138q0 66 -42 109t-113 43q-89 0 -196 -84.5t-227 -259.5h72z" />
    <glyph glyph-name="uniFEC0" unicode="&#x636;" horiz-adv-x="1689" arabic-form="medial" 
d="M964 1197l174 173l174 -173l-174 -174zM491 313q166 270 336 412t349 142q123 0 218 -53t148.5 -145.5t53.5 -208.5q0 -52 -16 -101.5t-40 -91.5q21 -3 55.5 -5t83.5 -2h30v-260h-30q-114 0 -199.5 22t-145.5 64q-177 -86 -498 -86h-51q-167 0 -280 29t-176 95
q-55 -62 -128 -93t-181 -31h-40v260h39q80 0 119.5 15.5t52 52t12.5 99.5q0 55 -3.5 118.5t-6.5 117.5l243 30l21 -289q6 -70 34 -91zM832 261q276 0 391 54t115 138q0 66 -42 109t-113 43q-89 0 -196 -84.5t-227 -259.5h72z" />
    <glyph glyph-name="uniFEC1" unicode="&#x637;" horiz-adv-x="1471" arabic-form="isolated" 
d="M298 260q14 23 28 44.5t27 42.5v1039h249v-709q89 92 186 141t203 49q123 0 218.5 -52.5t149.5 -144t54 -208.5q-2 -237 -200.5 -349.5t-559.5 -112.5h-595v260h240zM649 262q276 0 391 54t115 138q0 66 -42 109t-113 43q-89 0 -196 -84.5t-227 -259.5h72z" />
    <glyph glyph-name="uniFEC2" unicode="&#x637;" horiz-adv-x="1510" arabic-form="final" 
d="M1356 266q18 -2 54.5 -4t89.5 -2h30v-260h-29q-125 0 -207 23.5t-138 62.5q-86 -39 -216.5 -62.5t-286.5 -23.5h-595v260h240l28 44t27 43v1039h249v-709q89 92 186 141t204 49q122 0 217 -53t149 -144.5t54 -207.5q0 -51 -16 -101t-40 -95zM649 262q276 0 391 54
t115 138q0 66 -41.5 109t-112.5 43q-89 0 -196.5 -84.5t-227.5 -259.5h72z" />
    <glyph glyph-name="uniFEC3" unicode="&#x637;" horiz-adv-x="1293" arabic-form="initial" 
d="M424 677q90 92 189 141t206 49q121 0 215 -53.5t147.5 -145.5t53.5 -206q0 -237 -198 -349.5t-561 -112.5h-496v260h138q14 22 29 44t28 43v1039h249v-709zM471 262q276 0 391 54t115 138q0 66 -42 109t-113 43q-89 0 -196 -84.5t-227 -259.5h72z" />
    <glyph glyph-name="uniFEC4" unicode="&#x637;" horiz-adv-x="1332" arabic-form="medial" 
d="M1178 266q19 -2 55 -4t89 -2h30v-260h-31q-125 0 -206 24t-137 63q-85 -39 -215.5 -63t-286.5 -24h-496v260h140q14 23 28 44.5t27 42.5v1039h249v-709q90 92 188 141t204 49q122 0 216.5 -53.5t148.5 -145t54 -206.5q0 -51 -16.5 -101t-40.5 -95zM471 262q276 0 391 54
t115 138q0 66 -42 109t-113 43q-89 0 -196 -84.5t-227 -259.5h72z" />
    <glyph glyph-name="uniFEC5" unicode="&#x638;" horiz-adv-x="1471" arabic-form="isolated" 
d="M797 1197l174 173l174 -173l-174 -174zM298 260q14 23 28 44.5t27 42.5v1039h249v-709q89 92 186 141t203 49q123 0 218.5 -52.5t149.5 -144t54 -208.5q-2 -237 -200.5 -349.5t-559.5 -112.5h-595v260h240zM649 262q276 0 391 54t115 138q0 66 -42 109t-113 43
q-89 0 -196 -84.5t-227 -259.5h72z" />
    <glyph glyph-name="uniFEC6" unicode="&#x638;" horiz-adv-x="1510" arabic-form="final" 
d="M796 1197l174 173l174 -173l-174 -174zM1356 266q18 -2 54.5 -4t89.5 -2h30v-260h-29q-125 0 -207 23.5t-138 62.5q-86 -39 -216.5 -62.5t-286.5 -23.5h-595v260h240l28 44t27 43v1039h249v-709q89 92 186 141t204 49q122 0 217 -53t149 -144.5t54 -207.5q0 -51 -16 -101
t-40 -95zM649 262q276 0 391 54t115 138q0 66 -41.5 109t-112.5 43q-89 0 -196.5 -84.5t-227.5 -259.5h72z" />
    <glyph glyph-name="uniFEC7" unicode="&#x638;" horiz-adv-x="1293" arabic-form="initial" 
d="M621 1197l174 173l174 -173l-174 -174zM424 677q90 92 189 141t206 49q121 0 215 -53.5t147.5 -145.5t53.5 -206q0 -237 -198 -349.5t-561 -112.5h-496v260h138q14 22 29 44t28 43v1039h249v-709zM471 262q276 0 391 54t115 138q0 66 -42 109t-113 43q-89 0 -196 -84.5
t-227 -259.5h72z" />
    <glyph glyph-name="uniFEC8" unicode="&#x638;" horiz-adv-x="1332" arabic-form="medial" 
d="M621 1197l174 173l174 -173l-174 -174zM1178 266q19 -2 55 -4t89 -2h30v-260h-31q-125 0 -206 24t-137 63q-85 -39 -215.5 -63t-286.5 -24h-496v260h140q14 23 28 44.5t27 42.5v1039h249v-709q90 92 188 141t204 49q122 0 216.5 -53.5t148.5 -145t54 -206.5
q0 -51 -16.5 -101t-40.5 -95zM471 262q276 0 391 54t115 138q0 66 -42 109t-113 43q-89 0 -196 -84.5t-227 -259.5h72z" />
    <glyph glyph-name="uniFEC9" unicode="&#x639;" horiz-adv-x="1306" arabic-form="isolated" 
d="M986 726q-67 39 -139.5 72t-131.5 33q-75 0 -127.5 -44t-52.5 -117q0 -58 27 -103.5t56 -74.5q84 14 158 21.5t136 7.5q59 0 115.5 -4.5t110.5 -10.5l-33 -247q-32 1 -73 2t-61 1q-237 0 -384 -50t-215 -135.5t-68 -193.5q0 -140 111.5 -222.5t350.5 -82.5q112 0 213 21
t201 67l61 -245q-109 -53 -226.5 -74t-259.5 -21q-141 0 -267 33.5t-222.5 101t-152 171t-55.5 244.5q0 167 76.5 302t241.5 221q-48 67 -71 138t-23 146q0 108 59 200.5t155.5 149t208.5 56.5q102 0 194.5 -41.5t184.5 -104.5z" />
    <glyph glyph-name="uniFECA" unicode="&#x639;" horiz-adv-x="1199" arabic-form="final" 
d="M393 350q-64 62 -123.5 128.5t-98 129.5t-38.5 116q0 67 46 110.5t119.5 68t156.5 34.5t158 10q69 0 150.5 -9.5t155 -34t120.5 -68t47 -111.5q0 -53 -42.5 -118t-106.5 -134t-129 -132q73 -43 163 -61.5t188 -18.5h60v-260h-60q-289 0 -569 192q-141 -83 -213 -168
t-72 -182q0 -109 95 -181.5t294 -72.5q91 0 177.5 14.5t173.5 50.5l61 -243q-93 -41 -193 -57t-224 -16q-177 0 -320 56t-227 168t-84 281q0 159 96.5 284t238.5 224zM610 710q-51 0 -114 -5t-109 -17q44 -56 96 -106.5t89.5 -82.5l37.5 -32l37.5 32t89 83t95.5 106
q-47 12 -108 17t-114 5z" />
    <glyph glyph-name="uniFECB" unicode="&#x639;" horiz-adv-x="1034" arabic-form="initial" 
d="M128 504q0 114 58.5 211t155 156t209.5 59q107 0 197 -41.5t182 -104.5l-98 -217q-67 39 -136.5 72t-133.5 33q-70 0 -125.5 -51.5t-55.5 -124.5q0 -49 22.5 -91.5t51 -72.5t48.5 -41q6 0 16 3l457 121v-261q-241 -75 -462.5 -114.5t-428.5 -39.5h-105v260h224
q-31 52 -53.5 115.5t-22.5 128.5z" />
    <glyph glyph-name="uniFECC" unicode="&#x639;" horiz-adv-x="1141" arabic-form="medial" 
d="M853 271q47 -8 102.5 -9.5t89.5 -1.5h46v-260h-46q-99 0 -220.5 23t-221.5 75q-105 -51 -244 -74.5t-272 -23.5h-107v260h110q53 0 129.5 1.5t134.5 9.5q-57 59 -109 118.5t-85 115.5t-33 104q0 67 46 110.5t119 68t156.5 34.5t157.5 10q70 0 151.5 -9.5t155 -34
t120.5 -68t47 -111.5q0 -73 -70 -160.5t-157 -177.5zM604 593q-52 0 -115 -5t-108 -17q44 -56 96 -106.5t89.5 -82.5l37.5 -32l37 32.5t89 83t96 105.5q-47 12 -108.5 17t-113.5 5zM1069.38 0v260h91.5674v-260h-91.5674z" />
    <glyph glyph-name="uniFECD" unicode="&#x63a;" horiz-adv-x="1306" arabic-form="isolated" 
d="M507 1382l174 173l174 -173l-174 -174zM986 726q-67 39 -139.5 72t-131.5 33q-75 0 -127.5 -44t-52.5 -117q0 -58 27 -103.5t56 -74.5q84 14 158 21.5t136 7.5q59 0 115.5 -4.5t110.5 -10.5l-33 -247q-32 1 -73 2t-61 1q-237 0 -384 -50t-215 -135.5t-68 -193.5
q0 -140 111.5 -222.5t350.5 -82.5q112 0 213 21t201 67l61 -245q-109 -53 -226.5 -74t-259.5 -21q-141 0 -267 33.5t-222.5 101t-152 171t-55.5 244.5q0 167 76.5 302t241.5 221q-48 67 -71 138t-23 146q0 108 59 200.5t155.5 149t208.5 56.5q102 0 194.5 -41.5
t184.5 -104.5z" />
    <glyph glyph-name="uniFECE" unicode="&#x63a;" horiz-adv-x="1199" arabic-form="final" 
d="M429 1261l174 173l174 -173l-174 -174zM393 350q-64 62 -123.5 128.5t-98 129.5t-38.5 116q0 67 46 110.5t119.5 68t156.5 34.5t158 10q69 0 150.5 -9.5t155 -34t120.5 -68t47 -111.5q0 -53 -42.5 -118t-106.5 -134t-129 -132q73 -43 163 -61.5t188 -18.5h60v-260h-60
q-289 0 -569 192q-141 -83 -213 -168t-72 -182q0 -109 95 -181.5t294 -72.5q91 0 177.5 14.5t173.5 50.5l61 -243q-93 -41 -193 -57t-224 -16q-177 0 -320 56t-227 168t-84 281q0 159 96.5 284t238.5 224zM610 710q-51 0 -114 -5t-109 -17q44 -56 96 -106.5t89.5 -82.5
l37.5 -32l37.5 32t89 83t95.5 106q-47 12 -108 17t-114 5z" />
    <glyph glyph-name="uniFECF" unicode="&#x63a;" horiz-adv-x="1034" arabic-form="initial" 
d="M341 1229l174 173l174 -173l-174 -174zM128 504q0 114 58.5 211t155 156t209.5 59q107 0 197 -41.5t182 -104.5l-98 -217q-67 39 -136.5 72t-133.5 33q-70 0 -125.5 -51.5t-55.5 -124.5q0 -49 22.5 -91.5t51 -72.5t48.5 -41q6 0 16 3l457 121v-261
q-241 -75 -462.5 -114.5t-428.5 -39.5h-105v260h224q-31 52 -53.5 115.5t-22.5 128.5z" />
    <glyph glyph-name="uniFED0" unicode="&#x63a;" horiz-adv-x="1141" arabic-form="medial" 
d="M426 1146l174 173l174 -173l-174 -174zM853 271q47 -8 102.5 -9.5t89.5 -1.5h46v-260h-46q-99 0 -220.5 23t-221.5 75q-105 -51 -244 -74.5t-272 -23.5h-107v260h110q53 0 129.5 1.5t134.5 9.5q-57 59 -109 118.5t-85 115.5t-33 104q0 67 46 110.5t119 68t156.5 34.5
t157.5 10q70 0 151.5 -9.5t155 -34t120.5 -68t47 -111.5q0 -73 -70 -160.5t-157 -177.5zM604 593q-52 0 -115 -5t-108 -17q44 -56 96 -106.5t89.5 -82.5l37.5 -32l37 32.5t89 83t96 105.5q-47 12 -108.5 17t-113.5 5zM1069.38 0v260h91.5674v-260h-91.5674z" />
    <glyph glyph-name="uniFED1" unicode="&#x641;" horiz-adv-x="1781" arabic-form="isolated" 
d="M1129 1401l174 173l174 -173l-174 -174zM1476 390q-72 -16 -148 -16q-173 0 -269.5 71t-96.5 229q0 75 21.5 153.5t66.5 145t114 107.5t164 41q107 0 182.5 -54.5t122 -145t68.5 -200.5t22 -220q-1 -203 -65.5 -311t-196.5 -149t-334 -41h-290q-370 0 -574.5 129
t-204.5 395q0 83 21.5 159.5t50.5 145.5l226 -85q-16 -44 -29.5 -99t-13.5 -106q0 -138 126 -208.5t394 -70.5h315q165 0 239.5 27.5t88.5 102.5zM1469 628q-17 97 -52.5 167t-94.5 70q-39 0 -66 -31t-40.5 -74.5t-13.5 -82.5q0 -37 29.5 -51.5t107.5 -14.5q32 0 64.5 4.5
t65.5 12.5z" />
    <glyph glyph-name="uniFED2" unicode="&#x641;" horiz-adv-x="1902" arabic-form="final" 
d="M1259 1177l174 173l174 -173l-174 -174zM984 260h79t87 2q-38 53 -62 111.5t-24 120.5q0 70 31.5 139.5t85.5 126.5t122 91.5t141 34.5q75 0 144.5 -34t124 -91.5t86 -127.5t31.5 -141q0 -63 -24 -120.5t-63 -110.5q26 -1 46.5 -1h37.5h95v-260h-92q-49 0 -117 8.5
t-139 23.5t-131 35q-61 -21 -149 -36t-173 -23t-137 -8h-144q-242 0 -417.5 57t-270 173t-94.5 294q0 83 21.5 160t51.5 145l226 -85q-17 -44 -30.5 -99.5t-13.5 -105.5q1 -139 122 -209t395 -70h154zM1444 631q-25 0 -55.5 -23t-53.5 -55.5t-23 -62.5q0 -34 22.5 -70.5
t54 -67t58.5 -47.5q49 25 92 78t43 109q0 29 -24.5 61.5t-57 55t-56.5 22.5z" />
    <glyph glyph-name="uniFED3" unicode="&#x641;" horiz-adv-x="918" arabic-form="initial" 
d="M261 1401l174 173l174 -173l-174 -174zM612 391q-72 -16 -148 -16q-172 0 -269 71.5t-97 227.5q0 75 21.5 154t66 145.5t114 107.5t164.5 41q107 0 182 -54.5t122 -144.5t69 -200t22 -221q0 -202 -64 -311t-196 -150t-334 -41h-285v260h296q164 0 242 28t94 103zM605 629
q-16 97 -51.5 167t-95.5 70q-39 0 -65.5 -31t-40 -75t-13.5 -82q0 -37 29.5 -51.5t107.5 -14.5q32 0 64.5 4.5t64.5 12.5z" />
    <glyph glyph-name="uniFED4" unicode="&#x641;" horiz-adv-x="972" arabic-form="medial" 
d="M324 1177l174 173l174 -173l-174 -174zM813 261q26 -1 46.5 -1h37.5h95v-260h-92q-49 0 -117 8.5t-139 23.5t-131 35q-61 -21 -134 -36t-143 -23t-122 -8h-134v260h135h49t56 2q-38 53 -62 111.5t-24 120.5q0 70 31.5 139.5t85.5 126.5t122 91.5t141 34.5q75 0 144.5 -34
t124 -91.5t86 -127.5t31.5 -141q0 -63 -24 -120.5t-63 -110.5zM514 631q-24 0 -55 -23t-54 -55.5t-23 -62.5q0 -34 22.5 -70.5t54 -67t59.5 -47.5q48 25 91 78t43 109q0 29 -24.5 61.5t-57 55t-56.5 22.5z" />
    <glyph glyph-name="uniFED5" unicode="&#x642;" horiz-adv-x="1437" arabic-form="isolated" 
d="M963 1117l163 162l163 -163l-163 -163zM626 1117l163 162l163 -162l-163 -164zM394 545q-35 -95 -59.5 -194.5t-24.5 -189.5q0 -187 97 -275t315 -88q148 0 235.5 34.5t128.5 101t49 164.5q-38 -9 -77 -14t-84 -5q-170 0 -266.5 78.5t-96.5 231.5q0 72 21 150t65.5 146.5
t114 111t166.5 42.5q111 0 188 -57t124 -151.5t68 -208t21 -226.5q0 -325 -168.5 -490.5t-489.5 -165.5q-312 0 -487.5 159.5t-175.5 456.5q0 119 30.5 242t77.5 239zM1118 346q-15 97 -51 167.5t-96 70.5q-42 0 -68.5 -28.5t-39 -69.5t-12.5 -77q0 -41 27.5 -60.5
t108.5 -19.5q64 0 131 17z" />
    <glyph glyph-name="uniFED6" unicode="&#x642;" horiz-adv-x="1528" arabic-form="final" 
d="M1446.78 0v260h101.338v-260h-101.338zM959 1068l163 162l163 -163l-163 -163zM622 1068l163 162l163 -162l-163 -164zM1127 0h-100q-192 0 -298 84t-106 252q0 79 22 159t67 147.5t114.5 108.5t165.5 41q164 0 265 -138t124 -394h83v-260h-97q-37 -256 -191.5 -388
t-454.5 -132q-312 0 -487.5 159.5t-175.5 456.5q0 120 30.5 242t77.5 239l228 -92q-35 -94 -59.5 -194t-24.5 -190q0 -189 94 -276t314 -87q209 0 298 64.5t111 197.5zM1138 260q-15 159 -55.5 217t-99.5 58q-41 0 -66.5 -32t-37 -77.5t-11.5 -84.5q0 -42 28 -61.5
t121 -19.5h121z" />
    <glyph glyph-name="uniFED7" unicode="&#x642;" horiz-adv-x="918" arabic-form="initial" 
d="M432 1398l163 162l163 -163l-163 -163zM95 1398l163 162l163 -162l-163 -164zM612 391q-72 -16 -148 -16q-172 0 -269 71.5t-97 227.5q0 75 21.5 154t66 145.5t114 107.5t164.5 41q107 0 182 -54.5t122 -144.5t69 -200t22 -221q0 -202 -64 -311t-196 -150t-334 -41h-285
v260h296q164 0 242 28t94 103zM605 629q-16 97 -51.5 167t-95.5 70q-39 0 -65.5 -31t-40 -75t-13.5 -82q0 -37 29.5 -51.5t107.5 -14.5q32 0 64.5 4.5t64.5 12.5z" />
    <glyph glyph-name="uniFED8" unicode="&#x642;" horiz-adv-x="972" arabic-form="medial" 
d="M507 1169l163 162l163 -163l-163 -163zM170 1169l163 162l163 -162l-163 -164zM813 261q26 -1 46.5 -1h37.5h95v-260h-92q-49 0 -117 8.5t-139 23.5t-131 35q-61 -21 -134 -36t-143 -23t-122 -8h-134v260h135h49t56 2q-38 53 -62 111.5t-24 120.5q0 70 31.5 139.5
t85.5 126.5t122 91.5t141 34.5q75 0 144.5 -34t124 -91.5t86 -127.5t31.5 -141q0 -63 -24 -120.5t-63 -110.5zM514 631q-24 0 -55 -23t-54 -55.5t-23 -62.5q0 -34 22.5 -70.5t54 -67t59.5 -47.5q48 25 91 78t43 109q0 29 -24.5 61.5t-57 55t-56.5 22.5z" />
    <glyph glyph-name="uniFED9" unicode="&#x643;" horiz-adv-x="1831" arabic-form="isolated" 
d="M978 260q177 0 278 16t147.5 48t58.5 78.5t12 107.5v876h249v-874q0 -128 -33.5 -224t-115.5 -160t-225.5 -96t-363.5 -32h-145q-242 0 -417.5 57t-270 173.5t-94.5 293.5q0 83 21.5 159.5t50.5 145.5l226 -85q-16 -44 -29.5 -99t-13.5 -106q1 -139 122 -209t395 -70h148
zM723 633q70 1 136 6.5t108.5 19.5t42.5 41q0 40 -27.5 53.5t-68 18.5t-81 15.5t-68 41.5t-27.5 100q0 75 54.5 117.5t137 60t167.5 18.5v-124q-50 -4 -105 -12.5t-93.5 -23.5t-38.5 -37q0 -19 27 -24.5t67 -11t80 -22t67 -55t27 -111.5q0 -71 -36 -111t-95 -57.5
t-130.5 -22t-143.5 -4.5v124z" />
    <glyph glyph-name="uniFEDA" unicode="&#x643;" horiz-adv-x="1891" arabic-form="final" 
d="M978 260q177 0 278 16t147.5 48t58.5 78.5t12 107.5v876h249v-874q0 -97 9.5 -152t41.5 -77.5t102 -22.5h35v-260h-33q-124 0 -197.5 37t-111.5 115q-69 -61 -144.5 -94t-180 -45.5t-259.5 -12.5h-145q-242 0 -417.5 57t-270 173.5t-94.5 293.5q0 83 21.5 159.5
t50.5 145.5l226 -85q-16 -44 -29.5 -99.5t-13.5 -105.5q1 -139 122 -209t395 -70h148zM723 633q70 1 136 6.5t108.5 19.5t42.5 41q0 40 -27.5 53.5t-68 18.5t-81 15.5t-68 41.5t-27.5 100q0 75 54.5 117.5t137 60t167.5 18.5v-124q-50 -4 -105 -12.5t-93.5 -23.5t-38.5 -37
q0 -19 27 -24.5t67 -11t80 -22t67 -55t27 -111.5q0 -71 -36 -111t-95 -57.5t-130.5 -22t-143.5 -4.5v124z" />
    <glyph glyph-name="uniFEDB" unicode="&#x643;" horiz-adv-x="950" arabic-form="initial" 
d="M767 396q-1 -203 -151.5 -299.5t-449.5 -96.5h-186v260h185q140 0 215 16.5t103 47.5t28 75q0 54 -65 128.5t-167 163t-212 183.5q-33 28 -49 68t-16 81q0 63 33.5 113t96.5 74l757 282v-261l-593 -220q73 -58 154.5 -125.5t153.5 -144.5t117.5 -163t45.5 -182z" />
    <glyph glyph-name="uniFEDC" unicode="&#x643;" horiz-adv-x="1027" arabic-form="medial" 
d="M296 1011q87 -71 178.5 -148.5t168.5 -169.5t122 -206q47 -120 108 -173.5t145 -53.5h29v-260h-29q-106 0 -193.5 40.5t-154.5 115.5q-71 -81 -191 -118.5t-313 -37.5h-186v260h185q140 0 215 16.5t103 47.5t28 75q0 54 -65 128.5t-167 163t-212 183.5q-33 28 -49 68
t-16 81q0 63 33.5 113t96.5 74l757 282v-261z" />
    <glyph glyph-name="uniFEDD" unicode="&#x644;" horiz-adv-x="1377" arabic-form="isolated" 
d="M387 420q-33 -85 -55.5 -178t-22.5 -166q0 -180 86.5 -259t279.5 -79q174 0 258.5 87.5t84.5 282.5l3 1278h248l-1 -1239q0 -326 -150.5 -496.5t-443.5 -170.5q-294 0 -455 151.5t-161 444.5q0 98 28 214.5t72 222.5z" />
    <glyph glyph-name="uniFEDE" unicode="&#x644;" horiz-adv-x="1439" arabic-form="final" 
d="M387 420q-33 -85 -55.5 -178t-22.5 -166q0 -180 86.5 -259t279.5 -79q175 0 259.5 87.5t84.5 282.5l2 1278h248l-1 -953q0 -97 30.5 -135t129.5 -38h31v-260h-29q-57 0 -95 11t-71 32q-20 -272 -168.5 -417.5t-421.5 -145.5q-294 0 -455 151t-161 444q0 99 28 215.5
t72 222.5z" />
    <glyph glyph-name="uniFEDF" unicode="&#x644;" horiz-adv-x="588" arabic-form="initial" 
d="M-20 0v260h81q110 0 140 41.5t30 141.5v943h249v-942q0 -210 -99 -327t-321 -117h-80z" />
    <glyph glyph-name="uniFEE0" unicode="&#x644;" horiz-adv-x="650" arabic-form="medial" 
d="M348 121q-54 -60 -122 -90.5t-183 -30.5h-63v260h65q108 0 147 40.5t39 128.5v957h249v-957q0 -93 32.5 -131t125.5 -38h32v-260h-30q-101 0 -170 31t-122 90z" />
    <glyph glyph-name="uniFEE1" unicode="&#x645;" horiz-adv-x="1230" arabic-form="isolated" 
d="M74 -655q-6 94 -9.5 189.5t-3.5 182.5q0 120 10 234.5t41 210t94 160t168 85.5q75 181 171.5 276.5t234.5 95.5q121 0 209 -60t135.5 -158.5t47.5 -213.5q0 -103 -36 -187t-109.5 -133.5t-183.5 -49.5q-81 0 -181 45q-33 15 -83 43t-95.5 51t-66.5 23q-47 0 -75 -86.5
t-28 -307.5q0 -111 5 -209t12 -191h-257zM614 336q68 -49 131.5 -75.5t101.5 -26.5q78 0 78 101q0 82 -40 131.5t-105 49.5q-47 0 -88 -50.5t-78 -129.5z" />
    <glyph glyph-name="uniFEE2" unicode="&#x645;" horiz-adv-x="1296" arabic-form="final" 
d="M780 779q112 0 190.5 -49t126 -131t67.5 -181q20 -90 51.5 -124t72.5 -34h28v-260h-28q-57 0 -109 19t-92 62q-44 -56 -104.5 -80t-139.5 -24q-81 0 -181 45q-33 15 -83 43t-95.5 51t-66.5 23q-47 0 -75 -86.5t-28 -307.5q0 -111 5 -209t12 -191h-257q-6 94 -9.5 189.5
t-3.5 182.5q0 120 10 234.5t41 210t94 160t168 85.5q75 181 171.5 276.5t234.5 95.5zM847 234q78 0 78 101q0 82 -40 131.5t-105 49.5q-47 0 -88 -50.5t-78 -129.5q68 -49 131.5 -75.5t101.5 -26.5z" />
    <glyph glyph-name="uniFEE3" unicode="&#x645;" horiz-adv-x="1048" arabic-form="initial" 
d="M305 128q-61 -61 -131.5 -94.5t-150.5 -33.5h-42v260h37q68 0 114.5 59t86.5 142q74 150 165.5 232t212.5 82q120 0 208.5 -59.5t136.5 -157t48 -211.5q0 -168 -87.5 -268.5t-248.5 -100.5q-98 0 -182.5 39t-166.5 111zM439 347q54 -58 110.5 -86.5t99.5 -28.5
q97 0 97 100q0 88 -41 135.5t-104 47.5q-43 0 -84.5 -47t-77.5 -121z" />
    <glyph glyph-name="uniFEE4" unicode="&#x645;" horiz-adv-x="1112" arabic-form="medial" 
d="M305 128q-62 -62 -132 -95t-150 -33h-43v260h37q69 1 115.5 60t85.5 141q73 150 164.5 232t213.5 82q114 0 193 -49.5t127 -131t68 -176.5q19 -90 50.5 -124t70.5 -34h27v-260h-28q-56 0 -107 20t-90 62q-48 -56 -110 -80t-143 -24q-98 0 -182.5 39t-166.5 111zM439 347
q54 -58 110.5 -86.5t99.5 -28.5q97 0 97 100q0 88 -41 135.5t-104 47.5q-43 0 -84.5 -47t-77.5 -121z" />
    <glyph glyph-name="uniFEE5" unicode="&#x646;" horiz-adv-x="1447" arabic-form="isolated" 
d="M533 742l174 173l174 -173l-174 -174zM1032 602l251 88q49 -124 77.5 -255t28.5 -255q0 -204 -87.5 -344.5t-238.5 -213t-342 -72.5q-309 0 -486 160t-177 456q0 119 30.5 242t77.5 239l228 -92q-35 -95 -59.5 -194.5t-24.5 -189.5q0 -186 95.5 -274.5t312.5 -88.5
q209 0 313.5 97t105.5 305q0 99 -30.5 199.5t-74.5 192.5z" />
    <glyph glyph-name="uniFEE6" unicode="&#x646;" horiz-adv-x="1528" arabic-form="final" 
d="M534 656l174 173l174 -173l-174 -174zM1137 140q0 99 -31 199.5t-74 192.5l249 86l85 -264q16 -52 45.5 -73t96.5 -21h40v-260h-36q-44 0 -76.5 8t-58.5 22q-16 -179 -106 -301.5t-233 -185.5t-317 -63q-309 0 -486 159.5t-177 456.5q0 120 31 242.5t77 239.5l228 -94
q-35 -94 -59.5 -193.5t-24.5 -189.5q0 -187 95.5 -275t312.5 -88q209 0 313.5 96t105.5 306z" />
    <glyph glyph-name="uniFEE7" unicode="&#x646;" horiz-adv-x="592" arabic-form="initial" 
d="M534 456q0 -213 -111.5 -334.5t-323.5 -121.5h-120v260h120q103 0 143.5 40.5t40.5 152.5q0 64 -14 153.5t-31 160.5l239 58q26 -85 41.5 -184.5t15.5 -184.5zM98 1100l174 173l174 -173l-174 -174z" />
    <glyph glyph-name="uniFEE8" unicode="&#x646;" horiz-adv-x="687" arabic-form="medial" 
d="M707 0h-24q-184 0 -275 119q-57 -60 -136 -89.5t-171 -29.5h-121v260h121q107 0 144.5 39t37.5 138q0 54 -3.5 113t-6.5 113l243 30l19 -288q5 -79 39 -112t111 -33h22v-260zM153 1015l174 173l174 -173l-174 -174z" />
    <glyph glyph-name="uniFEE9" unicode="&#x647;" horiz-adv-x="922" arabic-form="isolated" 
d="M360 1018q146 -111 260 -218.5t179 -215.5t65 -220q0 -110 -52 -191t-143.5 -125t-207.5 -44q-177 0 -290 90t-113 270q0 119 54.5 211.5t154.5 207.5l-49 43zM448 618q-77 -73 -110 -136.5t-33 -112.5q0 -50 31 -79.5t124 -29.5q96 0 126.5 26t30.5 84q0 42 -39.5 107
t-129.5 141z" />
    <glyph glyph-name="uniFEEA" unicode="&#x647;" horiz-adv-x="1038" arabic-form="final" 
d="M58 452q0 162 129.5 280.5t372.5 198.5l-7 49l238 50l87 -632q19 -138 149 -138h31v-260h-35q-264 0 -343 212q-114 -80 -249 -80q-97 0 -182 33.5t-138 104.5t-53 182zM599 688q-155 -62 -221 -118t-66 -106q0 -42 24 -63t89 -21q76 0 136 41t60 101q0 26 -3 51z" />
    <glyph glyph-name="uniFEEB" unicode="&#x647;" horiz-adv-x="1369" arabic-form="initial" 
d="M568 1044q133 -65 264.5 -138t240 -155t173.5 -171.5t65 -186.5q0 -126 -56 -211.5t-154 -128.5t-222 -43q-99 0 -210 21t-183 44q-86 -31 -196.5 -53t-214.5 -22h-95v260h83q40 0 71 0.5t62 3.5q-83 100 -83 242q0 105 47 182t124.5 122.5t169.5 53.5q24 1 45 -1l-23 13
zM502 323q68 31 101 80t34 100q0 136 -133 136q-68 0 -105.5 -37t-37.5 -94q0 -53 35 -103.5t106 -81.5zM821 626q19 -24 26 -48t7 -55q0 -150 -94 -264q23 -2 47.5 -3t43.5 -1q108 0 156.5 33t48.5 102q0 39 -58.5 99.5t-176.5 136.5z" />
    <glyph glyph-name="uniFEEC" unicode="&#x647;" horiz-adv-x="1002" arabic-form="medial" 
d="M624 -548q-179 85 -289.5 218.5t-150.5 329.5h-204v260h187q8 120 28.5 231t62 197.5t112 137t178.5 50.5q138 0 219.5 -97t81.5 -245q0 -91 -38 -178t-101 -159.5t-137.5 -122.5t-147.5 -69q30 -126 125 -205q2 58 36 136t93.5 152t138.5 123t170 49h34v-260h-36
q-106 0 -159.5 -66.5t-53.5 -223.5q0 -26 1.5 -53.5t3.5 -53.5zM410 268q87 18 147.5 92.5t60.5 166.5q0 59 -23 77t-49 18q-49 0 -85.5 -77t-50.5 -277z" />
    <glyph glyph-name="uniFEED" unicode="&#x648;" horiz-adv-x="880" arabic-form="isolated" 
d="M553 12q-54 -12 -105 -12q-182 0 -286 83.5t-104 252.5q0 79 22 159t67.5 147.5t115 108.5t165.5 41q103 0 177.5 -51t122.5 -136.5t71 -189.5t23 -209q0 -306 -174 -497t-505 -252l-90 230q198 36 327 120t173 205zM573 270q-13 148 -54 206.5t-99 58.5q-43 0 -68.5 -32
t-37 -77.5t-11.5 -84.5q0 -46 28 -65.5t122 -19.5q62 0 120 14z" />
    <glyph glyph-name="uniFEEE" unicode="&#x648;" horiz-adv-x="938" arabic-form="final" 
d="M874.877 0v260h83.5098v-260h-83.5098zM427 792q174 0 270 -138t119 -394h80v-260h-97q-102 -440 -656 -543l-90 230q199 36 323.5 116t174.5 197h-89q-192 0 -298 84t-106 252q0 79 22 159t67 147.5t114.5 108.5t165.5 41zM573 260q-15 159 -55.5 217t-99.5 58
q-41 0 -66.5 -32t-37 -77.5t-11.5 -84.5q0 -42 25.5 -61.5t123.5 -19.5h121z" />
    <glyph glyph-name="uniFEEF" unicode="&#x649;" horiz-adv-x="1477" arabic-form="isolated" 
d="M413 537q-44 -108 -74 -221t-30 -204q0 -188 94.5 -271t310.5 -84q114 0 220 28t174 78t68 117q0 22 -8.5 29t-42.5 7h-151q-135 0 -210.5 75t-75.5 212q0 130 60 245t170.5 187t263.5 72q46 0 112 -12t123 -35l-46 -241q-43 13 -90 22.5t-99 9.5q-95 0 -148.5 -42.5
t-75 -98t-21.5 -94.5q0 -26 8.5 -35t38.5 -9h180q134 0 192.5 -81.5t58.5 -198.5q0 -155 -94 -265t-252 -168t-350 -58q-308 0 -484.5 156t-176.5 462q0 119 35.5 249t91.5 262z" />
    <glyph glyph-name="uniFEF0" unicode="&#x649;" horiz-adv-x="1559" arabic-form="final" 
d="M375 428q-28 -77 -46.5 -160t-18.5 -168q0 -201 98.5 -281.5t310.5 -80.5q124 0 225 30.5t160.5 75.5t59.5 89q0 20 -25 43.5t-99 23.5h-130q-46 0 -65.5 21t-27.5 54l-26 110q-11 46 -0.5 60.5t49.5 14.5h617v-260h-70q9 -25 10.5 -42.5t1.5 -31.5q0 -134 -89 -234
t-243 -155.5t-347 -55.5q-309 0 -485 157t-176 463q0 97 25.5 213.5t64.5 205.5zM1434.1 0v260h144.993v-260h-144.993z" />
    <glyph glyph-name="uniFEF1" unicode="&#x64a;" horiz-adv-x="1477" arabic-form="isolated" 
d="M725 -789l163 162l163 -163l-163 -163zM388 -789l163 162l163 -162l-163 -164zM413 537q-44 -108 -74 -221t-30 -204q0 -188 94.5 -271t310.5 -84q114 0 220 28t174 78t68 117q0 22 -8.5 29t-42.5 7h-151q-135 0 -210.5 75t-75.5 212q0 130 60 245t170.5 187t263.5 72
q46 0 112 -12t123 -35l-46 -241q-43 13 -90 22.5t-99 9.5q-95 0 -148.5 -42.5t-75 -98t-21.5 -94.5q0 -26 8.5 -35t38.5 -9h180q134 0 192.5 -81.5t58.5 -198.5q0 -155 -94 -265t-252 -168t-350 -58q-308 0 -484.5 156t-176.5 462q0 119 35.5 249t91.5 262z" />
    <glyph glyph-name="uniFEF2" unicode="&#x64a;" horiz-adv-x="1559" arabic-form="final" 
d="M375 428q-28 -77 -46.5 -160t-18.5 -168q0 -201 98.5 -281.5t310.5 -80.5q124 0 225 30.5t160.5 75.5t59.5 89q0 20 -25 43.5t-99 23.5h-130q-46 0 -65.5 21t-27.5 54l-26 110q-11 46 -0.5 60.5t49.5 14.5h617v-260h-70q9 -25 10.5 -42.5t1.5 -31.5q0 -134 -89 -234
t-243 -155.5t-347 -55.5q-309 0 -485 157t-176 463q0 97 25.5 213.5t64.5 205.5zM1434.1 0v260h144.993v-260h-144.993zM717 -805l163 162l163 -163l-163 -163zM380 -805l163 162l163 -162l-163 -164z" />
    <glyph glyph-name="uniFEF3" unicode="&#x64a;" horiz-adv-x="672" arabic-form="initial" 
d="M557 826q26 -85 41.5 -185t15.5 -185q0 -237 -123 -346.5t-362 -109.5h-149v260h149q95 0 145.5 12.5t69.5 53.5t19 127q0 64 -14 153.5t-31 160.5zM247 -303l163 162l163 -163l-163 -163zM-90 -303l163 162l163 -162l-163 -164z" />
    <glyph glyph-name="uniFEF4" unicode="&#x64a;" horiz-adv-x="767" arabic-form="medial" 
d="M787 0h-24q-184 0 -275 120q-61 -62 -153 -91t-206 -29h-149v260h151q95 0 145 13.5t68.5 50t18.5 103.5q0 58 -3.5 120t-7.5 117l244 29l19 -289q5 -78 39 -111t111 -33h22v-260zM247 -303l163 162l163 -163l-163 -163zM-90 -303l163 162l163 -162l-163 -164z" />
    <glyph glyph-name=".notdef" horiz-adv-x="1024" 
d="M102 -410v2048h820v-2048h-820zM204 -308h616v1844h-616v-1844z" />
    <glyph glyph-name=".null" 
 />
    <glyph glyph-name="nonmarkingreturn" horiz-adv-x="682" 
 />
    <glyph glyph-name="uni0000" 
 />
    <glyph glyph-name="uni0000" 
 />
    <glyph glyph-name="uni0002" 
 />
    <glyph glyph-name="uni000D" unicode="&#xd;" horiz-adv-x="510" 
 />
    <glyph glyph-name="space" unicode=" " horiz-adv-x="540" 
 />
    <glyph glyph-name="exclam" unicode="!" horiz-adv-x="632" 
d="M180 1376h276l-17 -904h-241zM143 174q0 71 50.5 122.5t122.5 51.5t122.5 -51.5t50.5 -122.5t-51 -122t-122 -51t-122 49.5t-51 123.5z" />
    <glyph glyph-name="quotedbl" unicode="&#x22;" horiz-adv-x="657" 
d="M266 1398l-40 -411h-162v549h202v-138zM591 1398l-39 -411h-162v549h201v-138z" />
    <glyph glyph-name="numbersign" unicode="#" horiz-adv-x="1220" 
d="M667 410h-193l-72 -410h-183l72 410h-227v172h257l50 284h-232v174h263l73 416h182l-73 -416h194l73 416h183l-73 -416h219v-174h-250l-50 -284h224v-172h-254l-72 -410h-183zM504 582h193l50 284h-194z" />
    <glyph glyph-name="dollar" unicode="$" horiz-adv-x="1175" 
d="M790 383q0 82 -45.5 130.5t-154.5 89.5t-188 81.5t-135.5 93t-88 123.5t-31.5 169q0 169 108 277t287 126v214h160v-217q177 -25 277 -147.5t100 -317.5h-289q0 120 -49.5 179.5t-132.5 59.5q-82 0 -127 -46.5t-45 -128.5q0 -76 44 -122t163.5 -94t196.5 -90.5t130 -96
t81 -122t28 -159.5q0 -170 -106 -276t-292 -125v-199h-159v198q-205 22 -317.5 145.5t-112.5 328.5h289q0 -119 56.5 -182.5t162.5 -63.5q88 0 139 46.5t51 125.5z" />
    <glyph glyph-name="percent" unicode="%" horiz-adv-x="1512" 
d="M95 1176q0 134 87 217.5t228 83.5q143 0 230 -82.5t87 -223.5v-72q0 -135 -87 -217t-228 -82q-142 0 -229.5 82.5t-87.5 222.5v71zM287 1099q0 -60 34.5 -96.5t90.5 -36.5t89 37t33 99v74q0 60 -33 97t-91 37q-55 0 -89 -36.5t-34 -101.5v-73zM791 357q0 135 88 217.5
t228 82.5q142 0 229.5 -81.5t87.5 -224.5v-72q0 -134 -86 -216.5t-229 -82.5q-144 0 -231 83t-87 220v74zM983 279q0 -55 36 -94t90 -39q122 0 122 135v76q0 60 -34 96.5t-90 36.5t-90 -36.5t-34 -99.5v-75zM469 109l-141 76l711 1138l141 -76z" />
    <glyph glyph-name="ampersand" unicode="&#x26;" horiz-adv-x="1344" 
d="M71 392q0 101 56.5 187t207.5 191q-65 87 -102 163.5t-37 159.5q0 170 107.5 276.5t289.5 106.5q163 0 267.5 -97t104.5 -242q0 -174 -176 -307l-112 -81l251 -292q59 116 59 256h246q0 -284 -131 -460l218 -253h-328l-75 86q-161 -106 -370 -106q-216 0 -346 113.5
t-130 298.5zM561 212q104 0 197 58l-287 332l-21 -15q-89 -76 -89 -179q0 -87 55.5 -141.5t144.5 -54.5zM455 1097q0 -75 88 -189l77 51q59 38 81.5 74t22.5 86t-37 87t-95 37q-62 0 -99.5 -40t-37.5 -106z" />
    <glyph glyph-name="quotesingle" unicode="'" horiz-adv-x="331" 
d="M275 1389l-29 -404h-183v551h212v-147z" />
    <glyph glyph-name="parenleft" unicode="(" horiz-adv-x="719" 
d="M124 592q0 229 61 436t180 366.5t258 221.5l56 -156q-146 -108 -228 -334t-82 -528v-31q0 -303 81 -530t229 -339l-56 -153q-136 61 -253.5 215.5t-179.5 356.5t-66 422v53z" />
    <glyph glyph-name="parenright" unicode=")" horiz-adv-x="722" 
d="M609 569q0 -226 -65 -435t-187 -369t-261 -220l-56 153q142 107 224 330t85 513v53q0 299 -81.5 527t-227.5 342l56 153q136 -59 256.5 -214t187 -361t69.5 -427v-45z" />
    <glyph glyph-name="asterisk" unicode="*" horiz-adv-x="928" 
d="M341 962l-314 89l59 181l311 -125l-20 349h196l-20 -356l303 123l59 -183l-320 -89l210 -266l-159 -113l-182 292l-180 -282l-159 108z" />
    <glyph glyph-name="plus" unicode="+" horiz-adv-x="1118" 
d="M694 815h361v-261h-361v-408h-275v408h-362v261h362v391h275v-391z" />
    <glyph glyph-name="comma" unicode="," horiz-adv-x="500" 
d="M186 -365l-151 79l36 65q67 122 69 243v224h244l-1 -200q-1 -111 -56 -224t-141 -187z" />
    <glyph glyph-name="hyphen" unicode="-" horiz-adv-x="794" 
d="M673 507h-563v233h563v-233z" />
    <glyph glyph-name="period" unicode="." horiz-adv-x="632" 
d="M143 174q0 71 50.5 122.5t122.5 51.5t122.5 -51.5t50.5 -122.5t-51 -122t-122 -51t-122 49.5t-51 123.5z" />
    <glyph glyph-name="slash" unicode="/" horiz-adv-x="765" 
d="M202 -125h-215l536 1581h215z" />
    <glyph glyph-name="zero" unicode="0" horiz-adv-x="902" 
d="M105 493q0 95 47 173.5t125.5 125.5t173.5 47t173.5 -47t125.5 -125.5t47 -173.5t-47 -173.5t-125.5 -125.5t-173.5 -47t-173.5 47t-125.5 125.5t-47 173.5zM318 493q0 -56 39 -95t94 -39t94 39t39 95q0 55 -38.5 93.5t-94.5 38.5t-94.5 -38.5t-38.5 -93.5z" />
    <glyph glyph-name="one" unicode="1" horiz-adv-x="651" 
d="M295 1351q107 -238 164.5 -524t57.5 -622v-205h-250v208q0 338 -53 597.5t-151 459.5z" />
    <glyph glyph-name="two" unicode="2" horiz-adv-x="1114" 
d="M267 208q0 338 -53 597.5t-151 460.5l233 84q26 -69 52.5 -138t52.5 -138q33 -84 81.5 -121.5t141.5 -37.5q166 0 166 215q0 50 -8 101.5t-15 93.5l250 28q6 -48 12.5 -99.5t6.5 -113.5q0 -214 -105.5 -346t-304.5 -132q-77 0 -140 22q16 -126 23.5 -249t7.5 -230v-205
h-250v208z" />
    <glyph glyph-name="three" unicode="3" horiz-adv-x="1411" 
d="M267 208q0 338 -53 597.5t-151 460.5l234 84q30 -85 61 -169.5t62 -170.5q34 -95 133 -95q51 0 77.5 46t27.5 180q0 34 0.5 67t0.5 67l233 19q1 -36 2.5 -72t2.5 -73q5 -138 35 -186t67 -48q49 0 69 41t20 118q0 86 -9 140t-19 111l251 30q7 -61 14.5 -121.5t7.5 -153.5
q0 -115 -35.5 -210t-110.5 -151.5t-192 -56.5q-126 0 -222 94q-48 -48 -101 -71t-104 -23q-20 0 -40.5 3t-39.5 11q15 -123 22 -240.5t7 -230.5v-205h-250v208z" />
    <glyph glyph-name="four" unicode="4" horiz-adv-x="1193" 
d="M298 1350l86 -244q17 -48 25 -63.5t15 -23.5q20 82 68 157.5t125 123t184 47.5q113 0 176 -34t112 -74l-83 -221q-44 28 -86 50.5t-108 22.5q-56 0 -96.5 -31.5t-62 -80.5t-21.5 -103q0 -19 30 -29.5t70.5 -15t71.5 -4.5q76 0 149 23.5t138 49.5l34 -251
q-70 -31 -143.5 -53t-156.5 -22q-107 0 -190.5 25t-145.5 66q14 -127 21 -248.5t7 -211.5v-205h-250v208q0 338 -53 597.5t-152 460.5z" />
    <glyph glyph-name="five" unicode="5" horiz-adv-x="1246" 
d="M529 1373q210 -194 352.5 -361.5t215.5 -325t73 -321.5q0 -180 -84 -272.5t-232 -92.5q-73 0 -133.5 37.5t-95.5 97.5q-33 -61 -91.5 -98t-136.5 -37q-144 0 -232.5 95t-88.5 270q0 134 50 252t132.5 236.5t179.5 251.5l-61 61zM396 250q53 0 81 48.5t51 168.5h191
q19 -119 49 -168t86 -49q31 0 51.5 24t20.5 90q0 132 -73 265.5t-233 297.5q-145 -181 -222.5 -314t-77.5 -249q0 -61 24.5 -87.5t51.5 -26.5z" />
    <glyph glyph-name="six" unicode="6" horiz-adv-x="1009" 
d="M533 1089q-48 0 -90.5 -29t-69 -73.5t-26.5 -90.5q0 -20 20 -48t76.5 -53t165.5 -36h4.5h4.5q72 46 130 78t137 71l70 -241q-140 -70 -245 -162.5t-199.5 -227t-205.5 -328.5l-228 102q58 116 108.5 202t103.5 157t118 142q-152 38 -233 130.5t-81 206.5q0 111 52 215.5
t148.5 172.5t231.5 68q83 0 152.5 -31t129.5 -76l-82 -222q-42 27 -85.5 50t-106.5 23z" />
    <glyph glyph-name="seven" unicode="7" horiz-adv-x="1246" 
d="M509 0q-72 408 -194 703.5t-272 526.5l227 122q102 -173 196.5 -399.5t156.5 -498.5q62 273 156.5 499t196.5 399l227 -122q-151 -231 -272 -526.5t-193 -703.5h-229z" />
    <glyph glyph-name="eight" unicode="8" horiz-adv-x="1246" 
d="M509 1325h229q72 -408 193.5 -703.5t271.5 -526.5l-227 -122q-102 173 -197 399.5t-156 498.5q-62 -273 -156.5 -499t-196.5 -399l-227 122q151 231 272.5 526.5t193.5 703.5z" />
    <glyph glyph-name="nine" unicode="9" horiz-adv-x="1026" 
d="M67 910q0 105 48.5 203.5t135.5 162t201 63.5q150 0 235 -73t122 -193t45 -261q8 -162 14.5 -294t11.5 -256t8 -262h-248q-2 73 -5 173t-6.5 205t-6.5 194q-25 -5 -60 -10t-79 -5q-196 0 -306 90.5t-110 262.5zM451 1085q-58 0 -98 -54t-40 -121q0 -50 31 -76.5
t142 -26.5q25 0 60 5.5t59 10.5q-5 75 -16.5 134t-42 93.5t-95.5 34.5z" />
    <glyph glyph-name="colon" unicode=":" horiz-adv-x="632" 
d="M143 794q0 71 50.5 122.5t122.5 51.5t122.5 -51.5t50.5 -122.5t-51 -122t-122 -51t-122 49.5t-51 123.5zM143 174q0 71 50.5 122.5t122.5 51.5t122.5 -51.5t50.5 -122.5t-51 -122t-122 -51t-122 49.5t-51 123.5z" />
    <glyph glyph-name="semicolon" unicode=";" horiz-adv-x="537" 
d="M125 993q0 71 50.5 122.5t122.5 51.5t122.5 -51.5t50.5 -122.5t-51 -122t-122 -51t-122 49.5t-51 123.5zM208 -365l-151 79l36 65q67 122 69 243v224h244l-1 -200q-1 -111 -56 -224t-141 -187z" />
    <glyph glyph-name="less" unicode="&#x3c;" horiz-adv-x="1042" 
d="M345 618l570 -201v-280l-861 365v236l861 365v-280z" />
    <glyph glyph-name="equal" unicode="=" horiz-adv-x="1172" 
d="M1030 746h-894v236h894v-236zM1030 313h-894v236h894v-236z" />
    <glyph glyph-name="greater" unicode="&#x3e;" horiz-adv-x="1058" 
d="M701 621l-581 203v278l871 -365v-235l-871 -366v279z" />
    <glyph glyph-name="question" unicode="?" horiz-adv-x="1019" 
d="M347 447q0 140 34 223t124.5 163.5t120.5 131t30 106.5q0 169 -156 169q-74 0 -118.5 -45.5t-46.5 -125.5h-290q2 191 123.5 299t331.5 108q212 0 329 -102.5t117 -289.5q0 -85 -38 -160.5t-133 -167.5l-81 -77q-76 -73 -87 -171l-4 -61h-256zM318 140q0 67 45.5 110.5
t116.5 43.5t116.5 -43.5t45.5 -110.5q0 -66 -44.5 -109t-117.5 -43t-117.5 43t-44.5 109z" />
    <glyph glyph-name="at" unicode="@" horiz-adv-x="1833" 
d="M1749 536q-11 -256 -126.5 -406.5t-310.5 -150.5q-86 0 -148.5 37t-94.5 106q-100 -140 -261 -140q-146 0 -226 123t-60 325q18 165 83.5 293.5t165.5 197.5t216 69q143 0 244 -66l63 -43l-51 -578q-10 -79 17.5 -121t87.5 -42q92 0 154 107.5t68 281.5
q17 349 -140.5 536.5t-466.5 187.5q-193 0 -344 -98t-238 -278.5t-98 -413.5q-16 -354 142 -547.5t473 -193.5q83 0 174 18.5t157 49.5l38 -154q-61 -40 -164.5 -64.5t-208.5 -24.5q-264 0 -450 106.5t-277.5 314t-79.5 495.5q12 276 126 495t310.5 338.5t443.5 119.5
q251 0 432 -107.5t271 -307.5t79 -465zM744 430q-11 -132 23 -200.5t110 -68.5q49 0 93 43t73 124l42 473q-39 13 -80 13q-115 0 -178.5 -98t-82.5 -286z" />
    <glyph glyph-name="A" unicode="A" horiz-adv-x="1378" 
d="M952 300h-526l-100 -300h-319l542 1456h278l545 -1456h-319zM507 543h364l-183 545z" />
    <glyph glyph-name="B" unicode="B" horiz-adv-x="1307" 
d="M130 0v1456h510q265 0 402 -101.5t137 -297.5q0 -107 -55 -188.5t-153 -119.5q112 -28 176.5 -113t64.5 -208q0 -210 -134 -318t-382 -110h-566zM430 634v-393h257q106 0 165.5 50.5t59.5 139.5q0 200 -207 203h-275zM430 846h222q227 4 227 181q0 99 -57.5 142.5
t-181.5 43.5h-210v-367z" />
    <glyph glyph-name="C" unicode="C" horiz-adv-x="1340" 
d="M1273 485q-17 -235 -173.5 -370t-412.5 -135q-280 0 -440.5 188.5t-160.5 517.5v89q0 210 74 370t211.5 245.5t319.5 85.5q252 0 406 -135t178 -379h-300q-11 141 -78.5 204.5t-205.5 63.5q-150 0 -224.5 -107.5t-76.5 -333.5v-110q0 -236 71.5 -345t225.5 -109
q139 0 207.5 63.5t78.5 196.5h300z" />
    <glyph glyph-name="D" unicode="D" horiz-adv-x="1331" 
d="M130 0v1456h448q192 0 343.5 -86.5t236.5 -246t85 -362.5v-67q0 -203 -83.5 -361t-235.5 -245t-343 -88h-451zM430 1213v-972h145q176 0 269 115t95 329v77q0 222 -92 336.5t-269 114.5h-148z" />
    <glyph glyph-name="E" unicode="E" horiz-adv-x="1152" 
d="M1006 631h-576v-390h676v-241h-976v1456h974v-243h-674v-347h576v-235z" />
    <glyph glyph-name="F" unicode="F" horiz-adv-x="1122" 
d="M1006 595h-576v-595h-300v1456h948v-243h-648v-376h576v-242z" />
    <glyph glyph-name="G" unicode="G" horiz-adv-x="1395" 
d="M1282 184q-81 -97 -229 -150.5t-328 -53.5q-189 0 -331.5 82.5t-220 239.5t-79.5 369v99q0 218 73.5 377.5t212 244t324.5 84.5q259 0 405 -123.5t173 -359.5h-292q-20 125 -88.5 183t-188.5 58q-153 0 -233 -115t-81 -342v-93q0 -229 87 -346t255 -117q169 0 241 72v251
h-273v221h573v-581z" />
    <glyph glyph-name="H" unicode="H" horiz-adv-x="1447" 
d="M1315 0h-300v624h-585v-624h-300v1456h300v-590h585v590h300v-1456z" />
    <glyph glyph-name="I" unicode="I" horiz-adv-x="597" 
d="M449 0h-300v1456h300v-1456z" />
    <glyph glyph-name="J" unicode="J" horiz-adv-x="1144" 
d="M717 1456h300v-1008q0 -139 -61.5 -245.5t-173.5 -164.5t-253 -58q-231 0 -360 117.5t-129 332.5h302q0 -107 45 -158t142 -51q86 0 137 59t51 168v1008z" />
    <glyph glyph-name="K" unicode="K" horiz-adv-x="1300" 
d="M586 584l-156 -168v-416h-300v1456h300v-660l132 181l371 479h369l-517 -647l532 -809h-357z" />
    <glyph glyph-name="L" unicode="L" horiz-adv-x="1109" 
d="M430 241h637v-241h-937v1456h300v-1215z" />
    <glyph glyph-name="M" unicode="M" horiz-adv-x="1794" 
d="M522 1456l374 -1056l372 1056h394v-1456h-301v398l30 687l-393 -1085h-206l-392 1084l30 -686v-398h-300v1456h392z" />
    <glyph glyph-name="N" unicode="N" horiz-adv-x="1446" 
d="M1314 0h-300l-584 958v-958h-300v1456h300l585 -960v960h299v-1456z" />
    <glyph glyph-name="O" unicode="O" horiz-adv-x="1414" 
d="M1326 695q0 -215 -76 -377t-217.5 -250t-324.5 -88q-181 0 -323 87t-220 248.5t-79 371.5v72q0 215 77.5 378.5t219 251t323.5 87.5t323.5 -87.5t219 -251t77.5 -377.5v-65zM1022 761q0 229 -82 348t-234 119q-151 0 -233 -117.5t-83 -344.5v-71q0 -223 82 -346t236 -123
q151 0 232 118.5t82 345.5v71z" />
    <glyph glyph-name="P" unicode="P" horiz-adv-x="1321" 
d="M430 513v-513h-300v1456h568q164 0 288.5 -60t191.5 -170.5t67 -251.5q0 -214 -146.5 -337.5t-405.5 -123.5h-263zM430 756h268q119 0 181.5 56t62.5 160q0 107 -63 173t-174 68h-275v-457z" />
    <glyph glyph-name="Q" unicode="Q" horiz-adv-x="1414" 
d="M1324 695q0 -204 -66 -354.5t-183 -241.5l242 -190l-191 -169l-310 249q-53 -9 -110 -9q-181 0 -323 87t-220 248.5t-79 371.5v72q0 215 77.5 378.5t219 251t323.5 87.5t323.5 -87.5t219 -251t77.5 -377.5v-65zM1020 761q0 229 -82 348t-234 119q-151 0 -233 -117.5
t-83 -344.5v-71q0 -223 82 -346t236 -123q151 0 232 118.5t82 345.5v71z" />
    <glyph glyph-name="R" unicode="R" horiz-adv-x="1307" 
d="M669 533h-239v-533h-300v1456h541q258 0 398 -115t140 -325q0 -149 -64.5 -248.5t-195.5 -158.5l315 -595v-14h-322zM430 776h242q113 0 175 57.5t62 158.5q0 103 -58.5 162t-179.5 59h-241v-437z" />
    <glyph glyph-name="S" unicode="S" horiz-adv-x="1259" 
d="M885 382q0 85 -60 130.5t-216 96t-247 99.5q-248 134 -248 361q0 118 66.5 210.5t191 144.5t279.5 52q156 0 278 -56.5t189.5 -159.5t67.5 -234h-300q0 100 -63 155.5t-177 55.5q-110 0 -171 -46.5t-61 -122.5q0 -71 71.5 -119t210.5 -90q256 -77 373 -191t117 -284
q0 -189 -143 -296.5t-385 -107.5q-168 0 -306 61.5t-210.5 168.5t-72.5 248h301q0 -241 288 -241q107 0 167 43.5t60 121.5z" />
    <glyph glyph-name="T" unicode="T" horiz-adv-x="1267" 
d="M1226 1213h-446v-1213h-300v1213h-440v243h1186v-243z" />
    <glyph glyph-name="U" unicode="U" horiz-adv-x="1348" 
d="M1232 1456v-959q0 -239 -149.5 -378t-408.5 -139q-255 0 -405 135t-153 371v970h300v-961q0 -143 68.5 -208.5t189.5 -65.5q253 0 257 266v969h301z" />
    <glyph glyph-name="V" unicode="V" horiz-adv-x="1339" 
d="M668 361l330 1095h334l-507 -1456h-313l-505 1456h333z" />
    <glyph glyph-name="W" unicode="W" horiz-adv-x="1791" 
d="M1264 420l196 1036h299l-323 -1456h-302l-237 974l-237 -974h-302l-323 1456h299l197 -1034l240 1034h254z" />
    <glyph glyph-name="X" unicode="X" horiz-adv-x="1301" 
d="M651 954l273 502h345l-424 -722l435 -734h-349l-280 510l-280 -510h-349l435 734l-424 722h345z" />
    <glyph glyph-name="Y" unicode="Y" horiz-adv-x="1266" 
d="M632 800l303 656h328l-478 -928v-528h-305v528l-478 928h329z" />
    <glyph glyph-name="Z" unicode="Z" horiz-adv-x="1241" 
d="M448 241h734v-241h-1109v176l720 1037h-719v243h1092v-172z" />
    <glyph glyph-name="bracketleft" unicode="[" horiz-adv-x="569" 
d="M552 1471h-142v-1587h142v-223h-432v2033h432v-223z" />
    <glyph glyph-name="backslash" unicode="\" horiz-adv-x="864" 
d="M0 1456h295l608 -1581h-296z" />
    <glyph glyph-name="bracketright" unicode="]" horiz-adv-x="569" 
d="M13 1694h432v-2033h-432v223h143v1587h-143v223z" />
    <glyph glyph-name="asciicircum" unicode="^" horiz-adv-x="895" 
d="M448 1186l-174 -457h-230l299 727h210l299 -727h-229z" />
    <glyph glyph-name="underscore" unicode="_" horiz-adv-x="914" 
d="M912 -226h-911v226h911v-226z" />
    <glyph glyph-name="grave" unicode="`" horiz-adv-x="677" 
d="M565 1226h-237l-276 310h315z" />
    <glyph glyph-name="a" unicode="a" horiz-adv-x="1098" 
d="M738 0q-20 39 -29 97q-105 -117 -273 -117q-159 0 -263.5 92t-104.5 232q0 172 127.5 264t368.5 93h133v62q0 75 -38.5 120t-121.5 45q-73 0 -114.5 -35t-41.5 -96h-289q0 94 58 174t164 125.5t238 45.5q200 0 317.5 -100.5t117.5 -282.5v-469q1 -154 43 -233v-17h-292z
M499 201q64 0 118 28.5t80 76.5v186h-108q-217 0 -231 -150l-1 -17q0 -54 38 -89t104 -35z" />
    <glyph glyph-name="b" unicode="b" horiz-adv-x="1153" 
d="M1086 531q0 -260 -111 -405.5t-310 -145.5q-176 0 -281 135l-13 -115h-260v1536h289v-551q100 117 263 117q198 0 310.5 -145.5t112.5 -409.5v-16zM797 552q0 164 -52 239.5t-155 75.5q-138 0 -190 -113v-427q53 -114 192 -114q140 0 184 138q21 66 21 201z" />
    <glyph glyph-name="c" unicode="c" horiz-adv-x="1068" 
d="M561 213q80 0 130 44t52 117h271q-1 -110 -60 -201.5t-161.5 -142t-226.5 -50.5q-232 0 -366 147.5t-134 407.5v19q0 250 133 399t365 149q203 0 325.5 -115.5t124.5 -307.5h-271q-2 84 -52 136.5t-132 52.5q-101 0 -152.5 -73.5t-51.5 -238.5v-30q0 -167 51 -240
t155 -73z" />
    <glyph glyph-name="d" unicode="d" horiz-adv-x="1154" 
d="M66 549q0 253 113.5 403t310.5 150q158 0 261 -118v552h290v-1536h-261l-14 115q-108 -135 -278 -135q-191 0 -306.5 150.5t-115.5 418.5zM355 528q0 -152 53 -233t154 -81q134 0 189 113v427q-54 113 -187 113q-209 0 -209 -339z" />
    <glyph glyph-name="e" unicode="e" horiz-adv-x="1107" 
d="M609 -20q-238 0 -387.5 146t-149.5 389v28q0 163 63 291.5t178.5 198t263.5 69.5q222 0 349.5 -140t127.5 -397v-118h-689q14 -106 84.5 -170t178.5 -64q167 0 261 121l142 -159q-65 -92 -176 -143.5t-246 -51.5zM576 868q-86 0 -139.5 -58t-68.5 -166h402v23
q-2 96 -52 148.5t-142 52.5z" />
    <glyph glyph-name="f" unicode="f" horiz-adv-x="734" 
d="M190 0v870h-161v212h161v92q0 182 104.5 282.5t292.5 100.5q60 0 147 -20l-3 -224q-36 9 -88 9q-163 0 -163 -153v-87h215v-212h-215v-870h-290z" />
    <glyph glyph-name="g" unicode="g" horiz-adv-x="1169" 
d="M69 549q0 249 118.5 401t319.5 152q178 0 277 -122l12 102h262v-1046q0 -142 -64.5 -247t-181.5 -160t-274 -55q-119 0 -232 47.5t-171 122.5l128 176q108 -121 262 -121q115 0 179 61.5t64 174.5v58q-100 -113 -263 -113q-195 0 -315.5 152.5t-120.5 404.5v12zM358 528
q0 -147 59 -230.5t162 -83.5q132 0 189 99v455q-58 99 -187 99q-104 0 -163.5 -85t-59.5 -254z" />
    <glyph glyph-name="h" unicode="h" horiz-adv-x="1146" 
d="M393 964q115 138 289 138q352 0 357 -409v-693h-289v685q0 93 -40 137.5t-133 44.5q-127 0 -184 -98v-769h-289v1536h289v-572z" />
    <glyph glyph-name="i" unicode="i" horiz-adv-x="543" 
d="M416 0h-290v1082h290v-1082zM109 1362q0 65 43.5 107t118.5 42q74 0 118 -42t44 -107q0 -66 -44.5 -108t-117.5 -42t-117.5 42t-44.5 108z" />
    <glyph glyph-name="j" unicode="j" horiz-adv-x="532" 
d="M417 1082v-1141q0 -179 -95 -278.5t-274 -99.5q-75 0 -143 17v229q52 -9 91 -9q131 0 131 139v1143h290zM104 1362q0 65 43.5 107t118.5 42t118.5 -42t43.5 -107q0 -66 -44.5 -108t-117.5 -42t-117.5 42t-44.5 108z" />
    <glyph glyph-name="k" unicode="k" horiz-adv-x="1094" 
d="M504 434l-104 -104v-330h-289v1536h289v-851l56 72l277 325h347l-391 -451l425 -631h-332z" />
    <glyph glyph-name="l" unicode="l" horiz-adv-x="543" 
d="M416 0h-290v1536h290v-1536z" />
    <glyph glyph-name="m" unicode="m" horiz-adv-x="1773" 
d="M382 1082l9 -121q115 141 311 141q209 0 287 -165q114 165 325 165q176 0 262 -102.5t86 -308.5v-691h-290v690q0 92 -36 134.5t-127 42.5q-130 0 -180 -124l1 -743h-289v689q0 94 -37 136t-126 42q-123 0 -178 -102v-765h-289v1082h271z" />
    <glyph glyph-name="n" unicode="n" horiz-adv-x="1147" 
d="M377 1082l9 -125q116 145 311 145q172 0 256 -101t86 -302v-699h-289v692q0 92 -40 133.5t-133 41.5q-122 0 -183 -104v-763h-289v1082h272z" />
    <glyph glyph-name="o" unicode="o" horiz-adv-x="1158" 
d="M66 551q0 161 62 287t178.5 195t270.5 69q219 0 357.5 -134t154.5 -364l2 -74q0 -249 -139 -399.5t-373 -150.5t-373.5 150t-139.5 408v13zM355 530q0 -154 58 -235.5t166 -81.5q105 0 164 80.5t59 257.5q0 151 -59 234t-166 83q-106 0 -164 -82.5t-58 -255.5z" />
    <glyph glyph-name="p" unicode="p" horiz-adv-x="1153" 
d="M1085 531q0 -250 -113.5 -400.5t-306.5 -150.5q-164 0 -265 114v-510h-289v1498h268l10 -106q105 126 274 126q200 0 311 -148t111 -408v-15zM796 552q0 151 -53.5 233t-155.5 82q-136 0 -187 -104v-443q53 -107 189 -107q207 0 207 339z" />
    <glyph glyph-name="q" unicode="q" horiz-adv-x="1157" 
d="M66 551q0 255 113.5 403t311.5 148q174 0 277 -133l19 113h254v-1498h-290v509q-100 -113 -262 -113q-193 0 -308 150t-115 421zM355 530q0 -155 54.5 -236t153.5 -81q133 0 188 106v447q-54 102 -186 102q-100 0 -155 -81t-55 -257z" />
    <glyph glyph-name="r" unicode="r" horiz-adv-x="747" 
d="M719 811q-59 8 -104 8q-164 0 -215 -111v-708h-289v1082h273l8 -129q87 149 241 149q48 0 90 -13z" />
    <glyph glyph-name="s" unicode="s" horiz-adv-x="1053" 
d="M697 299q0 53 -52.5 83.5t-168.5 54.5q-386 81 -386 328q0 144 119.5 240.5t312.5 96.5q206 0 329.5 -97t123.5 -252h-289q0 62 -40 102.5t-125 40.5q-73 0 -113 -33t-40 -84q0 -48 45.5 -77.5t153.5 -51t182 -48.5q229 -84 229 -291q0 -148 -127 -239.5t-328 -91.5
q-136 0 -241.5 48.5t-165.5 133t-60 182.5h274q4 -77 57 -118t142 -41q83 0 125.5 31.5t42.5 82.5z" />
    <glyph glyph-name="t" unicode="t" horiz-adv-x="692" 
d="M457 1348v-266h185v-212h-185v-540q0 -60 23 -86t88 -26q48 0 85 7v-219q-85 -26 -175 -26q-304 0 -310 307v583h-158v212h158v266h289z" />
    <glyph glyph-name="u" unicode="u" horiz-adv-x="1146" 
d="M759 110q-107 -130 -296 -130q-174 0 -265.5 100t-93.5 293v709h289v-699q0 -169 154 -169q147 0 202 102v766h290v-1082h-272z" />
    <glyph glyph-name="v" unicode="v" horiz-adv-x="1035" 
d="M516 353l201 729h302l-365 -1082h-276l-365 1082h302z" />
    <glyph glyph-name="w" unicode="w" horiz-adv-x="1505" 
d="M1052 393l142 689h279l-276 -1082h-242l-205 681l-205 -681h-241l-276 1082h279l141 -688l198 688h209z" />
    <glyph glyph-name="x" unicode="x" horiz-adv-x="1042" 
d="M523 759l182 323h309l-308 -530l321 -552h-310l-193 340l-192 -340h-311l321 552l-307 530h310z" />
    <glyph glyph-name="y" unicode="y" horiz-adv-x="1028" 
d="M515 409l200 673h310l-435 -1250l-24 -57q-97 -212 -320 -212q-63 0 -128 19v219l44 -1q82 0 122.5 25t63.5 83l34 89l-379 1085h311z" />
    <glyph glyph-name="z" unicode="z" horiz-adv-x="1042" 
d="M443 233h529v-233h-898v176l509 672h-494v234h867v-171z" />
    <glyph glyph-name="braceleft" unicode="{" horiz-adv-x="676" 
d="M586 -360q-360 101 -360 465v199q0 211 -178 211v207q174 0 178 199v212q0 185 90 299t270 165l56 -161q-76 -28 -115 -97.5t-41 -192.5v-210q0 -226 -179 -317q179 -92 179 -319v-212q5 -234 156 -286z" />
    <glyph glyph-name="bar" unicode="|" horiz-adv-x="518" 
d="M348 -270h-175v1726h175v-1726z" />
    <glyph glyph-name="braceright" unicode="}" horiz-adv-x="676" 
d="M34 -198q152 54 156 290v212q0 226 183 314q-183 88 -183 319v209q-4 233 -156 290l56 161q179 -50 269 -163.5t91 -297.5v-215q4 -199 178 -199v-207q-178 0 -178 -209v-217q-8 -350 -360 -449z" />
    <glyph glyph-name="asciitilde" unicode="~" horiz-adv-x="1328" 
d="M1221 793q0 -186 -93 -302t-240 -116q-74 0 -137.5 28.5t-146.5 108t-153 79.5q-58 0 -94 -50t-36 -128l-215 2q0 186 90.5 299t240.5 113q78 0 142 -30t145.5 -107.5t148.5 -77.5q59 0 96.5 53t37.5 129z" />
    <glyph glyph-name="uni00A0" unicode="&#xa0;" horiz-adv-x="540" 
 />
    <glyph glyph-name="exclamdown" unicode="&#xa1;" horiz-adv-x="578" 
d="M170 639h241l33 -1008h-307zM452 948q0 -67 -46 -110t-116 -43t-116 43t-46 110t44.5 110t117.5 43t117.5 -43t44.5 -110z" />
    <glyph glyph-name="cent" unicode="&#xa2;" horiz-adv-x="1178" 
d="M594 213q80 0 130 44t52 117h272q-2 -145 -98.5 -250.5t-251.5 -134.5v-234h-200v233q-187 30 -293 174t-106 370v22q0 218 105 363t294 177v224h200v-225q163 -29 255.5 -140t94.5 -274h-272q-2 86 -52 137.5t-131 51.5q-102 0 -153 -74.5t-52 -234.5v-33
q0 -168 51.5 -240.5t154.5 -72.5z" />
    <glyph glyph-name="sterling" unicode="&#xa3;" horiz-adv-x="1217" 
d="M564 576l6 -139q0 -123 -62 -196h653v-241h-1059v241h92q72 18 72 179l-5 156h-162v236h154l-7 227q0 202 123.5 319t330.5 117q212 0 333 -112.5t121 -304.5h-287q0 85 -43.5 130t-124.5 45q-66 0 -109.5 -49t-43.5 -145l9 -227h309v-236h-300z" />
    <glyph glyph-name="currency" unicode="&#xa4;" horiz-adv-x="1418" 
d="M1073 107q-159 -127 -361 -127q-203 0 -361 126l-129 -132l-141 144l135 137q-100 156 -100 353q0 204 109 365l-144 147l141 144l142 -145q155 115 348 115q194 0 349 -117l144 148l142 -145l-148 -151q107 -159 107 -361q0 -193 -98 -349l139 -141l-142 -145zM302 608
q0 -118 54 -219.5t149.5 -160t206.5 -58.5q110 0 205.5 58.5t149.5 160t54 219.5q0 119 -54 219.5t-149 158.5t-206 58q-112 0 -207 -58t-149 -158.5t-54 -219.5z" />
    <glyph glyph-name="yen" unicode="&#xa5;" horiz-adv-x="1098" 
d="M550 892l224 564h313l-322 -714h218v-175h-288v-115h288v-174h-288v-278h-300v278h-306v174h306v115h-306v175h244l-323 714h315z" />
    <glyph glyph-name="brokenbar" unicode="&#xa6;" horiz-adv-x="516" 
d="M128 -270v795h260v-795h-260zM388 698h-260v758h260v-758z" />
    <glyph glyph-name="section" unicode="&#xa7;" horiz-adv-x="1287" 
d="M1180 481q0 -182 -162 -271q135 -102 135 -288q0 -175 -137.5 -274.5t-379.5 -99.5q-257 0 -400.5 107t-143.5 310l289 1q0 -89 64 -136.5t191 -47.5q112 0 170 37.5t58 100.5q0 65 -64.5 106t-247 91.5t-275 105.5t-138 130t-45.5 181q0 180 162 273q-136 103 -136 288
q0 171 140.5 276t379.5 105q247 0 383 -113t136 -314h-289q0 87 -61.5 140.5t-168.5 53.5q-110 0 -170 -39t-60 -107q0 -73 55.5 -110t240.5 -86t282.5 -104t144.5 -131.5t47 -184.5zM458 704q-75 -42 -75 -141q0 -69 41.5 -106.5t165.5 -77.5l222 -67q82 47 82 140
q0 62 -45.5 101.5t-163.5 79.5z" />
    <glyph glyph-name="dieresis" unicode="&#xa8;" horiz-adv-x="956" 
d="M371 1365q0 -53 -39 -89.5t-100 -36.5q-62 0 -100 37t-38 89t38 89.5t100 37.5t100.5 -37.5t38.5 -89.5zM581 1365q0 54 40.5 90.5t98.5 36.5q59 0 98.5 -37t39.5 -90q0 -52 -38 -89.5t-100 -37.5t-100.5 37.5t-38.5 89.5z" />
    <glyph glyph-name="copyright" unicode="&#xa9;" horiz-adv-x="1606" 
d="M1117 596q0 -152 -87.5 -233t-247.5 -81t-254.5 106.5t-94.5 286.5v113q0 174 95.5 280.5t253.5 106.5q163 0 249.5 -82.5t86.5 -231.5h-156q0 96 -46 137.5t-134 41.5q-92 0 -142.5 -67.5t-51.5 -180.5v-123q0 -117 51 -184.5t143 -67.5q89 0 134 40.5t45 138.5h156z
M1383 729q0 166 -75 308.5t-212 228t-300 85.5q-159 0 -295.5 -82t-214.5 -226t-78 -314t77.5 -314t214 -227.5t296.5 -83.5t297.5 85t213.5 229t76 311zM86 729q0 202 93.5 375t259 272.5t357.5 99.5t357.5 -99.5t259 -272.5t93.5 -375q0 -204 -95 -377.5t-259.5 -272.5
t-355.5 -99q-193 0 -357.5 100t-258.5 273t-94 376z" />
    <glyph glyph-name="ordfeminine" unicode="&#xaa;" horiz-adv-x="909" 
d="M604 705q-10 27 -17 68q-77 -82 -201 -82q-118 0 -183.5 61.5t-65.5 166.5q0 110 84 170.5t257 60.5h102v51q0 127 -116 127q-65 0 -101.5 -25.5t-36.5 -73.5l-173 14q0 104 87.5 168.5t223.5 64.5q135 0 213 -72t78 -205v-316q0 -97 26 -178h-177zM429 835q40 0 82 18.5
t69 43.5v136h-106q-76 -1 -119 -31t-43 -79q0 -88 117 -88z" />
    <glyph glyph-name="guillemotleft" unicode="&#xab;" horiz-adv-x="946" 
d="M448 495q0 85 65.5 230.5t207.5 304.5l142 -136q-101 -131 -143 -241t-42 -157q0 -53 41 -159t144 -241l-142 -136q-141 158 -207 304.5t-66 230.5zM70 495q0 85 65.5 230.5t207.5 304.5l142 -136q-101 -131 -143 -241t-42 -157q0 -53 41 -159t144 -241l-142 -136
q-141 158 -207 304.5t-66 230.5z" />
    <glyph glyph-name="logicalnot" unicode="&#xac;" horiz-adv-x="1129" 
d="M961 374h-200v260h-635v171h835v-431z" />
    <glyph glyph-name="uni00AD" unicode="&#xad;" horiz-adv-x="794" 
d="M673 507h-563v233h563v-233z" />
    <glyph glyph-name="registered" unicode="&#xae;" horiz-adv-x="1606" 
d="M86 729q0 202 93.5 375t259 272.5t357.5 99.5t357.5 -99.5t259 -272.5t93.5 -375q0 -204 -95 -377.5t-259.5 -272.5t-355.5 -99q-193 0 -357.5 100t-258.5 273t-94 376zM1383 729q0 166 -75 308.5t-212 228t-300 85.5q-159 0 -295.5 -82t-214.5 -226t-78 -314t77.5 -314
t214 -227.5t296.5 -83.5t297.5 85t213.5 229t76 311zM652 653v-337h-151v850h281q151 0 238 -68.5t87 -194.5q0 -112 -113 -174q61 -31 85.5 -86.5t24.5 -137.5t3.5 -116t13.5 -57v-16h-155q-13 34 -13 194q0 76 -33 109.5t-110 33.5h-158zM652 787h136q74 0 121.5 32
t47.5 84q0 70 -35.5 99.5t-128.5 30.5h-141v-246z" />
    <glyph glyph-name="macron" unicode="&#xaf;" horiz-adv-x="1026" 
d="M858 1287h-690v167h690v-167z" />
    <glyph glyph-name="degree" unicode="&#xb0;" horiz-adv-x="795" 
d="M126 1200q0 114 81 195t191 81q109 0 188.5 -80.5t79.5 -195.5t-79.5 -193.5t-188.5 -78.5q-108 0 -190 78.5t-82 193.5zM398 1076q53 0 87.5 35.5t34.5 88.5q0 52 -34.5 90t-87.5 38t-89 -38t-36 -90t36.5 -88t88.5 -36z" />
    <glyph glyph-name="plusminus" unicode="&#xb1;" horiz-adv-x="1100" 
d="M677 942h328v-241h-328v-364h-253v364h-335v241h335v343h253v-343zM977 1h-864v235h864v-235z" />
    <glyph glyph-name="acute" unicode="&#xb4;" horiz-adv-x="679" 
d="M298 1536h315l-277 -310h-235z" />
    <glyph glyph-name="mu" unicode="&#xb5;" horiz-adv-x="1261" 
d="M428 1082v-623q0 -126 40.5 -185.5t139.5 -59.5q149 0 205 105v763h289v-1082h-269l-6 68q-89 -89 -225 -89q-102 0 -174 45v-440h-289v1498h289z" />
    <glyph glyph-name="paragraph" unicode="&#xb6;" horiz-adv-x="1003" 
d="M650 0v520h-80q-230 0 -362.5 127t-132.5 341q0 213 133 340.5t363 127.5h298v-1456h-219z" />
    <glyph glyph-name="periodcentered" unicode="&#xb7;" horiz-adv-x="617" 
d="M140 697q0 69 46 112t117 43t117.5 -43t46.5 -112t-47 -111.5t-117 -42.5q-72 0 -117.5 43.5t-45.5 110.5z" />
    <glyph glyph-name="cedilla" unicode="&#xb8;" horiz-adv-x="548" 
d="M345 7l-11 -58q150 -27 150 -173q0 -110 -91.5 -174t-257.5 -64l-7 167q112 0 112 81q0 42 -33.5 57.5t-108.5 20.5l31 143h216z" />
    <glyph glyph-name="ordmasculine" unicode="&#xba;" horiz-adv-x="936" 
d="M118 1121q0 160 95.5 257.5t250.5 97.5t251 -97t96 -263v-72q0 -159 -94 -256.5t-251 -97.5q-158 0 -253 98t-95 261v72zM293 1044q0 -98 46.5 -153t126.5 -55q78 0 123.5 54t46.5 151v80q0 97 -46.5 152t-125.5 55q-78 0 -124.5 -54.5t-46.5 -156.5v-73z" />
    <glyph glyph-name="guillemotright" unicode="&#xbb;" horiz-adv-x="946" 
d="M499 495q0 -84 -66 -230.5t-207 -304.5l-143 136q104 135 144.5 241t40.5 159q0 47 -41.5 157t-143.5 241l143 136q142 -159 207.5 -304.5t65.5 -230.5zM877 495q0 -84 -66 -230.5t-207 -304.5l-143 136q104 135 144.5 241t40.5 159q0 47 -41.5 157t-143.5 241l143 136
q142 -159 207.5 -304.5t65.5 -230.5z" />
    <glyph glyph-name="questiondown" unicode="&#xbf;" horiz-adv-x="1019" 
d="M666 643q0 -133 -31 -215t-110.5 -156t-108 -110t-43 -73t-14.5 -81q0 -157 154 -157q77 0 122.5 45t47.5 126h289q-2 -192 -123 -299.5t-331 -107.5q-213 0 -331 101.5t-118 289.5q0 159 153 312l97 93q50 45 69.5 94t21.5 138h256zM702 949q0 -67 -46 -110t-116 -43
t-116 43t-46 110t44.5 110t117.5 43t117.5 -43t44.5 -110z" />
    <glyph glyph-name="multiply" unicode="&#xd7;" horiz-adv-x="1088" 
d="M65 373l307 313l-307 313l170 168l304 -311l305 311l170 -168l-307 -313l307 -313l-170 -168l-305 310l-304 -310z" />
    <glyph glyph-name="divide" unicode="&#xf7;" horiz-adv-x="1168" 
d="M1091 571h-1028v230h1028v-230zM415 1089q0 68 45.5 110t117.5 42q71 0 117.5 -41.5t46.5 -110.5q0 -67 -45 -108.5t-119 -41.5q-75 0 -119 42t-44 108zM415 277q0 68 45.5 110t117.5 42q71 0 117.5 -41.5t46.5 -110.5q0 -67 -45 -108.5t-119 -41.5q-75 0 -119 42
t-44 108z" />
    <glyph glyph-name="uni02BC" unicode="&#x2bc;" horiz-adv-x="470" 
d="M194 1009l-136 79q86 135 89 279v169h230v-155q0 -90 -50 -195t-133 -177z" />
    <glyph glyph-name="circumflex" unicode="&#x2c6;" horiz-adv-x="1015" 
d="M887 1256v-12h-230l-154 145l-154 -145h-226v16l296 276h168z" />
    <glyph glyph-name="caron" unicode="&#x2c7;" horiz-adv-x="964" 
d="M479 1394l146 143h247v-11l-302 -281h-183l-302 283v9h247z" />
    <glyph glyph-name="uni02C9" unicode="&#x2c9;" horiz-adv-x="1026" 
d="M858 1287h-690v167h690v-167z" />
    <glyph glyph-name="breve" unicode="&#x2d8;" horiz-adv-x="909" 
d="M798 1526q0 -133 -95.5 -215t-250.5 -82t-250.5 81t-95.5 216h205q0 -63 37.5 -97.5t103.5 -34.5q65 0 102 34.5t37 97.5h207z" />
    <glyph glyph-name="dotaccent" unicode="&#x2d9;" horiz-adv-x="543" 
d="M266 1511q69 0 108.5 -38.5t39.5 -98.5t-39.5 -98t-108.5 -38q-68 0 -108 38t-40 98t40.5 98.5t107.5 38.5z" />
    <glyph glyph-name="ring" unicode="&#x2da;" horiz-adv-x="682" 
d="M119 1325q0 86 65 145.5t158 59.5q92 0 157.5 -58.5t65.5 -146.5q0 -85 -64 -143t-159 -58q-97 0 -160 59t-63 142zM234 1325q0 -44 29 -75.5t79 -31.5t79 31.5t29 75.5q0 46 -29.5 77.5t-78.5 31.5t-78.5 -31.5t-29.5 -77.5z" />
    <glyph glyph-name="ogonek" unicode="&#x2db;" horiz-adv-x="616" 
d="M404 0q-74 -42 -114 -82.5t-40 -93.5q0 -65 66 -65q33 0 80 20l29 -157q-73 -44 -165 -44q-100 0 -163.5 55.5t-63.5 153.5q0 172 223 273z" />
    <glyph glyph-name="tilde" unicode="&#x2dc;" horiz-adv-x="985" 
d="M870 1524q0 -113 -66 -189.5t-161 -76.5q-38 0 -67.5 8.5t-81.5 36.5t-75 34.5t-50 6.5q-35 0 -59.5 -25t-24.5 -71l-168 10q0 111 65.5 189t160.5 78q30 0 56.5 -7.5t86.5 -36.5t83 -35t48 -6q35 0 60.5 24.5t25.5 70.5z" />
    <glyph glyph-name="hungarumlaut" unicode="&#x2dd;" horiz-adv-x="840" 
d="M634 1535h259l-266 -301h-218zM243 1535h255l-229 -301h-212z" />
    <glyph glyph-name="uni02F3" unicode="&#x2f3;" horiz-adv-x="643" 
d="M330 -57q81 0 133 -51t52 -122t-52 -120t-133 -49q-80 0 -134 48t-54 121t54 123t134 50zM255 -230q0 -32 21.5 -53t53.5 -21t52 21t20 53q0 34 -20 55.5t-52 21.5t-53.5 -21.5t-21.5 -55.5z" />
    <glyph glyph-name="gravecomb" unicode="&#x300;" 
d="M-383 1226h-237l-276 310h316z" />
    <glyph glyph-name="acutecomb" unicode="&#x301;" 
d="M-486 1536h316l-278 -310h-234z" />
    <glyph glyph-name="tildecomb" unicode="&#x303;" 
d="M-174 1524q0 -113 -66 -189.5t-161 -76.5q-38 0 -67.5 8.5t-81.5 36.5t-75 34.5t-50 6.5q-35 0 -59.5 -25t-24.5 -71l-168 10q0 111 65.5 189t160.5 78q30 0 56.5 -7.5t86.5 -36.5t83 -35t48 -6q35 0 60.5 24.5t25.5 70.5z" />
    <glyph glyph-name="hookabovecomb" unicode="&#x309;" 
d="M-718 1267l-15 134q73 4 105.5 18.5t32.5 46.5q0 69 -142 69l7 135q188 0 283.5 -52t95.5 -143q0 -59 -41 -96.5t-109 -47.5v-64h-217z" />
    <glyph glyph-name="uni030F" unicode="&#x30f;" 
d="M-509 1252h-239l-292 266h286zM-170 1252h-233l-245 266h280z" />
    <glyph glyph-name="dotbelowcomb" unicode="&#x323;" 
d="M-761 -234q0 60 45 99t116 39q72 0 117 -39t45 -99q0 -59 -44.5 -99t-117.5 -40t-117 40t-44 99z" />
    <glyph glyph-name="Delta" unicode="&#x394;" horiz-adv-x="1497" 
d="M601 1456h311l573 -1456h-1465zM427 241h653l-325 868z" />
    <glyph glyph-name="Omega" unicode="&#x3a9;" horiz-adv-x="1376" 
d="M735 248q174 75 186 468l1 146q0 183 -64 275.5t-179 92.5q-113 0 -177.5 -92.5t-64.5 -275.5v-87q0 -225 49 -357.5t145 -169.5v-248h-512v244h217q-109 98 -171 237.5t-63 289.5v89q0 177 73 318t205 219t299 78q165 0 296.5 -76.5t205 -214t76.5 -309.5v-100
q0 -155 -63 -294.5t-171 -236.5h216v-244h-504v248z" />
    <glyph glyph-name="uni060C" unicode="&#x60c;" horiz-adv-x="669" 
d="M564 615q-65 -60 -118 -124.5t-62 -138.5q74 -11 103 -58.5t29 -110.5q0 -78 -46.5 -130t-128.5 -52q-102 0 -150 62t-48 152q0 169 83.5 292t203.5 216z" />
    <glyph glyph-name="uni060D" unicode="&#x60d;" horiz-adv-x="828" 
d="M556 1461l219 -66l-552 -1615l-219 65z" />
    <glyph glyph-name="uni0610" unicode="&#x610;" 
d="M128 1190q15 27 23.5 60t8.5 77q0 47 -12.5 95t-34.5 95l98 34l37 -112q17 -45 38 -50q172 291 346 291q86 0 142.5 -55t56.5 -136q-2 -220 -371 -220h-26q-117 0 -177 26q-2 -48 -13 -87t-29 -71zM458 1374q138 0 203.5 28.5t65.5 82.5q0 39 -25.5 64.5t-66.5 25.5
q-107 0 -239 -201h62z" />
    <glyph glyph-name="uni0611" unicode="&#x611;" 
d="M260 1268q-2 -38 -14.5 -73t-30.5 -67l-87 52q15 27 23.5 60.5t8.5 76.5q0 47 -12.5 95.5t-34.5 94.5l99 34l29 -98q22 -60 49 -64h81q-21 27 -36 59t-15 78q0 95 62 165t168 70q60 0 107.5 -20.5t85.5 -59.5l-41 -91q-70 57 -135 58q-63 0 -102 -36.5t-39 -89.5
q0 -14 13 -50t65 -59q10 -5 16 -3l239 60v-111q-129 -40 -244 -60.5t-224 -20.5h-31z" />
    <glyph glyph-name="uni0612" unicode="&#x612;" 
d="M539 998q-37 -3 -79 -3q-166 0 -270.5 70.5t-104.5 218.5q0 133 102.5 236.5t301.5 147.5q-10 4 -18.5 7.5t-31.5 13.5q-55 23 -91 36t-56 13q-31 0 -60.5 -18.5t-49.5 -44.5l-15 -19l-83 41l8 14q35 56 87 90t114 34q35 0 76 -14.5t90 -37.5q86 -41 142 -61t103 -22
l-7 -93q-146 -12 -264.5 -55t-187.5 -109.5t-69 -149.5q0 -204 292 -204q14 0 27.5 0.5t26.5 1.5zM878 1606q50 -116 50 -227q0 -121 -70.5 -222t-229.5 -137l-40 81q134 32 191.5 105t57.5 164q0 48 -12.5 99.5t-35.5 104.5z" />
    <glyph glyph-name="uni0615" unicode="&#x615;" 
d="M236 1364q9 15 18 29.5t18 28.5v475h85v-355q101 126 215 126q86 0 138 -51.5t52 -131.5q-2 -211 -360 -211h-277v90h111zM400 1365q274 0 274 116q0 41 -27 68.5t-71 27.5q-58 0 -120.5 -54.5t-129.5 -158.5z" />
    <glyph glyph-name="uni061B" unicode="&#x61b;" horiz-adv-x="669" 
d="M564 1087q-65 -60 -118 -124t-62 -139q74 -11 103 -58.5t29 -110.5q0 -78 -46.5 -130t-128.5 -52q-102 0 -150 62t-48 152q0 169 83.5 292t203.5 216zM171 174q0 71 50.5 122.5t122.5 51.5t122.5 -51.5t50.5 -122.5t-51 -122t-122 -51t-122 49.5t-51 123.5z" />
    <glyph glyph-name="uni061F" unicode="&#x61f;" horiz-adv-x="924" 
d="M59 991q0 119 59.5 208t153 138t197.5 49q210 0 302 -116t95 -326h-236q-3 96 -32 139t-118 43q-160 0 -160 -144q0 -40 33.5 -72t83.5 -66.5t100 -81.5t84.5 -117t36.5 -173h-265q-2 73 -26.5 117.5t-62.5 73.5t-80.5 53.5t-80 56.5t-61 83.5t-23.5 134.5zM352 174
q0 71 50.5 122.5t122.5 51.5t122.5 -51.5t50.5 -122.5t-51 -122t-122 -51t-122 49.5t-51 123.5z" />
    <glyph glyph-name="uni0621" unicode="&#x621;" horiz-adv-x="830" 
d="M213 230q-130 94 -130 244q0 112 47 194.5t128.5 128.5t184.5 46q84 0 148.5 -32t117.5 -83l-80 -197q-38 27 -83.5 51t-89.5 24q-141 0 -141 -131q0 -29 33 -64.5t109 -72.5q136 42 278 61l37 -238q-154 -20 -332 -93.5t-377 -181.5v262q41 26 76.5 45t73.5 37z" />
    <glyph glyph-name="uni0627" unicode="&#x627;" horiz-adv-x="465" 
d="M108 1386h249v-1385h-249v1385z" />
    <glyph glyph-name="uni0628" unicode="&#x628;" horiz-adv-x="1777" 
d="M753 -303l174 173l174 -173l-174 -174zM975 0h-135q-242 0 -417.5 57t-270 173.5t-94.5 293.5q0 83 21.5 159.5t50.5 145.5l226 -85q-16 -44 -29.5 -95.5t-13.5 -102.5q1 -139 122 -212.5t395 -73.5h138q144 0 256.5 10.5t177 58t64.5 159.5q0 44 -14 126t-30 153l239 59
q16 -51 29 -114t21 -120t8 -89q0 -165 -58 -265t-160.5 -151.5t-237.5 -69t-288 -17.5z" />
    <glyph glyph-name="uni0629" unicode="&#x629;" horiz-adv-x="922" 
d="M360 1018q146 -111 260 -218.5t179 -215.5t65 -220q0 -110 -52 -191t-143.5 -125t-207.5 -44q-177 0 -290 90t-113 270q0 119 54.5 211.5t154.5 207.5l-49 43zM448 618q-77 -73 -110 -136.5t-33 -112.5q0 -50 31 -79.5t124 -29.5q96 0 126.5 26t30.5 84q0 42 -39.5 107
t-129.5 141zM440 1285l163 162l163 -163l-163 -163zM103 1285l163 162l163 -162l-163 -164z" />
    <glyph glyph-name="uni062A" unicode="&#x62a;" horiz-adv-x="1777" 
d="M975 0h-135q-242 0 -417.5 57t-270 173.5t-94.5 293.5q0 83 21.5 159.5t50.5 145.5l226 -85q-16 -44 -29.5 -95.5t-13.5 -102.5q1 -139 122 -212.5t395 -73.5h138q144 0 256.5 10.5t177 58t64.5 159.5q0 44 -14 126t-30 153l239 59q16 -51 29 -114t21 -120t8 -89
q0 -165 -58 -265t-160.5 -151.5t-237.5 -69t-288 -17.5zM901 920l163 162l163 -163l-163 -163zM564 920l163 162l163 -162l-163 -164z" />
    <glyph glyph-name="uni062B" unicode="&#x62b;" horiz-adv-x="1777" 
d="M975 0h-135q-242 0 -417.5 57t-270 173.5t-94.5 293.5q0 83 21.5 159.5t50.5 145.5l226 -85q-16 -44 -29.5 -95.5t-13.5 -102.5q1 -139 122 -212.5t395 -73.5h138q144 0 256.5 10.5t177 58t64.5 159.5q0 44 -14 126t-30 153l239 59q16 -51 29 -114t21 -120t8 -89
q0 -165 -58 -265t-160.5 -151.5t-237.5 -69t-288 -17.5zM740 1107l154 153l155 -153l-155 -155zM912 845l154 153l155 -153l-155 -155zM572 845l154 153l155 -153l-155 -155z" />
    <glyph glyph-name="uni062C" unicode="&#x62c;" horiz-adv-x="1347" 
d="M712 597q-15 6 -28.5 11.5t-35.5 13.5q-67 26 -109.5 40t-61.5 14q-44 0 -90 -28t-79 -71l-48 -61l-218 109l36 64q66 111 170 178t230 67q72 0 151.5 -28.5t168.5 -71.5q115 -56 192.5 -86.5t141.5 -44t139 -17.5l-19 -245q-202 -17 -375 -63.5t-301 -118t-199.5 -161.5
t-71.5 -193q0 -164 116 -247.5t377 -83.5q118 0 218.5 20t202.5 67l62 -245q-111 -53 -230 -73t-267 -20q-207 0 -371 60t-259 185t-95 321q0 238 169 426t484 282zM630 -38l174 173l174 -173l-174 -174z" />
    <glyph glyph-name="uni062D" unicode="&#x62d;" horiz-adv-x="1347" 
d="M712 597q-15 6 -28.5 11.5t-35.5 13.5q-67 26 -109.5 40t-61.5 14q-44 0 -90 -28t-79 -71l-48 -61l-218 109l36 64q66 111 170 178t230 67q72 0 151.5 -28.5t168.5 -71.5q115 -56 192.5 -86.5t141.5 -44t139 -17.5l-19 -245q-202 -17 -375 -63.5t-301 -118t-199.5 -161.5
t-71.5 -193q0 -164 116 -247.5t377 -83.5q118 0 218.5 20t202.5 67l62 -245q-111 -53 -230 -73t-267 -20q-207 0 -371 60t-259 185t-95 321q0 238 169 426t484 282z" />
    <glyph glyph-name="uni062E" unicode="&#x62e;" horiz-adv-x="1347" 
d="M392 1231l174 173l174 -173l-174 -174zM712 597q-15 6 -28.5 11.5t-35.5 13.5q-67 26 -109.5 40t-61.5 14q-44 0 -90 -28t-79 -71l-48 -61l-218 109l36 64q66 111 170 178t230 67q72 0 151.5 -28.5t168.5 -71.5q115 -56 192.5 -86.5t141.5 -44t139 -17.5l-19 -245
q-202 -17 -375 -63.5t-301 -118t-199.5 -161.5t-71.5 -193q0 -164 116 -247.5t377 -83.5q118 0 218.5 20t202.5 67l62 -245q-111 -53 -230 -73t-267 -20q-207 0 -371 60t-259 185t-95 321q0 238 169 426t484 282z" />
    <glyph glyph-name="uni062F" unicode="&#x62f;" horiz-adv-x="963" 
d="M58 296q63 -13 135 -24t124 -11q187 0 259.5 40.5t72.5 102.5q0 79 -115.5 196t-314.5 243l142 214q250 -149 397 -310t147 -340q0 -205 -150.5 -305t-424.5 -100q-75 0 -142.5 9t-129.5 22v263z" />
    <glyph glyph-name="uni0630" unicode="&#x630;" horiz-adv-x="963" 
d="M174 1340l174 173l174 -173l-174 -174zM58 296q63 -13 135 -24t124 -11q187 0 259.5 40.5t72.5 102.5q0 79 -115.5 196t-314.5 243l142 214q250 -149 397 -310t147 -340q0 -205 -150.5 -305t-424.5 -100q-75 0 -142.5 9t-129.5 22v263z" />
    <glyph glyph-name="uni0631" unicode="&#x631;" horiz-adv-x="710" 
d="M552 617q47 -108 73.5 -227.5t26.5 -236.5q0 -164 -65.5 -306t-200.5 -245t-345 -150l-109 221q243 60 358.5 176.5t115.5 287.5q0 90 -25.5 195t-65.5 200z" />
    <glyph glyph-name="uni0632" unicode="&#x632;" horiz-adv-x="710" 
d="M236 932l174 173l174 -173l-174 -174zM552 617q47 -108 73.5 -227.5t26.5 -236.5q0 -164 -65.5 -306t-200.5 -245t-345 -150l-109 221q243 60 358.5 176.5t115.5 287.5q0 90 -25.5 195t-65.5 200z" />
    <glyph glyph-name="uni0633" unicode="&#x633;" horiz-adv-x="2456" 
d="M1531 0q-89 0 -153 33q-15 -181 -104 -304t-232 -186t-321 -63q-309 0 -486 159.5t-177 456.5q0 119 30.5 242t77.5 239l228 -92q-35 -95 -59.5 -196t-24.5 -188q0 -187 95.5 -275t312.5 -88q210 0 314 96t105 306q0 97 -30.5 198t-74.5 194l249 86l72 -222
q23 -72 64 -103.5t116 -32.5q82 0 113.5 38.5t31.5 130.5q0 14 -2 50.5t-5 81t-6 81.5l245 30l19 -268q5 -70 32.5 -107t85.5 -37q43 0 71 37.5t28 144.5q0 53 -16.5 135.5t-36.5 157.5l241 61q25 -82 44.5 -169t19.5 -170q0 -118 -33 -222t-110 -169t-207 -66
q-162 0 -246 117q-108 -117 -271 -117z" />
    <glyph glyph-name="uni0634" unicode="&#x634;" horiz-adv-x="2456" 
d="M1590 1244l154 153l155 -153l-155 -155zM1762 982l154 153l155 -153l-155 -155zM1422 982l154 153l155 -153l-155 -155zM1531 0q-89 0 -153 33q-15 -181 -104 -304t-232 -186t-321 -63q-309 0 -486 159.5t-177 456.5q0 119 30.5 242t77.5 239l228 -92q-35 -95 -59.5 -196
t-24.5 -188q0 -187 95.5 -275t312.5 -88q210 0 314 96t105 306q0 97 -30.5 198t-74.5 194l249 86l72 -222q23 -72 64 -103.5t116 -32.5q82 0 113.5 38.5t31.5 130.5q0 14 -2 50.5t-5 81t-6 81.5l245 30l19 -268q5 -70 32.5 -107t85.5 -37q43 0 71 37.5t28 144.5
q0 53 -16.5 135.5t-36.5 157.5l241 61q25 -82 44.5 -169t19.5 -170q0 -118 -33 -222t-110 -169t-207 -66q-162 0 -246 117q-108 -117 -271 -117z" />
    <glyph glyph-name="uni0635" unicode="&#x635;" horiz-adv-x="2575" 
d="M394 485q-35 -95 -59.5 -194.5t-24.5 -189.5q0 -190 97 -276.5t311 -86.5q209 0 313.5 96.5t105.5 305.5q0 99 -30.5 199.5t-74.5 192.5l249 86l72 -222q24 -72 54 -90q166 274 336.5 417.5t354.5 143.5q120 0 214.5 -53.5t149.5 -145.5t55 -206q-1 -237 -199.5 -349.5
t-560.5 -112.5h-51q-208 0 -327 41q-14 -187 -104 -311.5t-234 -187t-320 -62.5q-309 0 -486 159.5t-177 456.5q0 119 30.5 242t77.5 239zM1753 261q276 0 391 54t115 138q0 66 -42 109t-113 43q-89 0 -196 -84.5t-227 -259.5h72z" />
    <glyph glyph-name="uni0636" unicode="&#x636;" horiz-adv-x="2575" 
d="M1885 1197l174 173l174 -173l-174 -174zM394 485q-35 -95 -59.5 -194.5t-24.5 -189.5q0 -190 97 -276.5t311 -86.5q209 0 313.5 96.5t105.5 305.5q0 99 -30.5 199.5t-74.5 192.5l249 86l72 -222q24 -72 54 -90q166 274 336.5 417.5t354.5 143.5q120 0 214.5 -53.5
t149.5 -145.5t55 -206q-1 -237 -199.5 -349.5t-560.5 -112.5h-51q-208 0 -327 41q-14 -187 -104 -311.5t-234 -187t-320 -62.5q-309 0 -486 159.5t-177 456.5q0 119 30.5 242t77.5 239zM1753 261q276 0 391 54t115 138q0 66 -42 109t-113 43q-89 0 -196 -84.5t-227 -259.5
h72z" />
    <glyph glyph-name="uni0637" unicode="&#x637;" horiz-adv-x="1471" 
d="M298 260q14 23 28 44.5t27 42.5v1039h249v-709q89 92 186 141t203 49q123 0 218.5 -52.5t149.5 -144t54 -208.5q-2 -237 -200.5 -349.5t-559.5 -112.5h-595v260h240zM649 262q276 0 391 54t115 138q0 66 -42 109t-113 43q-89 0 -196 -84.5t-227 -259.5h72z" />
    <glyph glyph-name="uni0638" unicode="&#x638;" horiz-adv-x="1471" 
d="M797 1197l174 173l174 -173l-174 -174zM298 260q14 23 28 44.5t27 42.5v1039h249v-709q89 92 186 141t203 49q123 0 218.5 -52.5t149.5 -144t54 -208.5q-2 -237 -200.5 -349.5t-559.5 -112.5h-595v260h240zM649 262q276 0 391 54t115 138q0 66 -42 109t-113 43
q-89 0 -196 -84.5t-227 -259.5h72z" />
    <glyph glyph-name="uni0639" unicode="&#x639;" horiz-adv-x="1306" 
d="M986 726q-67 39 -139.5 72t-131.5 33q-75 0 -127.5 -44t-52.5 -117q0 -58 27 -103.5t56 -74.5q84 14 158 21.5t136 7.5q59 0 115.5 -4.5t110.5 -10.5l-33 -247q-32 1 -73 2t-61 1q-237 0 -384 -50t-215 -135.5t-68 -193.5q0 -140 111.5 -222.5t350.5 -82.5q112 0 213 21
t201 67l61 -245q-109 -53 -226.5 -74t-259.5 -21q-141 0 -267 33.5t-222.5 101t-152 171t-55.5 244.5q0 167 76.5 302t241.5 221q-48 67 -71 138t-23 146q0 108 59 200.5t155.5 149t208.5 56.5q102 0 194.5 -41.5t184.5 -104.5z" />
    <glyph glyph-name="uni063A" unicode="&#x63a;" horiz-adv-x="1306" 
d="M507 1382l174 173l174 -173l-174 -174zM986 726q-67 39 -139.5 72t-131.5 33q-75 0 -127.5 -44t-52.5 -117q0 -58 27 -103.5t56 -74.5q84 14 158 21.5t136 7.5q59 0 115.5 -4.5t110.5 -10.5l-33 -247q-32 1 -73 2t-61 1q-237 0 -384 -50t-215 -135.5t-68 -193.5
q0 -140 111.5 -222.5t350.5 -82.5q112 0 213 21t201 67l61 -245q-109 -53 -226.5 -74t-259.5 -21q-141 0 -267 33.5t-222.5 101t-152 171t-55.5 244.5q0 167 76.5 302t241.5 221q-48 67 -71 138t-23 146q0 108 59 200.5t155.5 149t208.5 56.5q102 0 194.5 -41.5
t184.5 -104.5z" />
    <glyph glyph-name="uni063D" unicode="&#x63d;" horiz-adv-x="1477" 
d="M479 1150h150l202 -338h-140l-137 234l-136 -234h-140zM413 537q-44 -108 -74 -221t-30 -204q0 -188 94.5 -271t310.5 -84q114 0 220 28t174 78t68 117q0 22 -8.5 29t-42.5 7h-151q-135 0 -210.5 75t-75.5 212q0 130 60 245t170.5 187t263.5 72q46 0 112 -12t123 -35
l-46 -241q-43 13 -90 22.5t-99 9.5q-95 0 -148.5 -42.5t-75 -98t-21.5 -94.5q0 -26 8.5 -35t38.5 -9h180q134 0 192.5 -81.5t58.5 -198.5q0 -155 -94 -265t-252 -168t-350 -58q-308 0 -484.5 156t-176.5 462q0 119 35.5 249t91.5 262z" />
    <glyph glyph-name="uni0640" unicode="&#x640;" horiz-adv-x="540" 
d="M-20 0v260h580v-260h-580z" />
    <glyph glyph-name="uni0641" unicode="&#x641;" horiz-adv-x="1781" 
d="M1129 1401l174 173l174 -173l-174 -174zM1476 390q-72 -16 -148 -16q-173 0 -269.5 71t-96.5 229q0 75 21.5 153.5t66.5 145t114 107.5t164 41q107 0 182.5 -54.5t122 -145t68.5 -200.5t22 -220q-1 -203 -65.5 -311t-196.5 -149t-334 -41h-290q-370 0 -574.5 129
t-204.5 395q0 83 21.5 159.5t50.5 145.5l226 -85q-16 -44 -29.5 -99t-13.5 -106q0 -138 126 -208.5t394 -70.5h315q165 0 239.5 27.5t88.5 102.5zM1469 628q-17 97 -52.5 167t-94.5 70q-39 0 -66 -31t-40.5 -74.5t-13.5 -82.5q0 -37 29.5 -51.5t107.5 -14.5q32 0 64.5 4.5
t65.5 12.5z" />
    <glyph glyph-name="uni0642" unicode="&#x642;" horiz-adv-x="1437" 
d="M963 1117l163 162l163 -163l-163 -163zM626 1117l163 162l163 -162l-163 -164zM394 545q-35 -95 -59.5 -194.5t-24.5 -189.5q0 -187 97 -275t315 -88q148 0 235.5 34.5t128.5 101t49 164.5q-38 -9 -77 -14t-84 -5q-170 0 -266.5 78.5t-96.5 231.5q0 72 21 150t65.5 146.5
t114 111t166.5 42.5q111 0 188 -57t124 -151.5t68 -208t21 -226.5q0 -325 -168.5 -490.5t-489.5 -165.5q-312 0 -487.5 159.5t-175.5 456.5q0 119 30.5 242t77.5 239zM1118 346q-15 97 -51 167.5t-96 70.5q-42 0 -68.5 -28.5t-39 -69.5t-12.5 -77q0 -41 27.5 -60.5
t108.5 -19.5q64 0 131 17z" />
    <glyph glyph-name="uni0643" unicode="&#x643;" horiz-adv-x="1831" 
d="M978 260q177 0 278 16t147.5 48t58.5 78.5t12 107.5v876h249v-874q0 -128 -33.5 -224t-115.5 -160t-225.5 -96t-363.5 -32h-145q-242 0 -417.5 57t-270 173.5t-94.5 293.5q0 83 21.5 159.5t50.5 145.5l226 -85q-16 -44 -29.5 -99t-13.5 -106q1 -139 122 -209t395 -70h148
zM723 633q70 1 136 6.5t108.5 19.5t42.5 41q0 40 -27.5 53.5t-68 18.5t-81 15.5t-68 41.5t-27.5 100q0 75 54.5 117.5t137 60t167.5 18.5v-124q-50 -4 -105 -12.5t-93.5 -23.5t-38.5 -37q0 -19 27 -24.5t67 -11t80 -22t67 -55t27 -111.5q0 -71 -36 -111t-95 -57.5
t-130.5 -22t-143.5 -4.5v124z" />
    <glyph glyph-name="uni0644" unicode="&#x644;" horiz-adv-x="1377" 
d="M387 420q-33 -85 -55.5 -178t-22.5 -166q0 -180 86.5 -259t279.5 -79q174 0 258.5 87.5t84.5 282.5l3 1278h248l-1 -1239q0 -326 -150.5 -496.5t-443.5 -170.5q-294 0 -455 151.5t-161 444.5q0 98 28 214.5t72 222.5z" />
    <glyph glyph-name="uni0645" unicode="&#x645;" horiz-adv-x="1230" 
d="M74 -655q-6 94 -9.5 189.5t-3.5 182.5q0 120 10 234.5t41 210t94 160t168 85.5q75 181 171.5 276.5t234.5 95.5q121 0 209 -60t135.5 -158.5t47.5 -213.5q0 -103 -36 -187t-109.5 -133.5t-183.5 -49.5q-81 0 -181 45q-33 15 -83 43t-95.5 51t-66.5 23q-47 0 -75 -86.5
t-28 -307.5q0 -111 5 -209t12 -191h-257zM614 336q68 -49 131.5 -75.5t101.5 -26.5q78 0 78 101q0 82 -40 131.5t-105 49.5q-47 0 -88 -50.5t-78 -129.5z" />
    <glyph glyph-name="uni0646" unicode="&#x646;" horiz-adv-x="1447" 
d="M533 742l174 173l174 -173l-174 -174zM1032 602l251 88q49 -124 77.5 -255t28.5 -255q0 -204 -87.5 -344.5t-238.5 -213t-342 -72.5q-309 0 -486 160t-177 456q0 119 30.5 242t77.5 239l228 -92q-35 -95 -59.5 -194.5t-24.5 -189.5q0 -186 95.5 -274.5t312.5 -88.5
q209 0 313.5 97t105.5 305q0 99 -30.5 199.5t-74.5 192.5z" />
    <glyph glyph-name="uni0647" unicode="&#x647;" horiz-adv-x="922" 
d="M360 1018q146 -111 260 -218.5t179 -215.5t65 -220q0 -110 -52 -191t-143.5 -125t-207.5 -44q-177 0 -290 90t-113 270q0 119 54.5 211.5t154.5 207.5l-49 43zM448 618q-77 -73 -110 -136.5t-33 -112.5q0 -50 31 -79.5t124 -29.5q96 0 126.5 26t30.5 84q0 42 -39.5 107
t-129.5 141z" />
    <glyph glyph-name="uni0648" unicode="&#x648;" horiz-adv-x="880" 
d="M553 12q-54 -12 -105 -12q-182 0 -286 83.5t-104 252.5q0 79 22 159t67.5 147.5t115 108.5t165.5 41q103 0 177.5 -51t122.5 -136.5t71 -189.5t23 -209q0 -306 -174 -497t-505 -252l-90 230q198 36 327 120t173 205zM573 270q-13 148 -54 206.5t-99 58.5q-43 0 -68.5 -32
t-37 -77.5t-11.5 -84.5q0 -46 28 -65.5t122 -19.5q62 0 120 14z" />
    <glyph glyph-name="uni0649" unicode="&#x649;" horiz-adv-x="1477" 
d="M413 537q-44 -108 -74 -221t-30 -204q0 -188 94.5 -271t310.5 -84q114 0 220 28t174 78t68 117q0 22 -8.5 29t-42.5 7h-151q-135 0 -210.5 75t-75.5 212q0 130 60 245t170.5 187t263.5 72q46 0 112 -12t123 -35l-46 -241q-43 13 -90 22.5t-99 9.5q-95 0 -148.5 -42.5
t-75 -98t-21.5 -94.5q0 -26 8.5 -35t38.5 -9h180q134 0 192.5 -81.5t58.5 -198.5q0 -155 -94 -265t-252 -168t-350 -58q-308 0 -484.5 156t-176.5 462q0 119 35.5 249t91.5 262z" />
    <glyph glyph-name="uni064A" unicode="&#x64a;" horiz-adv-x="1477" 
d="M725 -789l163 162l163 -163l-163 -163zM388 -789l163 162l163 -162l-163 -164zM413 537q-44 -108 -74 -221t-30 -204q0 -188 94.5 -271t310.5 -84q114 0 220 28t174 78t68 117q0 22 -8.5 29t-42.5 7h-151q-135 0 -210.5 75t-75.5 212q0 130 60 245t170.5 187t263.5 72
q46 0 112 -12t123 -35l-46 -241q-43 13 -90 22.5t-99 9.5q-95 0 -148.5 -42.5t-75 -98t-21.5 -94.5q0 -26 8.5 -35t38.5 -9h180q134 0 192.5 -81.5t58.5 -198.5q0 -155 -94 -265t-252 -168t-350 -58q-308 0 -484.5 156t-176.5 462q0 119 35.5 249t91.5 262z" />
    <glyph glyph-name="uni064B" unicode="&#x64b;" 
d="M33 1194v118l469 192v-117zM33 982v118l469 192v-117z" />
    <glyph glyph-name="uni064C" unicode="&#x64c;" 
d="M282 1229q0 75 48.5 122t121.5 47q74 0 121.5 -46.5t47.5 -123.5q0 -55 -25 -116q19 -2 41 -2v-90q-18 1 -36.5 2.5t-43.5 6.5q-50 -68 -140 -106.5t-185 -38.5q-75 0 -102 42.5t-27 107.5q0 23 2.5 48t5.5 51l-104 -23l5 95l203 48q-10 -57 -19.5 -113t-9.5 -94
q0 -70 47 -70q51 0 119.5 20t112.5 56q-69 16 -126 61t-57 116zM505 1131q10 24 17 49t7 47q0 33 -21.5 55t-51.5 22q-35 0 -57.5 -21.5t-22.5 -57.5q0 -37 40.5 -59t88.5 -35z" />
    <glyph glyph-name="uni064D" unicode="&#x64d;" 
d="M33 -444v118l470 192v-118zM33 -656v118l470 192v-118z" />
    <glyph glyph-name="uni064E" unicode="&#x64e;" 
d="M37 1108v118l470 192v-118z" />
    <glyph glyph-name="uni064F" unicode="&#x64f;" 
d="M469 1042q-46 0 -84 6q-52 -71 -150 -107t-223 -43v91q93 9 167.5 30t111.5 54q-67 15 -123 59.5t-56 115.5q0 76 48.5 122.5t121.5 46.5t121.5 -47t48.5 -123q0 -54 -24 -114q21 -2 41 -2v-89zM335 1150q10 24 17 49t7 47q0 34 -21.5 55t-51.5 21q-36 0 -58 -21t-22 -57
q0 -37 40.5 -59t88.5 -35z" />
    <glyph glyph-name="uni0650" unicode="&#x650;" 
d="M33 -516v118l469 192v-117z" />
    <glyph glyph-name="uni0651" unicode="&#x651;" 
d="M344 1296q2 -40 4.5 -82.5t16 -72t46.5 -29.5q60 0 60 94q0 18 -5 51.5t-13 71.5l101 17q20 -69 20 -130q0 -208 -154 -210q-30 0 -60 13t-47 36q-19 -54 -63 -73.5t-88 -19.5q-145 0 -145 185q0 29 4.5 56t10.5 52l91 -16q-10 -46 -10 -88q0 -77 61 -77q59 0 69.5 41.5
t10.5 134.5v46h90z" />
    <glyph glyph-name="uni0652" unicode="&#x652;" 
d="M34 1147q0 74 53 127t127 53t127 -53t53 -127t-53 -127t-127 -53t-127 53t-53 127zM127 1147q0 -36 25.5 -61t61.5 -25t61 25t25 61t-25 61.5t-61 25.5t-61.5 -25.5t-25.5 -61.5z" />
    <glyph glyph-name="uni0653" unicode="&#x653;" 
d="M230 1187q-36 0 -70.5 -35t-74.5 -78l-82 75q27 31 60.5 67t70.5 62t76 26q35 0 69 -17.5t67 -35t67 -17.5q43 0 64.5 15.5t70.5 56.5l71 -94q-59 -44 -104.5 -69.5t-83.5 -25.5q-33 0 -67.5 17.5t-68.5 35t-65 17.5z" />
    <glyph glyph-name="uni0654" unicode="&#x654;" 
d="M126 1068q-30 32 -49.5 71.5t-19.5 92.5q0 39 11 70t30 55q27 34 67 52t82 18q43 0 70 -11t56 -28l1 -113q-30 16 -56 24.5t-57 8.5q-18 0 -38 -5t-35 -19q-25 -23 -25 -65q0 -31 21 -59t69 -42q5 -1 10 -2.5t10 -1.5h9l130 27v-111l-393 -94v107z" />
    <glyph glyph-name="uni0655" unicode="&#x655;" 
d="M105 -390q-30 32 -49.5 71.5t-19.5 92.5q0 39 11 70t30 55q27 34 67 52t82 18q43 0 70 -11t56 -28l1 -113q-30 16 -56 24.5t-57 8.5q-18 0 -38 -5t-35 -19q-25 -23 -25 -65q0 -31 21 -59t69 -42q5 -1 10 -2.5t10 -1.5h9l130 27v-111l-393 -94v107z" />
    <glyph glyph-name="uni0656" unicode="&#x656;" 
d="M58 -393v372h98v-372h-98z" />
    <glyph glyph-name="uni0657" unicode="&#x657;" 
d="M25 1359q65 -2 134 -9q77 99 168 161.5t232 75.5v-91q-183 -29 -295 -168q64 -19 116 -63.5t52 -118.5q0 -71 -46 -119.5t-118 -48.5q-71 0 -123.5 47t-52.5 125q0 45 21 113q-20 1 -41.5 2t-46.5 1v93zM268 1070q69 0 69 74q0 40 -40.5 66t-88.5 38q-24 -59 -24 -96
q0 -36 24.5 -59t59.5 -23z" />
    <glyph glyph-name="uni0658" unicode="&#x658;" 
d="M562 1282q-11 -116 -72 -198.5t-181 -82.5q-121 0 -181.5 83t-71.5 198h114q10 -74 39 -119.5t100 -45.5q70 0 99 46t39 119h115z" />
    <glyph glyph-name="uni065A" unicode="&#x65a;" 
d="M498 1437l-201 338h140l136 -234l137 234h140l-202 -338h-150z" />
    <glyph glyph-name="uni065B" unicode="&#x65b;" 
d="M498 1775h150l202 -338h-140l-137 234l-136 -234h-140z" />
    <glyph glyph-name="uni0660" unicode="&#x660;" horiz-adv-x="902" 
d="M105 493q0 95 47 173.5t125.5 125.5t173.5 47t173.5 -47t125.5 -125.5t47 -173.5t-47 -173.5t-125.5 -125.5t-173.5 -47t-173.5 47t-125.5 125.5t-47 173.5zM318 493q0 -56 39 -95t94 -39t94 39t39 95q0 55 -38.5 93.5t-94.5 38.5t-94.5 -38.5t-38.5 -93.5z" />
    <glyph glyph-name="uni0661" unicode="&#x661;" horiz-adv-x="651" 
d="M295 1351q107 -238 164.5 -524t57.5 -622v-205h-250v208q0 338 -53 597.5t-151 459.5z" />
    <glyph glyph-name="uni0662" unicode="&#x662;" horiz-adv-x="1114" 
d="M267 208q0 338 -53 597.5t-151 460.5l233 84q26 -69 52.5 -138t52.5 -138q33 -84 81.5 -121.5t141.5 -37.5q166 0 166 215q0 50 -8 101.5t-15 93.5l250 28q6 -48 12.5 -99.5t6.5 -113.5q0 -214 -105.5 -346t-304.5 -132q-77 0 -140 22q16 -126 23.5 -249t7.5 -230v-205
h-250v208z" />
    <glyph glyph-name="uni0663" unicode="&#x663;" horiz-adv-x="1411" 
d="M267 208q0 338 -53 597.5t-151 460.5l234 84q30 -85 61 -169.5t62 -170.5q34 -95 133 -95q51 0 77.5 46t27.5 180q0 34 0.5 67t0.5 67l233 19q1 -36 2.5 -72t2.5 -73q5 -138 35 -186t67 -48q49 0 69 41t20 118q0 86 -9 140t-19 111l251 30q7 -61 14.5 -121.5t7.5 -153.5
q0 -115 -35.5 -210t-110.5 -151.5t-192 -56.5q-126 0 -222 94q-48 -48 -101 -71t-104 -23q-20 0 -40.5 3t-39.5 11q15 -123 22 -240.5t7 -230.5v-205h-250v208z" />
    <glyph glyph-name="uni0664" unicode="&#x664;" horiz-adv-x="1193" 
d="M298 1350l86 -244q17 -48 25 -63.5t15 -23.5q20 82 68 157.5t125 123t184 47.5q113 0 176 -34t112 -74l-83 -221q-44 28 -86 50.5t-108 22.5q-56 0 -96.5 -31.5t-62 -80.5t-21.5 -103q0 -19 30 -29.5t70.5 -15t71.5 -4.5q76 0 149 23.5t138 49.5l34 -251
q-70 -31 -143.5 -53t-156.5 -22q-107 0 -190.5 25t-145.5 66q14 -127 21 -248.5t7 -211.5v-205h-250v208q0 338 -53 597.5t-152 460.5z" />
    <glyph glyph-name="uni0665" unicode="&#x665;" horiz-adv-x="1246" 
d="M529 1373q210 -194 352.5 -361.5t215.5 -325t73 -321.5q0 -180 -84 -272.5t-232 -92.5q-73 0 -133.5 37.5t-95.5 97.5q-33 -61 -91.5 -98t-136.5 -37q-144 0 -232.5 95t-88.5 270q0 134 50 252t132.5 236.5t179.5 251.5l-61 61zM396 250q53 0 81 48.5t51 168.5h191
q19 -119 49 -168t86 -49q31 0 51.5 24t20.5 90q0 132 -73 265.5t-233 297.5q-145 -181 -222.5 -314t-77.5 -249q0 -61 24.5 -87.5t51.5 -26.5z" />
    <glyph glyph-name="uni0666" unicode="&#x666;" horiz-adv-x="1009" 
d="M533 1089q-48 0 -90.5 -29t-69 -73.5t-26.5 -90.5q0 -20 20 -48t76.5 -53t165.5 -36h4.5h4.5q72 46 130 78t137 71l70 -241q-140 -70 -245 -162.5t-199.5 -227t-205.5 -328.5l-228 102q58 116 108.5 202t103.5 157t118 142q-152 38 -233 130.5t-81 206.5q0 111 52 215.5
t148.5 172.5t231.5 68q83 0 152.5 -31t129.5 -76l-82 -222q-42 27 -85.5 50t-106.5 23z" />
    <glyph glyph-name="uni0667" unicode="&#x667;" horiz-adv-x="1246" 
d="M509 0q-72 408 -194 703.5t-272 526.5l227 122q102 -173 196.5 -399.5t156.5 -498.5q62 273 156.5 499t196.5 399l227 -122q-151 -231 -272 -526.5t-193 -703.5h-229z" />
    <glyph glyph-name="uni0668" unicode="&#x668;" horiz-adv-x="1246" 
d="M509 1325h229q72 -408 193.5 -703.5t271.5 -526.5l-227 -122q-102 173 -197 399.5t-156 498.5q-62 -273 -156.5 -499t-196.5 -399l-227 122q151 231 272.5 526.5t193.5 703.5z" />
    <glyph glyph-name="uni0669" unicode="&#x669;" horiz-adv-x="1026" 
d="M67 910q0 105 48.5 203.5t135.5 162t201 63.5q150 0 235 -73t122 -193t45 -261q8 -162 14.5 -294t11.5 -256t8 -262h-248q-2 73 -5 173t-6.5 205t-6.5 194q-25 -5 -60 -10t-79 -5q-196 0 -306 90.5t-110 262.5zM451 1085q-58 0 -98 -54t-40 -121q0 -50 31 -76.5
t142 -26.5q25 0 60 5.5t59 10.5q-5 75 -16.5 134t-42 93.5t-95.5 34.5z" />
    <glyph glyph-name="uni066A" unicode="&#x66a;" horiz-adv-x="1033" 
d="M722 1385l205 -93l-615 -1300l-205 93zM90 1139q0 71 50.5 122.5t122.5 51.5t122.5 -51.5t50.5 -122.5t-51 -122t-122 -51t-122 50t-51 123zM597 233q0 71 50.5 122.5t122.5 51.5t122.5 -51.5t50.5 -122.5t-51 -122t-122 -51t-122 49.5t-51 123.5z" />
    <glyph glyph-name="uni066B" unicode="&#x66b;" horiz-adv-x="772" 
d="M513 805l201 -85l-494 -1141l-204 88z" />
    <glyph glyph-name="uni066C" unicode="&#x66c;" horiz-adv-x="560" 
d="M179 -351l-151 114q45 64 82 140.5t37 149.5v206h251v-185q0 -93 -32.5 -173.5t-83 -144t-103.5 -107.5z" />
    <glyph glyph-name="uni066D" unicode="&#x66d;" horiz-adv-x="1436" 
d="M29 1119h525l164 499l164 -499h525l-424 -311l163 -499l-428 309l-428 -309l163 499z" />
    <glyph glyph-name="uni066E" unicode="&#x66e;" horiz-adv-x="1777" 
d="M975 0h-135q-242 0 -417.5 57t-270 173.5t-94.5 293.5q0 83 21.5 159.5t50.5 145.5l226 -85q-16 -44 -29.5 -95.5t-13.5 -102.5q1 -139 122 -212.5t395 -73.5h138q144 0 256.5 10.5t177 58t64.5 159.5q0 44 -14 126t-30 153l239 59q16 -51 29 -114t21 -120t8 -89
q0 -165 -58 -265t-160.5 -151.5t-237.5 -69t-288 -17.5z" />
    <glyph glyph-name="uni066F" unicode="&#x66f;" horiz-adv-x="1437" 
d="M394 545q-35 -95 -59.5 -194.5t-24.5 -189.5q0 -187 97 -275t315 -88q148 0 235.5 34.5t128.5 101t49 164.5q-38 -9 -77 -14t-84 -5q-170 0 -266.5 78.5t-96.5 231.5q0 72 21 150t65.5 146.5t114 111t166.5 42.5q111 0 188 -57t124 -151.5t68 -208t21 -226.5
q0 -325 -168.5 -490.5t-489.5 -165.5q-312 0 -487.5 159.5t-175.5 456.5q0 119 30.5 242t77.5 239zM1118 346q-15 97 -51 167.5t-96 70.5q-42 0 -68.5 -28.5t-39 -69.5t-12.5 -77q0 -41 27.5 -60.5t108.5 -19.5q64 0 131 17z" />
    <glyph glyph-name="uni0670" unicode="&#x670;" 
d="M58 1088v372h98v-372h-98z" />
    <glyph glyph-name="uni0671" unicode="&#x671;" horiz-adv-x="465" 
d="M-52 1367l20 95q14 -12 34.5 -28.5t39.5 -26.5q80 133 145 192t146 59q82 0 134 -51t52 -128q0 -103 -72.5 -144t-242.5 -41h-24q-91 0 -149.5 17t-82.5 56zM202 1393q129 0 174.5 16t45.5 66q0 36 -23 59.5t-62 23.5q-50 0 -91 -37t-101 -128h57zM108 1185.99h249
v-1183.13h-249v1183.13z" />
    <glyph glyph-name="uni0674" unicode="&#x674;" horiz-adv-x="551" 
d="M192 1249q-30 32 -49.5 71.5t-19.5 92.5q0 39 11 70t30 55q27 34 67 52t82 18q43 0 70 -11t56 -28l1 -113q-30 16 -56 24.5t-57 8.5q-18 0 -38 -5t-35 -19q-25 -23 -25 -65q0 -31 21 -59t69 -42q5 -1 10 -2.5t10 -1.5h9l130 27v-111l-393 -94v107z" />
    <glyph glyph-name="uni0679" unicode="&#x679;" horiz-adv-x="1777" 
d="M705 839q7 11 13.5 21.5t11.5 19.5v438h108v-294q40 40 84 64t93 24q82 0 135 -51.5t53 -129.5q-1 -105 -89 -155t-251 -50h-265v113h107zM862 840q124 0 176.5 24t52.5 64q0 31 -19 50.5t-52 19.5q-43 0 -93.5 -42t-102.5 -117zM975 0h-135q-242 0 -417.5 57t-270 173.5
t-94.5 293.5q0 83 21.5 159.5t50.5 145.5l226 -85q-16 -44 -29.5 -95.5t-13.5 -102.5q1 -139 122 -212.5t395 -73.5h138q144 0 256.5 10.5t177 58t64.5 159.5q0 44 -14 126t-30 153l239 59q16 -51 29 -114t21 -120t8 -89q0 -165 -58 -265t-160.5 -151.5t-237.5 -69
t-288 -17.5z" />
    <glyph glyph-name="uni067C" unicode="&#x67c;" horiz-adv-x="1777" 
d="M709 -95q0 78 55.5 133.5t133.5 55.5t133.5 -55.5t55.5 -133.5t-55.5 -133.5t-133.5 -55.5t-133.5 55.5t-55.5 133.5zM811 -95q0 -36 25.5 -61t61.5 -25t61 25t25 61t-25 61.5t-61 25.5t-61.5 -25.5t-25.5 -61.5zM975 0h-135q-242 0 -417.5 57t-270 173.5t-94.5 293.5
q0 83 21.5 159.5t50.5 145.5l226 -85q-16 -44 -29.5 -95.5t-13.5 -102.5q1 -139 122 -212.5t395 -73.5h138q144 0 256.5 10.5t177 58t64.5 159.5q0 44 -14 126t-30 153l239 59q16 -51 29 -114t21 -120t8 -89q0 -165 -58 -265t-160.5 -151.5t-237.5 -69t-288 -17.5zM901 860
l163 162l163 -163l-163 -163zM564 860l163 162l163 -162l-163 -164z" />
    <glyph glyph-name="uni067E" unicode="&#x67e;" horiz-adv-x="1777" 
d="M924 -268l154 155l155 -155l-155 -154zM584 -268l154 155l155 -155l-155 -154zM752 -530l154 155l155 -155l-155 -154zM975 0h-135q-242 0 -417.5 57t-270 173.5t-94.5 293.5q0 83 21.5 159.5t50.5 145.5l226 -85q-16 -44 -29.5 -95.5t-13.5 -102.5q1 -139 122 -212.5
t395 -73.5h138q144 0 256.5 10.5t177 58t64.5 159.5q0 44 -14 126t-30 153l239 59q16 -51 29 -114t21 -120t8 -89q0 -165 -58 -265t-160.5 -151.5t-237.5 -69t-288 -17.5z" />
    <glyph glyph-name="uni0681" unicode="&#x681;" horiz-adv-x="1347" 
d="M533 1200q-30 32 -49.5 71.5t-19.5 92.5q0 39 11 70t30 55q27 34 67 52t82 18q43 0 70 -11t56 -28l1 -113q-30 16 -56 24.5t-57 8.5q-18 0 -38 -5t-35 -19q-25 -23 -25 -65q0 -31 21 -59t69 -42q5 -1 10 -2.5t10 -1.5h9l130 27v-111l-393 -94v107zM712 597
q-15 6 -28.5 11.5t-35.5 13.5q-67 26 -109.5 40t-61.5 14q-44 0 -90 -28t-79 -71l-48 -61l-218 109l36 64q66 111 170 178t230 67q72 0 151.5 -28.5t168.5 -71.5q115 -56 192.5 -86.5t141.5 -44t139 -17.5l-19 -245q-202 -17 -375 -63.5t-301 -118t-199.5 -161.5t-71.5 -193
q0 -164 116 -247.5t377 -83.5q118 0 218.5 20t202.5 67l62 -245q-111 -53 -230 -73t-267 -20q-207 0 -371 60t-259 185t-95 321q0 238 169 426t484 282z" />
    <glyph glyph-name="uni0685" unicode="&#x685;" horiz-adv-x="1347" 
d="M482 1445l154 153l155 -153l-155 -155zM654 1183l154 153l155 -153l-155 -155zM314 1183l154 153l155 -153l-155 -155zM712 597q-15 6 -28.5 11.5t-35.5 13.5q-67 26 -109.5 40t-61.5 14q-44 0 -90 -28t-79 -71l-48 -61l-218 109l36 64q66 111 170 178t230 67
q72 0 151.5 -28.5t168.5 -71.5q115 -56 192.5 -86.5t141.5 -44t139 -17.5l-19 -245q-202 -17 -375 -63.5t-301 -118t-199.5 -161.5t-71.5 -193q0 -164 116 -247.5t377 -83.5q118 0 218.5 20t202.5 67l62 -245q-111 -53 -230 -73t-267 -20q-207 0 -371 60t-259 185t-95 321
q0 238 169 426t484 282z" />
    <glyph glyph-name="uni0686" unicode="&#x686;" horiz-adv-x="1347" 
d="M829.537 52.4688l143.736 144.669l144.669 -144.669l-144.669 -143.736zM512.199 52.4688l143.735 144.669l144.669 -144.669l-144.669 -143.736zM669.002 -192.068l143.735 144.669l144.669 -144.669l-144.669 -143.736zM712 597q-15 6 -28.5 11.5t-35.5 13.5
q-67 26 -109.5 40t-61.5 14q-44 0 -90 -28t-79 -71l-48 -61l-218 109l36 64q66 111 170 178t230 67q72 0 151.5 -28.5t168.5 -71.5q115 -56 192.5 -86.5t141.5 -44t139 -17.5l-19 -245q-202 -17 -375 -63.5t-301 -118t-199.5 -161.5t-71.5 -193q0 -164 116 -247.5t377 -83.5
q118 0 218.5 20t202.5 67l62 -245q-111 -53 -230 -73t-267 -20q-207 0 -371 60t-259 185t-95 321q0 238 169 426t484 282z" />
    <glyph glyph-name="uni0688" unicode="&#x688;" horiz-adv-x="963" 
d="M220 1334q7 11 13.5 21.5t11.5 19.5v438h108v-294q40 40 84 64t93 24q82 0 135 -51.5t53 -129.5q-1 -105 -89 -155t-251 -50h-265v113h107zM377 1335q124 0 176.5 24t52.5 64q0 31 -19 50.5t-52 19.5q-43 0 -93.5 -42t-102.5 -117zM58 296q63 -13 135 -24t124 -11
q187 0 259.5 40.5t72.5 102.5q0 79 -115.5 196t-314.5 243l142 214q250 -149 397 -310t147 -340q0 -205 -150.5 -305t-424.5 -100q-75 0 -142.5 9t-129.5 22v263z" />
    <glyph glyph-name="uni0689" unicode="&#x689;" horiz-adv-x="963" 
d="M241 -91q0 78 55.5 133.5t133.5 55.5t133.5 -55.5t55.5 -133.5t-55.5 -133.5t-133.5 -55.5t-133.5 55.5t-55.5 133.5zM343 -91q0 -36 25.5 -61t61.5 -25t61 25t25 61t-25 61.5t-61 25.5t-61.5 -25.5t-25.5 -61.5zM58 296q63 -13 135 -24t124 -11q187 0 259.5 40.5
t72.5 102.5q0 79 -115.5 196t-314.5 243l142 214q250 -149 397 -310t147 -340q0 -205 -150.5 -305t-424.5 -100q-75 0 -142.5 9t-129.5 22v263z" />
    <glyph glyph-name="uni0691" unicode="&#x691;" horiz-adv-x="730" 
d="M184 887q7 11 13.5 21.5t11.5 19.5v438h108v-294q40 40 84 64t93 24q82 0 135 -51.5t53 -129.5q-1 -105 -89 -155t-251 -50h-265v113h107zM341 888q124 0 176.5 24t52.5 64q0 31 -19 50.5t-52 19.5q-43 0 -93.5 -42t-102.5 -117zM552 617q47 -108 73.5 -227.5
t26.5 -236.5q0 -164 -65.5 -306t-200.5 -245t-345 -150l-109 221q243 60 358.5 176.5t115.5 287.5q0 90 -25.5 195t-65.5 200z" />
    <glyph glyph-name="uni0693" unicode="&#x693;" horiz-adv-x="710" 
d="M312 -438q0 78 55.5 133.5t133.5 55.5t133.5 -55.5t55.5 -133.5t-55.5 -133.5t-133.5 -55.5t-133.5 55.5t-55.5 133.5zM414 -438q0 -36 25.5 -61t61.5 -25t61 25t25 61t-25 61.5t-61 25.5t-61.5 -25.5t-25.5 -61.5zM552 617q47 -108 73.5 -227.5t26.5 -236.5
q0 -164 -65.5 -306t-200.5 -245t-345 -150l-109 221q243 60 358.5 176.5t115.5 287.5q0 90 -25.5 195t-65.5 200z" />
    <glyph glyph-name="uni0695" unicode="&#x695;" horiz-adv-x="710" 
d="M249 -945l-201 338h140l136 -234l137 234h140l-202 -338h-150zM552 617q47 -108 73.5 -227.5t26.5 -236.5q0 -164 -65.5 -306t-200.5 -245t-345 -150l-109 221q243 60 358.5 176.5t115.5 287.5q0 90 -25.5 195t-65.5 200z" />
    <glyph glyph-name="uni0696" unicode="&#x696;" horiz-adv-x="710" 
d="M238 -402l174 173l174 -173l-174 -174zM112 -144l174 173l174 -173l-174 -174zM552 617q47 -108 73.5 -227.5t26.5 -236.5q0 -164 -65.5 -306t-200.5 -245t-345 -150l-109 221q243 60 358.5 176.5t115.5 287.5q0 90 -25.5 195t-65.5 200z" />
    <glyph glyph-name="uni0698" unicode="&#x698;" horiz-adv-x="730" 
d="M235 1129l154 153l155 -153l-155 -155zM407 867l154 153l155 -153l-155 -155zM67 867l154 153l155 -153l-155 -155zM552 617q47 -108 73.5 -227.5t26.5 -236.5q0 -164 -65.5 -306t-200.5 -245t-345 -150l-109 221q243 60 358.5 176.5t115.5 287.5q0 90 -25.5 195
t-65.5 200z" />
    <glyph glyph-name="uni069A" unicode="&#x69a;" horiz-adv-x="2456" 
d="M1634 -298l174 173l174 -173l-174 -174zM1574 1006l174 173l174 -173l-174 -174zM1531 0q-89 0 -153 33q-15 -181 -104 -304t-232 -186t-321 -63q-309 0 -486 159.5t-177 456.5q0 119 30.5 242t77.5 239l228 -92q-35 -95 -59.5 -196t-24.5 -188q0 -187 95.5 -275
t312.5 -88q210 0 314 96t105 306q0 97 -30.5 198t-74.5 194l249 86l72 -222q23 -72 64 -103.5t116 -32.5q82 0 113.5 38.5t31.5 130.5q0 14 -2 50.5t-5 81t-6 81.5l245 30l19 -268q5 -70 32.5 -107t85.5 -37q43 0 71 37.5t28 144.5q0 53 -16.5 135.5t-36.5 157.5l241 61
q25 -82 44.5 -169t19.5 -170q0 -118 -33 -222t-110 -169t-207 -66q-162 0 -246 117q-108 -117 -271 -117z" />
    <glyph glyph-name="uni06A1" unicode="&#x6a1;" horiz-adv-x="1781" 
d="M1476 390q-72 -16 -148 -16q-173 0 -269.5 71t-96.5 229q0 75 21.5 153.5t66.5 145t114 107.5t164 41q107 0 182.5 -54.5t122 -145t68.5 -200.5t22 -220q-1 -203 -65.5 -311t-196.5 -149t-334 -41h-290q-370 0 -574.5 129t-204.5 395q0 83 21.5 159.5t50.5 145.5l226 -85
q-16 -44 -29.5 -99t-13.5 -106q0 -138 126 -208.5t394 -70.5h315q165 0 239.5 27.5t88.5 102.5zM1469 628q-17 97 -52.5 167t-94.5 70q-39 0 -66 -31t-40.5 -74.5t-13.5 -82.5q0 -37 29.5 -51.5t107.5 -14.5q32 0 64.5 4.5t65.5 12.5z" />
    <glyph glyph-name="uni06A4" unicode="&#x6a4;" horiz-adv-x="1781" 
d="M1146 1626l154 153l155 -153l-155 -155zM1318 1364l154 153l155 -153l-155 -155zM978 1364l154 153l155 -153l-155 -155zM1476 390q-72 -16 -148 -16q-173 0 -269.5 71t-96.5 229q0 75 21.5 153.5t66.5 145t114 107.5t164 41q107 0 182.5 -54.5t122 -145t68.5 -200.5
t22 -220q-1 -203 -65.5 -311t-196.5 -149t-334 -41h-290q-370 0 -574.5 129t-204.5 395q0 83 21.5 159.5t50.5 145.5l226 -85q-16 -44 -29.5 -99t-13.5 -106q0 -138 126 -208.5t394 -70.5h315q165 0 239.5 27.5t88.5 102.5zM1469 628q-17 97 -52.5 167t-94.5 70
q-39 0 -66 -31t-40.5 -74.5t-13.5 -82.5q0 -37 29.5 -51.5t107.5 -14.5q32 0 64.5 4.5t65.5 12.5z" />
    <glyph glyph-name="uni06A9" unicode="&#x6a9;" horiz-adv-x="1865" 
d="M1077 260q140 0 214.5 16.5t103 47.5t28.5 75q0 54 -65.5 128.5t-167 163t-211.5 183.5q-33 28 -49 68t-16 81q0 63 33 113t97 74l757 282v-261l-594 -220q73 -58 155 -125.5t154 -144.5t117.5 -163t45.5 -182q0 -203 -151.5 -299.5t-449.5 -96.5h-238q-242 0 -417.5 57
t-270 173.5t-94.5 293.5q0 83 21.5 159.5t50.5 145.5l226 -85q-16 -44 -29.5 -99t-13.5 -106q1 -139 122 -209t395 -70h247z" />
    <glyph glyph-name="uni06AA" unicode="&#x6aa;" horiz-adv-x="2010" 
d="M1191 0h-351q-33 0 -121.5 3t-206.5 10.5t-242.5 22.5t-228.5 39l78 228q128 -18 266.5 -27.5t257 -12.5t187.5 -3h360q145 0 260.5 9.5t183 32t67.5 61.5q0 34 -65.5 55t-178 31t-253.5 10h-370q-62 1 -121.5 16t-99 57.5t-39.5 126.5q0 62 39 109.5t80 81.5
q81 66 212 139t286.5 141.5t310.5 121.5v-256q-163 -52 -307 -122t-278 -159h292q218 0 385.5 -36t262.5 -114t95 -203q0 -107 -64 -177.5t-172.5 -111t-244.5 -57t-280 -16.5z" />
    <glyph glyph-name="uni06AB" unicode="&#x6ab;" horiz-adv-x="1865" 
d="M1415 1061q0 78 55.5 133.5t133.5 55.5t133.5 -55.5t55.5 -133.5t-55.5 -133.5t-133.5 -55.5t-133.5 55.5t-55.5 133.5zM1517 1061q0 -36 25.5 -61t61.5 -25t61 25t25 61t-25 61.5t-61 25.5t-61.5 -25.5t-25.5 -61.5zM1077 260q140 0 214.5 16.5t103 47.5t28.5 75
q0 54 -65.5 128.5t-167 163t-211.5 183.5q-33 28 -49 68t-16 81q0 63 33 113t97 74l757 282v-261l-594 -220q73 -58 155 -125.5t154 -144.5t117.5 -163t45.5 -182q0 -203 -151.5 -299.5t-449.5 -96.5h-238q-242 0 -417.5 57t-270 173.5t-94.5 293.5q0 83 21.5 159.5
t50.5 145.5l226 -85q-16 -44 -29.5 -99t-13.5 -106q1 -139 122 -209t395 -70h247z" />
    <glyph glyph-name="uni06AD" unicode="&#x6ad;" horiz-adv-x="1831" 
d="M978 260q177 0 278 16t147.5 48t58.5 78.5t12 107.5v876h249v-874q0 -128 -33.5 -224t-115.5 -160t-225.5 -96t-363.5 -32h-145q-242 0 -417.5 57t-270 173.5t-94.5 293.5q0 83 21.5 159.5t50.5 145.5l226 -85q-16 -44 -29.5 -99t-13.5 -106q1 -139 122 -209t395 -70h148
zM723 633q70 1 136 6.5t108.5 19.5t42.5 41q0 40 -27.5 53.5t-68 18.5t-81 15.5t-68 41.5t-27.5 100q0 75 54.5 117.5t137 60t167.5 18.5v-124q-50 -4 -105 -12.5t-93.5 -23.5t-38.5 -37q0 -19 27 -24.5t67 -11t80 -22t67 -55t27 -111.5q0 -71 -36 -111t-95 -57.5
t-130.5 -22t-143.5 -4.5v124zM760 1609l154 153l155 -153l-155 -155zM932 1347l154 153l155 -153l-155 -155zM592 1347l154 153l155 -153l-155 -155z" />
    <glyph glyph-name="uni06AF" unicode="&#x6af;" horiz-adv-x="1865" 
d="M1796.46 1588.09l-777.895 -288.902v126.261l777.895 288.902v-126.261zM1077 260q140 0 214.5 16.5t103 47.5t28.5 75q0 54 -65.5 128.5t-167 163t-211.5 183.5q-33 28 -49 68t-16 81q0 63 33 113t97 74l757 282v-261l-594 -220q73 -58 155 -125.5t154 -144.5
t117.5 -163t45.5 -182q0 -203 -151.5 -299.5t-449.5 -96.5h-238q-242 0 -417.5 57t-270 173.5t-94.5 293.5q0 83 21.5 159.5t50.5 145.5l226 -85q-16 -44 -29.5 -99t-13.5 -106q1 -139 122 -209t395 -70h247z" />
    <glyph glyph-name="uni06B5" unicode="&#x6b5;" horiz-adv-x="1377" 
d="M523 1047l-201 338h140l136 -234l137 234h140l-202 -338h-150zM387 420q-33 -85 -55.5 -178t-22.5 -166q0 -180 86.5 -259t279.5 -79q174 0 258.5 87.5t84.5 282.5l3 1278h248l-1 -1239q0 -326 -150.5 -496.5t-443.5 -170.5q-294 0 -455 151.5t-161 444.5q0 98 28 214.5
t72 222.5z" />
    <glyph glyph-name="uni06BA" unicode="&#x6ba;" horiz-adv-x="1447" 
d="M1032 602l251 88q49 -124 77.5 -255t28.5 -255q0 -204 -87.5 -344.5t-238.5 -213t-342 -72.5q-309 0 -486 160t-177 456q0 119 30.5 242t77.5 239l228 -92q-35 -95 -59.5 -194.5t-24.5 -189.5q0 -186 95.5 -274.5t312.5 -88.5q209 0 313.5 97t105.5 305q0 99 -30.5 199.5
t-74.5 192.5z" />
    <glyph glyph-name="uni06BC" unicode="&#x6bc;" horiz-adv-x="1447" 
d="M545 -547q0 78 55.5 133.5t133.5 55.5t133.5 -55.5t55.5 -133.5t-55.5 -133.5t-133.5 -55.5t-133.5 55.5t-55.5 133.5zM647 -547q0 -36 25.5 -61t61.5 -25t61 25t25 61t-25 61.5t-61 25.5t-61.5 -25.5t-25.5 -61.5zM533 742l174 173l174 -173l-174 -174zM1032 602l251 88
q49 -124 77.5 -255t28.5 -255q0 -204 -87.5 -344.5t-238.5 -213t-342 -72.5q-309 0 -486 160t-177 456q0 119 30.5 242t77.5 239l228 -92q-35 -95 -59.5 -194.5t-24.5 -189.5q0 -186 95.5 -274.5t312.5 -88.5q209 0 313.5 97t105.5 305q0 99 -30.5 199.5t-74.5 192.5z" />
    <glyph glyph-name="uni06BE" unicode="&#x6be;" horiz-adv-x="1487" 
d="M47 260h134q40 0 71 0.5t62 3.5q-83 100 -83 242q0 105 47 182t124.5 122.5t169.5 53.5q24 1 45 -1l-23 13l92 168q133 -65 264.5 -138t240 -155t173.5 -171.5t65 -186.5q0 -126 -56 -211.5t-154 -128.5t-222 -43q-99 0 -210 21t-183 44q-86 -31 -196.5 -53t-214.5 -22
h-98zM620 323q68 31 101 80t34 100q0 136 -133 136q-68 0 -105.5 -37t-37.5 -94q0 -53 35 -103.5t106 -81.5zM939 626q19 -24 26 -48t7 -55q0 -150 -94 -264q23 -2 47.5 -3t43.5 -1q108 0 156.5 33t48.5 102q0 39 -58.5 99.5t-176.5 136.5z" />
    <glyph glyph-name="uni06C1" unicode="&#x6c1;" horiz-adv-x="922" 
d="M360 1018q146 -111 260 -218.5t179 -215.5t65 -220q0 -110 -52 -191t-143.5 -125t-207.5 -44q-177 0 -290 90t-113 270q0 119 54.5 211.5t154.5 207.5l-49 43zM448 618q-77 -73 -110 -136.5t-33 -112.5q0 -50 31 -79.5t124 -29.5q96 0 126.5 26t30.5 84q0 42 -39.5 107
t-129.5 141z" />
    </font>
</defs>
</svg>
